<svg width="36" height="44" viewBox="0 0 36 44" fill="none" xmlns="http://www.w3.org/2000/svg">
<path fill-rule="evenodd" clip-rule="evenodd" d="M1.643 8.27281V30.0653C1.643 31.5527 3.26871 33.1439 5.2576 33.1439H30.2139C32.2028 33.1439 33.8285 31.5527 33.8285 30.0653V8.27281C33.8285 4.26024 29.8507 0.230347 25.7 0.230347H9.78883C5.63809 0.230347 1.66029 4.26024 1.66029 8.27281M6.17423 9.18948H15.9458V18.5983H6.17423V9.18948ZM19.5431 9.18948H29.3146V18.5983H19.5431V9.18948ZM8.42254 28.353C7.86911 28.353 7.19462 28.0071 6.86602 27.7304C5.46514 26.5889 6.2607 23.8216 8.14583 23.8216H8.68197C10.3769 23.8216 11.5702 26.5024 9.75424 27.8687C9.61588 27.9725 9.52941 28.0244 9.35646 28.1109C9.14892 28.2146 8.66467 28.353 8.42254 28.353ZM0.0172935 43.9882H4.44475C4.51393 43.7288 5.22302 42.8986 5.46514 42.57C5.67268 42.3106 6.46824 41.3247 6.52012 41.0998H28.9341C29.0033 41.3766 29.2281 41.5668 29.4184 41.7917C29.6259 42.0511 29.7643 42.2414 29.9545 42.5181C30.1621 42.7948 30.3004 42.9505 30.5079 43.2272C30.6809 43.452 30.9403 43.7288 31.0095 43.9882H35.4369L33.4135 41.3074C33.033 40.8404 32.7563 40.4599 32.3931 39.9756C32.0126 39.4741 31.7013 39.0936 31.3381 38.592C30.9922 38.125 30.6809 37.7445 30.3177 37.2602C29.1762 35.7382 29.3319 35.6517 28.3807 35.669C27.9829 35.669 27.6024 35.669 27.2046 35.669H24.7661C25.1985 36.4819 25.9594 37.1219 26.3918 37.9348H9.02786C9.46023 37.1219 10.2212 36.4819 10.6536 35.669H7.12544C6.00128 35.669 6.38177 35.6344 5.65539 36.5511L1.03769 42.6046C0.657201 43.1061 0.3286 43.4867 0 44.0055L0.0172935 43.9882ZM24.7834 26.0873C24.7834 24.8593 25.7865 23.8216 26.7723 23.8216H27.3084C29.4011 23.8216 30.1966 27.1942 27.931 28.1455C26.4091 28.7854 24.7834 27.5747 24.7834 26.07V26.0873Z" fill="white"/>
</svg>
