<svg width="54" height="24" viewBox="0 0 54 24" fill="none" xmlns="http://www.w3.org/2000/svg">
<path fill-rule="evenodd" clip-rule="evenodd" d="M42.4932 4.29482C42.4932 3.34356 43.9633 3.1879 43.9633 4.39859C43.9633 5.1423 42.4932 5.28067 42.4932 4.29482ZM39.2591 5.74765C39.2591 4.41589 40.7291 4.84828 40.7291 5.54011C40.7291 6.69891 39.2591 6.45677 39.2591 5.74765ZM35.3851 7.21778C35.3851 6.40489 36.8551 6.04168 36.8551 7.21778C36.8551 8.39388 35.3851 8.03068 35.3851 7.21778ZM32.8773 8.89546C31.5456 8.89546 31.978 7.42532 32.6698 7.42532C33.8285 7.42532 33.5864 8.89546 32.8773 8.89546ZM29.3146 9.72564C28.6228 9.72564 28.5883 9.39703 28.5883 8.89546C28.5883 8.16904 30.0583 8.06526 30.0583 8.99923C30.0583 9.4835 29.8162 9.72564 29.3319 9.72564H29.3146ZM25.2331 10.3656C25.0601 9.63915 24.9563 9.103 25.9594 9.103C26.8415 9.103 26.8415 11.1266 25.2331 10.3656ZM21.5666 10.4693C21.5666 9.65644 23.0366 9.34512 23.0366 10.4693C23.0366 11.5936 21.5666 11.3341 21.5666 10.4693ZM18.8513 11.8184C17.4504 11.8184 18.2806 9.65645 19.3183 10.5039C19.8544 10.9363 19.4739 11.8184 18.8513 11.8184ZM53.5965 3.98349V4.38131C53.4754 5.38445 52.4031 6.16273 51.4173 6.81996C50.4661 7.4599 49.4976 7.90959 48.4253 8.44576C46.5056 9.41431 43.6693 10.2791 41.6458 10.8672C39.2418 11.5763 36.8033 12.0951 34.1744 12.5967C33.6902 12.6832 33.6902 12.7005 33.3616 12.9426C32.6698 13.4615 29.1936 16.2115 28.7958 16.3325C28.9168 16.7649 28.9341 16.5574 29.1763 16.9033C30.1102 18.3215 28.0694 19.3766 26.8069 19.3766C24.6104 19.3766 25.7519 18.6156 24.1781 19.7744C23.5382 20.2414 22.9501 20.6392 22.2757 21.1061C18.5054 23.7178 19.128 23.5621 16.0322 23.5621C13.2651 23.5621 14.4238 22.386 15.0291 21.625C15.2194 21.3829 15.3405 21.2964 15.5307 21.0715L18.9897 17.3184C19.3874 16.9206 19.5777 16.6093 19.9754 16.2115C20.4943 15.7099 21.653 14.6549 21.9816 14.1533L16.9662 14.3608C16.4127 14.3608 15.842 14.3608 15.2886 14.3608C13.2132 14.3608 13.5245 13.9285 11.968 14.7068C11.4837 14.9489 11.0859 15.0873 10.6017 15.3294C10.152 15.5543 9.80614 15.7272 9.33918 15.9521L6.71037 17.18C6.13965 17.4049 4.635 18.2178 3.9778 18.2178C3.11306 18.2178 1.55653 18.2351 1.05498 17.4914C1.21063 16.8514 1.76407 16.4709 2.14456 15.9693L4.79065 13.3923C5.20573 13.0291 5.93212 12.5967 6.07048 12.0606C5.49975 11.9049 4.341 10.6596 3.96051 10.1926C2.52505 8.41118 0 4.70992 0 2.32313V2.15016C0 1.51022 0.0346022 1.25079 0.553445 1.09513C0.968519 0.974057 1.29711 0.974054 1.76407 0.956759C3.68379 0.835689 5.56892 0.922174 6.79685 2.53066C7.02168 2.80739 7.21193 2.98035 7.41946 3.25708C9.06247 5.36714 11.1378 7.33884 14.1125 7.33884C15.842 7.33884 18.7994 6.7508 20.5635 6.353C24.0224 5.592 26.9452 4.7791 30.3004 3.94892C33.8458 3.06684 43.2715 0.230347 46.1424 0.230347C48.2178 0.230347 48.6156 0.593551 50.224 0.956759C49.8435 1.28537 47.7681 1.83884 47.1974 2.01179C46.4537 2.25393 45.8138 4.05269 49.5668 3.2225C51.3135 2.842 51.1233 2.66903 52.2129 2.09827C52.6798 2.40959 52.7836 2.47878 53.1295 2.96305C53.3889 3.32626 53.5273 3.67218 53.5792 4.0008L53.5965 3.98349ZM14.5622 11.6109C14.5622 10.798 16.0322 10.4348 16.0322 11.6109C16.0322 12.787 14.5622 12.4237 14.5622 11.6109Z" fill="white"/>
</svg>
