<svg width="43" height="46" viewBox="0 0 43 46" fill="none" xmlns="http://www.w3.org/2000/svg">
<path d="M9.66777 0.247633H32.6006C32.6006 0.247633 32.6525 0.334116 32.6871 0.334116C33.794 0.455185 34.7625 0.887587 35.6272 1.56211C37.3567 2.91117 38.1695 4.7099 38.1695 6.87185C38.1695 11.4898 38.1695 16.1077 38.1695 20.7256C38.1695 21.7115 38.1695 22.7146 38.1695 23.7005C38.1695 23.9945 38.256 24.0637 38.5327 24.0637C39.138 24.0464 39.7433 24.0464 40.3487 24.0637C40.6254 24.0637 40.6946 23.9945 40.6946 23.7178C40.6946 22.4379 40.6946 21.1407 40.6946 19.8435C40.6946 19.5149 40.8329 19.0826 40.6254 18.8577C40.4351 18.6502 40.0028 18.7885 39.6915 18.8058C39.3975 18.8058 39.3456 18.7194 39.3629 18.4599C39.3629 14.8451 39.3629 11.2304 39.3629 7.61557C39.3629 7.33884 39.4493 7.26967 39.7088 7.26967C40.5735 7.26967 41.4209 7.28696 42.2857 7.26967C42.6489 7.26967 42.7353 7.35614 42.7353 7.71934C42.7353 11.0401 42.7353 14.3609 42.7353 17.6643C42.7353 18.0275 42.891 18.4945 42.6662 18.7366C42.4413 18.9442 41.9917 18.8058 41.6285 18.7885C41.2999 18.7712 41.248 18.875 41.248 19.1863C41.248 20.8813 41.248 22.559 41.248 24.2539C41.248 24.5307 41.1788 24.5998 40.9021 24.5998C40.1411 24.5825 39.3975 24.5998 38.6365 24.5998C38.2733 24.5998 38.1695 24.669 38.1695 25.0495C38.1695 28.8719 38.1695 32.6942 38.1695 36.5165C38.1695 39.0762 37.1318 41.0479 34.9181 42.3797C34.7106 42.5008 34.6933 42.6564 34.6933 42.8467C34.6933 43.7115 34.6933 44.559 34.6933 45.4237C34.6933 45.7005 34.6068 45.7697 34.3474 45.7697C32.7044 45.7697 31.0614 45.7697 29.4184 45.7697C29.1417 45.7697 29.0379 45.7178 29.0379 45.4064C29.0725 44.8357 29.0379 44.2476 29.0379 43.6769C29.0379 43.331 28.9687 43.2445 28.6055 43.2445C24.7661 43.2445 20.9267 43.2445 17.1045 43.2445C15.9112 43.2445 14.7351 43.2445 13.5418 43.2445C13.2478 43.2445 13.1613 43.331 13.1786 43.6077C13.1959 44.1958 13.1786 44.8011 13.1786 45.3891C13.1786 45.7178 13.0748 45.7697 12.7808 45.7697C11.1551 45.7697 9.52942 45.7697 7.88642 45.7697C7.6097 45.7697 7.50593 45.7005 7.50593 45.4064C7.52322 44.5417 7.50593 43.6596 7.50593 42.7775C7.50593 42.5873 7.50593 42.4316 7.2811 42.2933C5.15385 40.9442 4.15075 39.0071 4.16804 36.4992C4.18534 32.5904 4.16804 28.6816 4.16804 24.7728C4.16804 24.3577 4.04697 24.2539 3.64919 24.2712C3.02658 24.3058 2.40398 24.2712 1.78137 24.2712C1.45277 24.2712 1.38359 24.1674 1.40088 23.8734C1.40088 22.3168 1.40088 20.7602 1.40088 19.2036C1.40088 18.8577 1.55654 18.3907 1.3317 18.1832C1.14146 18.0102 0.691798 18.114 0.345903 18.114C0.0691869 18.114 0 18.0448 0 17.7681C0 14.1706 0 10.5731 0 6.97565C0 6.71621 0.0518922 6.61242 0.345903 6.62971C1.22794 6.64701 2.09267 6.64701 2.9747 6.62971C3.3033 6.62971 3.38978 6.7162 3.38978 7.04482C3.38978 10.3483 3.38978 13.6517 3.38978 16.9552C3.38978 17.3357 3.54543 17.82 3.3206 18.0621C3.14766 18.2351 2.6461 18.1313 2.30021 18.114C2.05808 18.114 2.0062 18.2005 2.0062 18.4253C2.0062 20.0857 2.0062 21.7461 2.0062 23.4065C2.0062 23.6832 2.10997 23.7178 2.3348 23.7178C2.80176 23.7178 3.28601 23.6832 3.75297 23.7178C4.13346 23.7524 4.20263 23.614 4.20263 23.2508C4.20263 17.7162 4.20263 12.1816 4.20263 6.62971C4.20263 3.72405 6.13964 1.19889 8.9241 0.437885C9.14893 0.368703 9.40835 0.386007 9.61589 0.230347M21.2034 6.90645C16.603 6.90645 11.9853 6.90645 7.38487 6.90645C6.98709 6.90645 6.90062 7.01022 6.90062 7.39072C6.90062 12.9599 6.90062 18.5291 6.90062 24.0983C6.90062 24.4788 7.00438 24.7901 7.19462 25.1014C7.79994 26.0873 8.66468 26.7964 9.66777 27.3499C12.2274 28.7854 15.0464 29.2697 17.9001 29.4772C20.5289 29.6848 23.1577 29.6502 25.7865 29.3216C27.7408 29.0794 29.6605 28.6816 31.4765 27.886C32.8082 27.3153 34.0361 26.5715 34.9354 25.4127C35.2121 25.0668 35.4542 24.7209 35.4542 24.2193C35.4542 18.5983 35.4542 12.9599 35.4542 7.33884C35.4542 6.97563 35.3505 6.90645 35.0046 6.90645C30.4042 6.90645 25.7865 6.90645 21.1861 6.90645H21.2034ZM21.3071 5.03852C23.6765 5.03852 26.0459 5.03852 28.4153 5.03852C28.7266 5.03852 28.8131 4.96934 28.8131 4.65802C28.7958 3.74135 28.7958 2.82469 28.8131 1.90802C28.8131 1.64859 28.7612 1.56211 28.4845 1.56211C23.7284 1.56211 18.9896 1.56211 14.2336 1.56211C13.9223 1.56211 13.8877 1.68319 13.8877 1.94262C13.8877 2.8247 13.905 3.72406 13.8877 4.60613C13.8877 4.95204 13.9742 5.03852 14.3201 5.03852C16.6549 5.03852 18.9896 5.03852 21.3244 5.03852H21.3071ZM11.3281 36.5165C12.6079 36.5165 13.8704 36.5165 15.1502 36.5165C15.3923 36.5165 15.4788 36.4646 15.4788 36.2052C15.4788 35.1848 15.4788 34.1643 15.4788 33.1439C15.4788 32.9017 15.4269 32.8152 15.1675 32.8152C12.6252 32.8152 10.0828 32.8152 7.54051 32.8152C7.29839 32.8152 7.21192 32.8671 7.21192 33.1266C7.21192 34.147 7.22922 35.1675 7.21192 36.1879C7.21192 36.4992 7.33298 36.5165 7.57511 36.5165C8.83763 36.5165 10.0829 36.5165 11.3454 36.5165H11.3281ZM31.3035 36.5165C32.5833 36.5165 33.8458 36.5165 35.1257 36.5165C35.4024 36.5165 35.4715 36.4473 35.4715 36.1706C35.4715 35.1674 35.4715 34.1643 35.4715 33.1612C35.4715 32.8844 35.4024 32.8152 35.1257 32.8152C32.6179 32.8152 30.0929 32.8152 27.5851 32.8152C27.2911 32.8152 27.2047 32.8844 27.2047 33.1785C27.2219 34.1643 27.2219 35.1675 27.2047 36.1533C27.2047 36.4473 27.2911 36.5165 27.5851 36.5165C28.8304 36.5165 30.0756 36.5165 31.3035 36.5165Z" fill="white"/>
</svg>
