<svg width="70" height="71" viewBox="0 0 70 71" fill="none" xmlns="http://www.w3.org/2000/svg">
<path d="M51.4062 37.6875H5.46875C5.17867 37.6875 4.90047 37.8027 4.69535 38.0079C4.49023 38.213 4.375 38.4912 4.375 38.7813V40.0762C4.72528 39.9467 5.0953 39.8786 5.46875 39.875H51.4062C51.7797 39.8786 52.1497 39.9467 52.5 40.0762V38.7813C52.5 38.4912 52.3848 38.213 52.1796 38.0079C51.9745 37.8027 51.6963 37.6875 51.4062 37.6875Z" fill="white"/>
<path d="M28.4375 59.5625C31.4578 59.5625 33.9062 57.1141 33.9062 54.0938C33.9062 51.0734 31.4578 48.625 28.4375 48.625C25.4172 48.625 22.9688 51.0734 22.9688 54.0938C22.9688 57.1141 25.4172 59.5625 28.4375 59.5625Z" fill="white"/>
<path d="M64.9141 5.91409C64.5132 6.43553 64.0005 6.86047 63.4137 7.15764C62.8269 7.45481 62.181 7.61666 61.5234 7.63127C60.819 7.59754 60.1338 7.39016 59.5289 7.02759C58.924 6.66502 58.4181 6.15851 58.0563 5.55315C57.4219 4.73284 57.05 4.30627 56.3172 4.30627C55.5844 4.30627 55.2125 4.73284 54.5781 5.55315C54.2438 6.18158 53.7446 6.70706 53.1341 7.07312C52.5236 7.43919 51.8249 7.63202 51.1131 7.6309C50.4013 7.62977 49.7032 7.43474 49.0939 7.06674C48.4846 6.69875 47.987 6.1717 47.6547 5.54221C47.0203 4.73284 46.6594 4.30627 45.9266 4.30627C45.1938 4.30627 44.8328 4.73284 44.1984 5.54221C43.8387 6.15033 43.3336 6.65958 42.7284 7.02421C42.1233 7.38884 41.437 7.59744 40.7313 7.63127C40.0286 7.59606 39.3455 7.38797 38.7426 7.02546C38.1397 6.66294 37.6356 6.15722 37.275 5.55315C36.6406 4.73284 36.2797 4.30627 35.5469 4.30627C34.8141 4.30627 34.4422 4.73284 33.8078 5.55315C33.4472 6.15722 32.9431 6.66294 32.3402 7.02546C31.7373 7.38797 31.0542 7.59606 30.3516 7.63127C29.6912 7.61715 29.0425 7.45446 28.4536 7.15529C27.8647 6.85611 27.3508 6.42814 26.95 5.90315C26.734 5.66323 26.5 5.44018 26.25 5.23596V35.5H51.4062C52.2757 35.5026 53.1088 35.8492 53.7236 36.4639C54.3384 37.0787 54.6849 37.9118 54.6875 38.7813V61.75H65.625V5.23596C65.3662 5.43799 65.1281 5.66514 64.9141 5.91409ZM52.5 32.2188H30.625V30.0313H52.5V32.2188ZM52.5 27.8438H30.625V25.6563H52.5V27.8438ZM52.5 23.4688H30.625V21.2813H52.5V23.4688ZM61.25 32.2188H54.6875V30.0313H61.25V32.2188ZM61.25 27.8438H54.6875V25.6563H61.25V27.8438ZM61.25 23.4688H54.6875V21.2813H61.25V23.4688ZM61.25 16.9063H50.3125V14.7188H61.25V16.9063ZM61.25 12.5313H50.3125V10.3438H61.25V12.5313Z" fill="white"/>
<path d="M51.4062 42.0625H5.46875C5.17867 42.0625 4.90047 42.1777 4.69535 42.3829C4.49023 42.588 4.375 42.8662 4.375 43.1562V65.0312C4.375 65.3213 4.49023 65.5995 4.69535 65.8046C4.90047 66.0098 5.17867 66.125 5.46875 66.125H51.4062C51.6963 66.125 51.9745 66.0098 52.1796 65.8046C52.3848 65.5995 52.5 65.3213 52.5 65.0312V43.1562C52.5 42.8662 52.3848 42.588 52.1796 42.3829C51.9745 42.1777 51.6963 42.0625 51.4062 42.0625ZM13.125 62.8438H8.75C8.45992 62.8438 8.18172 62.7285 7.9766 62.5234C7.77148 62.3183 7.65625 62.0401 7.65625 61.75V57.375H9.84375V60.6562H13.125V62.8438ZM13.125 47.5312H9.84375V50.8125H7.65625V46.4375C7.65625 46.1474 7.77148 45.8692 7.9766 45.6641C8.18172 45.459 8.45992 45.3438 8.75 45.3438H13.125V47.5312ZM17.5 55.1875H15.3125V53H17.5V55.1875ZM28.4375 61.75C26.9232 61.75 25.443 61.301 24.1839 60.4597C22.9249 59.6184 21.9435 58.4227 21.364 57.0237C20.7846 55.6247 20.6329 54.0853 20.9284 52.6001C21.2238 51.1149 21.953 49.7507 23.0237 48.68C24.0945 47.6092 25.4587 46.88 26.9438 46.5846C28.429 46.2892 29.9684 46.4408 31.3674 47.0203C32.7664 47.5998 33.9622 48.5811 34.8034 49.8402C35.6447 51.0992 36.0938 52.5795 36.0938 54.0938C36.0914 56.1236 35.2841 58.0697 33.8487 59.505C32.4134 60.9403 30.4674 61.7477 28.4375 61.75ZM41.5625 55.1875H39.375V53H41.5625V55.1875ZM49.2188 61.75C49.2188 62.0401 49.1035 62.3183 48.8984 62.5234C48.6933 62.7285 48.4151 62.8438 48.125 62.8438H43.75V60.6562H47.0312V57.375H49.2188V61.75ZM49.2188 50.8125H47.0312V47.5312H43.75V45.3438H48.125C48.4151 45.3438 48.6933 45.459 48.8984 45.6641C49.1035 45.8692 49.2188 46.1474 49.2188 46.4375V50.8125Z" fill="white"/>
</svg>
