<svg width="70" height="70" viewBox="0 0 70 70" fill="none" xmlns="http://www.w3.org/2000/svg">
<path d="M33.5203 6.15234L35.5712 0H23.4883L25.5392 6.15234H33.5203Z" fill="white"/>
<path d="M58.9258 18.5938H54.8242V15.1758C54.8242 14.0432 53.906 13.125 52.7734 13.125H48.6719C47.5393 13.125 46.6211 14.0432 46.6211 15.1758V18.5938H42.5195C41.0093 18.5938 39.7852 19.8179 39.7852 21.3281V48.6719C39.7852 50.1821 41.0093 51.4062 42.5195 51.4062H58.9258C60.436 51.4062 61.6602 50.1821 61.6602 48.6719V21.3281C61.6602 19.8179 60.436 18.5938 58.9258 18.5938ZM55.4025 35.6485L52.6682 43.8516C52.31 44.9261 51.1485 45.5067 50.0741 45.1486C48.9996 44.7906 48.4188 43.629 48.777 42.5545L50.6116 37.0508H47.9883C46.5886 37.0508 45.6001 35.6794 46.0428 34.3515L48.7771 26.1484C49.1354 25.0739 50.2968 24.4933 51.3712 24.8514C52.4457 25.2094 53.0265 26.371 52.6683 27.4455L50.8337 32.9492H53.457C54.8568 32.9492 55.8452 34.3206 55.4025 35.6485Z" fill="white"/>
<path d="M42.5195 55.5078C38.7502 55.5078 35.6836 52.4412 35.6836 48.6719V21.3281C35.6836 17.5588 38.7502 14.4922 42.5195 14.4922H42.5573C42.8985 11.4204 45.5105 9.02344 48.6719 9.02344H50.7227V6.15234C50.7227 2.75994 47.9627 0 44.5703 0H39.896L36.9455 8.85158C36.6663 9.68912 35.8828 10.2539 35 10.2539H24.0625C23.1797 10.2539 22.3962 9.68912 22.117 8.85158L19.1665 0H14.4922C11.0998 0 8.33984 2.75994 8.33984 6.15234V63.8477C8.33984 67.2401 11.0998 70 14.4922 70H44.5703C47.9627 70 50.7227 67.2401 50.7227 63.8477V55.5078H42.5195ZM33.6328 63.8477H25.4297C24.2971 63.8477 23.3789 62.9295 23.3789 61.7969C23.3789 60.6643 24.2971 59.7461 25.4297 59.7461H33.6328C34.7654 59.7461 35.6836 60.6643 35.6836 61.7969C35.6836 62.9295 34.7654 63.8477 33.6328 63.8477Z" fill="white"/>
</svg>
