<svg width="70" height="71" viewBox="0 0 70 71" fill="none" xmlns="http://www.w3.org/2000/svg">
<g clip-path="url(#clip0_2169_23002)">
<path d="M63.3518 39.287H53.6358H53.4398H18.0968H17.8938H5.65078C5.09383 39.287 4.55968 39.5082 4.16586 39.9021C3.77203 40.2959 3.55078 40.83 3.55078 41.387V68.085C3.55078 68.6419 3.77203 69.1761 4.16586 69.5699C4.55968 69.9637 5.09383 70.185 5.65078 70.185H63.3518C63.9087 70.185 64.4429 69.9637 64.8367 69.5699C65.2305 69.1761 65.4518 68.6419 65.4518 68.085V41.373C65.4481 40.8185 65.2252 40.2879 64.8318 39.8971C64.4384 39.5063 63.9063 39.287 63.3518 39.287ZM60.8528 58.6C60.8533 58.7488 60.8239 58.8961 60.7661 59.0332C60.7084 59.1704 60.6236 59.2944 60.5168 59.398C60.301 59.6023 60.0159 59.7173 59.7188 59.72H59.5858C58.5778 59.716 57.5918 60.0139 56.7546 60.5753C55.9175 61.1367 55.2676 61.9359 54.8888 62.87C54.5768 63.6815 54.0298 64.3814 53.3178 64.8802C52.6057 65.3791 51.761 65.654 50.8918 65.67H18.3068C17.4378 65.6564 16.5929 65.3823 15.8816 64.8831C15.1702 64.3838 14.6251 63.6825 14.3168 62.87C13.937 61.9346 13.2861 61.1342 12.4479 60.5716C11.6096 60.0091 10.6223 59.71 9.61278 59.713H9.33278C9.18023 59.7216 9.02754 59.6987 8.88423 59.6457C8.74092 59.5927 8.61005 59.5108 8.49978 59.405C8.38765 59.3029 8.298 59.1787 8.23654 59.0401C8.17507 58.9015 8.14314 58.7516 8.14278 58.6V51.362C8.14386 51.2095 8.17608 51.0588 8.23747 50.9191C8.29886 50.7795 8.38812 50.6539 8.49978 50.55C8.61099 50.4456 8.74201 50.3645 8.88508 50.3116C9.02816 50.2587 9.1804 50.235 9.33278 50.242H9.61278C10.9563 50.2457 12.2466 49.7165 13.2005 48.7704C14.1545 47.8243 14.6944 46.5385 14.7018 45.195V44.999C14.6962 44.8493 14.7212 44.7001 14.7754 44.5605C14.8296 44.4208 14.9117 44.2937 15.0168 44.187C15.1217 44.08 15.247 43.9951 15.3852 43.9374C15.5235 43.8797 15.6719 43.8503 15.8218 43.851H53.3908C53.5415 43.8487 53.691 43.8781 53.8296 43.9371C53.9683 43.9962 54.093 44.0837 54.1958 44.194C54.2995 44.3017 54.3808 44.4289 54.4349 44.5683C54.489 44.7077 54.5148 44.8565 54.5108 45.006V45.132C54.5052 45.8017 54.6321 46.4659 54.8842 47.0864C55.1362 47.707 55.5084 48.2715 55.9794 48.7477C56.4504 49.2239 57.0108 49.6023 57.6285 49.8611C58.2463 50.12 58.909 50.2542 59.5788 50.256H59.7258C59.8741 50.2493 60.0221 50.2747 60.1598 50.3302C60.2975 50.3858 60.4216 50.4703 60.5238 50.578C60.6306 50.6816 60.7154 50.8056 60.7731 50.9427C60.8308 51.0799 60.8603 51.2272 60.8598 51.376L60.8528 58.6Z" fill="white"/>
<path d="M52.3198 46.084H16.8858C16.679 47.7242 15.9242 49.2464 14.7438 50.4039C13.5635 51.5614 12.0267 52.2863 10.3828 52.461V57.487C11.6976 57.6236 12.9504 58.1153 14.0072 58.9094C15.0639 59.7035 15.8848 60.7701 16.3818 61.995C16.5233 62.3957 16.7831 62.7441 17.1268 62.9941C17.4705 63.244 17.882 63.3838 18.3068 63.395H50.8918C51.3154 63.3824 51.7254 63.242 52.0677 62.9921C52.41 62.7422 52.6687 62.3946 52.8098 61.995C53.2968 60.8019 54.0908 59.759 55.1112 58.9722C56.1317 58.1853 57.3422 57.6826 58.6198 57.515V52.44C57.0142 52.2274 55.5246 51.4881 54.3844 50.3378C53.2443 49.1875 52.5181 47.6914 52.3198 46.084ZM35.4218 60.364C34.2572 60.3654 33.1183 60.0213 32.1493 59.3752C31.1802 58.7292 30.4246 57.8103 29.9779 56.7347C29.5313 55.6591 29.4137 54.4752 29.6401 53.3328C29.8664 52.1904 30.4266 51.1407 31.2496 50.3167C32.0726 49.4927 33.1216 48.9313 34.2637 48.7036C35.4059 48.4759 36.5899 48.5921 37.666 49.0374C38.7422 49.4828 39.662 50.2373 40.3092 51.2056C40.9564 52.1739 41.3018 53.3123 41.3018 54.477C41.2981 56.036 40.6777 57.5301 39.5759 58.6332C38.4742 59.7362 36.9808 60.3584 35.4218 60.364Z" fill="white"/>
<path d="M39.0899 54.477C39.0927 55.2031 38.8799 55.9136 38.4785 56.5186C38.0772 57.1237 37.5053 57.596 36.8353 57.8758C36.1653 58.1555 35.4274 58.2302 34.7149 58.0902C34.0025 57.9503 33.3476 57.602 32.8332 57.0896C32.3188 56.5772 31.9681 55.9237 31.8254 55.2118C31.6827 54.4999 31.7546 53.7616 32.0318 53.0906C32.309 52.4195 32.7791 51.8458 33.3826 51.4422C33.9861 51.0385 34.6958 50.823 35.4219 50.823C35.9026 50.8221 36.3789 50.9159 36.8234 51.099C37.2679 51.2821 37.672 51.551 38.0127 51.8903C38.3533 52.2296 38.6237 52.6327 38.8085 53.0765C38.9934 53.5204 39.089 53.9962 39.0899 54.477Z" fill="white"/>
<path d="M35.7659 28.136C35.4438 28.1364 35.1257 28.0646 34.8349 27.926L19.2109 20.436V37.047H52.3209V20.436L36.6969 27.926C36.4062 28.0646 36.0881 28.1364 35.7659 28.136Z" fill="white"/>
<path d="M9.73794 26.911C9.73794 27.1969 9.85152 27.4711 10.0537 27.6733C10.2558 27.8754 10.53 27.989 10.8159 27.989C11.1018 27.989 11.376 27.8754 11.5782 27.6733C11.7804 27.4711 11.8939 27.1969 11.8939 26.911V14.934V14.444L35.7989 25.91L61.8319 13.394L35.7009 0.877991L14.2039 11.224H36.1909C36.345 11.2118 36.4999 11.2316 36.6459 11.2822C36.792 11.3327 36.9259 11.413 37.0395 11.5178C37.153 11.6227 37.2435 11.7499 37.3055 11.8915C37.3674 12.0331 37.3994 12.186 37.3994 12.3405C37.3994 12.495 37.3674 12.6479 37.3055 12.7895C37.2435 12.931 37.153 13.0583 37.0395 13.1631C36.9259 13.268 36.792 13.3482 36.6459 13.3988C36.4999 13.4494 36.345 13.4692 36.1909 13.457H9.83594H9.88494C9.8478 13.465 9.81288 13.481 9.78263 13.504C9.75239 13.527 9.72757 13.5563 9.70994 13.59C9.70606 13.6202 9.70606 13.6508 9.70994 13.681C9.71163 13.7305 9.7261 13.7787 9.75194 13.821L9.73794 26.911Z" fill="white"/>
<path d="M10.816 29.55C10.5557 29.55 10.3013 29.6272 10.0849 29.7718C9.86846 29.9164 9.69978 30.1219 9.60017 30.3624C9.50057 30.6028 9.47451 30.8674 9.52529 31.1227C9.57607 31.378 9.7014 31.6125 9.88545 31.7965C10.0695 31.9806 10.304 32.1059 10.5593 32.1567C10.8145 32.2075 11.0791 32.1814 11.3196 32.0818C11.5601 31.9822 11.7656 31.8135 11.9102 31.5971C12.0548 31.3807 12.132 31.1263 12.132 30.866C12.1302 30.5175 11.9909 30.1839 11.7445 29.9375C11.4981 29.6911 11.1645 29.5518 10.816 29.55Z" fill="white"/>
</g>
<defs>
<clipPath id="clip0_2169_23002">
<rect width="70" height="70" fill="white" transform="translate(0 0.5)"/>
</clipPath>
</defs>
</svg>
