<svg width="70" height="70" viewBox="0 0 70 70" fill="none" xmlns="http://www.w3.org/2000/svg">
<path d="M58.3858 14.5031C58.9108 14.5031 59.4358 14.3281 59.8514 13.9562L64.5983 9.71247C65.4952 8.9031 65.5827 7.52497 64.7733 6.6281C63.9639 5.73122 62.5858 5.64372 61.6889 6.4531L56.9421 10.6968C56.0452 11.5062 55.9577 12.8843 56.7671 13.7812C57.2046 14.2625 57.7952 14.5031 58.4077 14.5031H58.3858Z" fill="white"/>
<path d="M50.3138 9.49375C50.3138 9.49375 50.4669 9.49375 50.5326 9.49375C51.6482 9.49375 52.5888 8.6625 52.6982 7.525L53.0044 4.57187C53.1357 3.36875 52.2607 2.29687 51.0576 2.16562C49.8326 2.03437 48.7826 2.90937 48.6513 4.1125L48.3451 7.06562C48.2138 8.26875 49.0888 9.34062 50.2919 9.47187L50.3138 9.49375Z" fill="white"/>
<path d="M60.4847 20.5843C60.4847 21.7875 61.491 22.7281 62.6722 22.7281H62.716L65.6691 22.6843C66.8722 22.6843 67.8347 21.6562 67.8129 20.4531C67.8129 19.25 66.8066 18.3312 65.5816 18.3093L62.6285 18.3531C61.4254 18.3531 60.4629 19.3812 60.4847 20.5843Z" fill="white"/>
<path d="M65.6242 48.6282H53.9648C51.5586 48.6282 49.5898 50.5969 49.5898 53.0032V54.6438C49.5898 57.05 51.5586 59.0188 53.9648 59.0188H65.6242C66.8273 59.0188 67.8117 58.0344 67.8117 56.8313V50.8157C67.8117 49.6125 66.8273 48.6282 65.6242 48.6282Z" fill="white"/>
<path d="M55.9984 29.3782C55.9984 26.9719 54.0297 25.0032 51.6234 25.0032H39.3734C39.3734 28.8532 38.1484 32.4844 36.0703 35.4594H55.9766V29.3782H55.9984Z" fill="white"/>
<path d="M45.2156 54.6437V53.0031C45.2156 48.1687 49.1312 44.2531 53.9656 44.2531H62.8687V39.8344H31.6969C31.1281 40.2062 30.5594 40.5781 29.9469 40.8844L21.5687 45.1281C20.65 45.5875 19.6219 45.8281 18.5938 45.8281C17.5656 45.8281 16.5594 45.5875 15.6406 45.1281L8.75 41.6281V56.8531H27.8687C29.0719 56.8531 30.0562 57.8375 30.0562 59.0406C30.0562 60.2437 29.0719 61.2281 27.8687 61.2281H8.75V63.4156C8.75 65.8219 10.7188 67.7906 13.125 67.7906H60.6812C61.8844 67.7906 62.8687 66.8062 62.8687 65.6031V63.3719H53.9656C49.1312 63.3719 45.2156 59.4562 45.2156 54.6219V54.6437ZM38.8062 61.25H35.8531C34.65 61.25 33.6656 60.2656 33.6656 59.0625C33.6656 57.8594 34.65 56.875 35.8531 56.875H38.8062C40.0094 56.875 40.9937 57.8594 40.9937 59.0625C40.9937 60.2656 40.0094 61.25 38.8062 61.25Z" fill="white"/>
<path d="M17.6094 41.2343C17.9156 41.3875 18.2656 41.4749 18.5937 41.4749C18.9219 41.4749 19.2719 41.3875 19.5781 41.2343L27.9562 36.9906C32.2219 34.825 34.9781 30.1218 34.9781 25.025V9.27495C34.9781 8.07183 33.9937 7.08745 32.7906 7.08745C26.3812 7.08745 19.6219 3.76245 19.5562 3.7187C18.9437 3.41245 18.2219 3.41245 17.6094 3.7187C17.5437 3.76245 10.8062 7.08745 4.375 7.08745C3.17187 7.08745 2.1875 8.07183 2.1875 9.27495V25.025C2.1875 30.1218 4.94375 34.825 9.23125 36.9906L17.6094 41.2343ZM9.38437 18.9437C10.2375 18.0906 11.6156 18.0906 12.4687 18.9437L17.1281 23.6031L24.7844 16.7343C25.6812 15.925 27.0594 15.9906 27.8687 16.9093C28.6781 17.8062 28.6125 19.1843 27.6937 19.9937L18.5062 28.2625C18.0906 28.6343 17.5656 28.8312 17.0406 28.8312C16.4719 28.8312 15.925 28.6125 15.4875 28.1968L9.3625 22.0718C8.50937 21.2187 8.50937 19.8406 9.3625 18.9875L9.38437 18.9437Z" fill="white"/>
</svg>
