<svg width="70" height="71" viewBox="0 0 70 71" fill="none" xmlns="http://www.w3.org/2000/svg">
<path d="M52.5 39.875C49.9041 39.875 47.3665 40.6448 45.2081 42.087C43.0498 43.5292 41.3675 45.579 40.3741 47.9773C39.3807 50.3756 39.1208 53.0146 39.6272 55.5606C40.1336 58.1066 41.3837 60.4452 43.2192 62.2808C45.0548 64.1163 47.3934 65.3664 49.9394 65.8728C52.4854 66.3792 55.1244 66.1193 57.5227 65.1259C59.921 64.1325 61.9708 62.4503 63.413 60.2919C64.8552 58.1335 65.625 55.5959 65.625 53C65.625 49.519 64.2422 46.1806 61.7808 43.7192C59.3194 41.2578 55.981 39.875 52.5 39.875ZM48.125 46.4375C48.5577 46.4375 48.9806 46.5658 49.3403 46.8062C49.7001 47.0465 49.9804 47.3882 50.146 47.7879C50.3116 48.1876 50.3549 48.6274 50.2705 49.0518C50.1861 49.4761 49.9777 49.8659 49.6718 50.1718C49.3659 50.4777 48.9761 50.6861 48.5518 50.7705C48.1274 50.8549 47.6876 50.8116 47.2879 50.646C46.8882 50.4804 46.5465 50.2 46.3062 49.8403C46.0658 49.4806 45.9375 49.0576 45.9375 48.625C45.9375 48.0448 46.168 47.4884 46.5782 47.0782C46.9884 46.668 47.5448 46.4375 48.125 46.4375ZM49.6563 58.9281C49.4529 59.1332 49.211 59.2959 48.9444 59.407C48.6778 59.518 48.3919 59.5752 48.1031 59.5752C47.8144 59.5752 47.5284 59.518 47.2619 59.407C46.9953 59.2959 46.7534 59.1332 46.55 58.9281C46.345 58.7248 46.1822 58.4828 46.0712 58.2163C45.9601 57.9497 45.9029 57.6638 45.9029 57.375C45.9029 57.0862 45.9601 56.8003 46.0712 56.5337C46.1822 56.2672 46.345 56.0252 46.55 55.8219L55.3 47.0719C55.7119 46.66 56.2706 46.4286 56.8531 46.4286C57.4357 46.4286 57.9943 46.66 58.4063 47.0719C58.8182 47.4838 59.0496 48.0425 59.0496 48.625C59.0496 49.2075 58.8182 49.7662 58.4063 50.1781L49.6563 58.9281ZM56.875 59.5625C56.2948 59.5625 55.7384 59.332 55.3282 58.9218C54.918 58.5116 54.6875 57.9552 54.6875 57.375C54.6875 56.7948 54.918 56.2384 55.3282 55.8282C55.7384 55.418 56.2948 55.1875 56.875 55.1875C57.4552 55.1875 58.0116 55.418 58.4218 55.8282C58.832 56.2384 59.0625 56.7948 59.0625 57.375C59.0625 57.9552 58.832 58.5116 58.4218 58.9218C58.0116 59.332 57.4552 59.5625 56.875 59.5625Z" fill="white"/>
<path d="M6.5625 4.875C5.98234 4.875 5.42594 5.10547 5.0157 5.5157C4.60547 5.92594 4.375 6.48234 4.375 7.0625V44.25H8.75V7.0625C8.75 6.48234 8.51953 5.92594 8.1093 5.5157C7.69906 5.10547 7.14266 4.875 6.5625 4.875Z" fill="white"/>
<path d="M24.0617 42.0625H38.8492C40.4876 40.0161 42.5649 38.364 44.9275 37.2281C47.2901 36.0922 49.8777 35.5016 52.4992 35.5V11.4375C52.4992 9.69702 51.8078 8.02782 50.5771 6.79711C49.3464 5.5664 47.6772 4.875 45.9367 4.875H12.7305C12.9851 5.57647 13.1183 6.31625 13.1242 7.0625V55.1875C13.1253 55.5604 13.2218 55.9268 13.4044 56.2519C13.5869 56.5771 13.8496 56.8501 14.1674 57.0452C14.4852 57.2403 14.8476 57.3509 15.2202 57.3665C15.5927 57.3821 15.9631 57.3022 16.2961 57.1344L19.6867 55.45L23.0773 57.1344C23.3827 57.2882 23.7198 57.3684 24.0617 57.3684C24.4036 57.3684 24.7408 57.2882 25.0461 57.1344L28.4367 55.45L31.8273 57.1344C32.1327 57.2882 32.4698 57.3684 32.8117 57.3684C33.1536 57.3684 33.4908 57.2882 33.7961 57.1344L35.3273 56.3688C35.1067 55.2595 34.9968 54.131 34.9992 53C34.998 50.7493 35.4364 48.5201 36.2898 46.4375H24.0617C23.4816 46.4375 22.9252 46.207 22.5149 45.7968C22.1047 45.3866 21.8742 44.8302 21.8742 44.25C21.8742 43.6698 22.1047 43.1134 22.5149 42.7032C22.9252 42.293 23.4816 42.0625 24.0617 42.0625ZM30.6242 28.9375C29.4639 28.9375 28.3511 28.4766 27.5306 27.6561C26.7102 26.8356 26.2492 25.7228 26.2492 24.5625V22.375C26.2492 21.2147 26.7102 20.1019 27.5306 19.2814C28.3511 18.4609 29.4639 18 30.6242 18C30.6242 17.4198 30.8547 16.8634 31.2649 16.4532C31.6752 16.043 32.2316 15.8125 32.8117 15.8125C33.3919 15.8125 33.9483 16.043 34.3585 16.4532C34.7688 16.8634 34.9992 17.4198 34.9992 18H37.1867C37.7669 18 38.3233 18.2305 38.7335 18.6407C39.1438 19.0509 39.3742 19.6073 39.3742 20.1875C39.3742 20.7677 39.1438 21.3241 38.7335 21.7343C38.3233 22.1445 37.7669 22.375 37.1867 22.375H30.6242V24.5625H34.9992C36.1595 24.5625 37.2723 25.0234 38.0928 25.8439C38.9133 26.6644 39.3742 27.7772 39.3742 28.9375V31.125C39.3742 32.2853 38.9133 33.3981 38.0928 34.2186C37.2723 35.0391 36.1595 35.5 34.9992 35.5C34.9992 36.0802 34.7688 36.6366 34.3585 37.0468C33.9483 37.457 33.3919 37.6875 32.8117 37.6875C32.2316 37.6875 31.6752 37.457 31.2649 37.0468C30.8547 36.6366 30.6242 36.0802 30.6242 35.5H28.4367C27.8566 35.5 27.3002 35.2695 26.8899 34.8593C26.4797 34.4491 26.2492 33.8927 26.2492 33.3125C26.2492 32.7323 26.4797 32.1759 26.8899 31.7657C27.3002 31.3555 27.8566 31.125 28.4367 31.125H34.9992V28.9375H30.6242Z" fill="white"/>
</svg>
