<svg width="40" height="40" viewBox="0 0 40 40" fill="none" xmlns="http://www.w3.org/2000/svg">
<mask id="mask0_2846_6532" style="mask-type:alpha" maskUnits="userSpaceOnUse" x="0" y="0" width="40" height="40">
<g clip-path="url(#clip0_2846_6532)">
<path d="M20 39.999C23.9001 39.999 27.1545 39.8516 29.7893 39.6481C35.1869 39.2311 39.2321 35.186 39.6491 29.7884C39.8526 27.1537 40 23.8994 40 19.9995C40 16.0996 39.8526 12.8454 39.6491 10.2106C39.2321 4.81304 35.1869 0.767852 29.7893 0.350911C27.1545 0.147382 23.9001 1.70473e-07 20 0C15.9184 -1.78404e-07 12.544 0.161416 9.84689 0.379678C4.64501 0.800631 0.754956 4.64006 0.353173 9.84345C0.148476 12.4944 1.8146e-07 15.8481 0 19.9995C-1.8147e-07 24.1509 0.148475 27.5046 0.353172 30.1555C0.754954 35.3589 4.64501 39.1984 9.84688 39.6193C12.544 39.8376 15.9184 39.999 20 39.999Z" fill="black"/>
</g>
</mask>
<g mask="url(#mask0_2846_6532)">
<rect width="40" height="40" fill="#F8F8FC"/>
<path fill-rule="evenodd" clip-rule="evenodd" d="M8 12.7308V12.8231C8.16599 12.8692 10.536 14.3908 10.7112 14.5014C10.9233 14.649 11.1447 14.7689 11.3752 14.9164L12.7216 15.7648C12.86 15.8571 13.2842 16.1522 13.4225 16.189C13.5239 16.1153 13.5885 15.9677 13.6715 15.8294C13.9389 15.4236 14.3631 14.898 14.7135 14.5752C15.2761 14.0588 15.1009 14.1602 15.8571 13.6622C17.2311 12.7493 18.4577 12.445 20.2928 12.445C21.6484 12.445 22.8749 12.9614 23.7695 13.4594C24.1568 13.6715 24.747 14.1141 25.0513 14.4184C25.162 14.5291 25.2542 14.5844 25.3464 14.6859L26.1395 15.5712C26.1395 13.8928 26.0104 12.9706 24.9775 11.6888C24.2121 10.7389 22.7827 10.0565 21.5101 10.0565H15.5712V8C14.9164 8.35043 12.7124 9.79827 11.8087 10.3608L8.97755 12.1591C8.78389 12.279 8.166 12.6939 8.00923 12.7308" fill="#F15744"/>
<path fill-rule="evenodd" clip-rule="evenodd" d="M17.7663 17.1943V17.7015C17.7663 18.1257 18.209 17.8582 18.9744 17.9597C19.2234 17.9966 19.3248 18.0058 19.5462 18.1164C19.7583 18.2179 19.8136 18.3009 19.9243 18.4761H18.1167C17.711 18.4761 17.7571 18.5038 17.7571 19.0663C17.7571 19.3337 17.8862 19.2968 18.1444 19.2968H19.9888C19.9888 19.3798 19.9058 19.5182 19.8689 19.5735C19.8228 19.6473 19.7306 19.7395 19.666 19.7856C19.1865 20.1453 18.5502 20.0991 17.9508 20.1084C17.877 20.1084 17.8401 20.1176 17.8032 20.1637C17.7202 20.2559 17.7479 20.6248 17.7479 20.8092C17.7479 20.9568 17.7756 20.9752 17.8493 21.049C17.8862 21.0859 17.8954 21.1043 17.9323 21.1412C17.96 21.1689 17.9877 21.1966 18.0153 21.2242L18.8729 22.1833C18.8729 22.1833 18.9006 22.211 18.9191 22.2294C18.9375 22.2571 18.9375 22.2571 18.9559 22.2847L19.9611 23.4651C20.0165 23.5297 20.0626 23.585 20.1179 23.6496C20.1917 23.7326 20.2286 23.8156 20.3116 23.8156H21.2983C21.3998 23.8156 21.4366 23.7234 21.4366 23.6311C21.4366 23.5942 21.3352 23.4836 21.3075 23.4559C21.2614 23.3914 21.2153 23.3453 21.1692 23.2899C20.8741 22.9211 20.4776 22.4507 20.1917 22.1187C19.9888 21.8974 19.7583 21.6023 19.5462 21.381C19.5093 21.3441 19.5093 21.3257 19.4724 21.298L19.1773 20.966C19.3894 20.966 19.749 20.8553 19.915 20.7908C20.496 20.5602 20.828 20.2098 21.0493 19.6565C21.0954 19.5458 21.1139 19.4259 21.1415 19.2968H21.741C22.156 19.2968 22.1191 19.3245 22.1191 18.7251C22.1191 18.5406 22.0637 18.4853 21.8793 18.4853H21.1139C21.1139 18.2732 20.9294 17.9689 20.8188 17.8029H21.9162C22.0361 17.8029 22.1006 17.7383 22.1006 17.6185V17.1943C22.1006 17.0836 22.0545 16.9914 21.9531 16.9914H17.877C17.7756 16.9914 17.7294 17.102 17.7294 17.2035M19.6292 26.0934C20.8372 26.0934 21.6211 26.0104 22.7 25.4755C24.3784 24.6363 25.5957 23.0409 25.983 21.1873C26.4072 19.1493 25.7248 17.019 24.2678 15.5712C23.1888 14.4922 21.5381 13.8098 19.9519 13.8098C18.4949 13.8098 17.1208 14.3447 16.0695 15.2023C14.8799 16.1706 14.096 17.5355 13.8747 19.0755C13.515 21.5562 14.6217 23.8063 16.715 25.1804C17.462 25.6692 18.624 26.0934 19.6292 26.0934Z" fill="#F15744"/>
<path fill-rule="evenodd" clip-rule="evenodd" d="M19.9614 27.4948C19.2882 27.4948 18.486 27.3657 17.9603 27.209C17.6468 27.1167 17.3885 27.043 17.0842 26.9139C16.2542 26.5634 15.6364 26.1577 14.9263 25.5675C14.4006 25.1248 13.9488 24.4055 13.792 24.3686C13.792 26.4067 14.0595 27.4211 15.4888 28.749C16.4203 29.6251 17.7851 29.8833 19.1223 29.8833H24.3603V31.8937C24.5171 31.8568 29.4324 28.7582 30.0594 28.3433C30.373 28.1404 30.6773 27.9559 31.0001 27.7438C31.1661 27.6424 31.3044 27.5594 31.4612 27.4579C31.6087 27.3565 31.83 27.2643 31.9315 27.1352C30.8064 26.379 29.0635 25.3369 27.8554 24.5715C27.6156 24.4239 26.6473 23.7692 26.4629 23.7231C26.3891 24.0366 25.6145 24.968 25.3747 25.2078C24.9413 25.6412 24.4986 26.0286 23.9545 26.3605C23.4105 26.6833 22.8664 26.9692 22.1932 27.1628C21.5384 27.3473 20.7822 27.5133 19.9707 27.5133" fill="#F15744"/>
</g>
<defs>
<clipPath id="clip0_2846_6532">
<rect width="40" height="40" fill="white"/>
</clipPath>
</defs>
</svg>
