<svg width="40" height="40" viewBox="0 0 40 40" fill="none" xmlns="http://www.w3.org/2000/svg">
<mask id="mask0_2846_6560" style="mask-type:alpha" maskUnits="userSpaceOnUse" x="0" y="0" width="40" height="40">
<g clip-path="url(#clip0_2846_6560)">
<path d="M20 39.999C23.9001 39.999 27.1545 39.8516 29.7893 39.6481C35.1869 39.2311 39.2321 35.186 39.6491 29.7884C39.8526 27.1537 40 23.8994 40 19.9995C40 16.0996 39.8526 12.8454 39.6491 10.2106C39.2321 4.81304 35.1869 0.767852 29.7893 0.350911C27.1545 0.147382 23.9001 1.70473e-07 20 0C15.9184 -1.78404e-07 12.544 0.161416 9.84689 0.379678C4.64501 0.800631 0.754956 4.64006 0.353173 9.84345C0.148476 12.4944 1.8146e-07 15.8481 0 19.9995C-1.8147e-07 24.1509 0.148475 27.5046 0.353172 30.1555C0.754954 35.3589 4.64501 39.1984 9.84688 39.6193C12.544 39.8376 15.9184 39.999 20 39.999Z" fill="black"/>
</g>
</mask>
<g mask="url(#mask0_2846_6560)">
<rect width="40" height="40" fill="#F8F8FC"/>
<path d="M30.2871 13.8483H11.7129C10.9937 13.8494 10.3043 14.1356 9.79583 14.6441C9.28732 15.1525 9.00113 15.8419 9 16.561V28.2776C9.00113 28.9967 9.28732 29.686 9.79583 30.1945C10.3043 30.703 10.9937 30.9892 11.7129 30.9903H30.2871C31.0063 30.9892 31.6957 30.703 32.2042 30.1945C32.7127 29.686 32.9989 28.9967 33 28.2776V16.561C32.9989 15.8419 32.7127 15.1525 32.2042 14.6441C31.6957 14.1356 31.0063 13.8494 30.2871 13.8483ZM31.2857 28.2776C31.2857 28.5424 31.1805 28.7964 30.9932 28.9836C30.806 29.1709 30.552 29.2761 30.2871 29.2761H11.7129C11.448 29.2761 11.194 29.1709 11.0068 28.9836C10.8195 28.7964 10.7143 28.5424 10.7143 28.2776V20.7051H31.2857V28.2776ZM31.2857 17.2767H10.7143V16.561C10.7143 16.2962 10.8195 16.0422 11.0068 15.8549C11.194 15.6677 11.448 15.5625 11.7129 15.5625H30.2871C30.552 15.5625 30.806 15.6677 30.9932 15.8549C31.1805 16.0422 31.2857 16.2962 31.2857 16.561V17.2767Z" fill="#F15744"/>
<path d="M23.5714 24.1336H26.1428C26.3701 24.1336 26.5882 24.0433 26.7489 23.8826C26.9096 23.7219 26.9999 23.5039 26.9999 23.2765C26.9999 23.0492 26.9096 22.8312 26.7489 22.6705C26.5882 22.5097 26.3701 22.4194 26.1428 22.4194H23.5714C23.344 22.4194 23.126 22.5097 22.9653 22.6705C22.8045 22.8312 22.7142 23.0492 22.7142 23.2765C22.7142 23.5039 22.8045 23.7219 22.9653 23.8826C23.126 24.0433 23.344 24.1336 23.5714 24.1336Z" fill="#F15744"/>
<path d="M28.7141 24.1336C28.9411 24.1327 29.1584 24.0418 29.3184 23.8808C29.4794 23.7208 29.5703 23.5035 29.5713 23.2765C29.5737 23.1484 29.5474 23.0214 29.4943 22.9048C29.4412 22.7882 29.3626 22.685 29.2644 22.6027C29.1661 22.5205 29.0506 22.4614 28.9265 22.4296C28.8023 22.3979 28.6726 22.3944 28.547 22.4194C28.491 22.4285 28.4363 22.4444 28.3841 22.4666C28.3333 22.4896 28.2846 22.5168 28.2384 22.548C28.1462 22.6117 28.0663 22.6915 28.0027 22.7837C27.969 22.8299 27.9416 22.8803 27.9213 22.9337C27.899 22.9844 27.8832 23.0377 27.8741 23.0923C27.8607 23.1527 27.8549 23.2146 27.857 23.2765C27.857 23.5039 27.9473 23.7219 28.108 23.8826C28.2688 24.0433 28.4868 24.1336 28.7141 24.1336Z" fill="#F15744"/>
<path d="M28.7142 25.8479H26.1428C25.9155 25.8479 25.6974 25.9382 25.5367 26.0989C25.3759 26.2597 25.2856 26.4777 25.2856 26.705C25.2856 26.9323 25.3759 27.1503 25.5367 27.3111C25.6974 27.4718 25.9155 27.5621 26.1428 27.5621H28.7142C28.9415 27.5621 29.1596 27.4718 29.3203 27.3111C29.4811 27.1503 29.5714 26.9323 29.5714 26.705C29.5714 26.4777 29.4811 26.2597 29.3203 26.0989C29.1596 25.9382 28.9415 25.8479 28.7142 25.8479Z" fill="#F15744"/>
<path d="M23.5713 27.562C23.7986 27.562 24.0166 27.4717 24.1773 27.311C24.3381 27.1503 24.4284 26.9323 24.4284 26.7049C24.4347 26.6494 24.4347 26.5933 24.4284 26.5378C24.4191 26.4819 24.4033 26.4272 24.3813 26.375C24.3582 26.3242 24.331 26.2754 24.2998 26.2292C24.27 26.1818 24.234 26.1385 24.1927 26.1007C24.0321 25.941 23.8148 25.8514 23.5884 25.8514C23.362 25.8514 23.1447 25.941 22.9841 26.1007C22.8659 26.2195 22.7851 26.3703 22.7518 26.5346C22.7184 26.6988 22.7339 26.8692 22.7964 27.0247C22.8589 27.1802 22.9656 27.314 23.1033 27.4095C23.241 27.505 23.4037 27.558 23.5713 27.562Z" fill="#F15744"/>
<path d="M14.9999 27.5619C15.4521 27.561 15.8959 27.4397 16.2856 27.2105C16.6764 27.438 17.1202 27.5585 17.5724 27.5597C18.0246 27.561 18.4691 27.443 18.8612 27.2176C19.2532 26.9923 19.5788 26.6675 19.8053 26.2761C20.0318 25.8848 20.151 25.4406 20.151 24.9884C20.151 24.5363 20.0318 24.0921 19.8053 23.7007C19.5788 23.3093 19.2532 22.9846 18.8612 22.7592C18.4691 22.5339 18.0246 22.4159 17.5724 22.4171C17.1202 22.4184 16.6764 22.5389 16.2856 22.7664C15.8954 22.5386 15.4517 22.4188 14.9999 22.4193C14.3179 22.4193 13.6639 22.6902 13.1816 23.1724C12.6994 23.6546 12.4285 24.3086 12.4285 24.9906C12.4285 25.6725 12.6994 26.3265 13.1816 26.8087C13.6639 27.291 14.3179 27.5619 14.9999 27.5619Z" fill="#F15744"/>
<path d="M28.6674 12.1341H28.8902C28.9848 12.1349 29.078 12.1106 29.1602 12.0637C29.2424 12.0168 29.3107 11.949 29.3581 11.8671C29.4056 11.7853 29.4305 11.6923 29.4304 11.5977C29.4303 11.5031 29.4051 11.4102 29.3574 11.3284L27.5359 8.17859C27.2191 7.63504 26.6995 7.23947 26.0912 7.07877C25.4829 6.91806 24.8356 7.00536 24.2917 7.32149L16.7488 11.6627C16.7009 11.6905 16.6635 11.7333 16.6423 11.7844C16.6211 11.8355 16.6173 11.8922 16.6314 11.9457C16.6455 11.9993 16.6768 12.0467 16.7205 12.0807C16.7641 12.1147 16.8177 12.1335 16.8731 12.1341H18.2402C18.6918 12.1333 19.1353 12.0136 19.5259 11.787L25.0417 8.61143C25.1406 8.55151 25.2507 8.51224 25.3652 8.496C25.4798 8.47975 25.5964 8.48685 25.7081 8.51688C25.8199 8.54691 25.9243 8.59925 26.0153 8.67074C26.1062 8.74222 26.1818 8.83138 26.2374 8.93284L27.7974 11.637C27.8861 11.7889 28.0131 11.9147 28.1658 12.002C28.3185 12.0892 28.4915 12.1348 28.6674 12.1341Z" fill="#F15744"/>
<path d="M25.8001 11.1742C25.654 10.9214 25.4135 10.7369 25.1314 10.6614C24.8493 10.5859 24.5487 10.6254 24.2958 10.7714L22.2858 11.9242C22.1913 11.9809 22.1061 12.0518 22.033 12.1342H26.2887C26.2648 12.0413 26.2288 11.952 26.1815 11.8685L25.8001 11.1742Z" fill="#F15744"/>
</g>
<defs>
<clipPath id="clip0_2846_6560">
<rect width="40" height="40" fill="white"/>
</clipPath>
</defs>
</svg>
