<svg width="40" height="40" viewBox="0 0 40 40" fill="none" xmlns="http://www.w3.org/2000/svg">
<mask id="mask0_2846_6543" style="mask-type:alpha" maskUnits="userSpaceOnUse" x="0" y="0" width="40" height="40">
<g clip-path="url(#clip0_2846_6543)">
<path d="M20 39.999C23.9001 39.999 27.1545 39.8516 29.7893 39.6481C35.1869 39.2311 39.2321 35.186 39.6491 29.7884C39.8526 27.1537 40 23.8994 40 19.9995C40 16.0996 39.8526 12.8454 39.6491 10.2106C39.2321 4.81304 35.1869 0.767852 29.7893 0.350911C27.1545 0.147382 23.9001 1.70473e-07 20 0C15.9184 -1.78404e-07 12.544 0.161416 9.84689 0.379678C4.64501 0.800631 0.754956 4.64006 0.353173 9.84345C0.148476 12.4944 1.8146e-07 15.8481 0 19.9995C-1.8147e-07 24.1509 0.148475 27.5046 0.353172 30.1555C0.754954 35.3589 4.64501 39.1984 9.84688 39.6193C12.544 39.8376 15.9184 39.999 20 39.999Z" fill="black"/>
</g>
</mask>
<g mask="url(#mask0_2846_6543)">
<rect width="40" height="40" fill="#F8F8FC"/>
<path fill-rule="evenodd" clip-rule="evenodd" d="M16.6699 14.2006C16.6699 14.551 18.0071 17.3914 18.2284 17.8248C18.5604 17.8248 21.4837 17.0317 21.908 16.9303C21.8526 16.7274 21.7788 16.7735 21.4192 16.4138C21.244 16.2386 21.3085 16.3401 21.2255 16.1003C21.0595 15.6207 20.8751 15.5746 20.3402 15.3718C19.6763 15.1135 19.501 14.4035 18.3575 14.1821C18.1178 14.136 16.6699 13.7856 16.6699 14.2006Z" fill="#F15744"/>
<path fill-rule="evenodd" clip-rule="evenodd" d="M28.6582 17.6036C28.6582 17.0963 29.4421 17.0133 29.4421 17.6589C29.4421 18.0554 28.6582 18.1292 28.6582 17.6036ZM26.9337 18.3782C26.9337 17.6681 27.7176 17.8987 27.7176 18.2675C27.7176 18.8854 26.9337 18.7563 26.9337 18.3782ZM24.868 19.1621C24.868 18.7286 25.6519 18.535 25.6519 19.1621C25.6519 19.7891 24.868 19.5955 24.868 19.1621ZM23.5308 20.0566C22.8208 20.0566 23.0513 19.2727 23.4202 19.2727C24.038 19.2727 23.9089 20.0566 23.5308 20.0566ZM21.6311 20.4992C21.2623 20.4992 21.2438 20.324 21.2438 20.0566C21.2438 19.6693 22.0277 19.6139 22.0277 20.1119C22.0277 20.3701 21.8986 20.4992 21.6404 20.4992H21.6311ZM19.4548 20.8404C19.3625 20.4531 19.3072 20.1672 19.8421 20.1672C20.3124 20.1672 20.3124 21.2462 19.4548 20.8404ZM17.4997 20.8958C17.4997 20.4623 18.2836 20.2963 18.2836 20.8958C18.2836 21.4952 17.4997 21.3569 17.4997 20.8958ZM16.0519 21.6151C15.3049 21.6151 15.7476 20.4623 16.3009 20.9142C16.5868 21.1448 16.3839 21.6151 16.0519 21.6151ZM34.5787 17.4376V17.6497C34.5141 18.1845 33.9424 18.5995 33.4167 18.9499C32.9095 19.2912 32.3931 19.5309 31.8213 19.8168C30.7977 20.3332 29.2853 20.7943 28.2063 21.1079C26.9245 21.486 25.6242 21.7626 24.2225 22.0301C23.9643 22.0762 23.9643 22.0854 23.7891 22.2145C23.4202 22.4912 21.5666 23.9574 21.3545 24.022C21.419 24.2525 21.4283 24.1419 21.5574 24.3263C22.0553 25.0825 20.9671 25.6451 20.2939 25.6451C19.1228 25.6451 19.7314 25.2393 18.8922 25.8572C18.551 26.1061 18.2375 26.3183 17.8778 26.5672C15.8674 27.9598 16.1994 27.8768 14.5487 27.8768C13.0732 27.8768 13.6911 27.2497 14.0138 26.8439C14.1153 26.7148 14.1798 26.6687 14.2813 26.5488L16.1257 24.5476C16.3378 24.3355 16.4392 24.1695 16.6513 23.9574C16.928 23.69 17.5458 23.1275 17.721 22.86L15.0467 22.9707C14.7516 22.9707 14.4473 22.9707 14.1522 22.9707C13.0455 22.9707 13.2115 22.7402 12.3816 23.1551C12.1234 23.2842 11.9112 23.358 11.653 23.4871C11.4133 23.607 11.2288 23.6992 10.9798 23.8191L9.5781 24.4739C9.27378 24.5938 8.47147 25.0272 8.12104 25.0272C7.65995 25.0272 6.82997 25.0364 6.56254 24.6399C6.64553 24.2987 6.94064 24.0958 7.14352 23.8283L8.55447 22.4543C8.7758 22.2606 9.16312 22.0301 9.2369 21.7442C8.93257 21.6612 8.31471 20.9972 8.11182 20.7482C7.34641 19.7984 6 17.8249 6 16.5523V16.46C6 16.1188 6.01845 15.9805 6.29511 15.8975C6.51643 15.8329 6.69165 15.8329 6.94064 15.8237C7.96427 15.7592 8.96946 15.8053 9.62421 16.6629C9.7441 16.8105 9.84554 16.9027 9.9562 17.0502C10.8323 18.1753 11.9389 19.2266 13.5251 19.2266C14.4473 19.2266 16.0242 18.9131 16.9648 18.701C18.8092 18.2952 20.3677 17.8618 22.1568 17.4191C24.0473 16.9488 29.0732 15.4364 30.604 15.4364C31.7107 15.4364 31.9228 15.6301 32.7804 15.8237C32.5775 15.9989 31.4709 16.294 31.1666 16.3863C30.77 16.5154 30.4288 17.4745 32.43 17.0318C33.3614 16.8289 33.2599 16.7367 33.8409 16.4324C34.0899 16.5984 34.1452 16.6353 34.3297 16.8935C34.468 17.0871 34.5418 17.2716 34.5695 17.4468L34.5787 17.4376ZM13.7649 21.5044C13.7649 21.071 14.5487 20.8773 14.5487 21.5044C14.5487 22.1315 13.7649 21.9378 13.7649 21.5044Z" fill="#F15744"/>
<path fill-rule="evenodd" clip-rule="evenodd" d="M10.9463 17.2035C11.3889 17.8583 12.3941 18.5315 13.2333 18.596C13.2333 18.2456 13.1411 17.9874 13.0673 17.7015C12.9843 17.3972 12.9474 17.1851 12.7077 17.0006C12.3757 16.7424 11.8316 16.2905 11.3336 16.2537C11.1492 16.5303 11.0293 16.8346 10.9463 17.2035Z" fill="#F15744"/>
</g>
<defs>
<clipPath id="clip0_2846_6543">
<rect width="40" height="40" fill="white"/>
</clipPath>
</defs>
</svg>
