<svg width="40" height="40" viewBox="0 0 40 40" fill="none" xmlns="http://www.w3.org/2000/svg">
<mask id="mask0_2846_6553" style="mask-type:alpha" maskUnits="userSpaceOnUse" x="0" y="0" width="40" height="40">
<g clip-path="url(#clip0_2846_6553)">
<path d="M20 39.999C23.9001 39.999 27.1545 39.8516 29.7893 39.6481C35.1869 39.2311 39.2321 35.186 39.6491 29.7884C39.8526 27.1537 40 23.8994 40 19.9995C40 16.0996 39.8526 12.8454 39.6491 10.2106C39.2321 4.81304 35.1869 0.767852 29.7893 0.350911C27.1545 0.147382 23.9001 1.70473e-07 20 0C15.9184 -1.78404e-07 12.544 0.161416 9.84689 0.379678C4.64501 0.800631 0.754956 4.64006 0.353173 9.84345C0.148476 12.4944 1.8146e-07 15.8481 0 19.9995C-1.8147e-07 24.1509 0.148475 27.5046 0.353172 30.1555C0.754954 35.3589 4.64501 39.1984 9.84688 39.6193C12.544 39.8376 15.9184 39.999 20 39.999Z" fill="black"/>
</g>
</mask>
<g mask="url(#mask0_2846_6553)">
<rect width="40" height="40" fill="#F8F8FC"/>
<path d="M12.1026 35.8196C11.8997 35.7458 11.6784 35.6905 11.4847 35.5983C10.5349 35.1372 10 34.381 10 33.3112C10 24.7072 10 16.1032 10 7.49914C10 6.10663 11.1159 5 12.5084 5C16.9349 5 21.3522 5 25.7787 5C27.1712 5 28.287 6.10663 28.287 7.49914C28.287 16.1032 28.287 24.7072 28.287 33.3112C28.287 34.4732 27.5032 35.4599 26.3781 35.7458C26.3135 35.7643 26.249 35.7919 26.1844 35.8104H12.0934L12.1026 35.8196ZM11.3187 31.0242H26.9499V9.47262H11.3187V31.0242ZM19.1758 32.6288C18.4657 32.6288 17.7556 32.6288 17.0363 32.6288C16.8888 32.6288 16.732 32.6473 16.5937 32.7026C16.3262 32.8225 16.2248 33.0622 16.2524 33.3481C16.2801 33.634 16.4184 33.8461 16.7228 33.9014C16.9164 33.9383 17.1193 33.9383 17.3222 33.9383C18.6225 33.9383 19.932 33.9383 21.2323 33.9383C21.4997 33.9383 21.7579 33.9199 21.9239 33.6617C22.0622 33.4403 22.0807 33.2098 21.9608 32.9792C21.8317 32.721 21.6104 32.638 21.3429 32.638C20.6236 32.638 19.8951 32.638 19.1758 32.638V32.6288ZM19.1297 8.01556C19.6277 8.01556 20.1349 8.01556 20.6329 8.01556C21.0478 8.01556 21.3061 7.75735 21.3153 7.37925C21.3153 6.99193 21.0571 6.74294 20.6421 6.73372C19.6553 6.73372 18.6594 6.73372 17.6726 6.73372C17.23 6.73372 16.9718 6.98271 16.981 7.38847C16.981 7.77579 17.2392 8.01556 17.6634 8.01556C18.1522 8.01556 18.6409 8.01556 19.1389 8.01556H19.1297ZM19.8582 19.2755C20.5406 19.2755 21.1954 19.2571 21.8501 19.2847C22.0161 19.2847 22.219 19.3769 22.3297 19.4968C22.4865 19.672 22.3205 19.8473 22.2006 19.9948C20.513 22.0236 18.8346 24.0525 17.147 26.0813C17.0086 26.2473 16.8611 26.3764 16.6305 26.2473C16.4092 26.1274 16.4184 25.9429 16.4738 25.7308C16.898 24.283 17.313 22.8352 17.728 21.3781C17.7464 21.3135 17.7648 21.2398 17.7833 21.1383C17.3591 21.0922 16.9441 21.0461 16.5291 21.0092C16.4461 21.0092 16.3723 21.0092 16.2893 20.9908C15.902 20.9262 15.7914 20.6496 16.0219 20.3452C16.5014 19.7182 16.9902 19.0911 17.4697 18.464C18.4196 17.2375 19.3695 16.011 20.3285 14.7844C20.4669 14.6092 20.596 14.4432 20.8542 14.5631C21.1124 14.6922 21.0847 14.8951 21.0202 15.1256C20.6329 16.4905 20.2548 17.8553 19.8582 19.2755ZM14.113 8.04323C14.113 8.04323 14.113 8.01556 14.113 8.00634C14.2697 8.00634 14.4357 8.02478 14.5925 8.00634C14.8876 7.97867 15.0905 7.73891 15.1182 7.4438C15.1458 7.11182 14.9798 6.79827 14.694 6.77061C14.279 6.73372 13.8548 6.74294 13.4398 6.79827C13.1447 6.83516 13.0156 7.08415 13.0063 7.37003C13.0063 7.65591 13.1354 7.88646 13.4213 7.96023C13.6426 8.01556 13.8732 8.02478 14.1038 8.05245L14.113 8.04323Z" fill="#F15744"/>
</g>
<defs>
<clipPath id="clip0_2846_6553">
<rect width="40" height="40" fill="white"/>
</clipPath>
</defs>
</svg>
