<svg width="64" height="64" viewBox="0 0 64 64" fill="none" xmlns="http://www.w3.org/2000/svg">
<rect width="64" height="64" rx="16" fill="white"/>
<path d="M20.2737 9.24763H43.2066C43.2066 9.24763 43.2585 9.33412 43.293 9.33412C44.3999 9.45519 45.3684 9.88759 46.2332 10.5621C47.9626 11.9112 48.7755 13.7099 48.7755 15.8718C48.7755 20.4898 48.7755 25.1077 48.7755 29.7256C48.7755 30.7115 48.7755 31.7146 48.7755 32.7005C48.7755 32.9945 48.862 33.0637 49.1387 33.0637C49.744 33.0464 50.3493 33.0464 50.9546 33.0637C51.2313 33.0637 51.3005 32.9945 51.3005 32.7178C51.3005 31.4379 51.3005 30.1407 51.3005 28.8435C51.3005 28.5149 51.4389 28.0826 51.2313 27.8577C51.0411 27.6502 50.6087 27.7885 50.2974 27.8058C50.0034 27.8058 49.9515 27.7194 49.9688 27.4599C49.9688 23.8451 49.9688 20.2304 49.9688 16.6156C49.9688 16.3388 50.0553 16.2697 50.3147 16.2697C51.1795 16.2697 52.0269 16.287 52.8916 16.2697C53.2548 16.2697 53.3413 16.3561 53.3413 16.7193C53.3413 20.0401 53.3413 23.3609 53.3413 26.6643C53.3413 27.0275 53.497 27.4945 53.2721 27.7366C53.0473 27.9442 52.5976 27.8058 52.2344 27.7885C51.9058 27.7712 51.854 27.875 51.854 28.1863C51.854 29.8813 51.854 31.559 51.854 33.2539C51.854 33.5307 51.7848 33.5998 51.5081 33.5998C50.7471 33.5825 50.0034 33.5998 49.2424 33.5998C48.8793 33.5998 48.7755 33.669 48.7755 34.0495C48.7755 37.8719 48.7755 41.6942 48.7755 45.5165C48.7755 48.0762 47.7378 50.0479 45.5241 51.3797C45.3165 51.5008 45.2992 51.6564 45.2992 51.8467C45.2992 52.7115 45.2992 53.559 45.2992 54.4237C45.2992 54.7005 45.2128 54.7697 44.9533 54.7697C43.3103 54.7697 41.6673 54.7697 40.0243 54.7697C39.7476 54.7697 39.6439 54.7178 39.6439 54.4064C39.6784 53.8357 39.6439 53.2476 39.6439 52.6769C39.6439 52.331 39.5747 52.2445 39.2115 52.2445C35.372 52.2445 31.5326 52.2445 27.7105 52.2445C26.5171 52.2445 25.3411 52.2445 24.1478 52.2445C23.8537 52.2445 23.7673 52.331 23.7846 52.6077C23.8019 53.1958 23.7846 53.8011 23.7846 54.3892C23.7846 54.7178 23.6808 54.7697 23.3868 54.7697C21.7611 54.7697 20.1354 54.7697 18.4924 54.7697C18.2157 54.7697 18.1119 54.7005 18.1119 54.4064C18.1292 53.5417 18.1119 52.6596 18.1119 51.7775C18.1119 51.5873 18.1119 51.4316 17.8871 51.2933C15.7598 49.9442 14.7567 48.0071 14.774 45.4992C14.7913 41.5904 14.774 37.6816 14.774 33.7728C14.774 33.3577 14.6529 33.2539 14.2552 33.2712C13.6325 33.3058 13.0099 33.2712 12.3873 33.2712C12.0587 33.2712 11.9895 33.1674 12.0068 32.8734C12.0068 31.3168 12.0068 29.7602 12.0068 28.2036C12.0068 27.8577 12.1625 27.3907 11.9377 27.1832C11.7474 27.0102 11.2978 27.114 10.9519 27.114C10.6751 27.114 10.606 27.0448 10.606 26.7681C10.606 23.1706 10.606 19.5731 10.606 15.9756C10.606 15.7162 10.6578 15.6124 10.9519 15.6297C11.8339 15.647 12.6986 15.647 13.5807 15.6297C13.9093 15.6297 13.9957 15.7162 13.9957 16.0448C13.9957 19.3483 13.9957 22.6517 13.9957 25.9552C13.9957 26.3357 14.1514 26.82 13.9266 27.0621C13.7536 27.2351 13.2521 27.1313 12.9062 27.114C12.664 27.114 12.6122 27.2005 12.6122 27.4253C12.6122 29.0857 12.6122 30.7461 12.6122 32.4065C12.6122 32.6832 12.7159 32.7178 12.9408 32.7178C13.4077 32.7178 13.892 32.6832 14.3589 32.7178C14.7394 32.7524 14.8086 32.614 14.8086 32.2508C14.8086 26.7162 14.8086 21.1816 14.8086 15.6297C14.8086 12.7241 16.7456 10.1989 19.5301 9.43789C19.7549 9.3687 20.0143 9.38601 20.2218 9.23035M31.8093 15.9064C27.2089 15.9064 22.5912 15.9064 17.9908 15.9064C17.593 15.9064 17.5066 16.0102 17.5066 16.3907C17.5066 21.9599 17.5066 27.5291 17.5066 33.0983C17.5066 33.4788 17.6103 33.7901 17.8006 34.1014C18.4059 35.0873 19.2706 35.7964 20.2737 36.3499C22.8334 37.7854 25.6524 38.2697 28.506 38.4772C31.1348 38.6848 33.7636 38.6502 36.3924 38.3216C38.3467 38.0794 40.2665 37.6816 42.0824 36.886C43.4141 36.3153 44.642 35.5715 45.5414 34.4127C45.8181 34.0668 46.0602 33.7209 46.0602 33.2193C46.0602 27.5983 46.0602 21.9599 46.0602 16.3388C46.0602 15.9756 45.9564 15.9064 45.6105 15.9064C41.0101 15.9064 36.3924 15.9064 31.792 15.9064H31.8093ZM31.9131 14.0385C34.2825 14.0385 36.6519 14.0385 39.0212 14.0385C39.3325 14.0385 39.419 13.9693 39.419 13.658C39.4017 12.7413 39.4017 11.8247 39.419 10.908C39.419 10.6486 39.3671 10.5621 39.0904 10.5621C34.3344 10.5621 29.5956 10.5621 24.8395 10.5621C24.5282 10.5621 24.4937 10.6832 24.4937 10.9426C24.4937 11.8247 24.511 12.7241 24.4937 13.6061C24.4937 13.952 24.5801 14.0385 24.926 14.0385C27.2608 14.0385 29.5956 14.0385 31.9304 14.0385H31.9131ZM21.934 45.5165C23.2138 45.5165 24.4764 45.5165 25.7562 45.5165C25.9983 45.5165 26.0848 45.4646 26.0848 45.2052C26.0848 44.1848 26.0848 43.1643 26.0848 42.1439C26.0848 41.9017 26.0329 41.8152 25.7735 41.8152C23.2311 41.8152 20.6888 41.8152 18.1465 41.8152C17.9043 41.8152 17.8179 41.8671 17.8179 42.1266C17.8179 43.147 17.8352 44.1675 17.8179 45.1879C17.8179 45.4992 17.9389 45.5165 18.1811 45.5165C19.4436 45.5165 20.6888 45.5165 21.9513 45.5165H21.934ZM41.9095 45.5165C43.1893 45.5165 44.4518 45.5165 45.7316 45.5165C46.0083 45.5165 46.0775 45.4473 46.0775 45.1706C46.0775 44.1674 46.0775 43.1643 46.0775 42.1612C46.0775 41.8844 46.0083 41.8152 45.7316 41.8152C43.2239 41.8152 40.6988 41.8152 38.1911 41.8152C37.8971 41.8152 37.8106 41.8844 37.8106 42.1785C37.8279 43.1643 37.8279 44.1675 37.8106 45.1533C37.8106 45.4473 37.8971 45.5165 38.1911 45.5165C39.4363 45.5165 40.6815 45.5165 41.9095 45.5165Z" fill="#F15744"/>
</svg>
