<svg width="40" height="41" viewBox="0 0 40 41" fill="none" xmlns="http://www.w3.org/2000/svg">
<g clip-path="url(#clip0_215_722)">
<path d="M8.83336 13.5H0V40.5H8.83336V13.5Z" fill="#E8EAEA"/>
<path d="M39.9999 13.5H31.1665V40.5H39.9999V13.5Z" fill="#E8EAEA"/>
<path d="M0 14H40C40 13 39.1666 12.1666 38.1666 12.1666H1.83336C0.833359 12.1666 0 13 0 14Z" fill="#FFA679"/>
<path d="M31.1669 8.99988H8.8335V40.4999H31.1669V8.99988Z" fill="#F2F2F2"/>
<path d="M32.4164 7.16663H7.58314C7.08314 7.16663 6.6665 7.58327 6.6665 8.08327C6.6665 8.58327 7.08314 8.99998 7.58314 8.99998H32.4165C32.9165 8.99998 33.3331 8.58334 33.3331 8.08334C33.3331 7.58334 32.9164 7.16663 32.4164 7.16663Z" fill="#FFA679"/>
<path d="M6.33336 16H2.5V20.25H6.33336V16Z" fill="#E8EAEF"/>
<path d="M6.33336 21.9167H2.5V26.1667H6.33336V21.9167Z" fill="#E8EAEF"/>
<path d="M6.33336 27.8333H2.5V32.0833H6.33336V27.8333Z" fill="#E8EAEF"/>
<path d="M6.33336 33.7499H2.5V37.9999H6.33336V33.7499Z" fill="#E8EAEF"/>
<path d="M37.4999 16H33.6665V20.25H37.4999V16Z" fill="#E8EAEF"/>
<path d="M37.4999 21.9167H33.6665V26.1667H37.4999V21.9167Z" fill="#E8EAEF"/>
<path d="M37.4999 27.8333H33.6665V32.0833H37.4999V27.8333Z" fill="#E8EAEF"/>
<path d="M37.4999 33.7499H33.6665V37.9999H37.4999V33.7499Z" fill="#E8EAEF"/>
<path d="M15.5001 23.4166H11.3335V27.6666H15.5001V23.4166Z" fill="#B8BECC"/>
<path d="M24.4166 30.0834H15.5V40.5H24.4166V30.0834Z" fill="#056D8A"/>
<path d="M40 38.75H0V40.5H40V38.75Z" fill="#ACB3BA"/>
<path d="M15.5001 11.5834H11.3335V15.8334H15.5001V11.5834Z" fill="#B8BECC"/>
<path d="M15.5001 17.5001H11.3335V21.7501H15.5001V17.5001Z" fill="#B8BECC"/>
<path d="M22.0836 11.5834H17.917V15.8334H22.0836V11.5834Z" fill="#B8BECC"/>
<path d="M22.0836 17.5001H17.917V21.7501H22.0836V17.5001Z" fill="#B8BECC"/>
<path d="M22.0836 23.4167H17.917V27.6667H22.0836V23.4167Z" fill="#B8BECC"/>
<path d="M28.6666 11.5834H24.5V15.8334H28.6666V11.5834Z" fill="#B8BECC"/>
<path d="M28.6666 17.5001H24.5V21.7501H28.6666V17.5001Z" fill="#B8BECC"/>
<path d="M28.6666 23.4167H24.5V27.6667H28.6666V23.4167Z" fill="#B8BECC"/>
</g>
<defs>
<clipPath id="clip0_215_722">
<rect width="40" height="40" fill="white" transform="translate(0 0.5)"/>
</clipPath>
</defs>
</svg>
