<svg width="64" height="65" viewBox="0 0 64 65" fill="none" xmlns="http://www.w3.org/2000/svg">
<rect y="0.5" width="64" height="64" rx="16" fill="white"/>
<path fill-rule="evenodd" clip-rule="evenodd" d="M11.9345 37.2345C11.7097 36.3005 10.2569 35.0553 12.5398 32.7896C13.0414 32.3053 13.5948 31.648 14.1828 31.2848C14.84 30.8697 16.0161 30.7832 16.7597 31.1292C18.5411 31.9421 17.7455 32.0458 18.8697 31.5616C20.2879 30.9735 19.7517 31.3194 20.236 29.7801C20.9278 27.5836 23.1069 27.8776 24.6289 27.8603C25.2342 27.8603 25.5628 27.8603 26.0298 28.0333C26.7561 28.31 27.3787 28.8288 27.6727 29.5553C28.3472 31.2675 27.6036 30.9043 28.9007 31.4751C29.2293 31.6134 29.6962 31.9075 30.0248 31.7864L31.0452 31.2156C33.1206 30.1779 34.9365 31.9248 36.078 33.4468C36.545 34.0694 36.9081 34.8477 36.6487 35.8855C36.4412 36.7156 35.49 37.7707 35.8877 38.1685C36.5449 38.4798 40.9378 38.2723 42.0793 38.2723C43.8261 38.2723 46.8699 38.4452 48.4611 38.2377C51.0726 37.8917 53.1306 36.7848 54.2721 34.5883C54.6871 33.7754 54.8947 33.2392 55.0677 32.1323C55.7594 27.5317 51.0898 23.3461 47.2677 24.6433C46.3338 24.9546 45.5036 25.6292 45.054 24.8682C44.2411 23.4672 48.0806 22.81 49.1183 22.81C49.2566 21.2361 49.2393 20.2329 48.4611 18.6417C47.2331 16.2031 44.9675 14.8367 42.183 14.8194C39.5369 14.8194 38.9143 15.788 38.188 15.9782C38.0496 15.6842 37.8939 14.733 37.5308 13.9028C32.8093 3.38704 18.3509 5.8776 16.6214 16.3587C16.2755 18.4861 16.6214 18.6244 16.656 20.0773C17.1402 20.0773 19.6998 20.9593 19.6826 21.8587C19.6826 22.637 18.9216 22.7581 18.2817 22.3603C17.711 22.0144 17.3132 21.755 16.5522 21.6858C14.9784 21.5301 13.4046 21.8587 12.4015 22.343C11.8135 22.6197 11.3638 22.8619 10.845 23.2078C9.98022 23.8131 8.99441 24.8854 8.51016 25.8021C8.19885 26.3902 8.00859 26.788 7.78375 27.4798C6.81525 30.42 7.73191 33.3949 9.72081 35.6606C9.96294 35.9373 10.1359 36.0065 10.3953 36.2487C10.7931 36.5946 11.3984 37.0961 11.9518 37.2172M40.4017 18.7455H40.0904V24.8336C40.4536 24.8336 41.4566 24.6952 41.4566 25.5773C41.4566 26.6496 39.4159 26.321 37.8767 26.321C37.6691 26.321 37.254 26.027 37.254 25.5773C37.254 24.3493 38.6203 25.2487 38.6203 24.5223V18.7455C38.188 18.7455 37.254 18.7974 37.254 18.0018C37.254 16.8603 38.8452 17.1543 40.4017 17.1543C41.8026 17.1543 41.8026 18.7282 40.4017 18.7282V18.7455ZM34.1064 22.9484H31.9964C31.9964 25.3351 32.325 26.3037 31.149 26.3037C30.9933 26.3037 30.8031 26.1653 30.7339 26.0961C30.5783 25.9578 30.5264 25.8713 30.5264 25.56V18.1056C30.5264 17.7597 30.7512 17.3446 30.976 17.1889C31.4776 16.8603 34.5907 16.6009 35.9742 17.6905C38.0496 19.3163 36.9427 22.931 34.0891 22.931L34.1064 22.9484ZM23.6949 25.4562C23.6949 26.5285 22.1211 26.7188 22.1211 25.2487C22.1211 23.277 21.8271 19.6103 22.7956 18.3477C23.7123 17.137 24.5251 17.0505 25.8049 17.0505C27.2404 17.0505 28.745 18.5207 28.745 20.527V25.4735C28.745 26.5977 27.1712 26.5804 27.1712 25.4735V22.9484H23.6949V25.4735V25.4562Z" fill="#F15744"/>
<path fill-rule="evenodd" clip-rule="evenodd" d="M21.1878 32.3918C20.4269 32.5648 19.5794 32.9107 18.8703 33.2393L18.2478 33.6544C15.5152 32.2016 15.7573 31.7865 14.0105 33.516C12.7307 34.7959 12.454 34.8824 13.4744 36.733C14.3564 38.3242 13.9586 37.494 13.3187 39.2409C13.1458 39.6733 12.921 40.1921 12.8864 40.6937C12.4367 40.7283 11.5547 41.0396 11.0531 41.178C9.47931 41.6276 9.82522 42.3886 9.82522 44.7927C9.82522 45.4327 10.3959 45.8305 10.9321 45.9861L12.8691 46.4704C12.8691 46.9893 13.1285 47.5082 13.3014 47.9233L13.7684 48.9264C14.4256 50.0679 12.8691 50.3792 12.8691 52.1434C12.8691 52.7314 13.6474 53.2849 13.9933 53.6481C15.8784 55.5333 15.6362 54.7377 17.8326 53.7519C18.2996 53.5443 18.5072 53.7519 18.9222 53.9767C21.43 55.2739 20.9111 54.0632 21.4819 56.156C22.0353 58.1449 22.5196 57.8336 24.9581 57.8336C26.5147 57.8336 26.4628 56.2943 26.8259 55.1701C27.0335 54.5475 27.1373 54.7896 28.3133 54.3399C28.6073 54.2361 29.6969 53.6135 29.9044 53.6135C30.2157 53.6135 31.6858 54.7723 32.3257 54.7723C33.1039 54.7723 33.2942 54.3745 33.7093 53.9594C35.6117 52.0569 35.5425 52.3509 34.5567 50.4311C33.8303 49.0129 33.8303 49.9814 34.6259 48.1654C35.5425 46.0899 34.5221 46.7645 37.0817 46.0034C38.5518 45.5711 38.2059 44.7063 38.2059 42.3886C38.2059 41.7314 37.6352 41.3682 37.0817 41.2126C36.6148 41.0742 35.6809 40.7629 35.162 40.711C35.162 40.0538 34.5567 38.722 34.2627 38.255C33.9341 37.7188 34.0378 37.6843 34.6432 36.6292C35.4214 35.2802 35.5425 35.0553 34.4011 33.9138C32.6889 32.2016 32.7926 32.0286 31.0977 32.9799C29.4375 33.9138 30.1811 33.689 28.5208 32.9799C26.3763 32.0632 27.1891 33.1355 26.4109 30.472C25.9958 29.1056 24.8197 29.3824 23.194 29.3824C22.3812 29.3824 21.9315 29.7975 21.7067 30.4201C21.5684 30.8006 21.2051 31.9594 21.2051 32.4264M17.9192 43.755C17.9192 41.2644 19.2681 39.1717 21.2743 38.1858C25.4078 36.1622 30.1119 39.1371 30.1119 43.5475C30.1119 49.1685 23.4189 51.6072 19.787 47.9924C18.8703 47.0931 17.9192 45.5192 17.9192 43.755Z" fill="#F15744"/>
<path fill-rule="evenodd" clip-rule="evenodd" d="M42.7192 42.1637C42.0966 42.1637 40.9379 43.5301 40.9379 43.7376C40.9379 44.7235 41.6988 45.0521 41.5951 45.571C41.5432 45.7958 41.007 46.5395 40.9379 47.3178C40.2288 47.3178 39.0527 47.6118 39.0527 48.4766C39.0527 51.0882 39.3467 50.1543 40.713 50.8115C41.0416 50.9672 41.1973 51.7801 41.6815 52.6795C40.6784 54.1842 40.7303 54.409 41.5951 55.2738C42.7884 56.4672 42.823 55.81 44.0163 55.3257C44.5179 55.1181 44.4141 55.4294 45.3307 55.7408C46.1436 56.0175 46.0052 55.931 46.2474 56.8304C46.576 58.0238 46.991 57.8335 48.3919 57.8335C48.9972 57.8335 49.222 57.4357 49.3604 56.9169C49.7582 55.4467 49.4988 56.2077 50.8823 55.4813C51.2455 55.2911 51.2628 55.2046 51.5568 55.3084C52.6291 55.6543 52.7847 56.571 53.9954 55.343C54.9466 54.3917 54.9639 54.1842 53.9608 52.6967C54.3067 52.0568 54.6699 50.9672 54.8601 50.8634C55.1195 50.7078 56.5896 50.6213 56.5896 49.8603C56.5896 48.3037 56.7972 47.854 55.6557 47.5253C54.2548 47.1276 55.0331 47.5254 54.2375 46.0034C53.6149 44.81 54.7045 45.2077 54.7045 43.7722C54.7045 43.4782 54.1856 43.0977 53.9954 42.9074C53.2517 42.1637 53.1825 41.9908 52.3178 42.4405C52.0929 42.5615 51.7817 42.7691 51.6433 42.8383C51.332 42.9766 51.3147 42.8901 51.0207 42.7345C49.5333 41.9735 49.6717 42.5615 49.3777 41.3162C49.101 40.1055 48.5648 40.3131 47.2331 40.3131C46.6278 40.3131 46.3857 40.7109 46.2646 41.2298C46.0744 42.0254 46.2646 42.0945 45.4172 42.3713C44.9848 42.5096 44.3968 42.9766 44.0509 42.8555C43.9471 42.821 43.6012 42.5788 43.4629 42.5096C43.3245 42.4405 42.8922 42.1983 42.7192 42.1983M44.0855 49.2203C44.0855 47.56 44.9675 46.332 46.2474 45.7093C48.6859 44.5332 51.5395 46.2455 51.5395 49.2203C51.5395 52.3681 47.4753 54.0285 45.1578 51.7109C44.6908 51.2439 44.0855 50.0851 44.0855 49.2203Z" fill="#F15744"/>
</svg>
