<svg width="54" height="28" viewBox="0 0 54 28" fill="none" xmlns="http://www.w3.org/2000/svg">
<path fill-rule="evenodd" clip-rule="evenodd" d="M42.4932 7.74453C42.4932 6.79327 43.9633 6.63761 43.9633 7.8483C43.9633 8.59201 42.4932 8.73038 42.4932 7.74453ZM39.2591 9.19735C39.2591 7.86559 40.7292 8.29799 40.7292 8.98981C40.7292 10.1486 39.2591 9.90647 39.2591 9.19735ZM35.3851 10.6675C35.3851 9.8546 36.8551 9.49139 36.8551 10.6675C36.8551 11.8436 35.3851 11.4804 35.3851 10.6675ZM32.8773 12.3452C31.5456 12.3452 31.978 10.875 32.6698 10.875C33.8285 10.875 33.5864 12.3452 32.8773 12.3452ZM29.3146 13.1753C28.6228 13.1753 28.5883 12.8467 28.5883 12.3452C28.5883 11.6187 30.0583 11.515 30.0583 12.4489C30.0583 12.9332 29.8162 13.1753 29.3319 13.1753H29.3146ZM25.2331 13.8153C25.0601 13.0889 24.9563 12.5527 25.9594 12.5527C26.8415 12.5527 26.8415 14.5763 25.2331 13.8153ZM21.5666 13.919C21.5666 13.1062 23.0366 12.7948 23.0366 13.919C23.0366 15.0433 21.5666 14.7838 21.5666 13.919ZM18.8513 15.2681C17.4504 15.2681 18.2806 13.1062 19.3183 13.9536C19.8544 14.386 19.4739 15.2681 18.8513 15.2681ZM53.5965 7.4332V7.83101C53.4754 8.83416 52.4031 9.61244 51.4173 10.2697C50.4661 10.9096 49.4976 11.3593 48.4253 11.8955C46.5056 12.864 43.6693 13.7288 41.6458 14.3169C39.2418 15.026 36.8033 15.5448 34.1745 16.0464C33.6902 16.1329 33.6902 16.1502 33.3616 16.3923C32.6698 16.9112 29.1936 19.6612 28.7958 19.7822C28.9168 20.2146 28.9341 20.0071 29.1763 20.353C30.1102 21.7712 28.0694 22.8263 26.8069 22.8263C24.6104 22.8263 25.7519 22.0653 24.1781 23.2241C23.5382 23.6911 22.9501 24.0889 22.2757 24.5559C18.5054 27.1675 19.128 27.0118 16.0322 27.0118C13.2651 27.0118 14.4238 25.8357 15.0291 25.0747C15.2194 24.8326 15.3405 24.7461 15.5307 24.5213L18.9897 20.7681C19.3874 20.3703 19.5777 20.059 19.9754 19.6612C20.4943 19.1596 21.653 18.1046 21.9816 17.603L16.9662 17.8106C16.4127 17.8106 15.842 17.8106 15.2886 17.8106C13.2132 17.8106 13.5245 17.3782 11.968 18.1565C11.4837 18.3986 11.0859 18.537 10.6017 18.7791C10.152 19.004 9.80614 19.1769 9.33918 19.4018L6.71037 20.6297C6.13965 20.8546 4.635 21.6675 3.9778 21.6675C3.11306 21.6675 1.55653 21.6848 1.05498 20.9411C1.21063 20.3011 1.76407 19.9206 2.14456 19.4191L4.79065 16.842C5.20573 16.4788 5.93212 16.0464 6.07048 15.5103C5.49975 15.3546 4.341 14.1093 3.96051 13.6423C2.52505 11.8609 0 8.15962 0 5.77283V5.59987C0 4.95993 0.0346022 4.70049 0.553445 4.54483C0.968519 4.42376 1.29711 4.42376 1.76407 4.40647C3.68379 4.2854 5.56892 4.37188 6.79685 5.98037C7.02168 6.2571 7.21193 6.43005 7.41946 6.70678C9.06247 8.81685 11.1378 10.7885 14.1125 10.7885C15.842 10.7885 18.7994 10.2005 20.5635 9.80271C24.0224 9.0417 26.9452 8.22881 30.3004 7.39862C33.8458 6.51655 43.2715 3.68005 46.1424 3.68005C48.2178 3.68005 48.6156 4.04326 50.224 4.40647C49.8435 4.73508 47.7681 5.28854 47.1974 5.4615C46.4537 5.70364 45.8138 7.5024 49.5668 6.67221C51.3135 6.29171 51.1233 6.11874 52.2129 5.54798C52.6798 5.8593 52.7836 5.92848 53.1295 6.41276C53.3889 6.77597 53.5273 7.12189 53.5792 7.45051L53.5965 7.4332ZM14.5622 15.0606C14.5622 14.2477 16.0322 13.8845 16.0322 15.0606C16.0322 16.2367 14.5622 15.8735 14.5622 15.0606Z" fill="#F15744"/>
<path fill-rule="evenodd" clip-rule="evenodd" d="M20.0098 1.36245C20.0098 2.01968 22.5175 7.34674 22.9326 8.15963C23.5552 8.15963 29.0376 6.67221 29.8332 6.48196C29.7294 6.10146 29.591 6.18791 28.9166 5.51338C28.588 5.18477 28.709 5.37502 28.5534 4.92534C28.2421 4.02597 27.8962 3.9395 26.8931 3.559C25.6478 3.07472 25.3193 1.74295 23.1747 1.32785C22.725 1.24137 20.0098 0.584149 20.0098 1.36245Z" fill="#F15744"/>
<path fill-rule="evenodd" clip-rule="evenodd" d="M9.21777 7.10463C10.0479 8.33261 11.9331 9.59518 13.5069 9.71625C13.5069 9.05902 13.3339 8.57474 13.1956 8.03858C13.0399 7.46782 12.9707 7.07003 12.5211 6.72412C11.8985 6.23984 10.8781 5.39236 9.94415 5.32318C9.59825 5.84205 9.37343 6.4128 9.21777 7.10463Z" fill="#F15744"/>
</svg>
