<svg width="64" height="64" viewBox="0 0 64 64" fill="none" xmlns="http://www.w3.org/2000/svg">
<rect width="64" height="64" rx="16" fill="white"/>
<path fill-rule="evenodd" clip-rule="evenodd" d="M17.4441 10.6659V17.4457H15.5244C14.9018 17.4457 14.21 18.1376 14.21 18.7602V51.4316H10.6646C8.98697 51.4316 8.72754 54.6659 10.8721 54.6659H25.538V41.919C25.538 40.7256 26.1607 40.103 27.354 40.103H36.6586C37.8519 40.103 38.4745 40.7256 38.4745 41.919V54.6659H53.1405C55.285 54.6659 54.991 51.4316 53.348 51.4316H49.8026V18.9505C49.8026 17.0825 47.8829 17.4284 46.5685 17.4284V10.8561C46.5685 10.0778 45.9805 9.33411 45.2541 9.33411H18.7412C18.1186 9.33411 17.4268 10.0259 17.4268 10.6486M23.9124 18.864C23.9124 16.8058 23.4627 14.2115 25.538 14.2115C27.6134 14.2115 27.1637 16.8058 27.1637 18.864C27.1637 21.3026 23.9296 21.3026 23.9296 18.864H23.9124ZM30.3979 18.864C30.3979 16.8058 29.9482 14.2115 32.0236 14.2115C34.0989 14.2115 33.6493 16.8058 33.6493 18.864C33.6493 21.3026 30.4152 21.3026 30.4152 18.864H30.3979ZM36.8661 18.864C36.8661 16.8058 36.4164 14.2115 38.4918 14.2115C40.5672 14.2115 40.1175 16.8058 40.1175 18.864C40.1175 21.3026 36.8834 21.3026 36.8834 18.864H36.8661ZM20.6782 26.9583C20.6782 24.9001 20.2286 22.3058 22.3039 22.3058C24.3793 22.3058 23.9296 24.9001 23.9296 26.9583C23.9296 29.397 20.6955 29.397 20.6955 26.9583H20.6782ZM27.1465 26.9583C27.1465 24.9001 26.6968 22.3058 28.7722 22.3058C30.8475 22.3058 30.3979 24.9001 30.3979 26.9583C30.3979 29.397 27.1637 29.397 27.1637 26.9583H27.1465ZM33.632 26.9583C33.632 24.9001 33.1823 22.3058 35.2577 22.3058C37.3331 22.3058 36.8834 24.9001 36.8834 26.9583C36.8834 29.397 33.6493 29.397 33.6493 26.9583H33.632ZM40.1002 26.9583C40.1002 24.9001 39.6506 22.3058 41.7259 22.3058C43.8013 22.3058 43.3516 24.9001 43.3516 26.9583C43.3516 29.397 40.1175 29.397 40.1175 26.9583H40.1002ZM20.6782 36.6612C20.6782 34.603 20.2286 32.0086 22.3039 32.0086C24.3793 32.0086 23.9296 34.603 23.9296 36.6612C23.9296 39.0998 20.6955 39.0998 20.6955 36.6612H20.6782ZM27.1465 36.6612C27.1465 34.603 26.6968 32.0086 28.7722 32.0086C30.8475 32.0086 30.3979 34.603 30.3979 36.6612C30.3979 39.0998 27.1637 39.0998 27.1637 36.6612H27.1465ZM33.632 36.6612C33.632 34.603 33.1823 32.0086 35.2577 32.0086C37.3331 32.0086 36.8834 34.603 36.8834 36.6612C36.8834 39.0998 33.6493 39.0998 33.6493 36.6612H33.632ZM40.1002 36.6612C40.1002 34.603 39.6506 32.0086 41.7259 32.0086C43.8013 32.0086 43.3516 34.603 43.3516 36.6612C43.3516 39.0998 40.1175 39.0998 40.1175 36.6612H40.1002ZM19.0525 46.3813C19.0525 44.3231 18.6028 41.7288 20.6782 41.7288C22.7536 41.7288 22.3039 44.3231 22.3039 46.3813C22.3039 48.82 19.0698 48.82 19.0698 46.3813H19.0525ZM41.7259 46.3813C41.7259 44.3231 41.2763 41.7288 43.3516 41.7288C45.427 41.7288 44.9774 44.3231 44.9774 46.3813C44.9774 48.82 41.7432 48.82 41.7432 46.3813H41.7259Z" fill="#F15744"/>
<path d="M35.2407 43.3372H28.7725V54.6658H35.2407V43.3372Z" fill="#F15744"/>
</svg>
