<svg width="64" height="64" viewBox="0 0 64 64" fill="none" xmlns="http://www.w3.org/2000/svg">
<rect width="64" height="64" rx="16" fill="white"/>
<path fill-rule="evenodd" clip-rule="evenodd" d="M27.8758 26.8373V27.7886C27.8758 28.5842 28.706 28.0826 30.1415 28.2729C30.6084 28.3421 30.7986 28.3594 31.2137 28.5669C31.6115 28.7572 31.7153 28.9128 31.9228 29.2414H28.533C27.772 29.2414 27.8585 29.2933 27.8585 30.3484C27.8585 30.8499 28.1006 30.7807 28.5849 30.7807H32.0438C32.0438 30.9364 31.8882 31.1958 31.819 31.2996C31.7326 31.438 31.5596 31.6109 31.4386 31.6974C30.5392 32.3719 29.3459 32.2855 28.2217 32.3028C28.0833 32.3028 28.0142 32.3201 27.945 32.4065C27.7893 32.5795 27.8412 33.2713 27.8412 33.6172C27.8412 33.894 27.8931 33.9285 28.0315 34.0669C28.1007 34.1361 28.118 34.1707 28.1871 34.2399C28.239 34.2917 28.2909 34.3436 28.3428 34.3955L29.9512 36.1943C29.9512 36.1943 30.0031 36.2462 30.0377 36.2807C30.0723 36.3326 30.0722 36.3326 30.1068 36.3845L31.9919 38.5983C32.0957 38.7194 32.1822 38.8232 32.286 38.9443C32.4243 39.0999 32.4935 39.2556 32.6492 39.2556H34.4997C34.69 39.2556 34.7591 39.0826 34.7591 38.9097C34.7591 38.8405 34.5689 38.6329 34.517 38.5811C34.4305 38.46 34.344 38.3735 34.2576 38.2697C33.7041 37.5779 32.9605 36.6958 32.4243 36.0732C32.0438 35.6581 31.6115 35.1046 31.2137 34.6896C31.1445 34.6204 31.1445 34.5858 31.0753 34.5339L30.5219 33.9112C30.9197 33.9112 31.5942 33.7037 31.9055 33.5826C32.9951 33.1502 33.6177 32.493 34.0328 31.4553C34.1192 31.2477 34.1538 31.0229 34.2057 30.7807H35.3299C36.1081 30.7807 36.039 30.8326 36.039 29.7084C36.039 29.3625 35.9352 29.2587 35.5893 29.2587H34.1538C34.1538 28.8609 33.8079 28.2902 33.6004 27.9789H35.6585C35.8833 27.9789 36.0043 27.8578 36.0043 27.6329V26.8373C36.0043 26.6298 35.9179 26.4568 35.7276 26.4568H28.0834C27.8931 26.4568 27.8066 26.6644 27.8066 26.8546M31.3694 43.5276C33.635 43.5276 35.105 43.3719 37.1285 42.3688C40.2761 40.7949 42.559 37.8028 43.2854 34.3263C44.081 30.504 42.8012 26.5087 40.0686 23.7933C38.0451 21.7697 34.9494 20.4899 31.9747 20.4899C29.2421 20.4899 26.6652 21.493 24.6936 23.1015C22.4625 24.9175 20.9925 27.4773 20.5775 30.3657C19.903 35.0182 21.9783 39.2383 25.9042 41.8153C27.3051 42.732 29.4842 43.5276 31.3694 43.5276Z" fill="#F15744"/>
<path fill-rule="evenodd" clip-rule="evenodd" d="M31.9916 46.1564C30.7291 46.1564 29.2244 45.9143 28.2386 45.6203C27.6506 45.4473 27.1664 45.3089 26.5956 45.0668C25.0391 44.4096 23.8804 43.6486 22.5487 42.5416C21.5629 41.7115 20.7154 40.3624 20.4214 40.2932C20.4214 44.1155 20.923 46.018 23.6037 48.5086C25.3504 50.1517 27.9101 50.636 30.4178 50.636H40.2412V54.4064C40.5352 54.3372 49.7533 48.5259 50.9294 47.7476C51.5174 47.3671 52.0881 47.0212 52.6934 46.6234C53.0047 46.4331 53.2641 46.2775 53.5581 46.0872C53.8349 45.897 54.2499 45.724 54.4402 45.4819C52.3302 44.0636 49.0615 42.1092 46.7959 40.6737C46.3462 40.397 44.5303 39.169 44.1844 39.0825C44.0461 39.6706 42.5933 41.4174 42.1436 41.8671C41.3308 42.68 40.5006 43.4064 39.4802 44.0291C38.4598 44.6344 37.4395 45.1706 36.1769 45.5338C34.949 45.8797 33.5308 46.191 32.0089 46.191" fill="#F15744"/>
<path fill-rule="evenodd" clip-rule="evenodd" d="M9.56006 18.4663V18.6392C9.87136 18.7257 14.3161 21.5795 14.6447 21.787C15.0425 22.0638 15.4576 22.2886 15.8899 22.5653L18.415 24.1565C18.6744 24.3295 19.47 24.8829 19.7294 24.9521C19.9196 24.8137 20.0407 24.537 20.1964 24.2776C20.6979 23.5166 21.4934 22.5307 22.1506 21.9254C23.2056 20.9568 22.8771 21.1471 24.2952 20.2131C26.8721 18.5009 29.1723 17.9301 32.614 17.9301C35.1563 17.9301 37.4565 18.8987 39.1341 19.8326C39.8605 20.2304 40.9674 21.0606 41.5381 21.6314C41.7456 21.8389 41.9186 21.9427 42.0915 22.1329L43.5789 23.7933C43.5789 20.6455 43.3367 18.916 41.3997 16.5119C39.9642 14.7304 37.2836 13.4506 34.8969 13.4506H23.7591V9.59363C22.5312 10.2509 18.3977 12.9663 16.7028 14.0213L11.3934 17.3939C11.0302 17.6188 9.87138 18.3971 9.57737 18.4663" fill="#F15744"/>
</svg>
