<svg width="64" height="64" viewBox="0 0 64 64" fill="none" xmlns="http://www.w3.org/2000/svg">
<rect width="64" height="64" rx="16" fill="white"/>
<path fill-rule="evenodd" clip-rule="evenodd" d="M25.5595 35.0567C25.7738 34.971 25.6452 35.0567 25.788 34.8996L26.3736 34.1284C26.6592 33.7428 26.8734 33.4571 27.1733 33.0715L31.1434 27.773C31.7004 27.0303 31.6718 26.8732 32.3859 26.8732C32.8 26.8732 33.8711 28.1015 34.0996 28.4728C34.3281 28.8584 34.4995 29.144 34.6423 29.5868C35.6134 32.4717 33.6855 34.3997 32.2145 36.8276C32.0431 37.1275 31.9432 37.3418 31.7718 37.6417C31.2149 38.5843 30.7008 39.941 30.5008 41.2407C30.2723 42.7403 30.4151 44.4398 29.8582 45.568H40.0977C41.4116 45.568 44.0107 45.768 45.0104 45.411C46.1386 45.0111 47.2096 43.9114 47.2096 42.4403V13.2913C47.2096 12.0773 46.4385 11.1204 45.6673 10.6349C44.6391 9.99218 43.5251 10.1636 41.9399 10.1636C41.9114 10.2921 40.2548 13.1485 39.8549 13.3484C39.3265 13.6055 34.6566 13.4769 33.7426 13.4769C33.1856 13.4769 32.8572 13.3912 32.6001 13.0628L31.0578 10.6063C30.6865 9.96362 30.915 10.1636 28.4729 10.1636C27.6017 10.1636 26.6735 10.8348 26.2736 11.3775C25.6881 12.1487 25.5453 12.8485 25.5595 14.1625V35.0281V35.0567Z" fill="#F15744"/>
<path fill-rule="evenodd" clip-rule="evenodd" d="M16.7905 40.3124V52.9946C16.7905 53.4659 17.0619 53.8658 17.576 53.8658H35.2274C36.6841 53.8658 35.7843 51.3808 36.2985 50.2525C36.784 49.1957 37.6695 48.3388 37.9551 47.1391H29.1865C28.7866 47.7532 27.9012 49.2671 27.03 49.3528C26.6016 49.3956 26.2589 49.0814 26.2589 48.5958C26.2589 47.4819 28.3153 47.7532 28.8723 42.5404C29.0865 40.4838 28.7866 40.7551 29.7863 38.1987C30.9573 35.2567 33.0566 33.5286 33.328 31.3006C33.4422 30.4151 32.8995 29.1441 32.3854 28.8013C32.0427 29.0298 25.0592 38.4701 24.2309 39.5698C23.8025 40.141 23.4312 40.898 22.8314 40.898C22.2316 40.898 21.946 40.2124 22.2031 39.6983C22.4601 39.1842 23.9168 37.5846 23.9882 37.1847V26.3734L23.7597 26.7162C21.9317 29.6439 19.8895 33.2144 18.0758 36.2421C17.376 37.3989 16.7905 38.4843 16.7905 40.3124Z" fill="#F15744"/>
<path fill-rule="evenodd" clip-rule="evenodd" d="M33.6563 11.9488H39.1117C39.2402 11.4632 39.9685 10.7206 40.0828 10.1921H32.6709C32.828 10.7634 33.4849 11.3632 33.642 11.9488" fill="#F15744"/>
</svg>
