<svg width="64" height="64" viewBox="0 0 64 64" fill="none" xmlns="http://www.w3.org/2000/svg">
<path d="M57 4H40V1C40 0.448 39.553 0 39 0H21C20.447 0 20 0.448 20 1V19C20 19.552 20.447 20 21 20H34.586L38 23.414V27C38 27.404 38.243 27.769 38.617 27.924C38.741 27.975 38.871 28 39 28C39.26 28 39.516 27.898 39.707 27.707L43.414 24H57C57.553 24 58 23.552 58 23V5C58 4.448 57.553 4 57 4ZM35.707 18.293C35.52 18.105 35.266 18 35 18H22V2H38V20.586L35.707 18.293ZM51.91 12C51.631 13.708 50.679 15.332 49.482 16.666C50.515 17.485 51.505 18 52 18V20C50.973 20 49.445 19.263 47.998 18.079C46.551 19.261 45.024 20 44 20V18C44.498 18 45.489 17.492 46.525 16.671C45.807 15.87 45.171 14.967 44.72 14H47.01C47.301 14.454 47.646 14.878 48.008 15.279C48.873 14.318 49.59 13.18 49.868 12H42V10H47V8H49V10H54V12H51.91ZM34 16H36L31.94 4.658C31.796 4.263 31.42 4 31 4H29C28.58 4 28.204 4.263 28.06 4.658L24 16H26L27.48 12H32.52L34 16ZM28.22 10L29.7 6H30.3L31.78 10H28.22Z" fill="#F15744"/>
<path d="M39.999 40.184V38C40 33.727 38.336 29.708 35.313 26.686C32.292 23.665 28.273 22 24 22C15.178 22 8 29.177 8 37.999V40.184C6.839 40.598 6 41.698 6 43V47C6 48.654 7.346 50 9 50H10.184C10.598 51.161 11.698 52 13 52H15C16.654 52 18 50.654 18 49V41C18 39.346 16.654 38 15 38H13.995V37.997C13.998 32.485 18.484 28 23.997 28C29.509 28 33.995 32.484 33.998 37.997V38H33C31.346 38 30 39.346 30 41V49C30 50.654 31.346 52 33 52H35C36.302 52 37.402 51.161 37.816 50H38V57C38 58.654 36.654 60 35 60H33.816C33.402 58.839 32.302 58 31 58H29C27.346 58 26 59.346 26 61C26 62.654 27.346 64 29 64H31C32.302 64 33.402 63.161 33.816 62H35C37.757 62 40 59.757 40 57V49.816C41.161 49.402 42 48.302 42 47V43C42 41.698 41.161 40.598 39.999 40.184ZM8 47V43C8 42.449 8.448 42 9 42H10V48H9C8.448 48 8 47.551 8 47ZM16 41V49C16 49.551 15.552 50 15 50H13C12.448 50 12 49.551 12 49V41C12 40.449 12.448 40 13 40H15C15.552 40 16 40.449 16 41ZM35 50H33C32.448 50 32 49.551 32 49V41C32 40.449 32.448 40 33 40H35C35.552 40 36 40.449 36 41V49C36 49.551 35.552 50 35 50ZM40 47C40 47.551 39.552 48 39 48H38V42H39C39.552 42 40 42.449 40 43V47Z" fill="#F15744"/>
</svg>
