<svg width="63" height="63" viewBox="0 0 63 63" fill="none" xmlns="http://www.w3.org/2000/svg">
<g clip-path="url(#clip0_703_8117)">
<path d="M31.5 33.3457C32.5194 33.3457 33.3457 32.5194 33.3457 31.5C33.3457 30.4806 32.5194 29.6543 31.5 29.6543C30.4806 29.6543 29.6543 30.4806 29.6543 31.5C29.6543 32.5194 30.4806 33.3457 31.5 33.3457Z" fill="#F15744"/>
<path d="M44.0504 29.6543H45.506C45.1763 27.1368 44.1808 24.8272 42.7042 22.9052L41.694 23.9154C41.3335 24.2759 40.861 24.4556 40.3897 24.4556C39.9172 24.4556 39.4447 24.2759 39.0842 23.9154C38.3631 23.1943 38.3631 22.0266 39.0842 21.3056L40.0944 20.2953C37.711 18.4632 34.7308 17.373 31.4996 17.373C28.2684 17.373 25.2882 18.4632 22.9048 20.2953L23.915 21.3056C24.636 22.0266 24.636 23.1943 23.915 23.9154C23.1939 24.6352 22.0262 24.6364 21.3052 23.9154L20.2949 22.9052C18.8184 24.8272 17.8229 27.1368 17.4932 29.6543H18.9488C19.9676 29.6543 20.7945 30.4812 20.7945 31.5C20.7945 32.5188 19.9676 33.3457 18.9488 33.3457H17.4932C17.8229 35.8632 18.8184 38.1728 20.2949 40.0948L21.3052 39.0846C22.025 38.3636 23.1939 38.3636 23.915 39.0846C24.636 39.8057 24.636 40.9734 23.915 41.6944L22.9048 42.7046C24.8268 44.1812 27.1363 45.1767 29.6539 45.5064V44.0508C29.6539 43.0319 30.4808 42.2051 31.4996 42.2051C32.5184 42.2051 33.3453 43.0319 33.3453 44.0508V45.5064C39.6613 44.6783 44.6779 39.6617 45.506 33.3457H44.0504C43.0315 33.3457 42.2047 32.5188 42.2047 31.5C42.2047 30.4812 43.0315 29.6543 44.0504 29.6543ZM38.8947 38.8951C38.1786 39.6112 37.001 39.6112 36.2849 38.8951L33.8855 36.4957C33.1632 36.8427 32.3535 37.0371 31.4996 37.0371C28.4468 37.0371 25.9625 34.5528 25.9625 31.5C25.9625 29.0944 27.5055 27.0408 29.6539 26.2803V22.8867C29.6539 21.8679 30.4808 21.041 31.4996 21.041C32.5184 21.041 33.3453 21.8679 33.3453 22.8867V26.2803C35.4937 27.0408 37.0367 29.0944 37.0367 31.5C37.0367 32.3539 36.8423 33.1636 36.4953 33.8859L38.8947 36.2853C39.6108 37.0014 39.6108 38.179 38.8947 38.8951Z" fill="#F15744"/>
<path d="M61.5542 24.1L55.1348 22.6726C54.9269 22.1164 54.6993 21.5677 54.4544 21.0287L57.9846 15.4805C58.4497 14.7509 58.3439 13.7972 57.7324 13.1845L49.8155 5.26764C49.204 4.65609 48.2491 4.55027 47.5195 5.01539L41.9701 8.5456C41.4323 8.30074 40.8836 8.0731 40.3274 7.86516L38.9 1.4458C38.713 0.600469 37.9637 0 37.0986 0H25.9014C25.0363 0 24.287 0.600469 24.1 1.4458L22.6726 7.86516C22.1164 8.0731 21.5677 8.30074 21.0299 8.5456L15.4805 5.01539C14.7509 4.55027 13.7972 4.65609 13.1845 5.26764L5.26764 13.1845C4.65609 13.7972 4.55027 14.7509 5.01539 15.4805L8.5456 21.0287C8.30074 21.5677 8.0731 22.1164 7.86516 22.6726L1.4458 24.1C0.600469 24.287 0 25.0363 0 25.9014V37.0986C0 37.9637 0.600469 38.713 1.4458 38.9L7.86516 40.3274C8.0731 40.8836 8.30074 41.4323 8.5456 41.9701L5.01539 47.5195C4.55027 48.2491 4.65609 49.2028 5.26764 49.8155L13.1845 57.7324C13.796 58.3439 14.7509 58.4497 15.4805 57.9846L21.0287 54.4544C21.5677 54.6993 22.1164 54.9269 22.6726 55.1348L24.1 61.5542C24.287 62.3995 25.0363 63 25.9014 63H37.0986C37.9637 63 38.713 62.3995 38.9 61.5542L40.3274 55.1348C40.8836 54.9269 41.4323 54.6993 41.9713 54.4544L47.5195 57.9846C48.2491 58.4485 49.2028 58.3439 49.8155 57.7324L57.7324 49.8155C58.3439 49.2028 58.4497 48.2491 57.9846 47.5195L54.4544 41.9701C54.6993 41.4323 54.9269 40.8836 55.1348 40.3274L61.5542 38.9C62.3995 38.713 63 37.9637 63 37.0986V25.9014C63 25.0363 62.3995 24.287 61.5542 24.1ZM31.5 49.3184C21.6747 49.3184 13.6816 41.3253 13.6816 31.5C13.6816 21.6747 21.6747 13.6816 31.5 13.6816C41.3253 13.6816 49.3184 21.6747 49.3184 31.5C49.3184 41.3253 41.3253 49.3184 31.5 49.3184Z" fill="#F15744"/>
</g>
<defs>
<clipPath id="clip0_703_8117">
<rect width="63" height="63" fill="white"/>
</clipPath>
</defs>
</svg>
