<svg width="70" height="70" viewBox="0 0 70 70" fill="none" xmlns="http://www.w3.org/2000/svg">
<path d="M49.5 44.0859C52.9173 44.0859 55.6875 41.3157 55.6875 37.8984C55.6875 34.4812 52.9173 31.7109 49.5 31.7109C46.0827 31.7109 43.3125 34.4812 43.3125 37.8984C43.3125 41.3157 46.0827 44.0859 49.5 44.0859Z" fill="#F15744"/>
<path d="M16.5 44.0859C19.9173 44.0859 22.6875 41.3157 22.6875 37.8984C22.6875 34.4812 19.9173 31.7109 16.5 31.7109C13.0827 31.7109 10.3125 34.4812 10.3125 37.8984C10.3125 41.3157 13.0827 44.0859 16.5 44.0859Z" fill="#F15744"/>
<path d="M62.2664 26.0123L60.6721 25.9571C60.0022 23.3029 58.9507 20.76 57.5505 18.4078L58.6333 17.2451C59.3209 16.514 59.6961 15.5434 59.6788 14.5399C59.6616 13.5364 59.2533 12.5793 58.541 11.8723L54.1242 7.45545C53.4171 6.74299 52.4599 6.33463 51.4563 6.3173C50.4528 6.29996 49.482 6.67502 48.7508 7.36264L47.5845 8.45628C45.2348 7.05467 42.6946 6.00047 40.0429 5.32643L39.9878 3.73367C39.957 2.7305 39.5359 1.77895 38.8141 1.08161C38.0923 0.384263 37.1268 -0.00380231 36.1232 2.80885e-05H29.8769C28.8733 -0.00380231 27.9078 0.384263 27.186 1.08161C26.4642 1.77895 26.043 2.7305 26.0123 3.73367L25.9571 5.32746C23.303 5.99778 20.7601 7.04942 18.4078 8.44957L17.2456 7.36418C16.5143 6.67664 15.5436 6.30167 14.54 6.3191C13.5364 6.33653 12.5793 6.74498 11.8723 7.45751L7.45546 11.8738C6.7431 12.5809 6.33485 13.538 6.31761 14.5415C6.30037 15.545 6.67551 16.5156 7.36316 17.2467L8.45629 18.4156C7.05482 20.7652 6.00111 23.3054 5.32799 25.9571L3.73471 26.0123C2.7314 26.0429 1.77967 26.4639 1.08213 27.1857C0.384595 27.9075 -0.00365537 28.8731 3.65162e-05 29.8769V36.1232C-0.00433275 37.1273 0.383547 38.0934 1.08105 38.8158C1.77854 39.5381 2.73053 39.9596 3.73419 39.9903L5.32799 40.0455C5.70175 41.5104 6.19054 42.9435 6.78979 44.3314C6.84071 44.4463 6.91869 44.5472 7.01706 44.6254C7.11544 44.7036 7.23129 44.7568 7.35471 44.7805C7.47813 44.8042 7.60546 44.7977 7.72581 44.7615C7.84617 44.7253 7.95597 44.6606 8.04585 44.5727C8.58182 44.039 9.164 43.5538 9.78557 43.1228C9.95054 43.0086 10.0647 42.8348 10.104 42.6381C10.1432 42.4413 10.1045 42.237 9.99594 42.0683C9.38902 41.1278 8.99418 40.0664 8.83884 38.9578C8.6835 37.8493 8.77139 36.7203 9.09641 35.6491C9.42143 34.578 9.97578 33.5905 10.7209 32.7552C11.4661 31.9199 12.3842 31.2569 13.4114 30.8122C13.5319 30.7595 13.637 30.6769 13.7166 30.5722C13.7963 30.4675 13.848 30.3443 13.8667 30.2141C14.5374 25.6183 16.8398 21.4175 20.3531 18.3797C23.8663 15.3419 28.3556 13.6702 33 13.6702C37.6445 13.6702 42.1338 15.3419 45.647 18.3797C49.1602 21.4175 51.4627 25.6183 52.1333 30.2141C52.1521 30.3443 52.2038 30.4675 52.2834 30.5722C52.3631 30.6769 52.4681 30.7595 52.5886 30.8122C53.6155 31.257 54.5332 31.9199 55.2781 32.755C56.023 33.5901 56.5772 34.5773 56.9022 35.6481C57.2272 36.7189 57.3152 37.8476 57.1601 38.9559C57.005 40.0641 56.6106 41.1253 56.0041 42.0657C55.8956 42.2345 55.8569 42.4388 55.8961 42.6355C55.9354 42.8322 56.0495 43.006 56.2145 43.1202C56.8351 43.5506 57.4161 44.0355 57.9506 44.5691C58.0405 44.6567 58.1502 44.7213 58.2705 44.7574C58.3907 44.7935 58.5179 44.7999 58.6411 44.7762C58.7644 44.7525 58.8801 44.6993 58.9784 44.6213C59.0767 44.5432 59.1547 44.4425 59.2056 44.3278C59.8076 42.9407 60.2981 41.5079 60.6726 40.0429L62.2664 39.9878C63.27 39.9569 64.2218 39.5354 64.9192 38.813C65.6166 38.0907 66.0044 37.1246 66 36.1206V29.8769C66.0037 28.8733 65.6156 27.9079 64.9183 27.1861C64.221 26.4643 63.2695 26.0432 62.2664 26.0123Z" fill="#F15744"/>
<path d="M33 40.2188C36.9868 40.2188 40.2188 36.9868 40.2188 33C40.2188 29.0132 36.9868 25.7812 33 25.7812C29.0132 25.7812 25.7812 29.0132 25.7812 33C25.7812 36.9868 29.0132 40.2188 33 40.2188Z" fill="#F15744"/>
<path d="M18.7514 45.2966C17.6065 45.6469 16.3955 45.7248 15.2151 45.524C14.0347 45.3232 12.9176 44.8493 11.9529 44.1401C11.8285 44.0492 11.6797 43.9975 11.5258 43.9918C11.3718 43.986 11.2196 44.0263 11.0887 44.1076C9.44874 45.1629 8.09569 46.608 7.1504 48.3137C6.20512 50.0195 5.69704 51.9328 5.67154 53.8828V62.1328C5.65303 63.1381 6.03386 64.1097 6.73056 64.8346C7.42725 65.5595 8.38296 65.9786 9.38817 66H18.6086C18.7431 65.998 18.8747 65.9611 18.9907 65.8931C19.1068 65.8251 19.2032 65.7282 19.2707 65.6119C19.3382 65.4956 19.3744 65.3638 19.3758 65.2293C19.3773 65.0948 19.3439 64.9622 19.2789 64.8445C18.8094 64.0178 18.5624 63.0835 18.5622 62.1328V51.7687C18.5993 49.9015 18.9825 48.0574 19.6924 46.3299C19.7458 46.1945 19.7601 46.0469 19.7338 45.9038C19.7075 45.7607 19.6417 45.6278 19.5437 45.5202C19.4457 45.4126 19.3196 45.3347 19.1795 45.2951C19.0395 45.2556 18.8912 45.2561 18.7514 45.2966Z" fill="#F15744"/>
<path d="M54.9105 44.1076C54.7796 44.0263 54.6274 43.986 54.4735 43.9918C54.3195 43.9975 54.1708 44.0492 54.0464 44.1401C53.0816 44.8493 51.9645 45.3232 50.7841 45.524C49.6038 45.7248 48.3928 45.6469 47.2478 45.2966C47.1083 45.2563 46.9602 45.2557 46.8204 45.2951C46.6805 45.3346 46.5545 45.4123 46.4565 45.5196C46.3586 45.6269 46.2926 45.7594 46.266 45.9023C46.2395 46.0451 46.2534 46.1925 46.3063 46.3279C47.0161 48.0534 47.3995 49.8956 47.4371 51.761V62.1328C47.436 63.0837 47.1882 64.0181 46.7178 64.8445C46.6527 64.9624 46.6193 65.0952 46.6208 65.2299C46.6224 65.3646 46.6588 65.4966 46.7266 65.613C46.7944 65.7294 46.8912 65.8263 47.0076 65.8941C47.124 65.9619 47.256 65.9984 47.3907 66H56.6116C57.6167 65.9785 58.5723 65.5593 59.2689 64.8344C59.9654 64.1095 60.3462 63.138 60.3277 62.1328V53.8684C60.3004 51.9207 59.7914 50.0101 58.8462 48.307C57.9009 46.6038 56.5489 45.1611 54.9105 44.1076Z" fill="#F15744"/>
<path d="M38.827 40.1213C38.701 40.0548 38.559 40.0245 38.4168 40.0336C38.2746 40.0427 38.1376 40.0909 38.0211 40.1729C36.5517 41.2099 34.7974 41.7667 32.9989 41.7667C31.2004 41.7667 29.4461 41.2099 27.9767 40.1729C27.8602 40.0909 27.7232 40.0427 27.581 40.0336C27.4388 40.0245 27.2968 40.0548 27.1708 40.1213C25.0561 41.2628 23.2858 42.95 22.044 45.0074C20.8022 47.0648 20.1344 49.4173 20.1098 51.8203V62.1328C20.0944 63.1413 20.4795 64.1148 21.1808 64.8398C21.8821 65.5647 22.8422 65.982 23.8507 66H42.1502C43.1587 65.982 44.1188 65.5647 44.8201 64.8398C45.5214 64.1148 45.9065 63.1413 45.8911 62.1328V51.8054C45.8641 49.4045 45.1947 47.0547 43.9525 45C42.7102 42.9453 40.9405 41.2607 38.827 40.1213Z" fill="#F15744"/>
</svg>
