<svg width="106" height="105" viewBox="0 0 106 105" fill="none" xmlns="http://www.w3.org/2000/svg">
<path fill-rule="evenodd" clip-rule="evenodd" d="M20.3169 0H86.1436C96.7835 0 105.476 8.69501 105.476 19.3379V85.183C105.476 95.8259 96.7835 104.521 86.1436 104.521H20.3169C9.67697 104.521 0.984375 95.8259 0.984375 85.183V19.3379C0.984375 8.69501 9.67697 0 20.3169 0Z" fill="#F15744"/>
<path fill-rule="evenodd" clip-rule="evenodd" d="M26.4395 31.0049V73.1948C26.4395 76.8294 29.4507 79.942 33.0844 79.942H55.3478C58.9814 79.942 61.9927 76.8495 61.9927 73.1948V31.3463C61.9927 27.6916 58.9814 24.5991 55.3478 24.5991H32.8635C30.9363 24.5991 29.2299 25.6232 28.0454 26.9887C27.8848 27.1896 27.8246 27.2096 27.6841 27.4104C27.0819 28.2338 26.4595 29.8001 26.4595 31.0049M32.2813 46.5274V33.4749C32.2813 32.6515 33.3052 31.5672 34.4093 31.5672H54.2035C55.4482 31.5672 56.3315 32.4306 56.3315 33.8162V46.4069C56.3315 47.5917 55.2675 48.5355 54.0831 48.5355H34.5097C33.265 48.5355 32.2613 47.2704 32.2613 46.5073L32.2813 46.5274ZM51.6339 58.6763C50.1684 58.6763 49.265 57.2305 49.265 56.5478C49.265 53.3348 53.8622 53.4955 53.8422 56.4273C53.8422 57.5719 52.8183 58.6763 51.6138 58.6763H51.6339ZM34.309 56.5478C34.309 55.3028 35.2525 54.1782 36.7782 54.1782C37.8221 54.1782 38.8058 55.1622 38.8058 56.2064C38.8058 56.9494 38.8058 57.4514 38.1032 58.094C36.4771 59.6201 34.309 57.9133 34.309 56.5478ZM44.206 58.6763C41.0542 58.6763 41.4357 54.1782 43.9852 54.1782C44.728 54.1782 45.2299 54.1782 45.8723 54.8811C47.2976 56.3871 45.9124 58.6763 44.206 58.6763ZM51.9752 65.544H51.4131C50.329 65.544 49.2851 64.3592 49.2851 63.2949C49.2851 60.7045 53.4206 60.0218 53.8422 63.1343C53.9225 63.7568 53.6816 64.2588 53.3805 64.7006C53.1195 65.0821 52.5373 65.544 51.9752 65.544ZM34.309 63.4154C34.309 61.6684 36.5373 60.2426 38.043 61.5881C39.2876 62.6925 39.2274 65.5641 36.4369 65.5641C35.393 65.5641 34.309 64.4596 34.309 63.4355V63.4154ZM44.3265 65.544C41.0141 65.544 41.3554 61.0459 44.206 61.0459C47.2374 61.0459 46.9965 65.544 44.3265 65.544ZM49.265 70.263C49.265 69.2991 50.1483 68.014 51.1722 68.014H51.9551C52.9388 68.014 53.9024 69.2991 53.8422 70.3634C53.7217 72.1908 51.5938 73.2751 50.0279 71.8695C49.7468 71.6084 49.265 70.765 49.265 70.2831V70.263ZM34.309 70.263C34.309 67.4517 38.8058 67.1906 38.8058 70.0421C38.8058 70.7851 38.8058 71.2871 38.1032 71.9297C36.5574 73.3956 34.309 71.8092 34.309 70.263ZM64.2813 32.4708V70.7249H76.3064C78.3541 70.7249 80.0203 68.8774 80.0203 66.789V35.9649C80.0203 33.3343 77.7518 32.1495 75.0818 32.1495H64.6226C64.3616 32.1495 64.2813 32.2298 64.2813 32.4909V32.4708ZM44.206 72.5121C41.1145 72.5121 41.3955 68.014 43.9852 68.014C47.6188 68.014 46.8359 72.5121 44.206 72.5121Z" fill="white"/>
</svg>
