<svg width="106" height="105" viewBox="0 0 106 105" fill="none" xmlns="http://www.w3.org/2000/svg">
<path fill-rule="evenodd" clip-rule="evenodd" d="M20.3012 0H86.128C96.7679 0 105.46 8.71507 105.46 19.3378V85.183C105.46 95.8259 96.7679 104.521 86.128 104.521H20.3012C9.66129 104.521 0.96875 95.8259 0.96875 85.183V19.3378C0.96875 8.69499 9.68136 0 20.3012 0Z" fill="#F15744"/>
<path fill-rule="evenodd" clip-rule="evenodd" d="M85.3259 48.8766V55.5636C85.1452 57.17 84.4425 57.2303 82.1339 57.9933C80.2669 58.6158 79.5643 59.0376 77.6571 59.0376C77.2155 60.9051 76.0912 63.134 75.2682 64.6803C75.6897 65.3028 76.0311 65.343 76.4526 66.1462C76.7538 66.7486 76.9344 67.2506 77.2355 67.8731C79.1025 71.568 79.3836 71.568 77.4965 73.4556C71.7349 79.2188 73.6823 78.6566 67.1578 75.4637C66.3146 75.042 66.3547 74.7809 65.7324 74.3793C64.8692 74.5801 62.5003 76.1665 59.9708 76.769C59.9708 78.6164 59.4489 79.5401 58.8868 81.2068C58.3648 82.7932 58.2042 84.4198 56.5781 84.4198H49.7926C48.2067 84.239 48.2669 83.5362 47.484 81.2068C46.9219 79.5401 46.3999 78.6164 46.3999 76.769C45.1954 76.4878 43.1879 75.6645 42.0436 75.1022C41.5217 74.8412 41.2005 74.6404 40.7387 74.3994C40.1164 75.3432 38.671 75.8653 37.607 76.4075C33.2105 78.5963 33.9934 78.6365 30.3598 75.0018C29.7977 74.4396 29.336 73.9777 28.7939 73.4355C28.3322 72.9737 27.5694 72.3712 27.5694 71.5279C27.5694 71.0258 30.0587 66.0257 30.4401 65.5036C30.7613 65.0819 30.8216 65.2425 31.0826 64.8811C30.8818 64.0176 29.2958 61.6481 28.6936 59.1179C26.6058 59.1179 26.1641 58.5958 24.2569 58.0335C22.671 57.5716 21.0449 57.2704 21.0449 55.7242V48.9369C21.2256 47.3505 21.9282 47.4107 24.2569 46.6276C25.9232 46.0653 26.8467 45.5432 28.6936 45.5432C28.8943 44.6396 29.3761 43.3946 29.7375 42.5713L31.0826 39.9005C30.0587 39.2177 29.7174 37.8924 29.1152 36.7277C27.2281 32.9927 27.0072 33.0128 28.8542 31.1452L32.0461 27.9524C33.9332 26.0648 33.9332 26.5266 37.5066 28.3138C38.1089 28.615 38.5706 28.856 39.1729 29.1572C40.016 29.5789 39.9759 29.84 40.5982 30.2416C41.1001 30.1211 43.4087 28.856 44.8542 28.3339C45.2356 28.1934 46.0386 28.0126 46.3799 27.852C46.3799 26.4664 46.4401 26.5066 46.7814 25.4824L48.1666 21.3458C48.4075 20.7233 48.8893 20.2012 49.7926 20.2012H56.819C58.1841 20.2012 58.6459 22.1892 58.9871 23.4141C59.6496 25.6632 59.9507 25.6832 59.9507 27.852C61.7976 28.2737 63.9858 29.3781 65.5919 30.2416C66.2343 29.2777 67.6396 28.836 68.7638 28.2737C72.5379 26.3861 72.4977 26.1652 74.3447 28.0126C80.1062 33.7758 79.5441 31.828 76.3522 38.3543C75.9306 39.1977 75.6697 39.1575 75.2682 39.78C75.4689 40.6435 77.0549 43.013 77.6571 45.5432C79.3033 45.5432 80.6283 46.0251 82.1139 46.6075C83.4188 47.1095 85.3058 47.23 85.3058 48.9369M47.7851 45.4227V46.6878C47.7851 47.7521 48.8893 47.0694 50.7964 47.3304C51.4187 47.4107 51.6597 47.4509 52.2218 47.732C52.7438 47.9931 52.8842 48.1939 53.1653 48.6156H48.6885C47.6848 48.6156 47.7851 48.6758 47.7851 50.0815C47.7851 50.7442 48.1063 50.6438 48.7488 50.6438H53.3259C53.3259 50.8446 53.1251 51.1859 53.0247 51.3466C52.9244 51.5273 52.6835 51.7482 52.5229 51.8888C51.3384 52.7924 49.7525 52.6719 48.287 52.6719C48.1063 52.6719 48.006 52.692 47.9257 52.7924C47.7249 53.0133 47.8052 53.937 47.8052 54.3989C47.8052 54.7603 47.8855 54.8206 48.0662 55.0013C48.1465 55.1017 48.1666 55.1419 48.267 55.2423C48.3473 55.3226 48.4075 55.3828 48.4878 55.4632L50.6158 57.8528C50.6158 57.8528 50.676 57.913 50.7362 57.9733C50.7965 58.0335 50.7764 58.0335 50.8366 58.1138L53.346 61.0456C53.4865 61.2063 53.607 61.3468 53.7475 61.5075C53.9282 61.7083 54.0286 61.9091 54.2293 61.9091H56.6784C56.9193 61.9091 56.9997 61.6681 56.9997 61.4473C56.9997 61.3468 56.7387 61.0858 56.6784 61.0055C56.558 60.8448 56.4577 60.7244 56.3372 60.5838C55.6145 59.6801 54.6308 58.4954 53.9081 57.6721C53.4062 57.1098 52.8441 56.3869 52.3221 55.8447C52.2418 55.7644 52.2217 55.7242 52.1414 55.6238L51.3986 54.8005C51.9206 54.8005 52.8241 54.5194 53.2256 54.3587C54.6509 53.7764 55.494 52.933 56.0561 51.5474C56.1565 51.2663 56.2167 50.9651 56.297 50.6438H57.7826C58.8064 50.6438 58.7061 50.704 58.7061 49.218C58.7061 48.7562 58.5656 48.6156 58.1038 48.6156H56.2168C56.2168 48.0935 55.7551 47.3304 55.4941 46.9288H58.2042C58.4852 46.9087 58.6659 46.7682 58.6659 46.4669V45.4027C58.6659 45.1416 58.5655 44.9006 58.3045 44.9006H48.1866C47.9257 44.9006 47.8253 45.1617 47.8253 45.4227H47.7851ZM52.4024 67.5117C55.3936 67.5117 57.341 67.3109 60.011 65.9654C64.1666 63.877 67.1979 59.9412 68.1415 55.3427C69.1854 50.3024 67.4991 45.001 63.8855 41.4066C61.2155 38.7358 57.1201 37.0289 53.2055 37.0289C49.5919 37.0289 46.1791 38.3744 43.5694 40.4829C40.6183 42.8725 38.671 46.2661 38.1089 50.1016C37.2256 56.2664 39.9758 61.8489 45.1553 65.2425C47.0022 66.4474 49.8931 67.5117 52.3824 67.5117H52.4024ZM34.6358 52.2703C34.6358 42.0291 42.9671 33.6955 53.2055 33.6955C63.4438 33.6955 71.7751 42.0291 71.7751 52.2703C71.7751 62.5116 63.4438 70.8451 53.2055 70.8451C42.9671 70.8451 34.6358 62.5116 34.6358 52.2703Z" fill="white"/>
</svg>
