<svg width="105" height="105" viewBox="0 0 105 105" fill="none" xmlns="http://www.w3.org/2000/svg">
<path fill-rule="evenodd" clip-rule="evenodd" d="M19.8247 0H85.6515C96.2914 0 104.984 8.69501 104.984 19.3379V85.183C104.984 95.8259 96.2914 104.521 85.6515 104.521H19.8247C9.18478 104.521 0.492188 95.8259 0.492188 85.183V19.3379C0.492188 8.69501 9.18478 0 19.8247 0Z" fill="#F15744"/>
<path fill-rule="evenodd" clip-rule="evenodd" d="M47.9498 46.2662V47.3706C47.9498 48.2943 48.9134 47.712 50.5797 47.9329C51.1217 48.0132 51.3425 48.0333 51.8243 48.2742C52.2861 48.4951 52.4065 48.6759 52.6474 49.0574H48.7126C47.8293 49.0574 47.9297 49.1176 47.9297 50.3426C47.9297 50.9249 48.2107 50.8446 48.7728 50.8446H52.7879C52.7879 51.0253 52.6073 51.3265 52.527 51.447C52.4266 51.6077 52.2258 51.8085 52.0853 51.9089C51.0414 52.692 49.6562 52.5916 48.3513 52.6117C48.1907 52.6117 48.1104 52.6318 48.0301 52.7322C47.8494 52.933 47.9096 53.7362 47.9096 54.1379C47.9096 54.4591 47.9699 54.4993 48.1305 54.66C48.2108 54.7403 48.2309 54.7804 48.3112 54.8608C48.3714 54.921 48.4316 54.9813 48.4918 55.0415L50.3588 57.1299C50.3588 57.1299 50.4191 57.1901 50.4592 57.2303C50.4994 57.2905 50.4993 57.2905 50.5395 57.3508L52.7277 59.9211C52.8481 60.0617 52.9485 60.1822 53.069 60.3228C53.2296 60.5035 53.3099 60.6842 53.4905 60.6842H55.6386C55.8594 60.6842 55.9397 60.4834 55.9397 60.2826C55.9397 60.2023 55.7189 59.9613 55.6587 59.9011C55.5583 59.7605 55.4579 59.6601 55.3575 59.5396C54.7151 58.7364 53.8519 57.7122 53.2296 56.9893C52.7879 56.5074 52.2861 55.8648 51.8243 55.3829C51.744 55.3025 51.744 55.2624 51.6637 55.2021L51.0213 54.4792C51.4831 54.4792 52.266 54.2383 52.6273 54.0977C53.8921 53.5957 54.6148 52.8326 55.0966 51.6277C55.197 51.3868 55.2371 51.1257 55.2973 50.8446H56.6022C57.5056 50.8446 57.4253 50.9048 57.4253 49.5996C57.4253 49.198 57.3049 49.0775 56.9034 49.0775H55.2371C55.2371 48.6156 54.8356 47.9529 54.5947 47.5915H56.9837C57.2447 47.5915 57.3851 47.4509 57.3851 47.1899V46.2662C57.3851 46.0252 57.2848 45.8244 57.0639 45.8244H48.1907C47.9699 45.8244 47.8695 46.0654 47.8695 46.2862M52.005 65.6442C54.6349 65.6442 56.3412 65.4635 58.69 64.2988C62.3437 62.4714 64.9937 58.9974 65.8368 54.9612C66.7603 50.5233 65.2747 45.8846 62.1028 42.7319C59.754 40.3825 56.1606 38.8965 52.7076 38.8965C49.5357 38.8965 46.5445 40.0612 44.2559 41.9287C41.6662 44.0372 39.9599 47.0092 39.478 50.3627C38.6951 55.7644 41.1041 60.6641 45.6612 63.6562C47.2873 64.7205 49.8168 65.6442 52.005 65.6442Z" fill="white"/>
<path fill-rule="evenodd" clip-rule="evenodd" d="M52.7272 68.6965C51.2617 68.6965 49.5152 68.4153 48.3709 68.074C47.6884 67.8732 47.1262 67.7125 46.4638 67.4314C44.657 66.6683 43.3119 65.7847 41.7662 64.4996C40.6219 63.5357 39.6382 61.9694 39.2969 61.8891C39.2969 66.3269 39.8791 68.5358 42.9908 71.4275C45.0184 73.3351 47.9895 73.8974 50.9004 73.8974H62.3032V78.275C62.6444 78.1947 73.3445 71.4475 74.7097 70.5439C75.3922 70.1021 76.0547 69.7005 76.7573 69.2387C77.1187 69.0178 77.4198 68.837 77.7611 68.6161C78.0823 68.3952 78.5641 68.1944 78.7849 67.9133C76.3358 66.2667 72.5415 63.9975 69.9116 62.3308C69.3897 62.0095 67.2818 60.5838 66.8803 60.4834C66.7197 61.1661 65.0334 63.1943 64.5115 63.7164C63.5679 64.6602 62.6043 65.5036 61.4198 66.2265C60.2354 66.9294 59.051 67.5519 57.5855 67.9736C56.1601 68.3752 54.5139 68.7366 52.7473 68.7366" fill="white"/>
<path fill-rule="evenodd" clip-rule="evenodd" d="M26.6895 36.5471V36.7479C27.0508 36.8483 32.2102 40.1616 32.5916 40.4026C33.0533 40.7239 33.5351 40.985 34.037 41.3063L36.968 43.1537C37.2692 43.3545 38.1926 43.9971 38.4937 44.0774C38.7145 43.9168 38.8551 43.5955 39.0358 43.2943C39.618 42.4107 40.5414 41.2661 41.3042 40.5633C42.5288 39.4387 42.1474 39.6596 43.7936 38.5753C46.7848 36.5872 49.4548 35.9246 53.4498 35.9246C56.4009 35.9246 59.0709 37.0491 61.0182 38.1335C61.8613 38.5953 63.1462 39.5592 63.8086 40.2219C64.0496 40.4629 64.2503 40.5833 64.4511 40.8042L66.1775 42.732C66.1775 39.0773 65.8964 37.0692 63.648 34.278C61.9818 32.2096 58.8701 30.7236 56.0998 30.7236H43.1713V26.2456C41.7459 27.0087 36.9479 30.1614 34.9805 31.3863L28.8175 35.3021C28.3959 35.5631 27.0508 36.4668 26.7095 36.5471" fill="white"/>
</svg>
