<svg width="105" height="105" viewBox="0 0 105 105" fill="none" xmlns="http://www.w3.org/2000/svg">
<path fill-rule="evenodd" clip-rule="evenodd" d="M19.809 0H85.6358C96.2757 0 104.968 8.69501 104.968 19.3379V85.183C104.968 95.8259 96.2757 104.521 85.6358 104.521H19.809C9.1691 104.521 0.476562 95.8259 0.476562 85.183V19.3379C0.476562 8.69501 9.18917 0 19.809 0Z" fill="#F15744"/>
<path fill-rule="evenodd" clip-rule="evenodd" d="M27.7383 33.6956V76.1064C27.7383 77.5723 28.9629 78.6767 30.1071 78.6767H52.9126C54.4383 78.6767 55.382 77.2911 55.382 75.4839V34.3984C55.382 32.6112 54.4183 31.2056 52.9126 31.2056H50.1222V34.0972H51.668V36.3663H31.3518V34.0972H32.8976V31.2056C31.131 31.2056 29.5852 30.9445 28.5413 31.9084C28.1799 32.2498 27.7383 33.0329 27.7383 33.6956ZM50.9654 52.7925H32.195C31.5727 52.7925 30.9503 52.17 30.9503 51.5475V40.6034C30.9503 39.9809 31.5727 39.3584 32.195 39.3584H50.865C51.6078 39.3584 52.21 40.1014 52.21 40.9046V51.2262C52.21 51.9491 51.668 52.7724 50.9654 52.7724V52.7925ZM38.7797 60.8449C35.9892 60.8449 36.0093 57.0296 38.7797 57.0296C39.8236 57.0296 40.5664 57.9734 40.6065 58.8971C40.6266 59.881 39.8236 60.8449 38.7797 60.8449ZM44.7621 60.8449C44.0394 60.8449 43.5174 60.8449 42.9754 60.2626C41.8512 59.0176 42.855 57.0296 44.1398 57.0296C44.8625 57.0296 45.4045 57.0296 45.9064 57.6521C47.151 59.1983 45.7458 60.8449 44.7621 60.8449ZM48.2753 58.9774C48.2753 57.9131 49.1184 57.0095 49.9214 57.0095C50.5438 57.0095 51.1661 56.9693 51.6881 57.6119C52.9327 59.118 51.5676 60.8248 50.5237 60.8248C49.9013 60.8248 49.279 60.865 48.7571 60.2224C48.5162 59.9413 48.2552 59.4393 48.2552 58.9573L48.2753 58.9774ZM30.9503 59.0778C30.9503 56.2866 34.7646 56.2866 34.7646 59.0778C34.7646 61.4273 30.9503 61.4273 30.9503 59.0778ZM38.5789 67.7527C36.2301 67.7527 35.9491 63.837 38.6793 63.837C41.1687 63.837 41.2891 67.7527 38.5789 67.7527ZM44.4609 67.7527C43.4572 67.7527 42.4936 66.9294 42.4936 65.6844C42.4936 63.2145 46.4083 63.2145 46.4083 65.7848C46.4083 66.8089 45.4848 67.7527 44.4409 67.7527H44.4609ZM48.2753 65.7848C48.2753 63.2145 52.1899 63.2145 52.1899 65.7848C52.1899 68.3552 48.2753 68.3552 48.2753 65.7848ZM30.9503 66.1061C30.9503 65.4836 30.9102 64.8611 31.5526 64.339C32.3355 63.6763 33.4597 63.6763 34.1824 64.339C35.3669 65.4234 34.7244 67.7728 32.9177 67.7728C31.8738 67.7728 30.9503 66.9093 30.9503 66.1262V66.1061ZM38.7797 74.5601C37.4346 74.5601 36.7119 73.8172 36.7119 72.4918C36.7119 69.6403 41.5099 70.4436 40.466 73.3553C40.2452 73.9376 39.5425 74.5601 38.7797 74.5601ZM44.5614 74.5601C41.6705 74.5601 41.9917 70.6444 44.4609 70.6645C46.9904 70.6645 47.0105 74.5601 44.5614 74.5601ZM48.2753 72.5922C48.2753 70.1022 52.1899 69.9817 52.1899 72.6926C52.1899 73.5159 51.4673 74.5601 50.1222 74.5601C49.0783 74.5601 48.2753 73.6565 48.2753 72.5922ZM30.9503 72.8131C30.9503 69.7207 34.7646 70.4837 34.7646 72.291C34.7646 73.034 34.8048 73.3954 34.2828 73.9778C33.1385 75.2027 30.9503 74.4196 30.9503 72.8131Z" fill="white"/>
<path fill-rule="evenodd" clip-rule="evenodd" d="M56.4258 67.6524H74.9954C76.3204 67.6524 77.6855 66.1865 77.6855 64.8612V51.9692H56.4258V67.6524ZM57.7709 54.7404H58.9152V56.8087H57.7709V54.7404ZM60.3405 54.7404H61.4848V56.8087H60.3405V54.7404ZM62.9303 54.7404H64.0745V56.8087H62.9303V54.7404ZM65.4998 54.7404H66.5237V56.8087H65.4998V54.7404ZM68.7118 63.6161V60.0016C68.7118 59.5196 68.9528 59.2787 69.4346 59.2787H72.9478C73.4296 59.2787 73.6705 59.5196 73.6705 60.0016V63.6161C73.6705 64.0981 73.4296 64.3391 72.9478 64.3391H69.4346C68.9528 64.3391 68.7118 64.0981 68.7118 63.6161Z" fill="white"/>
<path fill-rule="evenodd" clip-rule="evenodd" d="M34.043 27.1897V35.3425H48.7982C49.2399 35.3425 49.1194 34.8806 49.1194 34.4188V28.1134C49.1194 26.9688 49.0191 26.6274 49.4206 25.8442H34.9062C34.3441 26.0049 34.063 26.6073 34.063 27.1897" fill="white"/>
<path fill-rule="evenodd" clip-rule="evenodd" d="M56.4258 46.1858H77.6855C77.6855 44.74 77.6856 43.3745 75.9792 42.5311C75.6178 42.3503 75.2966 42.27 74.7947 42.27H56.4258V46.1858Z" fill="white"/>
<path d="M77.6855 47.3105H56.4258V50.8247H77.6855V47.3105Z" fill="white"/>
<path fill-rule="evenodd" clip-rule="evenodd" d="M50.0234 27.8122V28.5351H52.8139C52.8139 27.0089 53.0949 25.8442 51.2681 25.8442C50.3045 25.8442 50.0234 26.9487 50.0234 27.8122Z" fill="white"/>
</svg>
