<svg width="52" height="52" viewBox="0 0 52 52" fill="none" xmlns="http://www.w3.org/2000/svg">
<g clip-path="url(#clip0_701_6758)">
<path d="M42.3367 11.0934L34.4067 3.16336C33.3992 2.15737 32.2031 1.36011 30.8869 0.817285C29.5708 0.274455 28.1604 -0.00327013 26.7367 2.90521e-05H17.3333C14.4605 0.00106272 11.7056 1.14276 9.67415 3.17418C7.64273 5.2056 6.50103 7.9605 6.5 10.8334V41.1667C6.50103 44.0396 7.64273 46.7945 9.67415 48.8259C11.7056 50.8573 14.4605 51.999 17.3333 52H34.6667C37.5395 51.999 40.2944 50.8573 42.3259 48.8259C44.3573 46.7945 45.499 44.0396 45.5 41.1667V18.7634C45.5033 17.3396 45.2256 15.9293 44.6827 14.6131C44.1399 13.2969 43.3427 12.1008 42.3367 11.0934ZM15.1667 19.5H23.8333C24.408 19.5 24.9591 19.7283 25.3654 20.1346C25.7717 20.541 26 21.0921 26 21.6667C26 22.2413 25.7717 22.7924 25.3654 23.1988C24.9591 23.6051 24.408 23.8334 23.8333 23.8334H15.1667C14.592 23.8334 14.0409 23.6051 13.6346 23.1988C13.2283 22.7924 13 22.2413 13 21.6667C13 21.0921 13.2283 20.541 13.6346 20.1346C14.0409 19.7283 14.592 19.5 15.1667 19.5ZM15.1667 30.3334C14.592 30.3334 14.0409 30.1051 13.6346 29.6988C13.2283 29.2924 13 28.7413 13 28.1667C13 27.5921 13.2283 27.041 13.6346 26.6346C14.0409 26.2283 14.592 26 15.1667 26H23.8333C24.408 26 24.9591 26.2283 25.3654 26.6346C25.7717 27.041 26 27.5921 26 28.1667C26 28.7413 25.7717 29.2924 25.3654 29.6988C24.9591 30.1051 24.408 30.3334 23.8333 30.3334H15.1667ZM36.8333 45.5H30.3333C29.7587 45.5 29.2076 45.2718 28.8013 44.8654C28.3949 44.4591 28.1667 43.908 28.1667 43.3334C28.1667 42.7587 28.3949 42.2076 28.8013 41.8013C29.2076 41.395 29.7587 41.1667 30.3333 41.1667C30.3333 40.5921 30.1051 40.041 29.6987 39.6346C29.2924 39.2283 28.7413 39 28.1667 39C27.592 39 27.0409 39.2283 26.6346 39.6346C26.2283 40.041 26 40.5921 26 41.1667C26 41.7413 25.7717 42.2924 25.3654 42.6988C24.9591 43.1051 24.408 43.3334 23.8333 43.3334C23.2587 43.3334 22.7076 43.1051 22.3013 42.6988C21.8949 42.2924 21.6667 41.7413 21.6667 41.1667C21.6667 39.4428 22.3515 37.7895 23.5705 36.5705C24.7895 35.3515 26.4428 34.6667 28.1667 34.6667C29.8906 34.6667 31.5439 35.3515 32.7629 36.5705C33.9818 37.7895 34.6667 39.4428 34.6667 41.1667H36.8333C37.408 41.1667 37.9591 41.395 38.3654 41.8013C38.7717 42.2076 39 42.7587 39 43.3334C39 43.908 38.7717 44.4591 38.3654 44.8654C37.9591 45.2718 37.408 45.5 36.8333 45.5ZM34.6667 17.3334C32.9443 17.3283 31.2939 16.6419 30.076 15.424C28.8581 14.2061 28.1717 12.5557 28.1667 10.8334V4.5067C29.3615 4.77985 30.4568 5.38 31.33 6.24003L39.26 14.17C40.12 15.0433 40.7202 16.1385 40.9933 17.3334H34.6667Z" fill="#F15744"/>
</g>
<defs>
<clipPath id="clip0_701_6758">
<rect width="52" height="52" fill="white"/>
</clipPath>
</defs>
</svg>
