<svg width="55" height="55" viewBox="0 0 55 55" fill="none" xmlns="http://www.w3.org/2000/svg">
<g clip-path="url(#clip0_701_6762)">
<mask id="mask0_701_6762" style="mask-type:luminance" maskUnits="userSpaceOnUse" x="0" y="0" width="55" height="55">
<path d="M0 0H55V55H0V0Z" fill="white"/>
</mask>
<g mask="url(#mask0_701_6762)">
<path fill-rule="evenodd" clip-rule="evenodd" d="M11.33 0C5.07262 0 0 5.07262 0 11.33V43.67C0 49.9273 5.07262 55 11.33 55H25.2904C21.3612 51.1823 18.92 45.8412 18.92 39.93C18.92 28.3265 28.3265 18.92 39.93 18.92C40.4106 18.92 40.8874 18.9362 41.36 18.9678V11.33C41.36 5.07262 36.2873 0 30.03 0H11.33ZM8.03 12.32C8.03 10.6797 9.35971 9.35 11 9.35H26.18C27.8203 9.35 29.15 10.6797 29.15 12.32C29.15 13.9603 27.8203 15.29 26.18 15.29H11C9.35971 15.29 8.03 13.9603 8.03 12.32ZM11 19.25C9.35971 19.25 8.03 20.5797 8.03 22.22C8.03 23.8603 9.35971 25.19 11 25.19H15.18C16.8203 25.19 18.15 23.8603 18.15 22.22C18.15 20.5797 16.8203 19.25 15.18 19.25H11Z" fill="#F15744"/>
<path fill-rule="evenodd" clip-rule="evenodd" d="M39.9299 55C48.2528 55 54.9999 48.2529 54.9999 39.93C54.9999 31.6071 48.2528 24.86 39.9299 24.86C31.6069 24.86 24.8599 31.6071 24.8599 39.93C24.8599 48.2529 31.6069 55 39.9299 55ZM43.0555 33.0716C44.2154 31.9118 46.0959 31.9118 47.2558 33.0716C48.4156 34.2314 48.4156 36.112 47.2558 37.2718L37.3774 47.1502C36.2176 48.31 34.3371 48.31 33.1772 47.1502C32.0173 45.9902 32.0173 44.1098 33.1772 42.9499L43.0555 33.0716ZM37.8399 33.44C37.8399 35.384 36.2639 36.96 34.3199 36.96C32.3758 36.96 30.7999 35.384 30.7999 33.44C30.7999 31.496 32.3758 29.92 34.3199 29.92C36.2639 29.92 37.8399 31.496 37.8399 33.44ZM46.5299 50.16C48.4739 50.16 50.0499 48.584 50.0499 46.64C50.0499 44.696 48.4739 43.12 46.5299 43.12C44.5858 43.12 43.0099 44.696 43.0099 46.64C43.0099 48.584 44.5858 50.16 46.5299 50.16Z" fill="#F15744"/>
</g>
</g>
<defs>
<clipPath id="clip0_701_6762">
<rect width="55" height="55" fill="white"/>
</clipPath>
</defs>
</svg>
