<svg width="57" height="47" viewBox="0 0 57 47" fill="none" xmlns="http://www.w3.org/2000/svg">
<path d="M8.48242 12.9724H46.8478C49.6101 12.9724 51.8575 15.2198 51.8575 17.9821V30.6209H55.3302C56.251 30.6209 57.0001 29.8718 57.0001 28.951V8.61877H8.48242V12.9724Z" fill="#F15744"/>
<path d="M57.0001 1.8064C57.0001 0.885602 56.251 0.136475 55.3302 0.136475H10.1523C9.23155 0.136475 8.48242 0.885602 8.48242 1.8064V5.27894H57.0001V1.8064Z" fill="#F15744"/>
<path d="M48.5177 17.9822C48.5177 17.0614 47.7686 16.3123 46.8478 16.3123H1.66992C0.749127 16.3123 0 17.0614 0 17.9822V45.1937C0 46.1145 0.749127 46.8636 1.66992 46.8636H46.8478C47.7686 46.8636 48.5177 46.1145 48.5177 45.1937V17.9822ZM4.74002 32.8555H15.015C15.9373 32.8555 16.685 33.6032 16.685 34.5254C16.685 35.4477 15.9373 36.1953 15.015 36.1953H4.74002C3.81778 36.1953 3.0701 35.4477 3.0701 34.5254C3.0701 33.6032 3.81778 32.8555 4.74002 32.8555ZM22.5262 42.6507H4.74002C3.81778 42.6507 3.0701 41.903 3.0701 40.9808C3.0701 40.0585 3.81778 39.3109 4.74002 39.3109H22.5262C23.4485 39.3109 24.1962 40.0585 24.1962 40.9808C24.1962 41.903 23.4485 42.6507 22.5262 42.6507ZM42.6764 42.2106H32.9281C32.0058 42.2106 31.2582 41.4629 31.2582 40.5407V22.635C31.2582 21.7128 32.0058 20.9651 32.9281 20.9651H42.6764C43.5987 20.9651 44.3463 21.7128 44.3463 22.635V40.5406C44.3463 41.4629 43.5987 42.2106 42.6764 42.2106Z" fill="#F15744"/>
<path d="M34.5981 33.2578H41.0066V38.8708H34.5981V33.2578Z" fill="#F15744"/>
<path d="M34.5981 24.3049H41.0066V29.9179H34.5981V24.3049Z" fill="#F15744"/>
</svg>
