<svg width="382" height="344" viewBox="0 0 382 344" fill="none" xmlns="http://www.w3.org/2000/svg">
<path d="M317.13 42.0558L334.77 51.1551L287.188 137.586L247.388 136.481L186.45 244.941L111.82 232.618L2.33453 375.137L22.7606 445.617L133.057 284.09L207.028 288.713L265.435 171.523L308.873 171.563L362.294 58.9725L380.664 67.8603L373.555 5.18168L317.13 42.0558Z" fill="#EDF0F7" stroke="#EDF0F7" stroke-linecap="round" stroke-linejoin="round"/>
<path d="M315.81 37.5032L333.448 46.5929L285.866 133.024L246.068 131.929L185.128 240.378L110.498 228.055L1.01233 370.575L21.4412 441.064L131.738 279.538L205.705 284.15L264.113 166.96L307.551 167L334.261 110.705L360.971 54.4103L379.341 63.2981L372.233 0.619429L315.81 37.5032Z" fill="#F15744" stroke="#EDF0F7" stroke-linecap="round" stroke-linejoin="round"/>
</svg>
