<svg width="476" height="344" viewBox="0 0 476 344" fill="none" xmlns="http://www.w3.org/2000/svg">
<g clip-path="url(#clip0_1445_4657)">
<path d="M387.13 42.0558L404.77 51.1551L357.188 137.586L317.388 136.481L256.45 244.941L181.82 232.618L72.3345 375.137L92.7606 445.617L203.057 284.09L277.028 288.713L335.435 171.523L378.873 171.563L432.294 58.9725L450.664 67.8603L443.555 5.18168L387.13 42.0558Z" fill="#EDF0F7" stroke="#EDF0F7" stroke-linecap="round" stroke-linejoin="round"/>
<path d="M385.81 37.5032L403.448 46.5929L355.866 133.024L316.068 131.929L255.128 240.378L180.498 228.055L71.0123 370.575L91.4412 441.064L201.738 279.538L275.705 284.15L334.113 166.96L377.551 167L404.261 110.705L430.971 54.4103L449.341 63.2981L442.233 0.619429L385.81 37.5032Z" fill="#F15744" stroke="#EDF0F7" stroke-linecap="round" stroke-linejoin="round"/>
</g>
<defs>
<clipPath id="clip0_1445_4657">
<rect width="460.53" height="331.13" fill="white" transform="translate(0.245972 128.193) rotate(-16.1624)"/>
</clipPath>
</defs>
</svg>
