  <svg width="132" height="256" viewBox="0 0 132 256" fill="none" xmlns="http://www.w3.org/2000/svg">
                        <g clip-path="url(#clip0_13_351)">
                            <path
                                d="M23.65 225.92C23.65 217.86 18.35 211.32 11.82 211.32C5.28999 211.32 -0.0100098 217.86 -0.0100098 225.92C-0.0100098 231.77 2.77999 236.8 6.79999 239.13L12.09 273.78L16.86 239.11C20.86 236.77 23.64 231.75 23.64 225.92H23.65Z"
                                fill="#F15744" />
                            <path
                                d="M11.98 232.16C13.6645 232.16 15.03 227.566 15.03 221.9C15.03 216.234 13.6645 211.64 11.98 211.64C10.2955 211.64 8.92999 216.234 8.92999 221.9C8.92999 227.566 10.2955 232.16 11.98 232.16Z"
                                fill="white" />
                            <path
                                d="M131.57 225.92C131.57 217.86 126.27 211.32 119.74 211.32C113.21 211.32 107.91 217.86 107.91 225.92C107.91 231.77 110.7 236.8 114.72 239.13L120.01 273.78L124.78 239.11C128.78 236.77 131.56 231.75 131.56 225.92H131.57Z"
                                fill="#F15744" />
                            <path
                                d="M120.06 232.16C121.744 232.16 123.11 227.566 123.11 221.9C123.11 216.234 121.744 211.64 120.06 211.64C118.376 211.64 117.01 216.234 117.01 221.9C117.01 227.566 118.376 232.16 120.06 232.16Z"
                                fill="white" />
                            <path
                                d="M87.58 231.41C87.58 217.05 78.15 205.41 66.52 205.41C54.89 205.41 45.46 217.05 45.46 231.41C45.46 241.82 50.43 250.78 57.59 254.93L67.02 316.65L75.51 254.9C82.64 250.73 87.59 241.8 87.59 231.41H87.58Z"
                                fill="#F15744" />
                            <path
                                d="M66.52 240C70.3749 240 73.5 232.599 73.5 223.47C73.5 214.341 70.3749 206.94 66.52 206.94C62.665 206.94 59.54 214.341 59.54 223.47C59.54 232.599 62.665 240 66.52 240Z"
                                fill="white" />
                            <path d="M80.95 163.71L118.62 175.42V202.4H76.88L80.95 163.71Z" fill="white"
                                stroke="#F15744" stroke-miterlimit="10" />
                            <path d="M95.73 168.3L80.95 163.71L76.88 202.4H89.25L95.73 168.3Z" fill="#F15744"
                                stroke="#F15744" stroke-miterlimit="10" />
                            <path
                                d="M111.71 149.19C112.57 146.2 115.31 136.78 119.66 136.21C124.01 136.77 126.75 146.19 127.61 149.19C130.41 158.93 131.21 169.16 130.02 179.22C129.91 180.11 129.79 181 129.66 181.88C129.66 181.9 125.01 212.57 125.01 212.57H114.32C114.32 212.57 109.67 181.9 109.67 181.87C109.54 180.99 109.42 180.1 109.31 179.21C108.12 169.15 108.92 158.92 111.72 149.18L111.71 149.19Z"
                                fill="white" stroke="#F15744" stroke-miterlimit="10" />
                            <path
                                d="M111.11 151.49C111.31 150.72 111.49 149.95 111.71 149.19C112.57 146.2 115.31 136.78 119.66 136.21C124.01 136.77 126.75 146.19 127.61 149.19C127.83 149.95 128.01 150.72 128.21 151.49H111.12H111.11Z"
                                fill="#F15744" stroke="#F15744" stroke-miterlimit="10" />
                            <path
                                d="M126.23 204.43C125.53 209.07 125 212.58 125 212.58H114.31C114.31 212.58 113.78 209.07 113.08 204.43H126.24H126.23Z"
                                fill="#F15744" stroke="#F15744" stroke-miterlimit="10" />
                            <path d="M50.92 163.71L13.25 175.42V202.4H54.99L50.92 163.71Z" fill="white" stroke="#F15744"
                                stroke-miterlimit="10" />
                            <path d="M42.94 202.4H54.99L50.92 163.71L36.12 168.31L42.94 202.4Z" fill="#F15744"
                                stroke="#F15744" stroke-miterlimit="10" />
                            <path
                                d="M94.95 119.95C94.66 122.41 94.33 124.88 93.95 127.34C93.95 127.36 92.81 134.88 91.21 145.44C87.42 170.47 81.04 212.58 81.04 212.58H51.34C51.34 212.58 45.16 171.8 41.35 146.65C39.65 135.45 38.43 127.36 38.42 127.34C38.05 124.88 37.72 122.41 37.43 119.95C34.69 96.81 35.74 73.34 40.6 50.6C41.61 45.88 42.78 41.19 44.12 36.54C46.51 28.23 54.12 2.06001 66.19 0.51001C78.26 2.06001 85.87 28.23 88.26 36.54C89.69 41.5 90.93 46.51 91.98 51.55C96.67 73.99 97.65 97.13 94.95 119.95Z"
                                fill="white" stroke="#F15744" stroke-miterlimit="10" />
                            <path
                                d="M83.72 22.7C79.85 12.65 73.94 1.50001 66.19 0.51001C58.44 1.51001 52.53 12.65 48.66 22.7H83.72Z"
                                fill="#F15744" stroke="#F15744" stroke-miterlimit="10" />
                            <path
                                d="M49.49 200.36C50.61 207.73 51.34 212.58 51.34 212.58H81.04C81.04 212.58 81.77 207.73 82.89 200.36H49.49Z"
                                fill="#F15744" stroke="#F15744" stroke-miterlimit="10" />
                            <path
                                d="M20.17 149.19C19.31 146.2 16.57 136.78 12.22 136.21C7.86998 136.77 5.12998 146.19 4.26998 149.19C1.46998 158.93 0.669977 169.16 1.85998 179.22C1.96998 180.11 2.08998 181 2.21998 181.88C2.21998 181.9 6.86998 212.57 6.86998 212.57H17.56C17.56 212.57 22.21 181.9 22.21 181.87C22.34 180.99 22.46 180.1 22.57 179.21C23.76 169.15 22.96 158.92 20.16 149.18L20.17 149.19Z"
                                fill="white" stroke="#F15744" stroke-miterlimit="10" />
                            <path
                                d="M20.77 151.49C20.58 150.72 20.39 149.95 20.17 149.19C19.31 146.2 16.57 136.78 12.22 136.21C7.86998 136.77 5.12998 146.19 4.26998 149.19C4.04998 149.95 3.86998 150.72 3.66998 151.49H20.76H20.77Z"
                                fill="#F15744" stroke="#F15744" stroke-miterlimit="10" />
                            <path
                                d="M5.63998 204.43C6.33998 209.07 6.86998 212.58 6.86998 212.58H17.56C17.56 212.58 18.09 209.07 18.79 204.43H5.63998Z"
                                fill="#F15744" stroke="#F15744" stroke-miterlimit="10" />
                            <path
                                d="M70.4933 81.7831C80.6246 79.4124 86.9159 69.2775 84.5452 59.1461C82.1745 49.0148 72.0396 42.7235 61.9082 45.0942C51.7768 47.4649 45.4856 57.5998 47.8563 67.7312C50.227 77.8626 60.3619 84.1538 70.4933 81.7831Z"
                                fill="#F15744" stroke="#F15744" stroke-miterlimit="10" />
                            <path
                                d="M66.18 75.67C72.9565 75.67 78.45 70.1765 78.45 63.4C78.45 56.6235 72.9565 51.13 66.18 51.13C59.4034 51.13 53.91 56.6235 53.91 63.4C53.91 70.1765 59.4034 75.67 66.18 75.67Z"
                                fill="white" stroke="#F15744" stroke-miterlimit="10" />
                            <path
                                d="M70.4927 132.684C80.624 130.313 86.9153 120.179 84.5446 110.047C82.1739 99.9158 72.039 93.6245 61.9076 95.9952C51.7762 98.3659 45.485 108.501 47.8557 118.632C50.2264 128.764 60.3613 135.055 70.4927 132.684Z"
                                fill="#F15744" stroke="#F15744" stroke-miterlimit="10" />
                            <path
                                d="M68.9847 126.265C75.5819 124.716 79.6746 118.113 78.1261 111.516C76.5775 104.918 69.974 100.826 63.3768 102.374C56.7796 103.923 52.6868 110.526 54.2354 117.123C55.784 123.721 62.3875 127.813 68.9847 126.265Z"
                                fill="white" stroke="#F15744" stroke-miterlimit="10" />
                            <path d="M32.99 198.69V230.41" stroke="#F15744" stroke-miterlimit="10" />
                            <path d="M32.99 237.46V244.51" stroke="#F15744" stroke-miterlimit="10" />
                            <path d="M95.04 200.8V263.55" stroke="#F15744" stroke-miterlimit="10" />
                            <path d="M103.03 196.57V209.37" stroke="#F15744" stroke-miterlimit="10" />
                            <path d="M25.88 198.99V207.29" stroke="#F15744" stroke-miterlimit="10" />
                        </g>
                        <defs>
                            <clipPath id="clip0_13_351">
                                <rect width="131.57" height="316.65" fill="white" />
                            </clipPath>
                        </defs>
                    </svg>