<svg width="48" height="48" viewBox="0 0 48 48" fill="none" xmlns="http://www.w3.org/2000/svg">
<path fill-rule="evenodd" clip-rule="evenodd" d="M8.8807 0H39.1193C44.0069 0 48 4.0023 48 8.88068V39.1193C48 44.0069 44.0069 48 39.1193 48H8.8807C3.99309 48 0 44.0069 0 39.1193V8.88068C0 3.99307 3.99309 0 8.8807 0Z" fill="#FBEFE8"/>
<g clip-path="url(#clip0_2171_19615)">
<path d="M35.0305 22.2026C34.8862 22.409 34.8356 22.6576 34.792 22.9157C34.7487 23.2274 34.6729 23.5339 34.5655 23.8304C34.4081 24.2483 34.1361 24.6155 33.7793 24.8917C33.3537 23.797 32.7375 22.7829 31.9581 21.8944C32.3926 21.7355 32.8627 21.6937 33.3193 21.7733C33.6406 21.8328 33.9552 21.9232 34.2585 22.0432C34.5154 22.1365 34.7637 22.2176 35.0251 22.2032L35.0305 22.2026Z" fill="#F15744"/>
<path d="M30.2714 17.6598C30.2556 17.9062 30.3438 18.1462 30.4391 18.391C30.5642 18.6807 30.6589 18.9822 30.7216 19.2907C30.805 19.7276 30.7607 20.1787 30.5937 20.592C29.6531 19.8443 28.59 19.258 27.4495 18.8582C27.7445 18.5108 28.1306 18.2486 28.5661 18.0998C28.8775 17.9983 29.1983 17.9269 29.5238 17.8864C29.7961 17.8448 30.0552 17.7952 30.2714 17.6587V17.6598Z" fill="#F15744"/>
<path d="M34.2803 26.6741C34.7347 26.7433 35.1618 26.931 35.5167 27.2175C35.7646 27.4227 35.9908 27.6518 36.1919 27.9013C36.3655 28.1045 36.5403 28.2949 36.7701 28.4053H34.4371C34.4361 27.8248 34.3836 27.2456 34.2803 26.6741Z" fill="#F15744"/>
<path d="M17.2703 17.6598C17.4881 17.7974 17.7467 17.8459 18.0179 17.887C18.3435 17.9272 18.6642 17.9987 18.9756 18.1003C19.4113 18.2486 19.7974 18.5107 20.0922 18.8582C18.9517 19.2584 17.8885 19.8446 16.9475 20.5921C16.7802 20.1788 16.7362 19.7275 16.8206 19.2907C16.8828 18.9821 16.9775 18.6805 17.1032 18.391C17.1985 18.1489 17.2867 17.9089 17.2703 17.6598Z" fill="#F15744"/>
<path d="M12.5123 22.2032C12.7709 22.2187 13.0225 22.1344 13.2795 22.0432C13.5837 21.9228 13.8994 21.8322 14.2219 21.7728C14.6785 21.6936 15.1485 21.7354 15.5831 21.8939C14.8044 22.7828 14.1891 23.7973 13.7646 24.8923C13.4076 24.6164 13.1357 24.2491 12.9789 23.831C12.8712 23.5348 12.7951 23.2284 12.7519 22.9168C12.7089 22.6582 12.6566 22.4102 12.5134 22.2038L12.5123 22.2032Z" fill="#F15744"/>
<path d="M10.77 28.4053C11.002 28.2949 11.1767 28.1045 11.3477 27.9013C11.5486 27.652 11.7746 27.4231 12.0223 27.2181C12.3765 26.9311 12.8034 26.7431 13.2576 26.6741C13.1547 27.2456 13.1026 27.8249 13.1019 28.4053H10.77Z" fill="#F15744"/>
<path d="M23.7711 16C23.8865 16.2213 24.0858 16.3888 24.2992 16.5515C24.5595 16.7417 24.7994 16.9574 25.0152 17.1952C25.3156 17.5312 25.5137 17.9431 25.5868 18.384C24.3843 18.1872 23.1568 18.1872 21.9542 18.384C22.0278 17.9431 22.2261 17.5313 22.5264 17.1952C22.743 16.9591 22.983 16.7447 23.243 16.5552C23.4558 16.392 23.6557 16.2245 23.7711 16.0053V16Z" fill="#F15744"/>
<path d="M21.6046 28.4107H22.4072C22.5122 27.7643 22.3059 27.2661 21.6204 27.3851C21.0428 27.4853 20.4226 28.0331 20.0475 28.4107L21.1054 28.4064C21.2235 28.3328 21.4538 28.2464 21.5491 28.3109C21.5659 28.3219 21.5797 28.3367 21.5894 28.3541C21.5991 28.3715 21.6043 28.3909 21.6046 28.4107Z" fill="#F15744"/>
<path d="M25.2106 28.4053H26.2124C26.2598 27.2778 26.0676 26.112 25.5193 25.1045C25.0195 24.1872 24.1936 23.5642 23.1237 23.4133C21.5622 23.1936 19.986 23.8272 18.6543 24.7269C17.2033 25.7098 16.0055 27.0442 14.9596 28.4069H16.2821C17.4723 26.7962 20.2114 24.3536 22.2259 24.336C22.8678 24.3312 23.5206 24.4736 24.0036 24.8869C24.3531 25.185 24.7767 25.7632 24.756 26.2325C24.7435 26.5082 24.4838 26.5962 24.2366 26.5082C24.0439 26.4389 23.9099 26.273 23.7727 26.0944C23.5614 25.8121 23.2751 25.5919 22.945 25.4577C22.6149 25.3235 22.2536 25.2805 21.9003 25.3333C21.0058 25.4512 19.8973 26.1141 19.1824 26.72C18.5705 27.2408 17.9972 27.8037 17.4668 28.4042H18.8889C19.4105 27.8042 19.961 27.2928 20.6682 26.8714C20.9171 26.7211 21.1817 26.5975 21.4577 26.5029C22.1884 26.2629 22.9157 26.3237 23.2386 27.192C23.366 27.5333 23.3829 27.832 23.3475 28.3818V28.4037H24.3139V28.376C24.307 28.1091 24.3143 27.8421 24.3357 27.576C24.3602 27.3194 24.4446 27.0533 24.6967 27.0245C25.2281 26.9178 25.2025 28.0458 25.2128 28.4074L25.2106 28.4053Z" fill="#F15744"/>
<path d="M27.267 28.4053H28.2781C28.3265 27.3589 28.2324 26.1189 27.8779 25.0357C27.8092 24.8248 27.7286 24.6177 27.6367 24.4155C27.4183 23.9509 27.1324 23.5198 26.7879 23.1355C26.399 22.6921 25.9424 22.3104 25.4344 22.0037C25.2817 21.9124 25.1243 21.8287 24.9629 21.7531C24.7999 21.6771 24.6326 21.6102 24.462 21.5525C22.496 20.8869 20.5076 21.3605 18.8399 22.2261C18.5132 22.3947 18.2024 22.5787 17.9013 22.7712C17.6002 22.9637 17.3231 23.1664 17.053 23.3728C16.6636 23.674 16.2944 23.9995 15.9478 24.3472C15.8715 24.4251 15.7948 24.5045 15.7207 24.5851C15.5225 24.7984 15.2149 25.1003 15.3075 25.4117C15.3794 25.6587 15.7126 25.5861 15.8291 25.5008C16.0215 25.394 16.2028 25.269 16.3703 25.1275C16.5978 24.944 16.8124 24.7467 17.0372 24.5605C17.8757 23.8554 18.8155 23.2749 19.8265 22.8379C20.0301 22.7525 20.2336 22.6757 20.4368 22.6075C20.6394 22.5387 20.8397 22.4811 21.0395 22.432C22.7725 22.0016 24.6629 22.2805 25.8716 23.632C27.0351 24.9339 27.2474 26.6757 27.2654 28.4069L27.267 28.4053ZM14.7445 26.9333C14.8648 26.8209 14.9763 26.6998 15.0783 26.5712C15.2416 26.3765 15.2563 26.1877 15.1926 26.0512C15.169 26.0013 15.1342 25.9572 15.0908 25.9221C15.0485 25.8887 14.999 25.8651 14.946 25.8533C14.8148 25.8245 14.6574 25.8693 14.5246 26.024C14.3732 26.1995 14.163 26.4981 14.1227 26.7637C14.1146 26.8108 14.113 26.8587 14.1178 26.9061C14.1223 26.9496 14.1352 26.9918 14.156 27.0304C14.1719 27.0602 14.1961 27.0851 14.2257 27.1023C14.2553 27.1194 14.2893 27.1281 14.3237 27.1275C14.3407 27.1291 14.3578 27.1291 14.3748 27.1275C14.3943 27.1259 14.4136 27.1227 14.4325 27.1179C14.5507 27.0831 14.6581 27.0196 14.7445 26.9333Z" fill="#F15744"/>
<path d="M29.7894 28.4058H29.8003C29.8795 28.4073 29.9577 28.3883 30.0271 28.3509C30.0964 28.3135 30.1546 28.2588 30.1956 28.1925C30.2186 28.1561 30.2369 28.1171 30.2501 28.0762C30.2648 28.0262 30.2739 27.9747 30.2773 27.9226V27.9109C30.3573 25.2362 29.4987 23.0213 28.0385 21.5168C27.4785 20.9352 26.8174 20.4557 26.0861 20.1008H26.0801C24.8466 19.5116 23.4725 19.2627 22.1055 19.3808C21.574 19.4237 21.048 19.5179 20.5353 19.6618C19.1301 20.0597 17.825 20.8453 16.759 21.8773C16.5537 22.08 16.3561 22.2933 16.1682 22.5066C16.0749 22.6133 15.9842 22.7237 15.896 22.8378C16.6296 22.2276 17.4289 21.6973 18.2796 21.2565C18.468 21.1598 18.6575 21.0695 18.848 20.9856C19.0386 20.9017 19.2315 20.8231 19.4268 20.7498C20.1336 20.4833 20.8722 20.306 21.6248 20.2224C22.3574 20.1451 23.0971 20.1631 23.8249 20.2757C24.3407 20.3508 24.846 20.4835 25.3309 20.6714C25.4213 20.707 25.5097 20.745 25.596 20.7856C25.6826 20.8261 25.7654 20.8672 25.8481 20.912C27.4815 21.7653 28.6151 23.5146 29.1149 25.4912C29.3113 26.2677 29.4084 27.0651 29.404 27.865V27.8874C29.4121 28.1008 29.4889 28.281 29.6218 28.3616C29.6461 28.3769 29.6727 28.3884 29.7007 28.3957C29.7306 28.4039 29.7616 28.4077 29.7927 28.4069L29.7894 28.4058Z" fill="#F15744"/>
<path d="M26.8701 19.4901C30.9029 20.7632 33.6323 24.3525 33.6497 28.4058H31.7071C31.8361 24.7754 30.1755 21.4981 26.8679 19.4901H26.8701Z" fill="#F15744"/>
<path d="M15.4725 31.3206H14.6868L14.4925 31.9739H13.8663L14.695 29.472H15.4894L16.3414 31.9739H15.6881L15.4725 31.3206ZM14.7767 30.8971H15.3788C15.2217 30.4086 15.1191 30.0735 15.0712 29.8918H15.0636L14.9389 30.3664L14.7756 30.8971H14.7767ZM18.3581 31.3206H17.5757L17.3808 31.9739H16.7547L17.5828 29.472H18.3777L19.2292 31.9739H18.5764L18.3581 31.3206ZM17.6617 30.8971H18.265C18.1071 30.4086 18.0048 30.0735 17.9579 29.8918H17.9503L17.8262 30.3664L17.6628 30.8971H17.6617ZM19.8243 31.9638V29.5056C20.1003 29.4679 20.3787 29.4501 20.6573 29.4523C21.2167 29.4523 21.6178 29.564 21.8606 29.7872C22.1034 30.0105 22.2237 30.3023 22.2216 30.6624C22.2216 31.0891 22.0835 31.4187 21.8072 31.6512C21.531 31.8838 21.1038 32 20.5256 32C20.2913 32.0015 20.0571 31.989 19.8243 31.9627V31.9638ZM20.4276 29.9147V31.544C20.4997 31.5537 20.5726 31.5574 20.6454 31.5552C20.9443 31.5552 21.1768 31.48 21.3406 31.3296C21.5045 31.1792 21.5862 30.9638 21.5862 30.6832C21.5862 30.4262 21.5143 30.2299 21.3619 30.0966C21.2094 29.9632 20.9965 29.895 20.7118 29.895C20.6149 29.8934 20.5181 29.9008 20.4227 29.9168L20.4276 29.9147ZM22.87 29.4731H23.4733V30.4379H24.5039V29.472H25.1066V31.9739H24.5039V30.9334H23.4733V31.976H22.87V29.4731ZM27.2926 31.3216H26.5048L26.3104 31.975H25.6881L26.5157 29.472H27.3101L28.1621 31.9739H27.5126L27.2948 31.3206L27.2926 31.3216ZM26.5963 30.8982H27.199C27.0411 30.4096 26.9387 30.0745 26.8919 29.8928H26.8859L26.7618 30.3675L26.5985 30.8982H26.5963ZM30.1783 31.3216H29.3904L29.1961 31.975H28.5737L29.4019 29.4731H30.1968L31.0483 31.975H30.3966L30.1788 31.3216H30.1783ZM29.4819 30.8982H30.0852C29.9269 30.4096 29.8245 30.0745 29.7781 29.8928H29.7716L29.6474 30.3675L29.4841 30.8982H29.4819ZM31.6439 31.975V29.5056C31.9129 29.4658 32.1848 29.4479 32.4568 29.4523C32.8539 29.4523 33.1392 29.5147 33.3127 29.6395C33.398 29.7007 33.4665 29.7818 33.5119 29.8753C33.5573 29.9689 33.5783 30.072 33.573 30.1755C33.574 30.3117 33.5279 30.4442 33.4423 30.5515C33.3559 30.6621 33.2375 30.7446 33.1025 30.7883V30.8027C33.2659 30.8614 33.3838 31.0148 33.4564 31.263C33.59 31.711 33.6626 31.9487 33.6742 31.976H33.0595C32.9766 31.7879 32.9147 31.5916 32.875 31.3904C32.8566 31.2757 32.8067 31.1681 32.7307 31.079C32.6466 31.0126 32.5394 30.9808 32.4318 30.9904H32.2445V31.9739L31.6439 31.975ZM32.239 29.895V30.584H32.4879C32.6143 30.591 32.7395 30.5567 32.8439 30.4864C32.8857 30.4564 32.9194 30.4169 32.942 30.3713C32.9647 30.3256 32.9757 30.2753 32.9741 30.2246C32.9768 30.1758 32.9676 30.1272 32.9473 30.0826C32.9269 30.0381 32.896 29.999 32.857 29.9686C32.7588 29.9031 32.6412 29.8716 32.5227 29.879C32.4277 29.8753 32.3326 29.8816 32.239 29.8976V29.895Z" fill="#F15744"/>
</g>
<defs>
<clipPath id="clip0_2171_19615">
<rect width="26" height="16" fill="white" transform="translate(10.77 16)"/>
</clipPath>
</defs>
</svg>
