<svg width="48" height="48" viewBox="0 0 48 48" fill="none" xmlns="http://www.w3.org/2000/svg">
<path fill-rule="evenodd" clip-rule="evenodd" d="M8.8807 0H39.1193C44.0069 0 48 4.00231 48 8.88069V39.1193C48 44.0069 44.0069 48 39.1193 48H8.8807C3.99309 48 0 44.0069 0 39.1193V8.88069C0 3.99308 3.99309 0 8.8807 0Z" fill="#FBEFE8"/>
<path fill-rule="evenodd" clip-rule="evenodd" d="M17.9243 12.2529C17.9243 14.4168 18.4863 15.9062 19.8352 17.2551C22.4065 19.8265 26.6076 19.8265 29.1789 17.2551C33.4222 13.0116 30.0781 6 24.8372 6C22.6594 6 21.1981 6.548 19.8352 7.91098C18.9219 8.82432 17.9243 10.4683 17.9243 12.2529Z" fill="#F15744"/>
<path fill-rule="evenodd" clip-rule="evenodd" d="M10.014 34.4118V38.9364H27.8022C27.7179 38.6272 27.6195 38.6694 27.4228 38.4024C25.3152 35.6765 25.3995 31.981 27.2542 29.1707C27.7038 28.4962 28.5609 27.6391 29.2353 27.1895C30.4999 26.3464 32.0314 25.7562 33.7316 25.7562C34.2936 25.7562 34.8416 25.9248 35.3755 25.9248C35.0383 25.419 34.2093 24.7867 33.6894 24.3932C32.9728 23.8593 32.467 23.5642 31.638 23.1567C28.3783 21.5268 26.2285 21.8078 22.6034 21.8078C18.5287 21.8078 14.7913 24.1825 12.4167 27.344C11.1381 29.0442 10 32.0231 10 34.3978" fill="#F15744"/>
<path fill-rule="evenodd" clip-rule="evenodd" d="M32.4102 32.3463H28.462V34.9879H32.4102V38.9363H35.0517V34.9879H39V32.3463H35.0517V28.3978H32.4102V32.3463Z" fill="#F15744"/>
</svg>
