<svg width="48" height="48" viewBox="0 0 48 48" fill="none" xmlns="http://www.w3.org/2000/svg">
<path fill-rule="evenodd" clip-rule="evenodd" d="M8.8807 0H39.1193C44.0069 0 48 3.99308 48 8.88069V39.1193C48 44.0069 44.0069 48 39.1193 48H8.8807C3.99309 48 0 44.0069 0 39.1193V8.88069C0 3.99308 3.99309 0 8.8807 0Z" fill="#FBEFE8"/>
<path fill-rule="evenodd" clip-rule="evenodd" d="M20.9329 12.7279C22.2633 12.7279 22.4203 12.9015 23.2466 12.9841C23.668 13.0337 23.9655 12.3726 23.3127 12.2239C23.0896 12.1743 22.8995 12.1412 22.6516 12.1082C21.9162 11.9842 21.3956 12.0007 20.6519 12.0007C19.4785 12.0007 18.6439 12.2239 17.7184 12.4552L16.4789 12.918C16.2806 13.0172 16.074 13.0915 15.8839 13.1907C15.6773 13.2981 15.5121 13.4304 15.6112 13.6948C15.7848 14.1824 16.3384 13.8436 16.7103 13.6535C17.7762 13.1081 19.6107 12.7362 20.9246 12.7362" fill="#F15744"/>
<path fill-rule="evenodd" clip-rule="evenodd" d="M24.4121 13.0915C24.4121 13.4634 24.9575 13.5708 25.255 13.7196C25.4368 13.8105 25.569 13.8683 25.7343 13.9757C26.0978 14.1989 26.6102 14.4137 26.6102 13.7361C26.6102 13.4303 24.9658 12.7279 24.7757 12.7279C24.5526 12.7279 24.4121 12.8767 24.4121 13.0915Z" fill="#F15744"/>
<path fill-rule="evenodd" clip-rule="evenodd" d="M14.0579 17.1243C14.4711 17.1243 14.5041 16.8681 14.876 16.5706C15.6031 15.9921 16.2312 15.5045 17.1319 15.1079L17.9995 14.7443C19.4952 14.1906 21.528 14.0336 23.1394 14.4137C23.6765 14.5377 24.0483 14.6616 24.0483 14.0584C24.0483 13.5956 21.8998 13.4634 21.6189 13.4634C20.2967 13.4634 19.6687 13.4551 18.3714 13.8353C17.0492 14.2237 15.8015 14.8352 14.7355 15.7029L14.0083 16.3475C13.4877 16.7441 13.8844 17.1243 14.0579 17.1243Z" fill="#F15744"/>
<path fill-rule="evenodd" clip-rule="evenodd" d="M24.4121 14.5542C24.4121 14.86 24.6765 14.9261 24.9079 15.017C25.6268 15.3062 26.6928 15.9838 27.2878 16.4879C27.3952 16.5788 27.42 16.6201 27.5274 16.7028L28.2711 17.43C28.4942 17.7027 28.5355 17.8514 28.9074 17.8514C29.147 17.8514 29.1801 17.5622 29.1801 17.3969C29.1801 17.0994 27.6431 15.8186 27.2878 15.5293C27.1225 15.3888 26.9242 15.2814 26.7424 15.1575C26.5358 15.017 26.3705 14.9261 26.1392 14.7938C25.916 14.6699 25.7343 14.5707 25.5111 14.455C25.2302 14.3145 24.4121 13.8683 24.4121 14.5459" fill="#F15744"/>
<path fill-rule="evenodd" clip-rule="evenodd" d="M20.7511 15.1988C20.7511 15.4136 20.718 15.6533 21.2055 15.6615C22.883 15.6781 24.5357 16.2152 25.8496 17.2069L26.6924 17.9176C27.1965 18.4216 27.6758 19.0828 28.0146 19.7108C28.3121 20.2645 28.8079 20.1323 28.8079 19.653C28.8079 19.4629 28.403 18.8596 28.2955 18.7026C27.9815 18.2316 27.3039 17.43 26.9156 17.0994C26.0314 16.364 25.676 16.1243 24.6514 15.6533C23.4697 15.0996 22.3872 14.9343 21.0155 14.9343C20.9081 14.9343 20.7428 15.0996 20.7428 15.207" fill="#F15744"/>
<path fill-rule="evenodd" clip-rule="evenodd" d="M15.9335 16.7606C15.9335 16.9259 16.0739 17.1242 16.3466 17.1242C16.4623 17.1242 17.4539 16.5623 17.8341 16.4053C18.1067 16.2979 18.3877 16.1904 18.6521 16.1243C18.9413 16.0417 19.2801 16.0086 19.2801 15.6533C19.2801 15.4797 19.1727 15.2897 18.9579 15.2897C18.5364 15.2897 17.5696 15.6863 17.2639 15.8433C16.7681 16.0913 16.7268 16.0747 16.1814 16.4135C16.0574 16.4879 15.9335 16.5954 15.9335 16.7606Z" fill="#F15744"/>
<path fill-rule="evenodd" clip-rule="evenodd" d="M13.7358 23.5865C13.7358 24.7351 13.5788 25.1897 14.2398 25.1897C14.5621 25.1897 14.5125 24.6442 14.5125 24.5038C14.5125 23.57 14.4795 22.6527 14.7687 21.785C15.4132 19.876 16.5949 18.4629 18.5203 17.6531C20.0407 17.0085 21.1976 17.1738 21.4207 17.1159C21.8256 17.0002 21.6851 16.397 21.3959 16.397C20.4539 16.397 20.1151 16.3722 19.1566 16.6366C18.9334 16.6945 18.7021 16.7771 18.4955 16.8515C16.2478 17.6861 14.4134 19.686 13.9341 21.9998C13.8349 22.4874 13.7358 23.0245 13.7358 23.5947" fill="#F15744"/>
<path fill-rule="evenodd" clip-rule="evenodd" d="M22.5772 16.8928C22.5772 17.0498 22.5607 17.1573 22.7425 17.273C22.883 17.3639 23.6515 17.5539 24.2051 17.9175C24.3704 18.025 24.5357 18.215 24.7753 18.215C24.9984 18.215 25.1389 18.0663 25.1389 17.8514C25.1389 17.5622 24.8579 17.4548 24.6596 17.3225C24.3621 17.1242 23.1557 16.4796 22.8334 16.5953C22.7342 16.6284 22.569 16.7771 22.569 16.8846" fill="#F15744"/>
<path fill-rule="evenodd" clip-rule="evenodd" d="M13 20.4216C13 20.7852 13.595 21.0166 13.785 20.4712C13.8429 20.3059 13.8924 20.1489 13.9751 19.9754C14.3056 19.2729 14.7932 18.4466 15.3468 17.9094C15.8096 17.4549 15.5947 17.1161 15.1485 17.1161C14.9915 17.1161 14.8758 17.3062 14.7932 17.4053C14.0825 18.2234 13.9172 18.3805 13.3884 19.4382C13.3223 19.5787 13 20.3059 13 20.4216Z" fill="#F15744"/>
<path fill-rule="evenodd" clip-rule="evenodd" d="M25.8329 21.5703C26.2626 21.5703 26.3535 21.2067 26.1139 20.8265C26.0395 20.7026 26.0147 20.6282 25.9404 20.496C25.1884 19.1738 23.2217 17.8516 21.8004 17.8516C21.6021 17.8516 21.379 18.1738 21.5773 18.4383C21.7921 18.7275 22.5276 18.5623 23.8084 19.3721C24.1555 19.5952 24.6843 20.058 24.9157 20.372C25.3041 20.8844 25.238 20.8596 25.5189 21.3224C25.5685 21.405 25.6925 21.562 25.8247 21.562" fill="#F15744"/>
<path fill-rule="evenodd" clip-rule="evenodd" d="M18.1812 18.5952C18.1812 19.4381 18.9083 18.8761 19.5033 18.7191C19.8008 18.6447 20.3875 18.6365 20.3875 18.2729C20.3875 17.4465 19.0075 18.0745 18.5447 18.2729C18.4043 18.3307 18.1894 18.4381 18.1894 18.6034" fill="#F15744"/>
<path fill-rule="evenodd" clip-rule="evenodd" d="M25.5108 18.9589C25.5108 19.1986 25.9405 19.5374 26.1967 19.8762C26.3041 20.0249 26.4198 20.1654 26.5272 20.3224C26.6429 20.496 26.709 20.6943 26.9734 20.6943C27.2875 20.6943 27.337 20.4712 27.337 20.2398C27.337 20.1324 26.3041 18.587 25.8662 18.587C25.643 18.587 25.5026 18.7358 25.5026 18.9506" fill="#F15744"/>
<path fill-rule="evenodd" clip-rule="evenodd" d="M15.198 23.9501C15.198 24.4294 15.1237 26.5945 15.2807 26.8507C15.4377 27.1069 15.8591 27.0738 15.9583 26.735C16.0574 26.3962 15.826 23.446 16.1318 22.2313C16.2227 21.8511 16.3301 21.5536 16.4788 21.2479C16.5202 21.1652 16.5367 21.1156 16.578 21.0247C16.6111 20.9504 16.6359 20.9091 16.6937 20.8182C16.7846 20.6611 16.859 20.5537 16.9664 20.405C17.3135 19.9009 17.834 19.6034 17.7927 19.2976C17.7679 19.1323 17.5283 18.7687 17.1564 19.0828C17.0573 19.1654 16.9912 19.2067 16.9003 19.2894C16.5697 19.5951 15.9748 20.5041 15.793 20.9256C15.6112 21.3222 15.4211 21.7768 15.3385 22.2643C15.2476 22.8015 15.198 23.3303 15.198 23.9584" fill="#F15744"/>
<path fill-rule="evenodd" clip-rule="evenodd" d="M16.6688 23.9998V27.8507C16.6688 29.4291 17.082 30.7844 18.2719 31.7017C18.5198 31.8917 18.7677 32.0735 19.0239 32.2801C19.1644 32.3958 19.2801 32.4702 19.4205 32.5694C19.7759 32.8173 21.255 33.9907 21.4368 33.9907C21.7673 33.9907 22.0896 33.5941 21.6186 33.2553C20.8088 32.6603 19.5527 31.7678 18.8586 31.1976C17.991 30.4869 17.4456 29.6027 17.4456 28.3466V23.5784C17.4456 21.8925 18.5859 20.5951 20.0651 20.1985C21.3955 19.8349 22.321 20.1819 23.2878 20.9918C23.7506 21.3802 24.1141 21.9917 24.3373 22.5536C24.6595 23.3387 25.1471 22.8842 25.1471 22.6611C25.1471 22 24.2546 20.8761 23.7836 20.4051C22.6019 19.2151 20.6022 19.0002 19.1148 19.744C18.966 19.8183 18.8917 19.8596 18.7595 19.934C18.338 20.1902 18.1645 20.3637 17.8257 20.7026C17.0655 21.4546 16.6688 22.4875 16.6688 23.9915" fill="#F15744"/>
<path fill-rule="evenodd" clip-rule="evenodd" d="M18.1318 23.9502C18.1318 24.4791 18.0987 26.2889 18.1483 26.5946C18.2722 27.5284 17.9582 28.0986 18.5284 29.4208C18.6524 29.7018 18.9498 30.2142 19.1316 30.4207L19.52 30.8091C19.9497 31.2058 22.3791 33.1147 22.7675 33.2056C22.8584 33.0734 23.1063 32.7016 23.1311 32.5611C22.5444 32.247 21.057 31.0901 20.4703 30.6356C19.52 29.8919 18.9085 28.9415 18.9085 27.6111V23.6692C18.9085 21.5372 21.4041 20.7852 22.5775 22.4297C23.0733 23.1238 22.9493 24.2808 22.9411 25.4542C22.9411 25.9831 23.1311 27.1979 23.5443 27.3797C23.6269 27.4127 24.2963 27.4871 23.9161 26.6359C23.4369 25.5534 23.8748 23.8014 23.5856 22.8428C23.3955 22.1983 23.1146 21.8099 22.6766 21.4132C21.8751 20.7025 20.6686 20.5951 19.6688 21.0909C18.6193 21.6115 18.1235 22.6115 18.1235 23.9502" fill="#F15744"/>
<path fill-rule="evenodd" clip-rule="evenodd" d="M25.511 25.4211V33.6684H34.7247V25.9665C34.7247 25.231 34.642 24.5617 34.4272 24.0245C34.2702 23.6444 34.0719 23.2395 33.8322 22.9254C33.0555 21.8925 31.7581 21.157 30.4194 21.157C29.1634 21.157 28.428 21.2314 27.3785 21.9668C26.3208 22.7023 25.5192 24.0493 25.5192 25.4211M29.7336 22.6693C30.8905 22.6693 31.7003 22.7188 32.7332 23.3386C32.9894 23.4956 33.4273 23.7105 33.5347 23.9997C33.6422 24.2807 33.3612 26.2392 33.3199 26.6607C33.262 27.173 33.2786 27.5449 32.8902 27.7432C31.9069 28.2391 28.3701 28.2391 27.362 27.7515C26.9736 27.5697 26.9736 27.2061 26.9158 26.7268C26.8662 26.3136 26.6183 24.3303 26.6761 24.0824C26.7257 23.8675 26.8083 23.7601 26.9736 23.6444C27.4364 23.3304 27.9239 23.0659 28.461 22.8924C28.7833 22.7932 29.3369 22.661 29.7418 22.661L29.7336 22.6693ZM28.8163 30.3711H31.3863C31.8738 30.3711 31.8738 31.057 31.3863 31.057H28.775C28.6015 31.057 28.4693 30.8422 28.4775 30.7017C28.4858 30.5033 28.6098 30.3711 28.8163 30.3711ZM28.7668 31.8421H31.378C31.8655 31.8421 31.8655 32.528 31.378 32.528H28.8081C28.5932 32.528 28.4775 32.3957 28.4693 32.1974C28.4693 32.0569 28.5932 31.8421 28.7668 31.8421Z" fill="#F15744"/>
<path fill-rule="evenodd" clip-rule="evenodd" d="M19.6439 23.4048V27.2061C19.6439 27.578 19.7348 27.9416 19.8175 28.2226C20.0819 29.0903 20.5942 29.8257 21.3131 30.3877L22.9823 31.7429C23.2137 31.9247 23.4864 32.2388 23.7343 32.1809C23.883 32.1479 24.04 31.9826 24.04 31.8338C24.04 31.5115 23.3129 31.024 22.9493 30.7265L21.7346 29.7431C21.3297 29.4291 20.9991 28.9994 20.7595 28.5201C20.5033 28.0077 20.3794 27.4458 20.3794 26.702V23.6279C20.3794 23.1651 20.619 23.0329 20.9743 23.0329C22.0073 23.0329 21.1065 25.7186 21.685 27.454C21.9577 28.2721 22.3708 28.8589 22.9823 29.3712C23.1063 29.4787 23.1972 29.5613 23.3294 29.6687C23.8004 30.0654 24.0566 29.7183 24.0566 29.4043C24.0566 29.2225 23.6269 28.9415 23.4286 28.7514C21.8255 27.2061 22.2799 25.8674 22.2304 23.537C22.2056 22.3801 20.7099 21.7603 19.9249 22.7437C19.8009 22.9007 19.6687 23.1651 19.6687 23.3965" fill="#F15744"/>
<path fill-rule="evenodd" clip-rule="evenodd" d="M27.3456 24.2311C27.3456 24.5616 27.4117 24.8674 27.4365 25.1897C27.4613 25.512 27.5108 25.8425 27.5522 26.1731C27.6926 27.2143 27.3786 27.1317 28.6181 27.3052C30.0229 27.5035 31.3037 27.4044 32.568 27.1151C32.568 26.3879 32.8407 25.0244 32.8407 24.2724C32.8407 24.0575 31.2542 23.3551 30.2295 23.3551C28.3124 23.3551 27.7009 24.1319 27.3456 24.2228M28.4446 26.6606C28.2463 26.6606 27.6679 26.264 28.7917 25.5863C30.3782 24.6277 32.1136 25.8425 32.1136 26.297C32.1136 26.5615 31.8243 26.9003 31.3699 26.4458C30.7997 25.8756 29.8824 25.7681 29.1635 26.1896C28.9652 26.3053 28.6429 26.6606 28.4446 26.6606Z" fill="#F15744"/>
<path fill-rule="evenodd" clip-rule="evenodd" d="M15.1981 28.2639C15.1981 28.8258 15.1981 30.6934 15.7022 30.6934C16.2558 30.6934 16.2063 30.3794 16.0906 29.9414C16.041 29.7596 16.041 29.7183 16.0079 29.5117C15.884 28.6523 16.1897 27.8424 15.6691 27.7432C15.3882 27.6854 15.1981 27.9003 15.1981 28.2639Z" fill="#F15744"/>
</svg>
