<svg width="48" height="49" viewBox="0 0 48 49" fill="none" xmlns="http://www.w3.org/2000/svg">
<path fill-rule="evenodd" clip-rule="evenodd" d="M8.8807 0.5H39.1193C44.0069 0.5 48 4.49308 48 9.38069V39.6193C48 44.5069 44.0069 48.5 39.1193 48.5H8.8807C3.99309 48.5 0 44.5069 0 39.6193V9.38069C0 4.49308 3.99309 0.5 8.8807 0.5Z" fill="#FBEFE8"/>
<path fill-rule="evenodd" clip-rule="evenodd" d="M12.0342 17.2839V17.3762C12.2002 17.4223 14.5702 18.9439 14.7454 19.0545C14.9575 19.2021 15.1789 19.322 15.4094 19.4695L16.7558 20.3179C16.8941 20.4102 17.3183 20.7053 17.4567 20.7421C17.5581 20.6684 17.6227 20.5208 17.7057 20.3825C17.9731 19.9767 18.3973 19.4511 18.7477 19.1283C19.3103 18.6119 19.1351 18.7133 19.8913 18.2153C21.2653 17.3024 22.4918 16.9981 24.327 16.9981C25.6826 16.9981 26.9091 17.5145 27.8036 18.0125C28.191 18.2246 28.7812 18.6672 29.0855 18.9715C29.1962 19.0822 29.2884 19.1375 29.3806 19.239L30.1737 20.1243C30.1737 18.4459 30.0446 17.5237 29.0117 16.2419C28.2463 15.292 26.8169 14.6096 25.5443 14.6096H19.6054V12.5531C18.9506 12.9035 16.7466 14.3514 15.8428 14.9139L13.0117 16.7122C12.8181 16.8321 12.2002 17.247 12.0434 17.2839" fill="#F15744"/>
<path fill-rule="evenodd" clip-rule="evenodd" d="M21.8005 21.7474V22.2546C21.8005 22.6788 22.2432 22.4113 23.0086 22.5128C23.2576 22.5497 23.359 22.5589 23.5803 22.6695C23.7924 22.771 23.8478 22.854 23.9584 23.0292H22.1509C21.7452 23.0292 21.7913 23.0569 21.7913 23.6194C21.7913 23.8868 21.9204 23.8499 22.1786 23.8499H24.023C24.023 23.9329 23.94 24.0713 23.9031 24.1266C23.857 24.2004 23.7648 24.2926 23.7002 24.3387C23.2207 24.6984 22.5844 24.6522 21.9849 24.6615C21.9112 24.6615 21.8743 24.6707 21.8374 24.7168C21.7544 24.809 21.7821 25.1779 21.7821 25.3623C21.7821 25.5099 21.8097 25.5283 21.8835 25.6021C21.9204 25.639 21.9296 25.6574 21.9665 25.6943C21.9942 25.722 22.0218 25.7497 22.0495 25.7773L22.9071 26.7364C22.9071 26.7364 22.9348 26.7641 22.9533 26.7825C22.9717 26.8102 22.9717 26.8102 22.9901 26.8378L23.9953 28.0182C24.0506 28.0828 24.0968 28.1381 24.1521 28.2027C24.2259 28.2857 24.2627 28.3687 24.3457 28.3687H25.3325C25.4339 28.3687 25.4708 28.2765 25.4708 28.1842C25.4708 28.1473 25.3694 28.0367 25.3417 28.009C25.2956 27.9445 25.2495 27.8984 25.2034 27.843C24.9083 27.4742 24.5117 27.0038 24.2259 26.6718C24.023 26.4505 23.7924 26.1554 23.5803 25.9341C23.5435 25.8972 23.5434 25.8788 23.5065 25.8511L23.2115 25.5191C23.4236 25.5191 23.7832 25.4084 23.9492 25.3439C24.5302 25.1133 24.8622 24.7629 25.0835 24.2096C25.1296 24.0989 25.148 23.9791 25.1757 23.8499H25.7752C26.1901 23.8499 26.1533 23.8776 26.1533 23.2782C26.1533 23.0937 26.0979 23.0384 25.9135 23.0384H25.148C25.148 22.8263 24.9636 22.522 24.853 22.356H25.9504C26.0703 22.356 26.1348 22.2914 26.1348 22.1716V21.7474C26.1348 21.6367 26.0887 21.5445 25.9872 21.5445H21.9112C21.8097 21.5445 21.7636 21.6551 21.7636 21.7566M23.6633 30.6465C24.8714 30.6465 25.6553 30.5635 26.7342 30.0286C28.4126 29.1894 29.6299 27.594 30.0172 25.7404C30.4414 23.7024 29.759 21.5721 28.3019 20.1243C27.223 19.0453 25.5723 18.3629 23.9861 18.3629C22.529 18.3629 21.155 18.8978 20.1037 19.7554C18.914 20.7237 18.1302 22.0886 17.9089 23.6286C17.5492 26.1093 18.6558 28.3595 20.7492 29.7335C21.4962 30.2223 22.6581 30.6465 23.6633 30.6465Z" fill="#F15744"/>
<path fill-rule="evenodd" clip-rule="evenodd" d="M23.9956 32.048C23.3224 32.048 22.5201 31.9189 21.9945 31.7621C21.6809 31.6699 21.4227 31.5961 21.1184 31.467C20.2884 31.1166 19.6706 30.7108 18.9605 30.1206C18.4348 29.678 17.9829 28.9587 17.8262 28.9218C17.8262 30.9598 18.0936 31.9742 19.523 33.3022C20.4544 34.1783 21.8193 34.4365 23.1565 34.4365H28.3945V36.4468C28.5513 36.41 33.4665 33.3114 34.0936 32.8964C34.4072 32.6935 34.7115 32.5091 35.0342 32.297C35.2002 32.1956 35.3386 32.1126 35.4953 32.0111C35.6429 31.9097 35.8642 31.8175 35.9657 31.6883C34.8406 30.9321 33.0976 29.8901 31.8896 29.1247C31.6498 28.9771 30.6815 28.3224 30.4971 28.2762C30.4233 28.5898 29.6487 29.5212 29.4089 29.761C28.9755 30.1944 28.5328 30.5817 27.9887 30.9137C27.4446 31.2365 26.9005 31.5224 26.2273 31.716C25.5726 31.9004 24.8164 32.0664 24.0049 32.0664" fill="#F15744"/>
</svg>
