<svg width="48" height="48" viewBox="0 0 48 48" fill="none" xmlns="http://www.w3.org/2000/svg">
<path fill-rule="evenodd" clip-rule="evenodd" d="M8.8807 0H39.1193C44.0069 0 48 3.99308 48 8.88069V39.1193C48 44.0069 44.0069 48 39.1193 48H8.8807C3.99309 48 0 44.0069 0 39.1193V8.88069C0 3.99308 3.99309 0 8.8807 0Z" fill="#FBEFE8"/>
<g clip-path="url(#clip0_2175_21146)">
<path d="M34.8956 25.4008C34.583 27.1462 33.8401 28.7861 32.7342 30.1722C31.6283 31.5583 30.1942 32.6468 28.5618 33.3392L29.1649 33.6661C29.2148 33.6918 29.2591 33.7272 29.2952 33.7703C29.3313 33.8134 29.3584 33.8632 29.375 33.9168C29.3915 33.9705 29.3972 34.027 29.3917 34.0829C29.3861 34.1387 29.3695 34.193 29.3427 34.2423C29.3159 34.2917 29.2796 34.3353 29.2357 34.3704C29.1919 34.4055 29.1415 34.4316 29.0875 34.447C29.0335 34.4624 28.9769 34.4668 28.9212 34.4601C28.8654 34.4533 28.8116 34.4355 28.7628 34.4077L27.3521 33.643C27.3514 33.6427 27.351 33.6419 27.3503 33.6415C27.3397 33.6358 27.3326 33.6268 27.3228 33.6204C27.3109 33.6126 27.3027 33.6029 27.2916 33.594C27.2679 33.5776 27.246 33.5588 27.2261 33.538C27.2254 33.5372 27.2242 33.5367 27.2235 33.5358C27.1965 33.4996 27.1755 33.4593 27.1612 33.4165L27.1608 33.4157C27.159 33.4104 27.1535 33.4087 27.1519 33.4036C27.1512 33.4015 27.1519 33.3994 27.1512 33.3973C27.1504 33.3952 27.1493 33.3942 27.1487 33.3925C27.1462 33.3837 27.1481 33.3736 27.1461 33.3645C27.1419 33.3418 27.1397 33.3187 27.1394 33.2956C27.1359 33.2753 27.1339 33.2548 27.1334 33.2342C27.1334 33.232 27.1342 33.2299 27.1345 33.2278C27.1345 33.2268 27.1341 33.2258 27.1345 33.2248L27.3085 31.7005C27.3132 31.6442 27.3292 31.5895 27.3555 31.5395C27.3817 31.4895 27.4178 31.4453 27.4614 31.4096C27.5051 31.3738 27.5555 31.3471 27.6096 31.3312C27.6638 31.3152 27.7206 31.3103 27.7767 31.3167C27.8328 31.3231 27.887 31.3406 27.9362 31.3684C27.9853 31.3961 28.0284 31.4335 28.0629 31.4781C28.0974 31.5229 28.1225 31.574 28.1369 31.6286C28.1512 31.6832 28.1545 31.7401 28.1464 31.796L28.0525 32.6175C31.1801 31.3547 33.4643 28.6008 34.0651 25.2528C34.0743 25.1978 34.0943 25.1452 34.124 25.0979C34.1537 25.0507 34.1925 25.0098 34.238 24.9777C34.2836 24.9455 34.3352 24.9228 34.3896 24.9107C34.4441 24.8985 34.5004 24.8974 34.5553 24.9072C34.6102 24.917 34.6627 24.9376 34.7096 24.9678C34.7565 24.998 34.7969 25.0372 34.8286 25.0831C34.8602 25.1291 34.8824 25.1808 34.8939 25.2354C34.9055 25.29 34.906 25.3463 34.8956 25.4011V25.4008ZM14.2942 21.4103C14.3278 21.4184 14.3622 21.4226 14.3968 21.4226C14.4908 21.4226 14.5821 21.3911 14.6562 21.3332C14.7303 21.2752 14.7828 21.1942 14.8055 21.1029C15.6556 17.701 18.2956 14.9963 21.6346 14.0312L21.2809 15.0806C21.2632 15.1331 21.256 15.1886 21.2597 15.2439C21.2634 15.2992 21.278 15.3532 21.3026 15.4029C21.3272 15.4526 21.3613 15.4969 21.4031 15.5334C21.4448 15.5698 21.4933 15.5977 21.5458 15.6154C21.5893 15.63 21.6347 15.6375 21.6806 15.6377C21.7688 15.6377 21.8548 15.61 21.9265 15.5586C21.9982 15.5071 22.0519 15.4345 22.0802 15.3509L22.68 13.5711V13.5706C22.683 13.5618 22.6817 13.5524 22.684 13.5434C22.6898 13.518 22.6932 13.492 22.6941 13.466C22.6977 13.4466 22.6999 13.4269 22.7008 13.4072C22.7001 13.397 22.6951 13.388 22.6937 13.3778C22.6924 13.3687 22.6954 13.3602 22.6937 13.3514C22.6882 13.3356 22.6816 13.32 22.6741 13.305C22.6703 13.2867 22.6653 13.2687 22.659 13.2511C22.6545 13.2418 22.6462 13.2353 22.641 13.2262C22.6253 13.2 22.6068 13.1756 22.5858 13.1535C22.5776 13.1417 22.5688 13.1303 22.5594 13.1194L21.2305 11.9494C21.1892 11.9114 21.1407 11.8821 21.0879 11.8631C21.0351 11.8441 20.979 11.8359 20.9229 11.8388C20.8669 11.8418 20.812 11.8559 20.7615 11.8803C20.711 11.9048 20.6658 11.939 20.6287 11.9811C20.5916 12.0232 20.5633 12.0723 20.5453 12.1255C20.5274 12.1787 20.5203 12.2349 20.5244 12.2909C20.5285 12.3469 20.5437 12.4015 20.5692 12.4515C20.5947 12.5015 20.6299 12.5459 20.6727 12.5822L21.3987 13.2221C17.7749 14.2694 14.9098 17.2054 13.9872 20.8986C13.9738 20.9523 13.9711 21.0082 13.9792 21.063C13.9873 21.1178 14.0062 21.1705 14.0347 21.218C14.0632 21.2655 14.1008 21.307 14.1453 21.34C14.1899 21.373 14.2404 21.3969 14.2942 21.4103ZM27.0712 27.1311L26.6067 28.3317C26.5977 28.3743 26.5818 28.4152 26.5599 28.4528L24.8776 32.8009C24.7843 33.039 24.6216 33.2436 24.4106 33.3882C24.1996 33.5327 23.9501 33.6106 23.6944 33.6117H13.6008C13.5446 33.6111 13.4888 33.6216 13.4366 33.6427C13.3845 33.6638 13.3371 33.695 13.2971 33.7346C13.2571 33.7741 13.2254 33.8212 13.2037 33.8731C13.182 33.925 13.1709 33.9806 13.1709 34.0369C13.1709 34.0931 13.182 34.1488 13.2037 34.2007C13.2254 34.2526 13.2571 34.2997 13.2971 34.3392C13.3371 34.3788 13.3845 34.41 13.4366 34.4311C13.4888 34.4521 13.5446 34.4627 13.6008 34.4621H25.1187C25.2306 34.4621 25.3379 34.5065 25.417 34.5856C25.4962 34.6647 25.5406 34.772 25.5406 34.8839C25.5406 34.9958 25.4962 35.1031 25.417 35.1822C25.3379 35.2614 25.2306 35.3058 25.1187 35.3058H22.9888C23.0395 35.4419 23.0661 35.5857 23.0675 35.7309C23.0653 36.0661 22.9306 36.3868 22.6929 36.6231C22.4551 36.8593 22.1335 36.9919 21.7983 36.9919C21.4632 36.9919 21.1416 36.8593 20.9038 36.6231C20.666 36.3868 20.5314 36.0661 20.5292 35.7309C20.5306 35.5857 20.5572 35.4419 20.6079 35.3058H17.8649C17.9156 35.4419 17.9422 35.5857 17.9436 35.7309C17.9447 35.8983 17.9126 36.0642 17.8494 36.2191C17.7861 36.374 17.6928 36.5148 17.5748 36.6335C17.4569 36.7522 17.3167 36.8464 17.1622 36.9107C17.0077 36.975 16.842 37.0081 16.6747 37.0081C16.5073 37.0081 16.3417 36.975 16.1872 36.9107C16.0327 36.8464 15.8924 36.7522 15.7745 36.6335C15.6566 36.5148 15.5633 36.374 15.5 36.2191C15.4367 36.0642 15.4047 35.8983 15.4057 35.7309C15.4071 35.5857 15.4338 35.4419 15.4844 35.3058H13.6008C13.4335 35.3069 13.2676 35.2749 13.1127 35.2116C12.9578 35.1483 12.8169 35.055 12.6982 34.937C12.5795 34.8191 12.4853 34.6789 12.4211 34.5244C12.3568 34.3699 12.3237 34.2042 12.3237 34.0369C12.3237 33.8696 12.3568 33.7039 12.4211 33.5494C12.4853 33.3949 12.5795 33.2547 12.6982 33.1367C12.8169 33.0188 12.9578 32.9255 13.1127 32.8622C13.2676 32.7989 13.4335 32.7669 13.6008 32.768H14.0863C14.0476 32.6817 14.0189 32.5913 14.0009 32.4985L13.1814 25.873C13.1814 25.8727 13.181 25.8723 13.181 25.8719L13.1794 25.8569L13.1234 25.4039H13.1298L12.9321 23.599L11.1763 23.115C11.0685 23.0851 10.977 23.0136 10.9218 22.9163C10.8666 22.819 10.8522 22.7038 10.8817 22.5959C10.9126 22.4888 10.9842 22.398 11.0811 22.3429C11.178 22.2878 11.2926 22.2727 11.4004 22.3009L13.4323 22.8612C13.4336 22.8616 13.4346 22.8627 13.4359 22.863C13.4822 22.8772 13.5258 22.8993 13.5645 22.9285C13.5697 22.9323 13.5771 22.9337 13.5822 22.9378C13.6196 22.9687 13.6513 23.0059 13.6761 23.0475C13.6791 23.0523 13.6843 23.0556 13.6871 23.0605C13.6952 23.0799 13.7019 23.0998 13.7072 23.1202C13.7215 23.1513 13.7319 23.184 13.7382 23.2177C13.7382 23.2192 13.7395 23.2206 13.7397 23.2221L13.9787 25.404H25.8875C26.0937 25.404 26.2968 25.4541 26.4793 25.5502C26.6617 25.6463 26.818 25.7855 26.9346 25.9555C27.0511 26.1256 27.1245 26.3216 27.1483 26.5264C27.1721 26.7312 27.1456 26.9388 27.0712 27.1311V27.1311ZM21.3729 35.7309C21.3729 35.8151 21.3978 35.8974 21.4445 35.9673C21.4912 36.0373 21.5576 36.0919 21.6353 36.1241C21.713 36.1564 21.7986 36.1649 21.8811 36.1485C21.9636 36.1321 22.0394 36.0916 22.099 36.0322C22.1585 35.9727 22.1991 35.8969 22.2155 35.8144C22.232 35.7319 22.2236 35.6463 22.1914 35.5686C22.1592 35.4908 22.1047 35.4244 22.0348 35.3776C21.9649 35.3308 21.8826 35.3058 21.7985 35.3058C21.6857 35.3058 21.5775 35.3506 21.4977 35.4303C21.4179 35.51 21.373 35.6181 21.3729 35.7309ZM16.2494 35.7309C16.2494 35.815 16.2744 35.8973 16.3211 35.9672C16.3678 36.0371 16.4342 36.0916 16.5119 36.1238C16.5896 36.156 16.6751 36.1644 16.7576 36.148C16.8401 36.1316 16.9158 36.0911 16.9753 36.0317C17.0348 35.9722 17.0753 35.8964 17.0917 35.8139C17.1081 35.7315 17.0997 35.646 17.0675 35.5683C17.0353 35.4906 16.9808 35.4242 16.9108 35.3774C16.8409 35.3307 16.7587 35.3058 16.6746 35.3058C16.5619 35.3059 16.4538 35.3507 16.3741 35.4304C16.2944 35.5101 16.2495 35.6182 16.2494 35.7309ZM17.5579 26.2478H14.0774L14.2719 27.8193H17.5579V26.2478ZM21.3766 26.2478H18.4017V27.8193H21.3766L21.3766 26.2478ZM26.2387 26.4324C26.1999 26.3752 26.1475 26.3284 26.0863 26.2962C26.025 26.264 25.9568 26.2474 25.8877 26.2478H22.2204V27.8193H25.9002L26.2843 26.8264C26.3097 26.7621 26.3188 26.6924 26.3109 26.6237C26.3029 26.5549 26.278 26.4892 26.2385 26.4324H26.2387ZM37.8666 17.3571C37.8666 21.4136 34.5662 24.7136 30.5098 24.7136C26.4533 24.7136 23.1529 21.4136 23.1529 17.3571C23.1529 13.3007 26.4532 10 30.5096 10C34.566 10 37.8665 13.3007 37.8665 17.3571H37.8666ZM30.8176 19.9172C30.6129 19.942 30.406 19.942 30.2013 19.9172V20.2715C30.2013 20.3533 30.2337 20.4317 30.2915 20.4895C30.3493 20.5473 30.4277 20.5797 30.5095 20.5797C30.5912 20.5797 30.6696 20.5473 30.7274 20.4895C30.7852 20.4317 30.8176 20.3533 30.8176 20.2715V19.9172ZM32.2777 17.3234C32.2767 16.9955 32.1841 16.6744 32.0105 16.3962C31.837 16.118 31.5892 15.8938 31.2951 15.7487C30.8061 16.6518 29.8462 17.2179 28.7577 17.1025C28.7468 17.1756 28.7413 17.2495 28.7412 17.3234C28.7417 17.6761 28.8474 18.0207 29.0449 18.313C29.2424 18.6053 29.5227 18.8319 29.8499 18.9639C29.8984 18.9721 29.9451 18.9888 29.9879 19.0133C30.3281 19.1155 30.6908 19.1155 31.031 19.0133C31.0737 18.9888 31.1205 18.9721 31.1691 18.9639C31.4962 18.8319 31.7765 18.6053 31.9741 18.313C32.1716 18.0207 32.2774 17.6762 32.2778 17.3234H32.2777ZM37.0226 17.3571C37.0249 16.3031 36.7714 15.2643 36.2838 14.3298C35.7962 13.3953 35.0891 12.5931 34.2233 11.9921C33.3574 11.3911 32.3585 11.0092 31.3126 10.8793C30.2666 10.7493 29.2047 10.8751 28.218 11.246C27.2314 11.6168 26.3495 12.2215 25.648 13.0083C24.9466 13.795 24.4466 14.7402 24.1909 15.7628C23.9352 16.7853 23.9315 17.8546 24.1801 18.8789C24.4287 19.9032 24.9222 20.8519 25.6182 21.6434C26.4757 20.5598 27.6681 19.7909 29.0091 19.4571C28.8288 19.3309 28.6651 19.1825 28.5218 19.0156C27.9569 18.9764 27.4202 18.7541 26.9931 18.3823C26.5661 18.0106 26.2719 17.5096 26.1554 16.9555C26.0388 16.4014 26.1061 15.8244 26.3472 15.312C26.5883 14.7997 26.9899 14.38 27.4911 14.1166C27.6783 13.6706 27.9859 13.2857 28.3796 13.0049C28.7733 12.7241 29.2375 12.5586 29.7201 12.5269C30.2026 12.4953 30.6844 12.5987 31.1115 12.8257C31.5385 13.0526 31.8938 13.394 32.1376 13.8117C32.786 13.8252 33.4061 14.08 33.8767 14.5263C34.3473 14.9726 34.6346 15.5784 34.6824 16.2252C34.7302 16.8721 34.5351 17.5135 34.1352 18.0241C33.7353 18.5348 33.1593 18.8779 32.5199 18.9866C32.3707 19.1662 32.1983 19.3251 32.0071 19.4592C33.3423 19.8068 34.5237 20.5891 35.3651 21.6826C36.4318 20.4943 37.0221 18.954 37.0227 17.3571H37.0226Z" fill="#F15744"/>
</g>
<defs>
<clipPath id="clip0_2175_21146">
<rect width="27" height="27" fill="white" transform="translate(11 10)"/>
</clipPath>
</defs>
</svg>
