<svg width="48" height="48" viewBox="0 0 48 48" fill="none" xmlns="http://www.w3.org/2000/svg">
<path fill-rule="evenodd" clip-rule="evenodd" d="M8.8807 0H39.1193C44.0069 0 48 3.99308 48 8.88069V39.1193C48 44.0069 44.0069 48 39.1193 48H8.8807C3.99309 48 0 44.0069 0 39.1193V8.88069C0 3.99308 3.99309 0 8.8807 0Z" fill="#FBEFE8"/>
<path fill-rule="evenodd" clip-rule="evenodd" d="M37 22.6098V25.3171C36.9269 25.9675 36.6427 25.9919 35.7089 26.3008C34.9538 26.5528 34.6696 26.7236 33.8982 26.7236C33.7195 27.4797 33.2648 28.3821 32.9319 29.0081C33.1024 29.2602 33.2405 29.2764 33.411 29.6016C33.5328 29.8455 33.6058 30.0488 33.7276 30.3008C34.4828 31.7968 34.5965 31.7968 33.8332 32.561C31.5028 34.8943 32.2905 34.6667 29.6515 33.374C29.3104 33.2033 29.3267 33.0976 29.0749 32.935C28.7258 33.0163 27.7676 33.6585 26.7445 33.9024C26.7445 34.6504 26.5334 35.0244 26.3061 35.6992C26.095 36.3415 26.03 37 25.3723 37H22.6277C21.9862 36.9268 22.0106 36.6423 21.6939 35.6992C21.4666 35.0244 21.2554 34.6504 21.2554 33.9024C20.7683 33.7886 19.9563 33.4553 19.4934 33.2276C19.2823 33.122 19.1524 33.0407 18.9656 32.9431C18.7139 33.3252 18.1293 33.5366 17.6989 33.7561C15.9207 34.6423 16.2373 34.6585 14.7676 33.187C14.5403 32.9593 14.3535 32.7724 14.1343 32.5528C13.9475 32.3659 13.639 32.122 13.639 31.7805C13.639 31.5772 14.6458 29.5528 14.8001 29.3415C14.93 29.1707 14.9544 29.2358 15.06 29.0894C14.9788 28.7398 14.3373 27.7805 14.0937 26.7561C13.2492 26.7561 13.0706 26.5447 12.2992 26.3171C11.6577 26.1301 11 26.0081 11 25.3821V22.6341C11.0731 21.9919 11.3573 22.0163 12.2992 21.6992C12.9731 21.4715 13.3467 21.2602 14.0937 21.2602C14.1749 20.8943 14.3698 20.3902 14.5159 20.0569L15.06 18.9756C14.6458 18.6992 14.5078 18.1626 14.2642 17.6911C13.5009 16.1789 13.4116 16.187 14.1586 15.4309L15.4497 14.1382C16.213 13.374 16.213 13.561 17.6583 14.2845C17.9019 14.4065 18.0887 14.5041 18.3323 14.626C18.6733 14.7968 18.6571 14.9024 18.9088 15.065C19.1118 15.0163 20.0456 14.5041 20.6302 14.2927C20.7845 14.2358 21.1093 14.1626 21.2473 14.0976C21.2473 13.5366 21.2717 13.5528 21.4097 13.1382L21.97 11.4634C22.0674 11.2114 22.2623 11 22.6277 11H25.4697C26.0218 11 26.2086 11.8049 26.3467 12.3008C26.6146 13.2114 26.7364 13.2195 26.7364 14.0976C27.4834 14.2683 28.3685 14.7154 29.0181 15.065C29.2779 14.6748 29.8463 14.4959 30.3011 14.2683C31.8276 13.5041 31.8113 13.4146 32.5584 14.1626C34.8888 16.4959 34.6614 15.7073 33.3704 18.3496C33.1998 18.6911 33.0943 18.6748 32.9319 18.9268C33.0131 19.2764 33.6546 20.2358 33.8982 21.2602C34.564 21.2602 35.1 21.4553 35.7008 21.6911C36.2286 21.8943 36.9919 21.9431 36.9919 22.6341M21.8157 21.2114V21.7236C21.8157 22.1545 22.2623 21.878 23.0337 21.9837C23.2854 22.0163 23.3829 22.0325 23.6102 22.1463C23.8214 22.252 23.8782 22.3333 23.9919 22.5041H22.1811C21.7751 22.5041 21.8157 22.5285 21.8157 23.0976C21.8157 23.3659 21.9457 23.3252 22.2055 23.3252H24.0568C24.0568 23.4065 23.9756 23.5447 23.935 23.6098C23.8944 23.6829 23.797 23.7724 23.732 23.8293C23.2529 24.1951 22.6115 24.1463 22.0187 24.1463C21.9456 24.1463 21.9051 24.1545 21.8726 24.1951C21.7914 24.2846 21.8239 24.6585 21.8239 24.8455C21.8239 24.9919 21.8563 25.0163 21.9294 25.0894C21.9619 25.1301 21.97 25.1463 22.0106 25.187C22.0431 25.2195 22.0674 25.2439 22.0999 25.2764L22.9607 26.2439C22.9607 26.2439 22.985 26.2683 23.0094 26.2927C23.0337 26.3171 23.0256 26.3171 23.05 26.3496L24.065 27.5366C24.1218 27.6016 24.1705 27.6585 24.2274 27.7236C24.3004 27.8049 24.341 27.8862 24.4222 27.8862H25.4128C25.5103 27.8862 25.5428 27.7886 25.5428 27.6992C25.5428 27.6585 25.4372 27.5528 25.4128 27.5203C25.3641 27.4553 25.3235 27.4065 25.2748 27.3496C24.9825 26.9837 24.5846 26.5041 24.2923 26.1707C24.0893 25.9431 23.862 25.6504 23.6508 25.4309C23.6184 25.3984 23.6102 25.3821 23.5777 25.3415L23.2773 25.0081C23.4884 25.0081 23.8538 24.8943 24.0162 24.8293C24.5928 24.5935 24.9338 24.252 25.1611 23.6911C25.2017 23.5772 25.2261 23.4553 25.2586 23.3252H25.8594C26.2735 23.3252 26.233 23.3496 26.233 22.748C26.233 22.561 26.1761 22.5041 25.9894 22.5041H25.2261C25.2261 22.2927 25.0394 21.9837 24.9338 21.8211H26.03C26.1436 21.813 26.2167 21.7561 26.2167 21.6341V21.2033C26.2167 21.0976 26.1761 21 26.0706 21H21.9781C21.8726 21 21.832 21.1057 21.832 21.2114H21.8157ZM23.6833 30.1545C24.8932 30.1545 25.6808 30.0732 26.7608 29.5285C28.4416 28.6829 29.6677 27.0894 30.0493 25.2276C30.4716 23.187 29.7895 21.0406 28.3279 19.5854C27.248 18.5041 25.5915 17.813 24.0081 17.813C22.5465 17.813 21.1662 18.3577 20.1106 19.2114C18.9169 20.1789 18.1293 21.5528 17.9019 23.1057C17.5447 25.6016 18.6571 27.8618 20.752 29.2358C21.499 29.7236 22.6683 30.1545 23.6752 30.1545H23.6833ZM16.4972 23.9837C16.4972 19.8374 19.867 16.4634 24.0081 16.4634C28.1493 16.4634 31.519 19.8374 31.519 23.9837C31.519 28.1301 28.1493 31.5041 24.0081 31.5041C19.867 31.5041 16.4972 28.1301 16.4972 23.9837Z" fill="#F15744"/>
</svg>
