<svg width="48" height="48" viewBox="0 0 48 48" fill="none" xmlns="http://www.w3.org/2000/svg">
<path fill-rule="evenodd" clip-rule="evenodd" d="M8.8807 0H39.1193C44.0069 0 48 3.99308 48 8.88069V39.1193C48 44.0069 44.0069 48 39.1193 48H8.8807C3.99309 48 0 44.0069 0 39.1193V8.88069C0 3.99308 3.99309 0 8.8807 0Z" fill="#FBEFE8"/>
<g clip-path="url(#clip0_2175_21124)">
<path d="M26.8859 13.9669C27.1093 13.9669 27.2905 13.7857 27.2905 13.5623C27.2905 13.3388 27.1093 13.1577 26.8859 13.1577C26.6625 13.1577 26.4813 13.3388 26.4813 13.5623C26.4813 13.7857 26.6625 13.9669 26.8859 13.9669Z" fill="#F15744"/>
<path d="M29.5829 17.7427C29.8064 17.7427 29.9875 17.5616 29.9875 17.3382C29.9875 17.1147 29.8064 16.9336 29.5829 16.9336C29.3595 16.9336 29.1783 17.1147 29.1783 17.3382C29.1783 17.5616 29.3595 17.7427 29.5829 17.7427Z" fill="#F15744"/>
<path d="M32.0616 18.8815C32.2957 18.4758 32.6733 18.1862 33.1248 18.0653C33.5337 17.9558 33.9587 17.9963 34.3358 18.178L34.5392 17.8258C34.7733 17.4207 35.1509 17.1305 35.6034 17.0091C36.0555 16.8883 36.5275 16.9503 36.9331 17.1844C36.9558 17.1974 36.9784 17.2114 37 17.2255V15.8548H33.6286C32.8109 15.8548 32.1452 15.1891 32.1452 14.3714V11H20.6825C20.0131 11 19.4689 11.5443 19.4689 12.2137V18.4742C19.5147 18.4882 19.5606 18.5044 19.6069 18.5222C19.6862 18.5529 19.7769 18.5352 19.8319 18.4769C20.1836 18.1101 20.6966 17.8733 21.1394 17.8733C21.5823 17.8733 22.0953 18.1101 22.4464 18.4769C22.502 18.5351 22.5921 18.5529 22.6714 18.5222C23.2933 18.2816 23.8894 18.3631 24.267 18.7396C24.5685 19.0417 24.8577 19.5881 24.5216 20.4798C24.376 20.8649 24.124 21.2857 23.7691 21.7366C23.9115 21.7992 24.0113 21.9416 24.0113 22.1072C24.0113 22.2221 23.9633 22.3257 23.8867 22.399C24.6543 23.0911 25.3016 23.8328 25.8157 24.6123C26.7365 26.0083 27.2036 27.4911 27.2036 29.0193C27.2036 29.3753 27.1713 29.7211 27.1071 30.0539C27.1335 30.0523 27.1599 30.0518 27.1864 30.0518C27.6173 30.0518 28.023 30.2195 28.3278 30.5248C28.9572 31.1538 28.9572 32.1782 28.3283 32.8082L26.8331 34.303H35.7863C36.4557 34.303 37 33.7587 37 33.0893V20.5731L33.8185 26.0854H35.5166C35.7399 26.0854 35.9211 26.2667 35.9211 26.49C35.9211 26.7133 35.7399 26.8946 35.5166 26.8946H33.3513L32.5002 28.3694C32.361 28.6105 32.1576 28.8069 31.9116 28.9379L31.6964 29.0523H35.5166C35.7399 29.0523 35.9212 29.2335 35.9212 29.4569C35.9212 29.6801 35.7399 29.8614 35.5166 29.8614H28.9017C28.6784 29.8614 28.4971 29.6801 28.4971 29.4569C28.4971 29.2335 28.6784 29.0523 28.9017 29.0523H29.3267L29.2685 27.4114C29.2625 27.235 29.2874 27.0602 29.3419 26.8946H28.2344C28.0111 26.8946 27.8299 26.7134 27.8299 26.4901C27.8299 26.2667 28.0111 26.0855 28.2344 26.0855H29.7734L31.0184 23.9278H28.2344C28.0111 23.9278 27.8299 23.7465 27.8299 23.5232C27.8299 23.2999 28.0111 23.1186 28.2344 23.1186H31.485L33.9296 18.8826C33.7414 18.8065 33.5343 18.7936 33.3341 18.847C33.0914 18.9123 32.888 19.0676 32.7623 19.2855L31.5384 21.4081C31.4634 21.5376 31.3275 21.6104 31.1873 21.6104C31.1188 21.6104 31.0492 21.5931 30.9855 21.5565C30.7918 21.4448 30.7255 21.1972 30.8372 21.0036L32.0616 18.8815ZM25.6722 13.5622C25.6722 12.8928 26.2164 12.3485 26.8858 12.3485C27.5552 12.3485 28.0995 12.8928 28.0995 13.5622C28.0995 14.2316 27.5552 14.7759 26.8858 14.7759C26.2164 14.7759 25.6722 14.2317 25.6722 13.5622ZM26.8039 17.4525C26.7251 17.5318 26.6216 17.5712 26.518 17.5712C26.4144 17.5712 26.3108 17.5318 26.2321 17.4525C26.074 17.2944 26.074 17.0388 26.2321 16.8807L29.6649 13.4479C29.823 13.2898 30.0786 13.2898 30.2367 13.4479C30.3948 13.6059 30.3948 13.8616 30.2367 14.0197L26.8039 17.4525ZM29.583 18.5519C28.9136 18.5519 28.3693 18.0076 28.3693 17.3382C28.3693 16.6688 28.9136 16.1245 29.583 16.1245C30.2524 16.1245 30.7966 16.6688 30.7966 17.3382C30.7966 18.0076 30.2524 18.5519 29.583 18.5519ZM32.9543 11.5723V14.3714C32.9543 14.743 33.2569 15.0456 33.6286 15.0456H36.4277L32.9543 11.5723Z" fill="#F15744"/>
<path d="M36.2674 20.2226L33.9986 24.1534L32.3663 23.2111L34.6351 19.2798L35.366 19.7016L36.2674 20.2226Z" fill="#F15744"/>
<path d="M36.8733 19.1734L36.6726 19.5219L36.3807 19.3536L35.8558 19.0505L35.0392 18.5784L35.2399 18.2305C35.3661 18.012 35.5694 17.8561 35.8127 17.7909C36.056 17.7256 36.3101 17.759 36.5285 17.8853C36.9784 18.1452 37.1333 18.723 36.8733 19.1734Z" fill="#F15744"/>
<path d="M33.5941 24.854L31.7994 27.9648C31.7363 28.0743 31.6435 28.1639 31.5318 28.2232L30.1332 28.9665L30.0771 27.3828C30.0727 27.2566 30.1035 27.1314 30.1671 27.0219L31.9618 23.9111L33.5941 24.854Z" fill="#F15744"/>
<path d="M22.7701 22.5122H19.5088C16.5166 24.9121 15.8844 27.3713 15.8844 29.0197C15.8844 29.9502 16.1411 30.6412 16.406 31.1062C16.7577 31.0064 17.1229 30.9546 17.4903 30.9546H18.6225C19.4478 30.9546 20.2413 31.206 20.9166 31.6807L21.0148 31.7498C21.0671 31.787 21.1286 31.8064 21.1933 31.8064H23.3095C23.7027 31.8064 24.0743 31.9461 24.3678 32.2018L26.0449 30.5252C26.0891 30.481 26.1349 30.4395 26.1835 30.4012C26.3238 29.9728 26.3944 29.5084 26.3944 29.0197C26.3944 27.3713 25.7622 24.9121 22.7701 22.5122ZM21.544 29.8926V30.1207C21.544 30.3446 21.3627 30.5253 21.1394 30.5253C20.9161 30.5253 20.7348 30.3446 20.7348 30.1207V29.8952C20.5288 29.8311 20.3394 29.7173 20.1819 29.5597C20.0141 29.392 19.8933 29.1827 19.8318 28.954C19.7741 28.7382 19.902 28.5165 20.1177 28.4582C20.3335 28.4005 20.5552 28.5284 20.6135 28.7441C20.6383 28.8358 20.6868 28.92 20.7543 28.9874C20.86 29.0932 21.0008 29.1503 21.1507 29.1465C21.4447 29.1406 21.6837 28.8871 21.6837 28.5812C21.6837 28.4938 21.6573 28.4102 21.6076 28.3385C21.558 28.2678 21.4879 28.2144 21.4053 28.1842L20.5957 27.8891C20.1113 27.7133 19.7855 27.2488 19.7855 26.7332V26.7262C19.7855 26.1161 20.1862 25.5907 20.7348 25.4143V25.1861C20.7348 24.9628 20.9161 24.7816 21.1394 24.7816C21.3627 24.7816 21.544 24.9628 21.544 25.1861V25.4138C21.7505 25.4785 21.9415 25.5923 22.0963 25.7471C22.2641 25.9154 22.3855 26.1253 22.4464 26.3535C22.5036 26.5692 22.3758 26.7909 22.1594 26.8486C21.9437 26.9058 21.722 26.778 21.6643 26.5617C21.64 26.471 21.5915 26.3869 21.524 26.3195C21.421 26.2164 21.285 26.1603 21.1394 26.1603H21.1281C20.8341 26.1663 20.5946 26.4203 20.5946 26.7262V26.7332C20.5946 26.9096 20.7063 27.0687 20.8719 27.1291L21.6832 27.4242C21.9221 27.5121 22.125 27.6675 22.27 27.8746C22.4162 28.0834 22.4928 28.3272 22.4928 28.5812C22.4928 29.1913 22.092 29.7161 21.544 29.8926Z" fill="#F15744"/>
<path d="M22.7355 21.7028H19.5432C19.0524 21.1602 18.0156 19.8801 18.5836 19.3121C18.7535 19.1427 19.0837 19.187 19.3134 19.2765C19.7002 19.427 20.1328 19.3331 20.4166 19.037C20.6129 18.8315 20.9172 18.6826 21.1394 18.6826C21.3617 18.6826 21.6658 18.8315 21.8622 19.0365C22.1449 19.3331 22.578 19.427 22.9642 19.2765C23.1951 19.187 23.5252 19.1427 23.6951 19.3121C24.2632 19.8801 23.2264 21.1602 22.7355 21.7028Z" fill="#F15744"/>
<path d="M27.7559 32.2364L24.4288 35.563C23.9639 36.0274 23.3456 36.2836 22.6886 36.2836H14.2365V32.7262H14.777C15.0235 32.7262 15.2673 32.6431 15.462 32.4926L15.5478 32.4262C16.1007 31.999 16.7906 31.7633 17.4902 31.7633H18.6224C19.28 31.7633 19.9127 31.9634 20.4511 32.3421L20.5482 32.4106C20.738 32.5443 20.9614 32.615 21.1933 32.615H23.3094C23.5246 32.615 23.727 32.6986 23.879 32.8508C24.0312 33.0028 24.1148 33.2052 24.1148 33.4204C24.1148 33.8643 23.7534 34.2257 23.3094 34.2257H20.5233C20.3 34.2257 20.1187 34.4069 20.1187 34.6303C20.1187 34.8536 20.3 35.0349 20.5233 35.0349H23.3094C24.1995 35.0349 24.9239 34.3104 24.9239 33.4204C24.9239 33.2337 24.8926 33.0519 24.8322 32.8815L26.6172 31.0966C26.7688 30.9445 26.971 30.8608 27.1863 30.8608C27.4015 30.8608 27.6038 30.9445 27.7559 31.0966C28.0699 31.4106 28.0699 31.922 27.7559 32.2364Z" fill="#F15744"/>
<path d="M13.0768 32.0103H11.1349C11.0604 32.0103 11 32.0707 11 32.1451V36.865C11 36.9394 11.0604 36.9999 11.1349 36.9999H13.0768C13.2699 36.9999 13.4274 36.8423 13.4274 36.6492V32.3608C13.4274 32.1672 13.2699 32.0103 13.0768 32.0103ZM12.6182 35.5164C12.6182 35.7398 12.437 35.921 12.2137 35.921C11.9903 35.921 11.8091 35.7398 11.8091 35.5164V34.977C11.8091 34.7537 11.9903 34.5725 12.2137 34.5725C12.437 34.5725 12.6182 34.7537 12.6182 34.977V35.5164Z" fill="#F15744"/>
</g>
<defs>
<clipPath id="clip0_2175_21124">
<rect width="26" height="26" fill="white" transform="translate(11 11)"/>
</clipPath>
</defs>
</svg>
