<svg width="48" height="48" viewBox="0 0 48 48" fill="none" xmlns="http://www.w3.org/2000/svg">
<path fill-rule="evenodd" clip-rule="evenodd" d="M8.8807 0H39.1193C44.0069 0 48 4.00231 48 8.88069V39.1193C48 44.0069 44.0069 48 39.1193 48H8.8807C3.99309 48 0 44.0069 0 39.1193V8.88069C0 3.99308 3.99309 0 8.8807 0Z" fill="#FBEFE8"/>
<path fill-rule="evenodd" clip-rule="evenodd" d="M13 22.5531V23.4984C13 25.074 13.5933 27.0481 14.1309 28.1139C14.5017 28.8553 14.7057 29.226 15.1784 29.9211C16.4021 31.6913 17.9872 32.9147 19.8783 33.8693C20.9444 34.4068 22.9282 35 24.4948 35H25.4959C27.7671 35 30.1588 34.0361 31.9201 32.822C33.6906 31.5986 34.9142 30.0138 35.8691 28.1231C36.4067 27.0573 37 25.0832 37 23.5077V22.5067C37 19.578 35.5168 16.5474 33.4867 14.5177C32.0127 13.0441 30.0753 11.8856 28.0267 11.3759C25.3384 10.7086 22.3256 10.9125 19.9154 12.1266C17.1715 13.4982 15.5122 15.1572 14.1309 17.8913C13.5747 18.9849 13 20.9312 13 22.5531ZM23.4009 17.4557V19.8097H30.6037V22.2102H19.4519C19.5631 22.0063 19.7578 21.8024 19.9154 21.617C20.314 21.1536 23.2433 17.5576 23.4009 17.4557ZM26.6083 28.5495V26.2047H19.4056V23.8043H30.5574C30.4461 24.0174 26.701 28.4939 26.6083 28.5495Z" fill="#F15744"/>
</svg>
