<svg width="48" height="48" viewBox="0 0 48 48" fill="none" xmlns="http://www.w3.org/2000/svg">
<path fill-rule="evenodd" clip-rule="evenodd" d="M8.8807 0H39.1193C44.0069 0 48 3.99308 48 8.88069V39.1193C48 44.0069 44.0069 48 39.1193 48H8.8807C3.99309 48 0 44.0069 0 39.1193V8.88069C0 3.99308 3.99309 0 8.8807 0Z" fill="#FBEFE8"/>
<path d="M35.4765 17.5947H12.3667C11.472 17.5961 10.6143 17.9522 9.98161 18.5848C9.34893 19.2175 8.99287 20.0751 8.99146 20.9698V35.5474C8.99287 36.4421 9.34893 37.2997 9.98161 37.9324C10.6143 38.565 11.472 38.9211 12.3667 38.9225H35.4765C36.3712 38.9211 37.2289 38.565 37.8616 37.9324C38.4943 37.2997 38.8503 36.4421 38.8518 35.5474V20.9698C38.8503 20.0751 38.4943 19.2175 37.8616 18.5848C37.2289 17.9522 36.3712 17.5961 35.4765 17.5947ZM36.7189 35.5474C36.7189 35.8768 36.588 36.1928 36.355 36.4258C36.122 36.6588 35.806 36.7897 35.4765 36.7897H12.3667C12.0372 36.7897 11.7212 36.6588 11.4882 36.4258C11.2552 36.1928 11.1243 35.8768 11.1243 35.5474V26.1258H36.7189V35.5474ZM36.7189 21.8603H11.1243V20.9698C11.1243 20.6404 11.2552 20.3244 11.4882 20.0914C11.7212 19.8584 12.0372 19.7275 12.3667 19.7275H35.4765C35.806 19.7275 36.122 19.8584 36.355 20.0914C36.588 20.3244 36.7189 20.6404 36.7189 20.9698V21.8603Z" fill="#F15744"/>
<path d="M27.1209 30.3914H30.3202C30.603 30.3914 30.8743 30.2791 31.0743 30.0791C31.2743 29.8791 31.3866 29.6079 31.3866 29.3251C31.3866 29.0422 31.2743 28.771 31.0743 28.571C30.8743 28.371 30.603 28.2587 30.3202 28.2587H27.1209C26.838 28.2587 26.5668 28.371 26.3668 28.571C26.1668 28.771 26.0544 29.0422 26.0544 29.3251C26.0544 29.6079 26.1668 29.8791 26.3668 30.0791C26.5668 30.2791 26.838 30.3914 27.1209 30.3914Z" fill="#F15744"/>
<path d="M33.5196 30.3914C33.802 30.3903 34.0723 30.2771 34.2714 30.0769C34.4717 29.8778 34.5848 29.6074 34.586 29.3251C34.5891 29.1657 34.5564 29.0076 34.4903 28.8625C34.4242 28.7175 34.3264 28.589 34.2042 28.4867C34.0819 28.3844 33.9383 28.3108 33.7838 28.2714C33.6293 28.2319 33.468 28.2276 33.3116 28.2587C33.242 28.27 33.1739 28.2897 33.109 28.3173C33.0458 28.3459 32.9852 28.3798 32.9277 28.4186C32.813 28.4978 32.7136 28.5972 32.6344 28.7119C32.5925 28.7693 32.5584 28.8321 32.5331 28.8985C32.5054 28.9616 32.4857 29.0278 32.4745 29.0958C32.4578 29.171 32.4506 29.248 32.4531 29.3251C32.4531 29.6079 32.5655 29.8791 32.7655 30.0791C32.9655 30.2791 33.2367 30.3914 33.5196 30.3914Z" fill="#F15744"/>
<path d="M33.5197 32.5242H30.3203C30.0375 32.5242 29.7663 32.6365 29.5663 32.8365C29.3663 33.0365 29.2539 33.3077 29.2539 33.5906C29.2539 33.8734 29.3663 34.1446 29.5663 34.3446C29.7663 34.5446 30.0375 34.6569 30.3203 34.6569H33.5197C33.8025 34.6569 34.0738 34.5446 34.2738 34.3446C34.4737 34.1446 34.5861 33.8734 34.5861 33.5906C34.5861 33.3077 34.4737 33.0365 34.2738 32.8365C34.0738 32.6365 33.8025 32.5242 33.5197 32.5242Z" fill="#F15744"/>
<path d="M27.121 34.657C27.4038 34.657 27.6751 34.5446 27.8751 34.3446C28.0751 34.1447 28.1874 33.8734 28.1874 33.5906C28.1953 33.5215 28.1953 33.4517 28.1874 33.3826C28.1758 33.3131 28.1562 33.2451 28.1288 33.18C28.1002 33.1169 28.0663 33.0562 28.0275 32.9987C27.9904 32.9397 27.9456 32.8859 27.8942 32.8388C27.6944 32.6402 27.4241 32.5287 27.1423 32.5287C26.8606 32.5287 26.5903 32.6402 26.3905 32.8388C26.2434 32.9866 26.1429 33.1743 26.1014 33.3786C26.0599 33.5829 26.0792 33.795 26.157 33.9884C26.2347 34.1819 26.3674 34.3484 26.5388 34.4672C26.7101 34.586 26.9125 34.652 27.121 34.657Z" fill="#F15744"/>
<path d="M16.4566 34.657C17.0192 34.6559 17.5714 34.505 18.0563 34.2198C18.5425 34.5028 19.0947 34.6527 19.6573 34.6543C20.2199 34.6559 20.773 34.509 21.2607 34.2287C21.7485 33.9483 22.1537 33.5442 22.4354 33.0573C22.7172 32.5703 22.8655 32.0177 22.8655 31.4551C22.8655 30.8926 22.7172 30.3399 22.4354 29.853C22.1537 29.3661 21.7485 28.962 21.2607 28.6816C20.773 28.4012 20.2199 28.2544 19.6573 28.256C19.0947 28.2576 18.5425 28.4074 18.0563 28.6905C17.5709 28.4072 17.0187 28.2581 16.4566 28.2586C15.6081 28.2586 14.7944 28.5957 14.1944 29.1957C13.5944 29.7956 13.2573 30.6093 13.2573 31.4578C13.2573 32.3063 13.5944 33.12 14.1944 33.72C14.7944 34.3199 15.6081 34.657 16.4566 34.657Z" fill="#F15744"/>
<path d="M33.4609 15.462H33.7382C33.8559 15.463 33.9718 15.4327 34.074 15.3744C34.1763 15.316 34.2613 15.2317 34.3203 15.1298C34.3794 15.028 34.4104 14.9123 34.4102 14.7946C34.4101 14.6768 34.3787 14.5613 34.3194 14.4596L32.0532 10.5406C31.659 9.86433 31.0124 9.37217 30.2556 9.17222C29.4988 8.97227 28.6935 9.08089 28.0167 9.47421L18.632 14.8755C18.5725 14.9101 18.526 14.9633 18.4996 15.0269C18.4732 15.0905 18.4684 15.161 18.486 15.2276C18.5035 15.2942 18.5425 15.3532 18.5968 15.3955C18.6511 15.4379 18.7178 15.4612 18.7867 15.462H20.4876C21.0495 15.461 21.6013 15.312 22.0873 15.0301L28.9498 11.0791C29.073 11.0046 29.2099 10.9557 29.3524 10.9355C29.4949 10.9153 29.6401 10.9241 29.7791 10.9615C29.9181 10.9989 30.0481 11.064 30.1612 11.1529C30.2744 11.2419 30.3684 11.3528 30.4375 11.479L32.3784 14.8435C32.4888 15.0324 32.6469 15.189 32.8369 15.2976C33.0269 15.4062 33.2421 15.4628 33.4609 15.462Z" fill="#F15744"/>
<path d="M29.8935 14.2676C29.7118 13.953 29.4125 13.7235 29.0615 13.6295C28.7105 13.5355 28.3366 13.5848 28.0219 13.7664L25.5211 15.2007C25.4036 15.2713 25.2975 15.3594 25.2065 15.462H30.5014C30.4717 15.3464 30.4269 15.2352 30.3681 15.1314L29.8935 14.2676Z" fill="#F15744"/>
</svg>
