<svg width="48" height="48" viewBox="0 0 48 48" fill="none" xmlns="http://www.w3.org/2000/svg">
<path fill-rule="evenodd" clip-rule="evenodd" d="M8.8807 0H39.1193C44.0069 0 48 4.00231 48 8.88069V39.1193C48 44.0069 44.0069 48 39.1193 48H8.8807C3.99309 48 0 44.0069 0 39.1193V8.88069C0 3.99308 3.99309 0 8.8807 0Z" fill="#FBEFE8"/>
<path d="M16.4158 33.0045H38.3058C39.0072 33.0045 39.578 32.4338 39.578 31.7324V25.8979H15.1437V31.7324C15.1437 32.4338 15.7144 33.0045 16.4158 33.0045ZM33.7567 27.3875L34.5946 26.4299C34.6953 26.3148 34.8408 26.2489 34.9936 26.2489H37.7302C38.0225 26.2489 38.2604 26.4867 38.2604 26.7791V27.7366C38.2604 28.029 38.0225 28.2668 37.7302 28.2668H34.1557C33.945 28.2668 33.76 28.1476 33.6729 27.9557C33.5859 27.7638 33.6179 27.5461 33.7567 27.3875ZM16.4613 26.779C16.4613 26.4867 16.6991 26.2489 16.9914 26.2489H19.7281C19.8809 26.2489 20.0263 26.3148 20.127 26.4299L20.9649 27.3874C21.1037 27.546 21.1358 27.7637 21.0487 27.9557C20.9617 28.1476 20.7767 28.2668 20.5659 28.2668H16.9915C16.6991 28.2668 16.4613 28.0289 16.4613 27.7366L16.4613 26.779Z" fill="#F15744"/>
<path d="M17.3817 21.7842C17.3529 21.7315 17.3147 21.6861 17.27 21.6494C17.3147 21.6861 17.3529 21.7315 17.3817 21.7842Z" fill="#F15744"/>
<path d="M32.429 18.4404H22.6196C21.3315 18.4404 20.1128 19.0643 19.3595 20.1091L15.1862 25.898H39.5406L35.7761 20.2345C35.0293 19.1111 33.7781 18.4404 32.429 18.4404ZM35.35 22.9066C35.2107 23.25 34.8967 23.4633 34.5305 23.4633H20.1924C19.818 23.4633 19.5014 23.2435 19.3661 22.8895C19.2283 22.5289 19.3202 22.1459 19.606 21.8902L21.1491 20.5088C21.7366 19.9828 22.6854 19.6688 23.6872 19.6688H31.1544C32.2036 19.6688 33.1779 20.0065 33.7606 20.5722L35.1433 21.9148C35.4128 22.1763 35.4921 22.5564 35.35 22.9066Z" fill="#F15744"/>
<path d="M15.9769 34.796C15.9769 35.3322 16.4131 35.7683 16.9493 35.7683H18.9526C19.4888 35.7683 19.925 35.3321 19.925 34.796V33.1948H15.9769V34.796Z" fill="#F15744"/>
<path d="M34.7969 34.796C34.7969 35.3322 35.2331 35.7683 35.7693 35.7683H37.7726C38.3087 35.7683 38.7449 35.3321 38.7449 34.796V33.1948H34.7969L34.7969 34.796Z" fill="#F15744"/>
<path d="M40.134 22.1329C40.1196 21.904 39.9432 21.723 39.7147 21.7027L37.9597 21.5466C37.9369 21.5447 37.9142 21.5444 37.8917 21.5458C37.7347 21.5553 37.5917 21.6438 37.5146 21.7843L37.4759 21.8551C37.3923 22.0076 37.4011 22.1917 37.4988 22.3357L38.2393 23.4258C38.3267 23.5544 38.4703 23.6279 38.6203 23.6279C38.662 23.6279 38.7042 23.6222 38.7458 23.6105L39.8431 23.3011C40.0507 23.2425 40.1915 23.0436 40.178 22.8283L40.134 22.1329Z" fill="#F15744"/>
<path d="M16.1512 23.6105C16.1928 23.6223 16.235 23.6279 16.2767 23.6279C16.4266 23.6279 16.5703 23.5545 16.6576 23.4259L17.3982 22.3357C17.4959 22.1918 17.5047 22.0076 17.4211 21.8551L17.3823 21.7844C17.3535 21.7317 17.3153 21.6863 17.2706 21.6496C17.2408 21.6251 17.2081 21.6046 17.1733 21.5883C17.142 21.5737 17.1089 21.5632 17.0748 21.5558C17.052 21.5509 17.0289 21.5472 17.0052 21.5457C16.9828 21.5444 16.9601 21.5447 16.9372 21.5467L15.1822 21.7028C14.9537 21.7231 14.7774 21.904 14.763 22.133L14.719 22.8283C14.7055 23.0437 14.8463 23.2425 15.054 23.3011L16.1512 23.6105Z" fill="#F15744"/>
<path d="M35.6545 30.5918H18.7784V31.396H35.6545V30.5918Z" fill="white"/>
<path d="M12.4044 8H10.4742V35.7683H12.4044V8Z" fill="#F15744"/>
<path d="M25.246 9.28294L11.6776 22.8513L12.2698 23.4435L25.8382 9.87516L25.246 9.28294Z" fill="#F15744"/>
<path d="M42 35.6633H6V35.8729H42V35.6633Z" fill="#F15744"/>
</svg>
