<svg width="48" height="48" viewBox="0 0 48 48" fill="none" xmlns="http://www.w3.org/2000/svg">
<path fill-rule="evenodd" clip-rule="evenodd" d="M8.8807 0H39.1193C44.0069 0 48 4.00231 48 8.88069V39.1193C48 44.0069 44.0069 48 39.1193 48H8.8807C3.99309 48 0 44.0069 0 39.1193V8.88069C0 3.99308 3.99309 0 8.8807 0Z" fill="#FBEFE8"/>
<g clip-path="url(#clip0_2920_19689)">
<path d="M17.4199 18.3242H20.3496V11H17.4199C17.0154 11 16.6875 11.3279 16.6875 11.7324V17.5918C16.6875 17.9963 17.0154 18.3242 17.4199 18.3242Z" fill="#F15744"/>
<path d="M32.3125 17.5918V16.7338C32.3125 16.422 32.1141 16.147 31.8204 16.0422C31.2535 15.8401 30.8477 15.2985 30.8477 14.6621C30.8477 14.0257 31.2535 13.4841 31.8204 13.282C32.1141 13.1772 32.3125 12.9022 32.3125 12.5904V11.7324C32.3125 11.3279 31.9846 11 31.5801 11H21.8145V18.3242H31.5801C31.9846 18.3242 32.3125 17.9963 32.3125 17.5918ZM27.7227 15.3945H24.793C24.3885 15.3945 24.0605 15.0666 24.0605 14.6621C24.0605 14.2576 24.3885 13.9297 24.793 13.9297H27.7227C28.1271 13.9297 28.4551 14.2576 28.4551 14.6621C28.4551 15.0666 28.1271 15.3945 27.7227 15.3945Z" fill="#F15744"/>
<path d="M34.8027 13.1973H33.6912C33.4976 13.8655 32.9913 14.4197 32.3124 14.6617C33.1886 14.975 33.7773 15.8073 33.7773 16.7338V17.5918C33.7773 18.8034 32.7917 19.7891 31.5801 19.7891H17.4199C16.2083 19.7891 15.2227 18.8034 15.2227 17.5918V13.1973H14.1973C12.9857 13.1973 12 14.183 12 15.3945V28.8223C12 30.0338 12.9857 31.0195 14.1973 31.0195H34.8027C36.0143 31.0195 37 30.0338 37 28.8223V15.3945C37 14.183 36.0143 13.1973 34.8027 13.1973ZM23.8896 24.2706L17.7651 27.8066C17.5249 27.9453 17.2269 27.9364 16.9954 27.7835L15.7957 26.9914C15.4581 26.7686 15.3651 26.3142 15.588 25.9767C15.8109 25.6391 16.2652 25.5461 16.6027 25.769L17.4247 26.3117L19.347 25.2019L17.9366 24.2706C17.599 24.0478 17.5061 23.5934 17.7289 23.2559C17.9518 22.9183 18.4061 22.8253 18.7437 23.0482L20.7653 24.383L23.1571 23.0021C23.5074 22.7999 23.9554 22.9199 24.1576 23.2702C24.36 23.6204 24.2399 24.0684 23.8896 24.2706ZM26.9414 27.3574C26.5369 27.3574 26.209 27.0295 26.209 26.625C26.209 26.2205 26.5369 25.8926 26.9414 25.8926C27.3459 25.8926 27.6738 26.2205 27.6738 26.625C27.6738 27.0295 27.3459 27.3574 26.9414 27.3574ZM26.9414 24.4277C26.5369 24.4277 26.209 24.0998 26.209 23.6953C26.209 23.2908 26.5369 22.9629 26.9414 22.9629C27.3459 22.9629 27.6738 23.2908 27.6738 23.6953C27.6738 24.0998 27.3459 24.4277 26.9414 24.4277ZM32.8008 27.3574H29.8711C29.4666 27.3574 29.1387 27.0295 29.1387 26.625C29.1387 26.2205 29.4666 25.8926 29.8711 25.8926H32.8008C33.2053 25.8926 33.5332 26.2205 33.5332 26.625C33.5332 27.0295 33.2053 27.3574 32.8008 27.3574ZM32.8008 24.4277H29.8711C29.4666 24.4277 29.1387 24.0998 29.1387 23.6953C29.1387 23.2908 29.4666 22.9629 29.8711 22.9629H32.8008C33.2053 22.9629 33.5332 23.2908 33.5332 23.6953C33.5332 24.0998 33.2053 24.4277 32.8008 24.4277Z" fill="#F15744"/>
<path d="M28.2291 32.4844H20.771C20.6198 33.3379 20.2133 34.1239 19.5876 34.7497C19.3781 34.9592 19.3155 35.2742 19.4288 35.5479C19.5422 35.8216 19.8093 36 20.1055 36H28.8945C29.1908 36 29.4578 35.8216 29.5712 35.5479C29.6845 35.2742 29.6219 34.9592 29.4124 34.7497C28.7867 34.124 28.3802 33.3379 28.2291 32.4844Z" fill="#F15744"/>
</g>
<defs>
<clipPath id="clip0_2920_19689">
<rect width="25" height="25" fill="white" transform="translate(12 11)"/>
</clipPath>
</defs>
</svg>
