<svg width="48" height="48" viewBox="0 0 48 48" fill="none" xmlns="http://www.w3.org/2000/svg">
<path fill-rule="evenodd" clip-rule="evenodd" d="M8.8807 0H39.1193C44.0069 0 48 4.00231 48 8.88069V39.1193C48 44.0069 44.0069 48 39.1193 48H8.8807C3.99309 48 0 44.0069 0 39.1193V8.88069C0 3.99308 3.99309 0 8.8807 0Z" fill="#FBEFE8"/>
<g clip-path="url(#clip0_2170_23913)">
<path d="M15.7292 15.2353L24.4546 13.3291L33.1801 15.2353C33.6163 15.3819 34.0526 15.6752 34.0526 16.2617V26.9655C34.0526 29.165 33.0346 31.2177 31.1441 32.2441L24.4546 36.7896L17.7652 32.3908C16.0201 31.2177 14.8567 29.165 14.8567 27.1122V16.2617C15.0021 15.8218 15.293 15.3819 15.7292 15.2353ZM23.4367 22.8599H20.2374V25.0594H23.4367V28.2852H25.618V25.0594H28.8173V22.8599H25.618V19.7807H23.4367V22.8599Z" fill="#F15744"/>
</g>
<defs>
<clipPath id="clip0_2170_23913">
<rect width="25.0613" height="26.1265" fill="white" transform="translate(12.7969 10.6638)"/>
</clipPath>
</defs>
</svg>
