<svg width="48" height="48" viewBox="0 0 48 48" fill="none" xmlns="http://www.w3.org/2000/svg">
<path fill-rule="evenodd" clip-rule="evenodd" d="M8.8807 0H39.1193C44.0069 0 48 4.00231 48 8.88069V39.1193C48 44.0069 44.0069 48 39.1193 48H8.8807C3.99309 48 0 44.0069 0 39.1193V8.88069C0 3.99308 3.99309 0 8.8807 0Z" fill="#FBEFE8"/>
<path d="M34.9157 13.5443C34.8998 13.2717 34.6438 13.0787 34.3732 13.1283C34.2254 13.1557 34.0776 13.1818 33.9298 13.2052C33.0363 13.3474 32.1322 13.423 31.2269 13.4126C30.468 13.4048 29.7091 13.337 28.9621 13.2C28.3392 13.0852 27.7255 12.9222 27.1303 12.7096C26.6459 12.5348 26.1747 12.3275 25.7221 12.0849C25.3789 11.901 25.0477 11.6949 24.7309 11.4679C24.6148 11.3845 24.5013 11.2971 24.3904 11.2071C24.2822 11.121 24.1792 11.0101 24.0327 11.0023C23.8942 10.9958 23.7714 11.078 23.6711 11.1588C23.4903 11.3023 23.3095 11.4432 23.1194 11.5749C22.7816 11.8071 22.4266 12.0144 22.061 12.1996C21.5872 12.4396 21.0949 12.6418 20.5907 12.8074C19.9744 13.0109 19.3409 13.1596 18.7008 13.2587C17.934 13.3787 17.158 13.4256 16.3833 13.4126C15.4594 13.3983 14.5395 13.2978 13.6315 13.1296C13.361 13.08 13.1063 13.2717 13.0891 13.5443C12.9426 15.9103 12.5625 25.8032 16.0824 30.1555C19.7857 34.7335 22.9888 36.553 23.8044 36.9547C23.9311 37.0173 24.0789 37.0173 24.2056 36.9573C25.0265 36.5621 28.2494 34.7609 31.9264 30.1555C35.4159 25.7823 35.0582 15.9116 34.917 13.5456L34.9157 13.5443ZM29.8319 21.4456L23.3108 28.5969C23.0508 28.8812 22.6905 29.0299 22.3263 29.0299C22.0531 29.0299 21.7759 28.9452 21.5397 28.773L19.0387 26.9405C18.4514 26.5101 18.3286 25.6923 18.7642 25.1119C19.1997 24.5328 20.0272 24.4115 20.6145 24.8406L22.1494 25.9662L27.8667 19.6966C28.3563 19.1605 29.1918 19.1175 29.7355 19.6014C30.2779 20.0852 30.3215 20.9109 29.8319 21.4469V21.4456Z" fill="#F15744"/>
</svg>
