<svg width="48" height="48" viewBox="0 0 48 48" fill="none" xmlns="http://www.w3.org/2000/svg">
<path fill-rule="evenodd" clip-rule="evenodd" d="M8.8807 0H39.1193C44.0069 0 48 3.99308 48 8.88069V39.1193C48 44.0069 44.0069 48 39.1193 48H8.8807C3.99309 48 0 44.0069 0 39.1193V8.88069C0 3.99308 3.99309 0 8.8807 0Z" fill="#FBEFE8"/>
<g clip-path="url(#clip0_2175_21168)">
<path fill-rule="evenodd" clip-rule="evenodd" d="M13.377 23.1889C13.377 22.3346 13.4699 21.5012 13.6461 20.6982C13.8271 19.873 14.0966 19.0802 14.4441 18.3302C14.5324 18.1386 14.7594 18.0549 14.951 18.1433C15.1425 18.2316 15.2263 18.4586 15.1379 18.6502C14.8142 19.3489 14.563 20.0886 14.3938 20.8597C14.2293 21.6091 14.1426 22.3885 14.1426 23.1889C14.1426 23.4003 13.9712 23.5717 13.7598 23.5717C13.5484 23.5717 13.377 23.4003 13.377 23.1889ZM35.4723 18.3614C35.3848 18.1698 35.1585 18.0855 34.9669 18.173C34.7754 18.2606 34.691 18.4869 34.7785 18.6784C34.9351 19.019 35.0747 19.3698 35.1961 19.7296C35.3166 20.0871 35.4187 20.4504 35.5009 20.8185C35.5463 21.0241 35.7499 21.154 35.9555 21.1086C36.1611 21.0632 36.291 20.8597 36.2456 20.654C36.1563 20.2547 36.0473 19.8655 35.9198 19.4874C35.7901 19.1033 35.6406 18.7274 35.4723 18.3614ZM28.1105 12.442C28.1625 12.2381 28.0393 12.0305 27.8353 11.9785C27.363 11.8573 26.8861 11.7656 26.4069 11.7054C25.9296 11.6455 25.4438 11.6146 24.9513 11.6146C24.0061 11.6146 23.0839 11.7292 22.1983 11.9454C21.2851 12.1683 20.4173 12.4976 19.6088 12.919C19.4213 13.0165 19.3483 13.2474 19.4457 13.4349C19.5432 13.6224 19.7741 13.6953 19.9616 13.5979C20.7217 13.2016 21.5316 12.8935 22.3777 12.687C23.1992 12.4864 24.061 12.3801 24.9513 12.3801C25.4135 12.3801 25.8683 12.409 26.3142 12.465C26.7747 12.5229 27.2195 12.6075 27.6469 12.7172C27.8509 12.7692 28.0584 12.646 28.1104 12.442H28.1105ZM14.3665 35.5453H16.098C16.2699 34.4973 17.1799 33.6973 18.2764 33.6973C19.3729 33.6973 20.2829 34.4973 20.4548 35.5453H26.1897V32.8058H14.3665V35.5453ZM10.9762 25.4566H14.1014C14.3128 25.4566 14.4842 25.2852 14.4842 25.0738C14.4842 24.8624 14.3128 24.691 14.1014 24.691H10.9762C10.7648 24.691 10.5934 24.8624 10.5934 25.0738C10.5934 25.2852 10.7648 25.4566 10.9762 25.4566ZM12.0514 26.8798C11.84 26.8798 11.6686 27.0512 11.6686 27.2626C11.6686 27.4741 11.84 27.6454 12.0514 27.6454H14.265C14.4764 27.6454 14.6478 27.4741 14.6478 27.2626C14.6478 27.0512 14.4764 26.8798 14.265 26.8798H12.0514ZM12.9133 29.2382C12.9133 29.0268 12.7419 28.8554 12.5304 28.8554H10.793C10.5815 28.8554 10.4102 29.0268 10.4102 29.2382C10.4102 29.4496 10.5815 29.621 10.793 29.621H12.5304C12.7419 29.621 12.9133 29.4496 12.9133 29.2382ZM14.896 31.1285C14.896 30.9171 14.7246 30.7457 14.5131 30.7457H12.7196C12.5082 30.7457 12.3368 30.9171 12.3368 31.1285C12.3368 31.34 12.5082 31.5114 12.7196 31.5114H14.5131C14.7246 31.5114 14.896 31.34 14.896 31.1285ZM33.4084 30.5847C33.5834 30.8253 33.6666 31.081 33.6666 31.3786V33.7249H32.8607V34.4906H33.6666V35.5452H32.2131C32.0413 34.4972 31.1313 33.6973 30.0347 33.6973C28.9382 33.6973 28.0282 34.4972 27.8563 35.5452H26.9553V26.9768H30.3316C30.6248 26.9768 30.8771 27.1052 31.0496 27.3424L33.4084 30.5847H33.4084ZM29.0006 31.9404H27.9764V32.706H29.0006V31.9404ZM32.5827 31.1854L30.2637 27.998H27.9765V31.1854H32.5827ZM18.7763 25.5044V22.7179H16.3359C16.0611 22.7179 15.837 22.942 15.837 23.2168V31.5411C15.837 31.8159 16.0611 32.04 16.3359 32.04H24.6602C24.935 32.04 25.1592 31.8159 25.1592 31.5411V23.2168C25.1592 22.942 24.935 22.7179 24.6602 22.7179H22.2199V25.5044C22.2199 25.7158 22.048 25.8871 21.8369 25.8871H19.159C18.9479 25.8871 18.7762 25.7158 18.7762 25.5044H18.7763ZM19.5418 22.7179V25.1217H21.4541V22.7179H19.5418ZM19.7186 35.905C19.7186 36.6993 19.0707 37.3472 18.2764 37.3472C17.4821 37.3472 16.8342 36.6993 16.8342 35.905C16.8342 35.1107 17.4821 34.4628 18.2764 34.4628C19.0707 34.4628 19.7186 35.1107 19.7186 35.905ZM18.8087 35.905C18.8087 35.6118 18.5696 35.3727 18.2764 35.3727C17.9832 35.3727 17.7441 35.6118 17.7441 35.905C17.7441 36.1982 17.9832 36.4373 18.2764 36.4373C18.5696 36.4373 18.8087 36.1982 18.8087 35.905ZM31.4769 35.905C31.4769 36.6993 30.829 37.3472 30.0347 37.3472C29.2404 37.3472 28.5925 36.6993 28.5925 35.905C28.5925 35.1107 29.2404 34.4628 30.0347 34.4628C30.829 34.4628 31.4769 35.1107 31.4769 35.905ZM30.567 35.905C30.567 35.6118 30.3279 35.3727 30.0347 35.3727C29.7415 35.3727 29.5024 35.6118 29.5024 35.905C29.5024 36.1982 29.7415 36.4373 30.0347 36.4373C30.3279 36.4373 30.567 36.1982 30.567 35.905ZM14.7933 16.3781C14.3894 15.4684 14.559 14.3605 15.3021 13.6174C15.7835 13.136 16.418 12.8953 17.0526 12.8953C17.6871 12.8953 18.3217 13.136 18.803 13.6174C19.5461 14.3604 19.7157 15.4684 19.3118 16.3781C18.947 17.1997 17.6132 18.9328 17.0526 19.7877C16.4919 18.9328 15.1581 17.1997 14.7933 16.3781ZM16.2946 16.1258C16.7132 16.5444 17.3919 16.5444 17.8105 16.1258C18.2291 15.7072 18.2291 15.0285 17.8105 14.61C17.3919 14.1913 16.7132 14.1913 16.2946 14.61C15.876 15.0285 15.876 15.7073 16.2946 16.1258ZM37.3765 25.0865C37.0116 25.9081 35.6779 27.6412 35.1172 28.4962C34.5565 27.6412 33.2228 25.9081 32.858 25.0865C32.4541 24.1769 32.6236 23.0689 33.3667 22.3259C33.8481 21.8445 34.4827 21.6038 35.1172 21.6038C35.7517 21.6038 36.3863 21.8445 36.8677 22.3259C37.6107 23.0689 37.7803 24.1769 37.3765 25.0865ZM35.8752 23.3184C35.4565 22.8998 34.7779 22.8998 34.3593 23.3184C33.9407 23.737 33.9407 24.4157 34.3593 24.8343C34.7779 25.2529 35.4566 25.2529 35.8752 24.8343C36.2937 24.4157 36.2937 23.737 35.8752 23.3184ZM28.1861 15.1412V14.1262C28.1861 14.035 28.2491 13.9585 28.3385 13.9409L28.8862 13.8329L29.2808 12.8803L28.9698 12.4164C28.9191 12.3408 28.9287 12.2421 28.9931 12.1777L29.7109 11.46C29.7753 11.3955 29.8739 11.3859 29.9497 11.4366L30.4134 11.7476L31.366 11.3529L31.474 10.8052C31.4916 10.7158 31.5682 10.6528 31.6594 10.6528H32.6744C32.7655 10.6528 32.842 10.7158 32.8597 10.8052L32.9677 11.3529L33.9204 11.7476L34.3841 11.4366C34.4598 11.3859 34.5585 11.3955 34.6229 11.46L35.3406 12.1777C35.4051 12.2422 35.4147 12.3408 35.364 12.4165L35.0529 12.8803L35.4476 13.8329L35.9954 13.9409C36.0848 13.9585 36.1477 14.035 36.1477 14.1262V15.1412C36.1477 15.2324 36.0848 15.3089 35.9954 15.3265L35.4476 15.4345L35.0529 16.3871L35.364 16.8509C35.4147 16.9266 35.4051 17.0252 35.3406 17.0897L34.6229 17.8074C34.5585 17.8719 34.4598 17.8815 34.3841 17.8307L33.9204 17.5197L32.9678 17.9144L32.8598 18.4622C32.8421 18.5516 32.7655 18.6145 32.6744 18.6145H31.6594C31.5683 18.6145 31.4917 18.5516 31.4741 18.4622L31.3661 17.9143L30.4135 17.5197L29.9497 17.8307C29.874 17.8815 29.7754 17.8719 29.7109 17.8074L28.9932 17.0897C28.9288 17.0252 28.9191 16.9266 28.9699 16.8509L29.2809 16.3872L28.8863 15.4346L28.3385 15.3266C28.2491 15.309 28.1862 15.2324 28.1862 15.1413L28.1861 15.1412ZM30.2575 14.6337C30.2575 15.6882 31.1124 16.5431 32.1669 16.5431C33.2215 16.5431 34.0763 15.6882 34.0763 14.6337C34.0763 13.5792 33.2215 12.7243 32.1669 12.7243C31.1124 12.7243 30.2575 13.5792 30.2575 14.6337Z" fill="#F15744"/>
</g>
<defs>
<clipPath id="clip0_2175_21168">
<rect width="28" height="28" fill="white" transform="translate(10 10)"/>
</clipPath>
</defs>
</svg>
