<svg width="48" height="48" viewBox="0 0 48 48" fill="none" xmlns="http://www.w3.org/2000/svg">
<path fill-rule="evenodd" clip-rule="evenodd" d="M8.8807 0H39.1193C44.0069 0 48 4.00231 48 8.88069V39.1193C48 44.0069 44.0069 48 39.1193 48H8.8807C3.99309 48 0 44.0069 0 39.1193V8.88069C0 3.99308 3.99309 0 8.8807 0Z" fill="#FBEFE8"/>
<path fill-rule="evenodd" clip-rule="evenodd" d="M10 12.3567V34.4644C10 36.369 11.5736 38 13.4725 38H25.1068C27.0056 38 28.5792 36.3795 28.5792 34.4644V12.5356C28.5792 10.6205 27.0056 9 25.1068 9H13.3571C12.3499 9 11.4582 9.53665 10.8393 10.2522C10.7553 10.3574 10.7239 10.3679 10.6504 10.4732C10.3357 10.9046 10.0105 11.7253 10.0105 12.3567M13.0528 20.4906V13.6509C13.0528 13.2195 13.5878 12.6513 14.1648 12.6513H24.5088C25.1592 12.6513 25.6208 13.1038 25.6208 13.8298V20.4274C25.6208 21.0483 25.0648 21.5428 24.4459 21.5428H14.2173C13.5669 21.5428 13.0423 20.8799 13.0423 20.48L13.0528 20.4906ZM23.166 26.8567C22.4001 26.8567 21.9281 26.0991 21.9281 25.7413C21.9281 24.0577 24.3305 24.1419 24.32 25.6782C24.32 26.2779 23.7849 26.8567 23.1555 26.8567H23.166ZM14.1124 25.7413C14.1124 25.0889 14.6055 24.4996 15.4028 24.4996C15.9483 24.4996 16.4623 25.0152 16.4623 25.5624C16.4623 25.9517 16.4623 26.2148 16.0952 26.5515C15.2454 27.3512 14.1124 26.4568 14.1124 25.7413ZM19.2844 26.8567C17.6373 26.8567 17.8366 24.4996 19.169 24.4996C19.5571 24.4996 19.8194 24.4996 20.1551 24.8679C20.9 25.6571 20.1761 26.8567 19.2844 26.8567ZM23.3443 30.4554H23.0506C22.4841 30.4554 21.9385 29.8345 21.9385 29.2768C21.9385 27.9194 24.0997 27.5617 24.32 29.1927C24.3619 29.5189 24.236 29.7819 24.0787 30.0134C23.9423 30.2134 23.6381 30.4554 23.3443 30.4554ZM14.1124 29.34C14.1124 28.4245 15.2769 27.6774 16.0637 28.3824C16.7141 28.9612 16.6827 30.4659 15.2244 30.4659C14.6789 30.4659 14.1124 29.8872 14.1124 29.3505V29.34ZM19.3473 30.4554C17.6163 30.4554 17.7947 28.0983 19.2844 28.0983C20.8685 28.0983 20.7426 30.4554 19.3473 30.4554ZM21.9281 32.9282C21.9281 32.4231 22.3897 31.7496 22.9247 31.7496H23.3338C23.8479 31.7496 24.3514 32.4231 24.32 32.9808C24.257 33.9383 23.145 34.5065 22.3267 33.77C22.1798 33.6332 21.9281 33.1912 21.9281 32.9387V32.9282ZM14.1124 32.9282C14.1124 31.455 16.4623 31.3182 16.4623 32.8124C16.4623 33.2017 16.4623 33.4648 16.0952 33.8015C15.2874 34.5697 14.1124 33.7384 14.1124 32.9282ZM29.7752 13.1248V33.1702H36.0592C37.1293 33.1702 38 32.2021 38 31.1078V14.9557C38 13.5773 36.8145 12.9565 35.4193 12.9565H29.9535C29.8172 12.9565 29.7752 12.9985 29.7752 13.1353V13.1248ZM19.2844 34.1067C17.6688 34.1067 17.8157 31.7496 19.169 31.7496C21.0678 31.7496 20.6587 34.1067 19.2844 34.1067Z" fill="#F15744"/>
</svg>
