<svg width="48" height="48" viewBox="0 0 48 48" fill="none" xmlns="http://www.w3.org/2000/svg">
<path fill-rule="evenodd" clip-rule="evenodd" d="M8.8807 0H39.1193C44.0069 0 48 4.00231 48 8.88069V39.1193C48 44.0069 44.0069 48 39.1193 48H8.8807C3.99309 48 0 44.0069 0 39.1193V8.88069C0 3.99308 3.99309 0 8.8807 0Z" fill="#FBEFE8"/>
<path d="M35.1801 28.1599L34.1401 27.9519C33.9841 27.9519 33.8801 27.7959 33.8801 27.6919L33.3081 25.5599C33.1521 24.9359 32.5801 24.5199 31.9561 24.5199H30.3441V22.6479C30.3441 22.1279 30.8121 21.6599 31.3321 21.6599C31.8521 21.6599 32.3201 22.1279 32.3201 22.6479C32.3201 22.9079 32.5281 23.1679 32.8401 23.1679C33.1001 23.1679 33.3601 22.9079 33.3601 22.6479C33.3601 22.1279 33.7761 21.6599 34.3481 21.6599C34.8681 21.6599 35.3361 22.1279 35.3361 22.6479C35.3361 22.9079 35.5961 23.1679 35.8561 23.1679C36.1161 23.1679 36.3761 22.9079 36.3761 22.6479C36.3761 19.2159 33.7241 16.4079 30.3441 16.1479V16.0439C30.3441 15.7839 30.0841 15.5239 29.8241 15.5239C29.5641 15.5239 29.3041 15.7839 29.3041 16.0439V16.0959C25.9241 16.3559 23.2721 19.1639 23.2721 22.5959C23.2721 22.8559 23.4801 23.1159 23.7921 23.1159C24.0521 23.1159 24.3121 22.8559 24.3121 22.5959C24.3121 22.0759 24.7801 21.6079 25.3001 21.6079C25.8201 21.6079 26.2881 22.0759 26.2881 22.5959C26.2881 22.8559 26.5481 23.1159 26.8081 23.1159C27.1201 23.1159 27.3281 22.8559 27.3281 22.5959C27.3281 22.0759 27.7961 21.6079 28.3161 21.6079C28.8361 21.6079 29.3041 22.0759 29.3041 22.5959V24.4159H28.3681C27.8481 24.4159 27.3801 24.6759 27.1201 25.1439L25.6641 27.6919C25.6121 27.7959 25.5601 27.8479 25.4561 27.8479L23.1681 28.5239C22.5441 28.7319 22.1801 29.2519 22.1801 29.8759V31.0199C22.1801 31.7999 22.8041 32.4239 23.5841 32.4239H24.3121C24.5201 33.2559 25.3001 33.8799 26.2361 33.8799C27.1721 33.8799 27.9001 33.2559 28.1601 32.4239H30.3961C30.6041 33.2559 31.3841 33.8799 32.3201 33.8799C33.2561 33.8799 33.9841 33.2559 34.1921 32.4239H34.9721C35.7521 32.4239 36.3761 31.7999 36.3761 31.0199V29.4599C36.3241 28.8879 35.8561 28.3159 35.1801 28.1599ZM27.1201 32.0079C27.1201 32.5279 26.7041 32.9439 26.1841 32.9439C25.6641 32.9439 25.2481 32.5279 25.2481 32.0079C25.2481 31.5399 25.6121 31.0719 26.1841 31.0719C26.7041 31.0719 27.1201 31.4879 27.1201 32.0079ZM26.9641 27.4839L28.0041 25.6639C28.0561 25.5599 28.2121 25.4559 28.3161 25.4559H29.2521V27.4319H26.9641V27.4839ZM29.3561 30.1359C29.0441 30.1359 28.7841 29.8759 28.7841 29.6159C28.7841 29.3039 29.0441 29.0959 29.3041 29.0959C29.6161 29.0959 29.8241 29.3039 29.8241 29.6159C29.8241 29.8759 29.6161 30.1359 29.3561 30.1359ZM30.2921 27.4839V25.5079H31.9041C32.0601 25.5079 32.2161 25.6119 32.2681 25.7679L32.7361 27.4839H30.2921ZM32.2161 32.9439C31.6961 32.9439 31.2801 32.5279 31.2801 32.0079C31.2801 32.0079 31.2801 32.0079 31.2801 31.9559C31.2801 31.4879 31.6961 31.0719 32.2161 31.0719C32.7361 31.0719 33.1521 31.4879 33.1521 32.0079C33.1521 32.5279 32.7361 32.9439 32.2161 32.9439Z" fill="#F15744"/>
<path d="M17.1881 27.952C17.2921 28.056 17.4481 28.108 17.5521 28.108C17.7081 28.108 17.8121 28.056 17.9161 27.952L20.1521 25.716C20.3601 25.508 20.3601 25.196 20.1521 24.988C19.9441 24.78 19.6321 24.78 19.4241 24.988L17.5521 26.86L16.8761 26.184C16.6681 25.976 16.3561 25.976 16.1481 26.184C15.9401 26.392 15.9401 26.704 16.1481 26.912L17.1881 27.952Z" fill="#F15744"/>
<path d="M16.98 16.148V12.04C16.46 12.04 15.94 12.248 15.576 12.612L12.456 15.68C12.092 16.044 11.884 16.564 11.884 17.084H15.992C16.512 17.136 16.98 16.668 16.98 16.148Z" fill="#F15744"/>
<path d="M26.184 35.024C25.092 35.024 24.156 34.452 23.584 33.568H23.532C23.116 33.568 22.7 33.464 22.336 33.256C22.388 33.308 22.388 33.412 22.388 33.464C22.388 33.776 22.128 33.984 21.868 33.984H14.328C14.068 33.984 13.808 33.776 13.808 33.464C13.808 33.204 14.068 32.944 14.328 32.944H21.868H21.92C21.4 32.476 21.088 31.852 21.088 31.124V29.98C21.088 28.888 21.764 27.952 22.804 27.64L24.832 27.016L26.132 24.676C26.236 24.468 26.392 24.312 26.496 24.156C25.872 24.104 25.352 23.636 25.196 23.012C25.04 23.688 24.416 24.156 23.688 24.156C22.856 24.156 22.128 23.48 22.128 22.596C22.128 21.816 22.232 21.036 22.492 20.308C22.388 20.36 22.284 20.412 22.18 20.412H14.328C14.068 20.412 13.808 20.152 13.808 19.892C13.808 19.58 14.068 19.372 14.328 19.372H22.18C22.44 19.372 22.648 19.528 22.7 19.788C23.012 19.008 23.428 18.332 23.948 17.708C23.896 17.708 23.844 17.708 23.844 17.708H19.476C19.216 17.708 18.956 17.448 18.956 17.188C18.956 16.876 19.216 16.668 19.476 16.668H23.844C24.104 16.668 24.364 16.876 24.364 17.188V17.24C25.456 16.148 26.86 15.368 28.472 15.108C28.68 14.796 28.992 14.588 29.356 14.484V13.028C29.356 12.508 28.888 12.04 28.368 12.04H18.02V16.148C18.02 17.292 17.084 18.176 15.992 18.176H11.884V34.972C11.884 35.544 12.352 35.96 12.872 35.96H28.368C28.888 35.96 29.356 35.492 29.356 34.972V33.568H28.784C28.212 34.452 27.276 35.024 26.184 35.024ZM18.176 22.648C20.256 22.648 21.972 24.364 21.972 26.444C21.972 28.576 20.256 30.24 18.176 30.24C16.096 30.24 14.38 28.524 14.38 26.444C14.328 24.364 16.044 22.648 18.176 22.648ZM19.476 14.016H26.86C27.12 14.016 27.38 14.224 27.38 14.536C27.38 14.796 27.12 15.056 26.86 15.056H19.476C19.216 15.056 18.956 14.796 18.956 14.536C18.956 14.224 19.164 14.016 19.476 14.016Z" fill="#F15744"/>
</svg>
