<svg width="48" height="48" viewBox="0 0 48 48" fill="none" xmlns="http://www.w3.org/2000/svg">
<path fill-rule="evenodd" clip-rule="evenodd" d="M8.8807 0H39.1193C44.0069 0 48 3.99308 48 8.88069V39.1193C48 44.0069 44.0069 48 39.1193 48H8.8807C3.99309 48 0 44.0069 0 39.1193V8.88069C0 3.99308 3.99309 0 8.8807 0Z" fill="#FBEFE8"/>
<g clip-path="url(#clip0_2175_21047)">
<path d="M35.668 12.1719H12.332C10.7687 12.1719 9.5 13.4406 9.5 15.0039V15.5703H38.5V15.0039C38.5 13.4406 37.2313 12.1719 35.668 12.1719Z" fill="#F15744"/>
<path d="M9.5 31.9961C9.5 33.5594 10.7687 34.8281 12.332 34.8281H35.668C37.2313 34.8281 38.5 33.5594 38.5 31.9961V17.1562H9.5V31.9961ZM27.3418 20.3791C27.3418 19.943 27.6986 19.5861 28.1348 19.5861H34.4785C34.9146 19.5861 35.2715 19.943 35.2715 20.3791C35.2715 20.8152 34.9146 21.1721 34.4785 21.1721H28.1348C27.6986 21.1721 27.3418 20.8152 27.3418 20.3791ZM27.3418 23.2111C27.3418 22.775 27.6986 22.4182 28.1348 22.4182H34.4785C34.9146 22.4182 35.2715 22.775 35.2715 23.2111C35.2715 23.6473 34.9146 24.0041 34.4785 24.0041H28.1348C27.6986 24.0041 27.3418 23.6473 27.3418 23.2111ZM27.3418 26.0432C27.3418 25.607 27.6986 25.2502 28.1348 25.2502H34.4785C34.9146 25.2502 35.2715 25.607 35.2715 26.0432C35.2715 26.4793 34.9146 26.8361 34.4785 26.8361H28.1348C27.6986 26.8361 27.3418 26.4793 27.3418 26.0432ZM18.4945 19.5635C20.2277 19.5635 21.6324 20.9682 21.6324 22.7014C21.6324 24.4346 20.2277 25.8393 18.4945 25.8393C16.7613 25.8393 15.3566 24.4346 15.3566 22.7014C15.3566 20.9682 16.7613 19.5635 18.4945 19.5635ZM12.7795 30.2006L13.7197 27.2723C13.9803 26.468 14.8809 26.0602 15.6512 26.417C16.3422 26.7342 17.2881 27.0117 18.4945 27.0117C19.701 27.0117 20.6525 26.7342 21.3379 26.4227C22.1082 26.0715 23.0145 26.4736 23.2693 27.2779L24.2096 30.2062C24.5607 31.3051 23.7451 32.4209 22.5896 32.4209H14.3994C13.2496 32.4209 12.4283 31.2994 12.7795 30.2006Z" fill="#F15744"/>
</g>
<defs>
<clipPath id="clip0_2175_21047">
<rect width="29" height="29" fill="white" transform="translate(9.5 9)"/>
</clipPath>
</defs>
</svg>
