<svg width="48" height="48" viewBox="0 0 48 48" fill="none" xmlns="http://www.w3.org/2000/svg">
<path fill-rule="evenodd" clip-rule="evenodd" d="M8.8807 0H39.1193C44.0069 0 48 3.99308 48 8.88069V39.1193C48 44.0069 44.0069 48 39.1193 48H8.8807C3.99309 48 0 44.0069 0 39.1193V8.88069C0 3.99308 3.99309 0 8.8807 0Z" fill="#FBEFE8"/>
<g clip-path="url(#clip0_2170_25326)">
<path d="M25.117 22.7976C25.6874 22.7976 26.153 22.3347 26.153 21.7618C26.153 21.1889 25.69 20.7285 25.117 20.7285C24.544 20.7285 24.0811 21.1914 24.0811 21.7618C24.0811 22.3321 24.544 22.7976 25.117 22.7976Z" fill="#F15744"/>
<path d="M11.8516 34.3478C11.8516 34.4705 12.069 34.4731 12.0715 34.3478C12.0715 34.2864 12.0229 34.2378 11.9616 34.2378C11.9002 34.2378 11.8516 34.2864 11.8516 34.3478Z" fill="#F15744"/>
<path d="M30.6705 23.9742L25.6083 21.8156C25.3295 21.6979 25.0456 21.9792 25.1658 22.258L27.3247 27.3195C27.3784 27.4474 27.5063 27.5318 27.6495 27.5241C27.7902 27.5164 27.913 27.4269 27.9565 27.2939L28.6241 25.2734L30.6449 24.6059C30.7779 24.5624 30.8725 24.4397 30.8751 24.299C30.8828 24.1583 30.7984 24.0304 30.6705 23.9742ZM28.2507 24.6826C28.1483 24.7159 28.069 24.7952 28.0358 24.8975L27.5958 26.23L26.1173 22.7619L29.5859 24.2402L28.2532 24.6801L28.2507 24.6826Z" fill="#F15744"/>
<path d="M25.1172 18.0378C23.0631 18.0378 21.3877 19.7105 21.3877 21.7668C21.3877 23.8231 23.0606 25.4958 25.1172 25.4958C25.3857 25.4958 25.6057 25.2758 25.6057 25.0073C25.6057 24.7387 25.3857 24.5188 25.1172 24.5188C23.6003 24.5188 22.3674 23.286 22.3674 21.7694C22.3674 20.2527 23.6003 19.02 25.1172 19.02C26.634 19.02 27.8669 20.2527 27.8669 21.7694C27.8669 22.0379 28.0869 22.2579 28.3555 22.2579C28.6241 22.2579 28.8441 22.0379 28.8441 21.7694C28.8441 19.7156 27.1712 18.0404 25.1146 18.0404L25.1172 18.0378Z" fill="#F15744"/>
<path d="M29.2942 17.5904C28.1738 16.4701 26.6902 15.8538 25.1196 15.8538C23.5465 15.8538 22.0629 16.4701 20.9451 17.5904C18.643 19.8922 18.643 23.6365 20.9451 25.9409C22.0655 27.0611 23.5491 27.6775 25.1196 27.6775C25.3882 27.6775 25.6082 27.4576 25.6082 27.189C25.6082 26.9205 25.3882 26.7005 25.1196 26.7005C22.4006 26.7005 20.188 24.4882 20.188 21.7695C20.188 19.0508 22.4006 16.8384 25.1196 16.8384C27.8387 16.8384 30.0513 19.0508 30.0513 21.7695C30.0513 22.038 30.2713 22.258 30.5399 22.258C30.8085 22.258 31.0285 22.038 31.0285 21.7695C31.0285 20.1966 30.412 18.7132 29.2916 17.5955L29.2942 17.5904Z" fill="#F15744"/>
<path d="M34.2718 28.6264C33.8497 28.6264 33.4558 28.7492 33.1156 28.9487L31.1716 27.0049C30.9209 27.2939 30.6523 27.5624 30.3633 27.8131L32.3073 29.7569C32.1052 30.097 31.9825 30.4909 31.9825 30.9129C31.9825 32.1738 33.0082 33.2019 34.2718 33.2019C35.5354 33.2019 36.5611 32.1763 36.5611 30.9129C36.5611 29.6494 35.5354 28.6238 34.2718 28.6238V28.6264ZM34.2718 32.0587C33.64 32.0587 33.1284 31.5446 33.1284 30.9154C33.1284 30.2863 33.6425 29.7722 34.2718 29.7722C34.901 29.7722 35.4152 30.2863 35.4152 30.9154C35.4152 31.5446 34.901 32.0587 34.2718 32.0587Z" fill="#F15744"/>
<path d="M36.5586 7.46484C34.6657 7.46484 33.1284 9.00452 33.1284 10.8946C33.1284 11.4879 33.2793 12.0429 33.5453 12.5314L30.3633 15.7131C30.6523 15.9637 30.9209 16.2323 31.1716 16.5213L34.259 13.4343C34.8678 13.9867 35.6735 14.3269 36.5611 14.3269C38.454 14.3269 39.9913 12.7872 39.9913 10.8971C39.9913 9.00707 38.4515 7.46484 36.5611 7.46484H36.5586ZM36.5586 13.1836C35.2975 13.1836 34.2692 12.158 34.2692 10.8946C34.2692 9.63113 35.295 8.60553 36.5586 8.60553C37.8222 8.60553 38.8479 9.63113 38.8479 10.8946C38.8479 12.158 37.8222 13.1836 36.5586 13.1836Z" fill="#F15744"/>
<path d="M15.9645 14.9024C16.3866 14.9024 16.7805 14.7797 17.1207 14.5802L19.0647 16.524C19.3154 16.235 19.584 15.9664 19.873 15.7158L17.929 13.772C18.1285 13.4318 18.2513 13.0405 18.2513 12.616C18.2513 11.3551 17.2256 10.3269 15.962 10.3269C14.6983 10.3269 13.6726 11.3525 13.6726 12.616C13.6726 13.8794 14.6983 14.905 15.962 14.905L15.9645 14.9024Z" fill="#F15744"/>
<path d="M19.8757 27.8131C19.5866 27.5624 19.318 27.2939 19.0674 27.0049L14.2636 31.808C13.6522 31.2556 12.849 30.9154 11.9614 30.9154C10.0686 30.9154 8.53125 32.4551 8.53125 34.3452C8.53125 36.2352 10.0711 37.7749 11.9614 37.7749C13.8517 37.7749 15.3916 36.2352 15.3916 34.3452C15.3916 33.7518 15.2407 33.1968 14.9747 32.7083L19.8731 27.8105L19.8757 27.8131ZM11.9614 36.6342C10.7004 36.6342 9.67209 35.6086 9.67209 34.3452C9.67209 33.0817 10.6978 32.0561 11.9614 32.0561C13.225 32.0561 14.2508 33.0817 14.2508 34.3452C14.2508 35.6086 13.225 36.6342 11.9614 36.6342Z" fill="#F15744"/>
<path d="M25.6899 32.1124V29.7517C25.5006 29.7645 25.3114 29.7722 25.1169 29.7722C24.9225 29.7722 24.7358 29.7645 24.5465 29.7517V32.1124C22.9274 32.386 21.6868 33.7953 21.6868 35.4935C21.6868 37.3861 23.2266 38.9232 25.1169 38.9232C27.0073 38.9232 28.5471 37.3836 28.5471 35.4935C28.5471 33.7953 27.3065 32.386 25.6874 32.1124H25.6899Z" fill="#F15744"/>
</g>
<defs>
<clipPath id="clip0_2170_25326">
<rect width="31.46" height="31.4584" fill="white" transform="translate(8.53125 7.46484)"/>
</clipPath>
</defs>
</svg>
