<svg width="48" height="48" viewBox="0 0 48 48" fill="none" xmlns="http://www.w3.org/2000/svg">
<path fill-rule="evenodd" clip-rule="evenodd" d="M8.8807 0H39.1193C44.0069 0 48 3.99308 48 8.88069V39.1193C48 44.0069 44.0069 48 39.1193 48H8.8807C3.99309 48 0 44.0069 0 39.1193V8.88069C0 3.99308 3.99309 0 8.8807 0Z" fill="#FBEFE8"/>
<path d="M22.7763 24.7655L21.6127 29.1294C21.6003 29.1776 21.5938 29.2264 21.5938 29.2759C21.5938 29.589 21.8485 29.8438 22.1616 29.8438H28.588C28.9015 29.8438 29.1562 29.589 29.1562 29.2759C29.1562 29.2264 29.1497 29.1776 29.137 29.1298L27.9738 24.7655C27.9071 24.517 27.6816 24.3438 27.4244 24.3438H23.3256C23.0684 24.3438 22.8429 24.517 22.7763 24.7655ZM25.375 27.0938C24.8064 27.0938 24.3438 26.6311 24.3438 26.0625C24.3438 25.4939 24.8064 25.0312 25.375 25.0312C25.9436 25.0312 26.4062 25.4939 26.4062 26.0625H25.7188C25.7188 25.8728 25.5647 25.7188 25.375 25.7188C25.1853 25.7188 25.0312 25.8728 25.0312 26.0625C25.0312 26.2522 25.1853 26.4062 25.375 26.4062C25.9436 26.4062 26.4062 26.8689 26.4062 27.4375C26.4062 28.0061 25.9436 28.4688 25.375 28.4688C24.8064 28.4688 24.3438 28.0061 24.3438 27.4375H25.0312C25.0312 27.6272 25.1853 27.7812 25.375 27.7812C25.5647 27.7812 25.7188 27.6272 25.7188 27.4375C25.7188 27.2478 25.5647 27.0938 25.375 27.0938Z" fill="#F15744"/>
<path d="M28.8747 19.9978C28.9562 20.1343 29.1061 20.2189 29.2645 20.2189H29.3886C29.6396 20.2189 29.8437 20.0147 29.8437 19.7641C29.8437 19.6775 29.8193 19.5929 29.7726 19.5197L28.4663 17.4668L28.0521 18.627L28.8747 19.9978Z" fill="#F15744"/>
<path d="M30.5044 19.5312H31.9062C32.2854 19.5312 32.5937 19.8396 32.5937 20.2188V31.2188H33.2812V19.875C33.2812 19.3064 32.8186 18.8438 32.25 18.8438H30.1576L30.3525 19.1504C30.4271 19.2676 30.4766 19.3968 30.5044 19.5312Z" fill="#F15744"/>
<path d="M29.2645 20.9063C28.8654 20.9063 28.4901 20.6938 28.2848 20.3518L27.7524 19.4646L27.2646 20.8303C27.201 21.0091 27.0944 21.1634 26.9607 21.2868C27.0456 21.492 27.0938 21.7113 27.0938 21.9375V23.6563H27.4244C27.9923 23.6563 28.4914 24.0396 28.6375 24.5882L29.8011 28.9521C29.8293 29.0576 29.8438 29.1663 29.8438 29.2759C29.8438 29.9679 29.2803 30.5313 28.5884 30.5313H22.1616C21.4697 30.5313 20.9062 29.9679 20.9062 29.2759C20.9062 29.1666 20.9207 29.0576 20.9489 28.9521L22.1125 24.5885C22.2586 24.0396 22.7577 23.6563 23.3256 23.6563H23.6562V21.9375C23.6562 21.7567 23.6879 21.579 23.7432 21.4088C23.6566 21.3535 23.5744 21.2909 23.5043 21.2136L22.6092 20.2188H16.0938V31.2188H21.3923L21.493 31.3195C21.866 31.6925 22.3823 31.9063 22.9096 31.9063H25.0904C25.6177 31.9063 26.134 31.6925 26.507 31.3195L26.6077 31.2188H31.9062V20.2188H30.4353C30.259 20.6227 29.8568 20.9063 29.3886 20.9063H29.2645Z" fill="#F15744"/>
<path d="M21.5714 18.0377L24.0151 20.7529C24.1028 20.8506 24.2282 20.9062 24.3592 20.9062H24.5682C24.8236 20.9062 25.0312 20.6986 25.0312 20.4432V20.1782C25.0312 20.0661 24.9907 19.9575 24.9168 19.8733L22.8333 17.4925C22.6993 17.3388 22.625 17.1418 22.625 16.9373C22.625 16.4722 23.0035 16.0938 23.4686 16.0938H25.9064C26.3715 16.0938 26.75 16.4722 26.75 16.9373V17.0343C26.75 17.1363 26.7318 17.236 26.696 17.3309L25.7483 19.8588C25.7287 19.9107 25.7188 19.9658 25.7188 20.0214V20.4436C25.7188 20.6986 25.9264 20.9062 26.1818 20.9062C26.3767 20.9062 26.552 20.7828 26.618 20.5986L28.0432 16.6087C28.0972 16.4557 28.125 16.2959 28.125 16.1329C28.125 15.3533 27.4904 14.7188 26.7108 14.7188H19.875V17.4688H20.294C20.7808 17.4688 21.2462 17.6764 21.5714 18.0377Z" fill="#F15744"/>
<path d="M24.4104 21.5937C24.3709 21.7041 24.3438 21.8189 24.3438 21.9375V23.6562H26.4062V21.9375C26.4062 21.8144 26.3822 21.6948 26.3402 21.5814C26.288 21.5886 26.2354 21.5937 26.1818 21.5937C25.8679 21.5937 25.583 21.4672 25.375 21.2627C25.1674 21.4672 24.8821 21.5937 24.5682 21.5937H24.4104Z" fill="#F15744"/>
<path d="M26.0625 17.0343V16.9373C26.0625 16.8514 25.9924 16.7812 25.9064 16.7812H23.4686C23.3826 16.7812 23.3125 16.8514 23.3125 16.9373C23.3125 16.9751 23.3262 17.0116 23.351 17.0401L25.255 19.2157L26.0522 17.0889C26.0591 17.0714 26.0625 17.0532 26.0625 17.0343Z" fill="#F15744"/>
<path d="M26.8865 31.9062C26.3959 32.3445 25.7493 32.5938 25.09 32.5938H22.9093C22.25 32.5938 21.6034 32.3445 21.1128 31.9062H14.0312V32.9375C14.0312 33.5061 14.4939 33.9688 15.0625 33.9688H32.9375C33.5061 33.9688 33.9688 33.5061 33.9688 32.9375V31.9062H26.8865ZM16.0938 33.2812H15.4062V32.5938H16.0938V33.2812ZM17.4688 33.2812H16.7812V32.5938H17.4688V33.2812ZM18.8438 33.2812H18.1562V32.5938H18.8438V33.2812ZM32.5938 33.2812H29.8438V32.5938H32.5938V33.2812Z" fill="#F15744"/>
<path d="M15.4062 20.2188C15.4062 19.8396 15.7146 19.5312 16.0938 19.5312H21.9904L21.0602 18.4976C20.8653 18.2807 20.5859 18.1562 20.294 18.1562H19.875V18.8438H17.4688H17.125H15.75C15.1814 18.8438 14.7188 19.3064 14.7188 19.875V31.2188H15.4062V20.2188Z" fill="#F15744"/>
<path d="M19.1875 14.0312H17.8125V18.1562H19.1875V14.0312Z" fill="#F15744"/>
</svg>
