<svg width="48" height="48" viewBox="0 0 48 48" fill="none" xmlns="http://www.w3.org/2000/svg">
<path fill-rule="evenodd" clip-rule="evenodd" d="M8.8807 0H39.1193C44.0069 0 48 4.0023 48 8.88068V39.1193C48 44.0069 44.0069 48 39.1193 48H8.8807C3.99309 48 0 44.0069 0 39.1193V8.88068C0 3.99307 3.99309 0 8.8807 0Z" fill="#FBEFE8"/>
<path fill-rule="evenodd" clip-rule="evenodd" d="M13.9736 15.7768V28.7203C13.9736 29.6037 14.937 30.5488 16.1157 30.5488H30.9048C32.0835 30.5488 33.0469 29.6037 33.0469 28.7203V15.7768C33.0469 13.3935 30.6896 11 28.2299 11H18.8009C16.3411 11 13.9839 13.3935 13.9839 15.7768M16.6589 16.3212H22.4495V21.9095H16.6589V16.3212ZM24.5813 16.3212H30.3719V21.9095H24.5813V16.3212ZM17.9912 27.7033C17.6632 27.7033 17.2635 27.4978 17.0688 27.3335C16.2387 26.6555 16.7101 25.0119 17.8272 25.0119H18.1449C19.1493 25.0119 19.8565 26.6041 18.7804 27.4156C18.6984 27.4773 18.6471 27.5081 18.5447 27.5595C18.4217 27.6211 18.1347 27.7033 17.9912 27.7033ZM13.0102 36.9897H15.634C15.675 36.8356 16.0952 36.3426 16.2387 36.1474C16.3616 35.9933 16.8331 35.4077 16.8638 35.2742H30.1464C30.1874 35.4386 30.3206 35.5516 30.4334 35.6851C30.5564 35.8392 30.6384 35.9522 30.7511 36.1166C30.8741 36.2809 30.9561 36.3734 31.0791 36.5377C31.1816 36.6713 31.3353 36.8356 31.3763 36.9897H34L32.8009 35.3975C32.5754 35.1201 32.4114 34.8941 32.1962 34.6065C31.9707 34.3086 31.7862 34.0826 31.571 33.7847C31.366 33.5073 31.1816 33.2813 30.9663 32.9937C30.2899 32.0897 30.3821 32.0383 29.8184 32.0486C29.5827 32.0486 29.3572 32.0486 29.1215 32.0486H27.6764C27.9327 32.5314 28.3836 32.9115 28.6398 33.3943H18.3499C18.6061 32.9115 19.0571 32.5314 19.3133 32.0486H17.2225C16.5564 32.0486 16.7818 32.028 16.3514 32.5725L13.6149 36.1679C13.3895 36.4658 13.1947 36.6918 13 37L13.0102 36.9897ZM27.6867 26.3576C27.6867 25.6282 28.2811 25.0119 28.8653 25.0119H29.183C30.4231 25.0119 30.8946 27.015 29.552 27.58C28.6501 27.9601 27.6867 27.241 27.6867 26.3473V26.3576Z" fill="#F15744"/>
</svg>
