<svg width="48" height="48" viewBox="0 0 48 48" fill="none" xmlns="http://www.w3.org/2000/svg">
<path fill-rule="evenodd" clip-rule="evenodd" d="M8.8807 0H39.1193C44.0069 0 48 4.00231 48 8.88069V39.1193C48 44.0069 44.0069 48 39.1193 48H8.8807C3.99309 48 0 44.0069 0 39.1193V8.88069C0 3.99308 3.99309 0 8.8807 0Z" fill="#FBEFE8"/>
<path fill-rule="evenodd" clip-rule="evenodd" d="M14.3486 10.7145V15.0445H22.1869C22.4215 15.0445 22.3575 14.7992 22.3575 14.5539V11.2051C22.3575 10.5972 22.3042 10.4159 22.5175 10H14.8072C14.5086 10.0853 14.3593 10.4053 14.3593 10.7145" fill="#F15744"/>
<path fill-rule="evenodd" clip-rule="evenodd" d="M22.8374 11.0451V11.4291H24.3198C24.3198 10.6186 24.469 10 23.4986 10C22.9867 10 22.8374 10.5866 22.8374 11.0451Z" fill="#F15744"/>
<path fill-rule="evenodd" clip-rule="evenodd" d="M11 14.1699V36.694C11 37.4725 11.6505 38.0591 12.2584 38.0591H24.373C25.1835 38.0591 25.6848 37.3232 25.6848 36.3634V14.5431C25.6848 13.594 25.1728 12.8474 24.373 12.8474H22.8907V14.3832H23.7118V15.5883H12.9196V14.3832H13.7407V12.8474C12.8023 12.8474 11.9811 12.7088 11.4266 13.2207C11.2346 13.402 11 13.8179 11 14.1699ZM23.3386 24.3121H13.3675C13.0369 24.3121 12.7063 23.9815 12.7063 23.6509V17.8386C12.7063 17.508 13.0369 17.1774 13.3675 17.1774H23.2853C23.6799 17.1774 23.9998 17.572 23.9998 17.9985V23.4803C23.9998 23.8642 23.7119 24.3015 23.3386 24.3015V24.3121ZM16.8654 28.5887C15.383 28.5887 15.3937 26.5624 16.8654 26.5624C17.4199 26.5624 17.8145 27.0636 17.8358 27.5542C17.8465 28.0768 17.4199 28.5887 16.8654 28.5887ZM20.0433 28.5887C19.6594 28.5887 19.3821 28.5887 19.0942 28.2794C18.497 27.6182 19.0302 26.5624 19.7127 26.5624C20.0967 26.5624 20.3846 26.5624 20.6512 26.893C21.3124 27.7142 20.5659 28.5887 20.0433 28.5887ZM21.9096 27.5969C21.9096 27.0317 22.3575 26.5517 22.784 26.5517C23.1146 26.5517 23.4452 26.5304 23.7225 26.8717C24.3837 27.6715 23.6585 28.578 23.104 28.578C22.7734 28.578 22.4428 28.5994 22.1655 28.2581C22.0376 28.1088 21.8989 27.8422 21.8989 27.5862L21.9096 27.5969ZM12.7063 27.6502C12.7063 26.1678 14.7325 26.1678 14.7325 27.6502C14.7325 28.898 12.7063 28.898 12.7063 27.6502ZM16.7587 32.2574C15.511 32.2574 15.3617 30.1778 16.8121 30.1778C18.1344 30.1778 18.1984 32.2574 16.7587 32.2574ZM19.8833 32.2574C19.3501 32.2574 18.8383 31.8202 18.8383 31.1589C18.8383 29.8472 20.9178 29.8472 20.9178 31.2123C20.9178 31.7562 20.4272 32.2574 19.8727 32.2574H19.8833ZM21.9096 31.2123C21.9096 29.8472 23.9891 29.8472 23.9891 31.2123C23.9891 32.5774 21.9096 32.5774 21.9096 31.2123ZM12.7063 31.3829C12.7063 31.0523 12.685 30.7217 13.0262 30.4444C13.4421 30.0925 14.0393 30.0925 14.4232 30.4444C15.0524 31.0203 14.7112 32.2681 13.7514 32.2681C13.1968 32.2681 12.7063 31.8095 12.7063 31.3936V31.3829ZM16.8654 35.8728C16.1509 35.8728 15.7669 35.4782 15.7669 34.7743C15.7669 33.2599 18.3157 33.6865 17.7612 35.2329C17.6439 35.5422 17.2706 35.8728 16.8654 35.8728ZM19.9367 35.8728C18.401 35.8728 18.5716 33.7931 19.8833 33.8038C21.227 33.8038 21.2377 35.8728 19.9367 35.8728ZM21.9096 34.8276C21.9096 33.5052 23.9891 33.4412 23.9891 34.881C23.9891 35.3182 23.6052 35.8728 22.8907 35.8728C22.3362 35.8728 21.9096 35.3929 21.9096 34.8276ZM12.7063 34.9449C12.7063 33.3026 14.7325 33.7078 14.7325 34.6677C14.7325 35.0623 14.7538 35.2542 14.4766 35.5635C13.8687 36.2141 12.7063 35.7981 12.7063 34.9449Z" fill="#F15744"/>
<path fill-rule="evenodd" clip-rule="evenodd" d="M26.2397 20.8034H37.5332C37.5332 20.0355 37.5332 19.3103 36.6268 18.8624C36.4348 18.7664 36.2642 18.7238 35.9975 18.7238H26.2397V20.8034Z" fill="#F15744"/>
<path d="M37.5332 21.4008H26.2397V23.2671H37.5332V21.4008Z" fill="#F15744"/>
<path fill-rule="evenodd" clip-rule="evenodd" d="M26.2397 32.2041H36.1042C36.808 32.2041 37.5332 31.4256 37.5332 30.7217V23.8749H26.2397V32.2041ZM26.9542 25.3466H27.5621V26.4451H26.9542V25.3466ZM28.3192 25.3466H28.9271V26.4451H28.3192V25.3466ZM29.695 25.3466H30.3028V26.4451H29.695V25.3466ZM31.06 25.3466H31.6039V26.4451H31.06V25.3466ZM32.7662 30.0605V28.1408C32.7662 27.8849 32.8943 27.7569 33.1502 27.7569H35.0164C35.2724 27.7569 35.4003 27.8849 35.4003 28.1408V30.0605C35.4003 30.3164 35.2724 30.4444 35.0164 30.4444H33.1502C32.8943 30.4444 32.7662 30.3164 32.7662 30.0605Z" fill="#F15744"/>
</svg>
