<svg width="48" height="48" viewBox="0 0 48 48" fill="none" xmlns="http://www.w3.org/2000/svg">
<path fill-rule="evenodd" clip-rule="evenodd" d="M8.8807 0H39.1193C44.0069 0 48 4.00231 48 8.88069V39.1193C48 44.0069 44.0069 48 39.1193 48H8.8807C3.99309 48 0 44.0069 0 39.1193V8.88069C0 3.99308 3.99309 0 8.8807 0Z" fill="#FBEFE8"/>
<path d="M16.959 39.4144C16.7562 39.3407 16.5348 39.2853 16.3412 39.1931C15.3913 38.732 14.8564 37.9758 14.8564 36.9061C14.8564 28.3021 14.8564 19.698 14.8564 11.094C14.8564 9.70148 15.9723 8.59485 17.3648 8.59485C21.7913 8.59485 26.2086 8.59485 30.6351 8.59485C32.0276 8.59485 33.1435 9.70148 33.1435 11.094C33.1435 19.698 33.1435 28.3021 33.1435 36.9061C33.1435 38.068 32.3596 39.0548 31.2345 39.3407C31.17 39.3591 31.1054 39.3868 31.0409 39.4052H16.9498L16.959 39.4144ZM16.1752 34.6191H31.8063V13.0675H16.1752V34.6191ZM24.0322 36.2237C23.3222 36.2237 22.6121 36.2237 21.8928 36.2237C21.7452 36.2237 21.5884 36.2421 21.4501 36.2974C21.1827 36.4173 21.0812 36.6571 21.1089 36.943C21.1366 37.2289 21.2749 37.441 21.5792 37.4963C21.7729 37.5332 21.9758 37.5332 22.1786 37.5332C23.4789 37.5332 24.7884 37.5332 26.0887 37.5332C26.3562 37.5332 26.6144 37.5147 26.7804 37.2565C26.9187 37.0352 26.9371 36.8046 26.8173 36.5741C26.6881 36.3159 26.4668 36.2329 26.1994 36.2329C25.4801 36.2329 24.7515 36.2329 24.0322 36.2329V36.2237ZM23.9861 11.6104C24.4841 11.6104 24.9913 11.6104 25.4893 11.6104C25.9043 11.6104 26.1625 11.3522 26.1717 10.9741C26.1717 10.5868 25.9135 10.3378 25.4985 10.3286C24.5118 10.3286 23.5158 10.3286 22.5291 10.3286C22.0864 10.3286 21.8282 10.5776 21.8374 10.9833C21.8374 11.3706 22.0956 11.6104 22.5198 11.6104C23.0086 11.6104 23.4974 11.6104 23.9954 11.6104H23.9861ZM24.7147 22.8704C25.3971 22.8704 26.0518 22.8519 26.7066 22.8796C26.8726 22.8796 27.0755 22.9718 27.1861 23.0917C27.3429 23.2669 27.1769 23.4421 27.057 23.5897C25.3694 25.6185 23.691 27.6473 22.0034 29.6761C21.8651 29.8421 21.7175 29.9712 21.487 29.8421C21.2657 29.7222 21.2749 29.5378 21.3302 29.3257C21.7544 27.8778 22.1694 26.43 22.5844 24.9729C22.6028 24.9084 22.6213 24.8346 22.6397 24.7332C22.2155 24.6871 21.8005 24.641 21.3856 24.6041C21.3026 24.6041 21.2288 24.6041 21.1458 24.5856C20.7585 24.5211 20.6478 24.2444 20.8783 23.9401C21.3579 23.313 21.8466 22.6859 22.3262 22.0588C23.276 20.8323 24.2259 19.6058 25.185 18.3793C25.3233 18.2041 25.4524 18.0381 25.7106 18.158C25.9688 18.2871 25.9412 18.4899 25.8766 18.7205C25.4893 20.0853 25.1112 21.4502 24.7147 22.8704ZM18.9694 11.6381C18.9694 11.6381 18.9694 11.6104 18.9694 11.6012C19.1262 11.6012 19.2922 11.6196 19.449 11.6012C19.7441 11.5735 19.9469 11.3338 19.9746 11.0387C20.0023 10.7067 19.8363 10.3931 19.5504 10.3655C19.1354 10.3286 18.7112 10.3378 18.2962 10.3931C18.0011 10.43 17.872 10.679 17.8628 10.9649C17.8628 11.2508 17.9919 11.4813 18.2778 11.5551C18.4991 11.6104 18.7296 11.6196 18.9602 11.6473L18.9694 11.6381Z" fill="#F15744"/>
</svg>
