<svg width="106" height="105" viewBox="0 0 106 105" fill="none" xmlns="http://www.w3.org/2000/svg">
<path fill-rule="evenodd" clip-rule="evenodd" d="M20.3169 0H86.1436C96.7835 0 105.476 8.69501 105.476 19.3379V85.183C105.476 95.8259 96.7835 104.521 86.1436 104.521H20.3169C9.67697 104.521 0.984375 95.8259 0.984375 85.183V19.3379C0.984375 8.69501 9.67697 0 20.3169 0Z" fill="#F15744"/>
<path fill-rule="evenodd" clip-rule="evenodd" d="M26.4375 31.0049V73.1948C26.4375 76.8294 29.4488 79.942 33.0824 79.942H55.3459C58.9795 79.942 61.9908 76.8495 61.9908 73.1948V31.3463C61.9908 27.6916 58.9795 24.5991 55.3459 24.5991H32.8616C30.9344 24.5991 29.2279 25.6232 28.0435 26.9887C27.8829 27.1896 27.8227 27.2096 27.6822 27.4104C27.0799 28.2338 26.4576 29.8001 26.4576 31.0049M32.2794 46.5274V33.4749C32.2794 32.6515 33.3032 31.5672 34.4074 31.5672H54.2016C55.4462 31.5672 56.3296 32.4306 56.3296 33.8162V46.4069C56.3296 47.5917 55.2656 48.5355 54.0811 48.5355H34.5077C33.2631 48.5355 32.2593 47.2704 32.2593 46.5073L32.2794 46.5274ZM51.6319 58.6763C50.1664 58.6763 49.2631 57.2305 49.2631 56.5478C49.2631 53.3348 53.8603 53.4955 53.8402 56.4273C53.8402 57.5719 52.8164 58.6763 51.6119 58.6763H51.6319ZM34.307 56.5478C34.307 55.3028 35.2505 54.1782 36.7762 54.1782C37.8202 54.1782 38.8038 55.1622 38.8038 56.2064C38.8038 56.9494 38.8039 57.4514 38.1012 58.094C36.4751 59.6201 34.307 57.9133 34.307 56.5478ZM44.2041 58.6763C41.0523 58.6763 41.4337 54.1782 43.9833 54.1782C44.726 54.1782 45.2279 54.1782 45.8703 54.8811C47.2957 56.3871 45.9105 58.6763 44.2041 58.6763ZM51.9732 65.544H51.4111C50.327 65.544 49.2831 64.3592 49.2831 63.2949C49.2831 60.7045 53.4186 60.0218 53.8402 63.1343C53.9205 63.7568 53.6796 64.2588 53.3785 64.7006C53.1175 65.0821 52.5353 65.544 51.9732 65.544ZM34.307 63.4154C34.307 61.6684 36.5354 60.2426 38.041 61.5881C39.2857 62.6925 39.2254 65.5641 36.435 65.5641C35.3911 65.5641 34.307 64.4596 34.307 63.4355V63.4154ZM44.3245 65.544C41.0121 65.544 41.3534 61.0459 44.2041 61.0459C47.2355 61.0459 46.9945 65.544 44.3245 65.544ZM49.2631 70.263C49.2631 69.2991 50.1464 68.014 51.1702 68.014H51.9531C52.9368 68.014 53.9004 69.2991 53.8402 70.3634C53.7198 72.1908 51.5918 73.2751 50.0259 71.8695C49.7449 71.6084 49.2631 70.765 49.2631 70.2831V70.263ZM34.307 70.263C34.307 67.4517 38.8038 67.1906 38.8038 70.0421C38.8038 70.7851 38.8039 71.2871 38.1012 71.9297C36.5554 73.3956 34.307 71.8092 34.307 70.263ZM64.2794 32.4708V70.7249H76.3044C78.3521 70.7249 80.0183 68.8774 80.0183 66.789V35.9649C80.0183 33.3343 77.7499 32.1495 75.0798 32.1495H64.6206C64.3596 32.1495 64.2794 32.2298 64.2794 32.4909V32.4708ZM44.2041 72.5121C41.1125 72.5121 41.3935 68.014 43.9833 68.014C47.6169 68.014 46.8339 72.5121 44.2041 72.5121Z" fill="white"/>
</svg>
