<svg width="105" height="105" viewBox="0 0 105 105" fill="none" xmlns="http://www.w3.org/2000/svg">
<path fill-rule="evenodd" clip-rule="evenodd" d="M19.7505 0H85.5772C96.2171 0 104.91 8.69501 104.91 19.3379V85.183C104.91 95.8259 96.2171 104.521 85.5772 104.521H19.7505C9.11057 104.521 0.417969 95.8259 0.417969 85.183V19.3379C0.417969 8.69501 9.11057 0 19.7505 0Z" fill="#F15744"/>
<path fill-rule="evenodd" clip-rule="evenodd" d="M43.599 56.5477C43.9001 56.4272 43.7194 56.5477 43.9202 56.3268L44.7433 55.2424C45.1448 54.7002 45.4459 54.2986 45.8675 53.7564L51.4484 46.3064C52.2314 45.2622 52.1912 45.0413 53.195 45.0413C53.7771 45.0413 55.2828 46.7683 55.604 47.2904C55.9252 47.8326 56.1661 48.2342 56.3669 48.8567C57.732 52.913 55.0218 55.624 52.9541 59.0377C52.7132 59.4594 52.5726 59.7606 52.3317 60.1823C51.5488 61.5076 50.8261 63.4153 50.5451 65.2427C50.2239 67.3512 50.4246 69.7408 49.6417 71.3272H64.0356C65.8826 71.3272 69.5363 71.6083 70.9415 71.1063C72.5275 70.544 74.0331 68.9978 74.0331 66.9295V25.9444C74.0331 24.2376 72.9491 22.8921 71.865 22.2094C70.4196 21.3058 68.8537 21.5467 66.6253 21.5467C66.5852 21.7275 64.2565 25.7436 63.6943 26.0248C62.9516 26.3862 56.387 26.2055 55.1021 26.2055C54.3192 26.2055 53.8575 26.085 53.4961 25.6231L51.328 22.1692C50.806 21.2656 51.1272 21.5467 47.6944 21.5467C46.4698 21.5467 45.1649 22.4905 44.6028 23.2536C43.7797 24.338 43.5789 25.3219 43.599 27.1694V56.5075V56.5477ZM54.9817 43.7963H49.9026C49.1599 43.7963 48.678 43.3144 48.678 42.5714V37.7721C48.678 37.1496 48.939 36.4066 49.5011 36.4066H55.1222C55.9453 36.4066 56.2263 37.0893 56.2263 37.9126V42.2903C56.2263 43.1537 55.8249 43.7963 55.0018 43.7963H54.9817ZM57.732 42.5513V37.4709C57.732 36.0451 59.9202 35.9447 59.9202 37.4709C59.9202 38.9167 60.1812 42.9529 59.6191 43.475C58.9566 44.0775 57.732 43.7762 57.732 42.5513ZM67.87 43.7963H62.6705C62.1686 43.7963 61.5664 43.4148 61.5664 42.973V37.3504C61.5664 36.7078 61.8876 36.3865 62.53 36.3865H68.1511C68.5927 36.3865 68.9741 36.9889 68.9741 37.4909V42.6919C68.9741 43.3545 68.5325 43.7963 67.87 43.7963ZM66.7659 47.4912H59.9202V54.3388C59.9202 55.7043 57.732 56.0657 57.732 54.0576V46.5072C57.732 46.0052 58.1134 45.4028 58.5551 45.4028H66.7859C68.1912 45.4028 68.1711 47.451 66.7859 47.451L66.7659 47.4912ZM68.1511 56.5477H62.53C61.8876 56.5477 61.5664 56.2264 61.5664 55.5838V49.9611C61.5664 49.5194 62.1686 49.1378 62.6705 49.1378H67.87C68.5325 49.1378 68.9741 49.5796 68.9741 50.2423V55.4432C68.9741 55.9452 68.5927 56.5477 68.1511 56.5477Z" fill="white"/>
<path fill-rule="evenodd" clip-rule="evenodd" d="M31.2734 63.9373V81.7691C31.2734 82.4318 31.6548 82.994 32.3776 82.994H57.1906C59.2383 82.994 57.9735 79.5 58.6963 77.9136C59.3788 76.4276 60.6235 75.2227 61.025 73.536H48.6987C48.1366 74.3994 46.892 76.528 45.6674 76.6485C45.0651 76.7087 44.5833 76.2669 44.5833 75.5842C44.5833 74.0179 47.4742 74.3994 48.2571 67.0699C48.5582 64.1783 48.1367 64.5598 49.5419 60.9653C51.1881 56.8287 54.1391 54.3989 54.5206 51.2663C54.6812 50.0213 53.9183 48.2341 53.1956 47.7521C52.7138 48.0734 42.897 61.3469 41.7326 62.8931C41.1304 63.6963 40.6085 64.7606 39.7653 64.7606C38.9221 64.7606 38.5206 63.7967 38.882 63.0738C39.2433 62.3509 41.291 60.1019 41.3914 59.5396V44.3384L41.0702 44.8203C38.5005 48.9369 35.6298 53.9571 33.0802 58.2142C32.0965 59.8408 31.2734 61.3669 31.2734 63.9373Z" fill="white"/>
<path fill-rule="evenodd" clip-rule="evenodd" d="M50.8672 38.8566V41.6076H54.019C54.019 37.7521 54.6815 38.455 51.2687 38.455C50.9475 38.455 50.8672 38.5554 50.8672 38.8566Z" fill="white"/>
<path fill-rule="evenodd" clip-rule="evenodd" d="M63.6172 38.8567V41.6078H66.769V38.4551H64.0187C63.6975 38.4551 63.6172 38.5555 63.6172 38.8567Z" fill="white"/>
<path fill-rule="evenodd" clip-rule="evenodd" d="M63.6172 54.0777C63.6172 54.399 63.7176 54.4794 64.0187 54.4794H66.769V51.3267H63.6172V54.0777Z" fill="white"/>
</svg>
