<svg width="105" height="105" viewBox="0 0 105 105" fill="none" xmlns="http://www.w3.org/2000/svg">
<path fill-rule="evenodd" clip-rule="evenodd" d="M19.3325 0H85.1593C95.7991 0 104.492 8.69501 104.492 19.3379V85.183C104.492 95.8259 95.7991 104.521 85.1593 104.521H19.3325C8.69259 104.521 0 95.8259 0 85.183V19.3379C0 8.69501 8.69259 0 19.3325 0Z" fill="#384F86"/>
<path fill-rule="evenodd" clip-rule="evenodd" d="M56.25 58.1742V78.2149H78.6339V59.4996C78.6339 57.7124 78.4332 56.0858 77.9112 54.7806C77.5298 53.8568 77.048 52.8729 76.4658 52.1098C74.5787 49.5997 71.4269 47.8125 68.1747 47.8125C65.1233 47.8125 63.3366 47.9932 60.787 49.7804C58.2174 51.5676 56.2701 54.8408 56.2701 58.1742M66.5085 51.4873C69.319 51.4873 71.2864 51.6078 73.7958 53.1138C74.4181 53.4954 75.4821 54.0175 75.7431 54.7203C76.0041 55.4031 75.3215 60.1622 75.2211 61.1864C75.0806 62.4314 75.1207 63.335 74.1772 63.8169C71.7883 65.0218 63.196 65.0218 60.7469 63.837C59.8033 63.3953 59.8033 62.5117 59.6628 61.347C59.5423 60.343 58.9401 55.5236 59.0806 54.9211C59.2011 54.399 59.4018 54.138 59.8033 53.8568C60.9275 53.0938 62.112 52.4512 63.4169 52.0295C64.1998 51.7885 65.5448 51.4672 66.5285 51.4672L66.5085 51.4873ZM64.2801 70.2027H70.5235C71.708 70.2027 71.708 71.8694 70.5235 71.8694H64.1797C63.7581 71.8694 63.4369 71.3473 63.457 71.0059C63.4771 70.524 63.7782 70.2027 64.2801 70.2027ZM64.1597 73.7771H70.5034C71.6879 73.7771 71.6879 75.4438 70.5034 75.4438H64.26C63.7381 75.4438 63.457 75.1225 63.4369 74.6405C63.4369 74.2992 63.7381 73.7771 64.1597 73.7771Z" fill="white"/>
<path fill-rule="evenodd" clip-rule="evenodd" d="M34.7695 54.7206V64.0782C34.7695 67.9137 35.7733 71.2069 38.6641 73.4359C39.2664 73.8978 39.8686 74.3395 40.491 74.8416C40.8323 75.1227 41.1133 75.3034 41.4546 75.5444C42.3178 76.1468 45.9113 78.9983 46.353 78.9983C47.156 78.9983 47.9389 78.0344 46.7946 77.2111C44.8272 75.7653 41.7758 73.5966 40.0895 72.211C37.9816 70.484 36.6566 68.3354 36.6566 65.2831V53.6964C36.6566 49.5999 39.427 46.4472 43.0205 45.4834C46.2526 44.5998 48.501 45.4432 50.8498 47.4111C51.974 48.3549 52.8573 49.8409 53.3994 51.2064C54.1823 53.1141 55.3667 52.0096 55.3667 51.4674C55.3667 49.861 53.1986 47.13 52.0543 45.9854C49.1836 43.0937 44.3254 42.5716 40.7118 44.3789C40.3505 44.5596 40.1698 44.66 39.8486 44.8408C38.8247 45.4633 38.4032 45.885 37.5801 46.7083C35.7331 48.5356 34.7695 51.0457 34.7695 54.7005" fill="white"/>
<path fill-rule="evenodd" clip-rule="evenodd" d="M38.3231 54.5999C38.3231 55.885 38.2428 60.2828 38.3632 61.0257C38.6644 63.2949 37.9015 64.6805 39.2867 67.8934C39.5878 68.5761 40.3105 69.8212 40.7522 70.3232L41.6957 71.267C42.7397 72.2309 48.6418 76.8695 49.5853 77.0904C49.8061 76.7691 50.4084 75.8655 50.4686 75.5241C49.0433 74.7611 45.4297 71.9497 44.0044 70.8453C41.6957 69.038 40.2102 66.7287 40.2102 63.4957V53.9171C40.2102 48.7363 46.2729 46.9089 49.1236 50.905C50.3281 52.5918 50.027 55.4031 50.0069 58.2546C50.0069 59.5398 50.4686 62.4916 51.4724 62.9334C51.6731 63.0137 53.2992 63.1945 52.3758 61.1262C51.2114 58.4956 52.2754 54.2384 51.5728 51.909C51.111 50.3427 50.4285 49.3989 49.3645 48.435C47.4172 46.7081 44.4862 46.447 42.0571 47.6519C39.5075 48.917 38.303 51.3468 38.303 54.5999" fill="white"/>
<path fill-rule="evenodd" clip-rule="evenodd" d="M60.707 55.2824C60.707 56.0856 60.8676 56.8286 60.9279 57.6118C60.9881 58.3949 61.1085 59.1981 61.2089 60.0014C61.5502 62.5316 60.7873 62.3308 63.7986 62.7525C67.2114 63.2344 70.3231 62.9934 73.3946 62.2906C73.3946 60.5235 74.0571 57.2101 74.0571 55.3828C74.0571 54.8607 70.2026 53.1538 67.7133 53.1538C63.0558 53.1538 61.5703 55.0414 60.707 55.2623M63.377 61.1862C62.8952 61.1862 61.49 60.2223 64.2202 58.5756C68.0747 56.2463 72.2905 59.1981 72.2905 60.3026C72.2905 60.9452 71.5878 61.7685 70.4837 60.664C69.0985 59.2785 66.8701 59.0174 65.1236 60.0415C64.6418 60.3227 63.8588 61.1862 63.377 61.1862Z" fill="white"/>
<path fill-rule="evenodd" clip-rule="evenodd" d="M42 53.2746V62.5117C42 63.4154 42.2208 64.299 42.4216 64.9817C43.064 67.0902 44.3087 68.8774 46.0552 70.2429L50.1104 73.5362C50.6725 73.9779 51.335 74.741 51.9373 74.6004C52.2986 74.5201 52.68 74.1185 52.68 73.757C52.68 72.9739 50.9134 71.7891 50.0301 71.0662L47.079 68.6766C46.0954 67.9135 45.2923 66.8693 44.7102 65.7046C44.0878 64.4596 43.7867 63.0941 43.7867 61.2868V53.8167C43.7867 52.6922 44.3689 52.3709 45.2321 52.3709C47.7415 52.3709 45.5533 58.8972 46.9586 63.1142C47.6211 65.1022 48.6248 66.5279 50.1104 67.7729C50.4115 68.034 50.6324 68.2348 50.9536 68.4959C52.0979 69.4597 52.7202 68.6163 52.7202 67.8533C52.7202 67.4115 51.6763 66.7287 51.1945 66.2669C47.2999 62.5118 48.404 59.2587 48.2836 53.5959C48.2233 50.7845 44.5897 49.2785 42.6826 51.6681C42.3814 52.0496 42.0602 52.6922 42.0602 53.2545" fill="white"/>
<path fill-rule="evenodd" clip-rule="evenodd" d="M27.6411 53.7165C27.6411 56.5077 27.2597 57.6122 28.8657 57.6122C29.6486 57.6122 29.5282 56.2868 29.5282 55.9455C29.5282 53.6763 29.4479 51.4473 30.1505 49.3388C31.7164 44.7002 34.5872 41.2663 39.2647 39.2984C42.9585 37.7321 45.7691 38.1337 46.3111 37.9932C47.2948 37.712 46.9535 36.2461 46.2509 36.2461C43.9623 36.2461 43.1392 36.1859 40.8105 36.8285C40.2685 36.969 39.7064 37.1698 39.2045 37.3506C33.744 39.3787 29.2873 44.2383 28.1229 49.861C27.882 51.0457 27.6411 52.351 27.6411 53.7366" fill="white"/>
<path fill-rule="evenodd" clip-rule="evenodd" d="M28.4292 38.013C29.4329 38.013 29.5132 37.3905 30.4166 36.6676C32.1832 35.262 33.709 34.0772 35.8972 33.1133L38.0051 32.2298C41.6387 30.8843 46.5772 30.5028 50.4919 31.4265C51.7968 31.7277 52.7002 32.0289 52.7002 30.563C52.7002 29.4385 47.4806 29.1172 46.798 29.1172C43.586 29.1172 42.0603 29.0971 38.9084 30.0209C35.6964 30.9647 32.665 32.4506 30.0753 34.5591L28.3087 36.1254C27.044 37.0893 28.0076 38.013 28.4292 38.013Z" fill="white"/>
<path fill-rule="evenodd" clip-rule="evenodd" d="M44.688 33.3345C44.688 33.8566 44.6077 34.4389 45.7922 34.459C49.8675 34.4992 53.8825 35.8044 57.0745 38.2141L59.1222 39.9411C60.3467 41.166 61.5111 42.7725 62.3342 44.2986C63.0569 45.644 64.2614 45.3228 64.2614 44.1581C64.2614 43.6962 63.2777 42.2303 63.0168 41.8488C62.2539 40.7042 60.6077 38.7563 59.6642 37.9531C57.5161 36.1659 56.6529 35.5835 54.1636 34.4389C51.2928 33.0935 48.6629 32.6919 45.3305 32.6919C45.0695 32.6919 44.668 33.0935 44.668 33.3546" fill="white"/>
<path fill-rule="evenodd" clip-rule="evenodd" d="M31.199 54.5998C31.199 55.7645 31.0183 61.0256 31.3998 61.6481C31.7812 62.2706 32.805 62.1903 33.0459 61.367C33.2868 60.5437 32.7247 53.3748 33.4675 50.4229C33.6883 49.4992 33.9493 48.7763 34.3107 48.0333C34.4111 47.8325 34.4512 47.712 34.5516 47.4911C34.6319 47.3104 34.6921 47.21 34.8326 46.9891C35.0535 46.6076 35.2341 46.3465 35.4951 45.9851C36.3383 44.7601 37.603 44.0372 37.5026 43.2942C37.4424 42.8926 36.8602 42.0091 35.9568 42.7721C35.7159 42.973 35.5553 43.0734 35.3345 43.2742C34.5315 44.0172 33.0861 46.226 32.6444 47.2502C32.2028 48.2141 31.741 49.3185 31.5403 50.5033C31.3195 51.8085 31.199 53.0937 31.199 54.6198" fill="white"/>
<path fill-rule="evenodd" clip-rule="evenodd" d="M45.1292 27.3299C48.3613 27.3299 48.7428 27.7516 50.7503 27.9524C51.7741 28.0729 52.4968 26.4664 50.9109 26.105C50.3689 25.9845 49.9071 25.9042 49.3049 25.8239C47.5182 25.5226 46.2534 25.5628 44.4466 25.5628C41.596 25.5628 39.5684 26.105 37.3199 26.6673L34.3086 27.7918C33.8268 28.0327 33.325 28.2135 32.8632 28.4544C32.3613 28.7155 31.9598 29.0368 32.2007 29.6794C32.6223 30.8642 33.9674 30.0408 34.8707 29.579C37.4605 28.2537 41.9172 27.35 45.1091 27.35" fill="white"/>
<path fill-rule="evenodd" clip-rule="evenodd" d="M57.0343 48.8167C58.0782 48.8167 58.2991 47.9331 57.7169 47.0094C57.5362 46.7082 57.476 46.5275 57.2953 46.2062C55.4685 42.9932 50.6905 39.7803 47.2376 39.7803C46.7558 39.7803 46.2138 40.5634 46.6956 41.206C47.2175 41.9088 49.0042 41.5072 52.1159 43.4752C52.959 44.0173 54.2439 45.1419 54.806 45.9049C55.7495 47.15 55.5889 47.0897 56.2715 48.2142C56.3919 48.4151 56.693 48.7966 57.0142 48.7966" fill="white"/>
<path fill-rule="evenodd" clip-rule="evenodd" d="M53.5781 31.768C53.5781 32.511 54.2205 32.6717 54.7826 32.8925C56.5292 33.5954 59.1189 35.242 60.5643 36.467C60.8253 36.6878 60.8855 36.7882 61.1465 36.989L62.9533 38.7562C63.4953 39.4188 63.5957 39.7803 64.4991 39.7803C65.0813 39.7803 65.1615 39.0775 65.1615 38.6758C65.1615 37.9529 61.4276 34.8404 60.5643 34.1376C60.1628 33.7962 59.681 33.5351 59.2393 33.2339C58.7375 32.8926 58.336 32.6717 57.7739 32.3504C57.2318 32.0492 56.7902 31.8082 56.2481 31.5271C55.5656 31.1857 53.5781 30.1013 53.5781 31.7479" fill="white"/>
<path fill-rule="evenodd" clip-rule="evenodd" d="M25.8594 46.0255C25.8594 46.9091 27.3048 47.4713 27.7665 46.146C27.9071 45.7444 28.0275 45.3628 28.2283 44.9411C29.0313 43.2343 30.2157 41.2262 31.5607 39.9209C32.685 38.8165 32.163 37.9932 31.0789 37.9932C30.6975 37.9932 30.4165 38.455 30.2157 38.696C28.4892 40.684 28.0877 41.0655 26.8029 43.6359C26.6423 43.9773 25.8594 45.7444 25.8594 46.0255Z" fill="white"/>
<path fill-rule="evenodd" clip-rule="evenodd" d="M32.9844 37.1296C32.9844 37.5312 33.3257 38.0131 33.9881 38.0131C34.2692 38.0131 36.6782 36.6476 37.6017 36.2661C38.2642 36.005 38.9467 35.744 39.5891 35.5833C40.2918 35.3825 41.1149 35.3022 41.1149 34.4387C41.1149 34.017 40.8539 33.5552 40.3319 33.5552C39.3081 33.5552 36.9593 34.5191 36.2165 34.9006C35.012 35.503 34.9116 35.4629 33.5866 36.2862C33.2855 36.4669 32.9844 36.7279 32.9844 37.1296Z" fill="white"/>
<path fill-rule="evenodd" clip-rule="evenodd" d="M31.1953 65.0823C31.1953 66.4478 31.1953 70.986 32.4199 70.986C33.7649 70.986 33.6445 70.223 33.3634 69.1587C33.243 68.7169 33.243 68.6165 33.1627 68.1145C32.8616 66.0261 33.6043 64.0581 32.3396 63.8172C31.657 63.6766 31.1953 64.1987 31.1953 65.0823Z" fill="white"/>
<path fill-rule="evenodd" clip-rule="evenodd" d="M49.1216 37.4508C49.1216 37.8323 49.0815 38.0933 49.5231 38.3745C49.8644 38.5954 51.7314 39.0572 53.0765 39.9408C53.478 40.2018 53.8795 40.6637 54.4617 40.6637C55.0037 40.6637 55.345 40.3022 55.345 39.7801C55.345 39.0773 54.6624 38.8163 54.1806 38.495C53.4579 38.013 50.5269 36.4467 49.744 36.7278C49.5031 36.8082 49.1016 37.1696 49.1016 37.4307" fill="white"/>
<path fill-rule="evenodd" clip-rule="evenodd" d="M56.2505 42.471C56.2505 43.0534 57.2945 43.8767 57.9168 44.7C58.1778 45.0615 58.4588 45.4028 58.7198 45.7844C59.0009 46.2061 59.1615 46.688 59.8039 46.688C60.5667 46.688 60.6872 46.1458 60.6872 45.5836C60.6872 45.3225 58.1778 41.5674 57.1138 41.5674C56.5717 41.5674 56.2305 41.9288 56.2305 42.4509" fill="white"/>
<path fill-rule="evenodd" clip-rule="evenodd" d="M53.5781 28.2136C53.5781 29.1173 54.9031 29.3783 55.6258 29.7398C56.0675 29.9607 56.3887 30.1012 56.7902 30.3623C57.6735 30.9045 58.9181 31.4266 58.9181 29.7799C58.9181 29.037 54.9232 27.3301 54.4614 27.3301C53.9194 27.3301 53.5781 27.6915 53.5781 28.2136Z" fill="white"/>
<path fill-rule="evenodd" clip-rule="evenodd" d="M38.4453 41.5876C38.4453 43.6359 40.2119 42.2704 41.6574 41.8888C42.3801 41.7081 43.8054 41.688 43.8054 40.8045C43.8054 38.7964 40.4528 40.3225 39.3286 40.8045C38.9873 40.945 38.4654 41.2061 38.4654 41.6077" fill="white"/>
</svg>
