<svg width="106" height="105" viewBox="0 0 106 105" fill="none" xmlns="http://www.w3.org/2000/svg">
<path fill-rule="evenodd" clip-rule="evenodd" d="M20.3012 0H86.128C96.7679 0 105.46 8.71507 105.46 19.3378V85.183C105.46 95.8259 96.7679 104.521 86.128 104.521H20.3012C9.66129 104.521 0.96875 95.8259 0.96875 85.183V19.3378C0.96875 8.69499 9.68136 0 20.3012 0Z" fill="#384F86"/>
<path fill-rule="evenodd" clip-rule="evenodd" d="M85.3278 48.8766V55.5636C85.1472 57.17 84.4445 57.2303 82.1358 57.9933C80.2688 58.6158 79.5662 59.0376 77.6591 59.0376C77.2174 60.9051 76.0932 63.134 75.2701 64.6803C75.6917 65.3028 76.033 65.343 76.4546 66.1462C76.7557 66.7486 76.9363 67.2506 77.2374 67.8731C79.1044 71.568 79.3855 71.568 77.4984 73.4556C71.7368 79.2188 73.6842 78.6566 67.1597 75.4637C66.3166 75.042 66.3567 74.7809 65.7344 74.3793C64.8711 74.5801 62.5023 76.1665 59.9728 76.769C59.9728 78.6164 59.4509 79.5401 58.8888 81.2068C58.3668 82.7932 58.2061 84.4198 56.58 84.4198H49.7946C48.2087 84.239 48.2689 83.5362 47.486 81.2068C46.9238 79.5401 46.4019 78.6164 46.4019 76.769C45.1974 76.4878 43.1899 75.6645 42.0456 75.1022C41.5236 74.8412 41.2024 74.6404 40.7407 74.3994C40.1184 75.3432 38.673 75.8653 37.609 76.4075C33.2125 78.5963 33.9954 78.6365 30.3618 75.0018C29.7997 74.4396 29.3379 73.9777 28.7959 73.4355C28.3342 72.9737 27.5713 72.3712 27.5713 71.5279C27.5713 71.0258 30.0607 66.0257 30.4421 65.5036C30.7633 65.0819 30.8235 65.2425 31.0845 64.8811C30.8838 64.0176 29.2978 61.6481 28.6955 59.1179C26.6077 59.1179 26.166 58.5958 24.2589 58.0335C22.6729 57.5716 21.0469 57.2704 21.0469 55.7242V48.9369C21.2276 47.3505 21.9301 47.4107 24.2589 46.6276C25.9251 46.0653 26.8486 45.5432 28.6955 45.5432C28.8963 44.6396 29.3781 43.3946 29.7394 42.5713L31.0845 39.9005C30.0607 39.2177 29.7194 37.8924 29.1171 36.7277C27.23 32.9927 27.0092 33.0128 28.8561 31.1452L32.0481 27.9524C33.9352 26.0648 33.9352 26.5266 37.5086 28.3138C38.1108 28.615 38.5726 28.856 39.1748 29.1572C40.018 29.5789 39.9778 29.84 40.6002 30.2416C41.102 30.1211 43.4107 28.856 44.8561 28.3339C45.2375 28.1934 46.0406 28.0126 46.3818 27.852C46.3818 26.4664 46.442 26.5066 46.7833 25.4824L48.1685 21.3458C48.4094 20.7233 48.8912 20.2012 49.7946 20.2012H56.8209C58.1861 20.2012 58.6478 22.1892 58.9891 23.4141C59.6516 25.6632 59.9527 25.6832 59.9527 27.852C61.7996 28.2737 63.9878 29.3781 65.5938 30.2416C66.2362 29.2777 67.6415 28.836 68.7657 28.2737C72.5399 26.3861 72.4997 26.1652 74.3466 28.0126C80.1082 33.7758 79.5461 31.828 76.3541 38.3543C75.9325 39.1977 75.6716 39.1575 75.2701 39.78C75.4709 40.6435 77.0568 43.013 77.6591 45.5432C79.3052 45.5432 80.6303 46.0251 82.1158 46.6075C83.4207 47.1095 85.3077 47.23 85.3077 48.9369M47.7871 45.4227V46.6878C47.7871 47.7521 48.8912 47.0694 50.7984 47.3304C51.4207 47.4107 51.6616 47.4509 52.2237 47.732C52.7457 47.9931 52.8862 48.1939 53.1672 48.6156H48.6905C47.6867 48.6156 47.7871 48.6758 47.7871 50.0815C47.7871 50.7442 48.1083 50.6438 48.7507 50.6438H53.3279C53.3279 50.8446 53.1271 51.1859 53.0267 51.3466C52.9263 51.5273 52.6854 51.7482 52.5248 51.8888C51.3404 52.7924 49.7544 52.6719 48.289 52.6719C48.1083 52.6719 48.0079 52.692 47.9276 52.7924C47.7269 53.0133 47.8072 53.937 47.8072 54.3989C47.8072 54.7603 47.8875 54.8206 48.0682 55.0013C48.1485 55.1017 48.1685 55.1419 48.2689 55.2423C48.3492 55.3226 48.4094 55.3828 48.4897 55.4632L50.6178 57.8528C50.6178 57.8528 50.678 57.913 50.7382 57.9733C50.7984 58.0335 50.7783 58.0335 50.8386 58.1138L53.348 61.0456C53.4885 61.2063 53.609 61.3468 53.7495 61.5075C53.9302 61.7083 54.0305 61.9091 54.2313 61.9091H56.6804C56.9213 61.9091 57.0017 61.6681 57.0017 61.4473C57.0017 61.3468 56.7406 61.0858 56.6804 61.0055C56.5599 60.8448 56.4596 60.7244 56.3392 60.5838C55.6164 59.6801 54.6327 58.4954 53.91 57.6721C53.4081 57.1098 52.8461 56.3869 52.3241 55.8447C52.2438 55.7644 52.2237 55.7242 52.1434 55.6238L51.4006 54.8005C51.9226 54.8005 52.826 54.5194 53.2275 54.3587C54.6529 53.7764 55.496 52.933 56.0581 51.5474C56.1584 51.2663 56.2187 50.9651 56.299 50.6438H57.7845C58.8084 50.6438 58.708 50.704 58.708 49.218C58.708 48.7562 58.5675 48.6156 58.1058 48.6156H56.2187C56.2187 48.0935 55.757 47.3304 55.496 46.9288H58.2061C58.4872 46.9087 58.6678 46.7682 58.6678 46.4669V45.4027C58.6678 45.1416 58.5675 44.9006 58.3065 44.9006H48.1886C47.9276 44.9006 47.8273 45.1617 47.8273 45.4227H47.7871ZM52.4044 67.5117C55.3956 67.5117 57.343 67.3109 60.013 65.9654C64.1685 63.877 67.1999 59.9412 68.1434 55.3427C69.1873 50.3024 67.501 45.001 63.8875 41.4066C61.2175 38.7358 57.1221 37.0289 53.2074 37.0289C49.5939 37.0289 46.1811 38.3744 43.5713 40.4829C40.6203 42.8725 38.673 46.2661 38.1108 50.1016C37.2275 56.2664 39.9778 61.8489 45.1572 65.2425C47.0041 66.4474 49.8951 67.5117 52.3844 67.5117H52.4044ZM34.6378 52.2703C34.6378 42.0291 42.969 33.6955 53.2074 33.6955C63.4458 33.6955 71.777 42.0291 71.777 52.2703C71.777 62.5116 63.4458 70.8451 53.2074 70.8451C42.969 70.8451 34.6378 62.5116 34.6378 52.2703Z" fill="white"/>
</svg>
