<svg width="66" height="66" viewBox="0 0 66 66" fill="none" xmlns="http://www.w3.org/2000/svg">
<rect x="0.5" y="0.5" width="65" height="65" rx="7.5" fill="#FEEEEC"/>
<rect x="0.5" y="0.5" width="65" height="65" rx="7.5" stroke="#FEEEEC"/>
<path d="M25.0312 21.8438H28.2188V22.9062H25.0312V21.8438Z" fill="#F15744"/>
<path d="M35.125 21.8438H38.3125V22.9062H35.125V21.8438Z" fill="#F15744"/>
<path d="M27.1562 20.25C27.1562 19.8273 27.3242 19.4219 27.623 19.123C27.9219 18.8242 28.3273 18.6562 28.75 18.6562H34.5938C35.0164 18.6562 35.4218 18.8242 35.7207 19.123C36.0196 19.4219 36.1875 19.8273 36.1875 20.25V20.7812H37.25V20.25C37.2492 19.5458 36.969 18.8706 36.4711 18.3727C35.9731 17.8747 35.298 17.5946 34.5938 17.5938H28.75C28.0458 17.5946 27.3706 17.8747 26.8727 18.3727C26.3747 18.8706 26.0946 19.5458 26.0938 20.25V20.7812H27.1562V20.25Z" fill="#F15744"/>
<path d="M21.8438 22.375C21.8438 22.2341 21.7878 22.099 21.6882 21.9993C21.5885 21.8997 21.4534 21.8438 21.3125 21.8438H20.25C20.1091 21.8438 19.974 21.8997 19.8743 21.9993C19.7747 22.099 19.7188 22.2341 19.7188 22.375V22.9062H21.8438V22.375Z" fill="#F15744"/>
<path d="M40.9688 27.3762L39.9062 26.3137L38.8438 27.3762V28.2187H40.9688V27.3762Z" fill="#F15744"/>
<path d="M38.8438 29.2812H40.9688V30.3438H38.8438V29.2812Z" fill="#F15744"/>
<path d="M43.625 22.375C43.625 22.2341 43.569 22.099 43.4694 21.9993C43.3698 21.8997 43.2346 21.8438 43.0938 21.8438H42.0312C41.8904 21.8438 41.7552 21.8997 41.6556 21.9993C41.556 22.099 41.5 22.2341 41.5 22.375V22.9062H43.625V22.375Z" fill="#F15744"/>
<path d="M20.25 44.1562H24.5V45.2188H20.25V44.1562Z" fill="#F15744"/>
<path d="M38.8901 45.53V44.6386L38.4072 45.0471L38.8901 45.53Z" fill="#F15744"/>
<path d="M41.3115 42.5885L42.6391 43.9156L43.104 43.4507L42.4851 41.5951L41.3115 42.5885Z" fill="#F15744"/>
<path d="M41.914 38.0751L36.2939 44.7173L36.6871 45.1104L43.3644 39.4627C43.5374 39.2711 43.6304 39.0204 43.6242 38.7623C43.6181 38.5042 43.5133 38.2583 43.3314 38.0751C43.1406 37.8926 42.8868 37.7907 42.6227 37.7907C42.3587 37.7907 42.1048 37.8926 41.914 38.0751Z" fill="#F15744"/>
<path d="M36.7658 42.5168H35.876L36.3578 42.9986L36.7658 42.5168Z" fill="#F15744"/>
<path d="M47.3438 35.6562H39.9062C39.7654 35.6562 39.6303 35.6002 39.5307 35.5006L37.7812 33.7512V35.125C37.7812 35.2659 37.7253 35.401 37.6257 35.5006C37.526 35.6003 37.3909 35.6562 37.25 35.6562H31.4062C31.1245 35.6562 30.8542 35.7682 30.6549 35.9674C30.4557 36.1667 30.3438 36.4369 30.3438 36.7187V47.3437C30.3438 47.6255 30.4557 47.8958 30.6549 48.095C30.8542 48.2943 31.1245 48.4062 31.4062 48.4062H47.3438C47.6255 48.4062 47.8958 48.2943 48.0951 48.095C48.2943 47.8958 48.4062 47.6255 48.4062 47.3437V36.7187C48.4062 36.4369 48.2943 36.1667 48.0951 35.9674C47.8958 35.7682 47.6255 35.6562 47.3438 35.6562ZM44.2157 43.4263C44.247 43.5198 44.2515 43.6202 44.2289 43.7162C44.2063 43.8122 44.1574 43.9 44.0877 43.9698L43.0151 45.0423C42.9658 45.0917 42.9072 45.1309 42.8427 45.1577C42.7782 45.1844 42.7091 45.1982 42.6393 45.1982C42.5695 45.1982 42.5003 45.1844 42.4358 45.1577C42.3713 45.1309 42.3127 45.0917 42.2634 45.0423L40.4981 43.2775L39.9525 43.7392V46.8125C39.9524 46.9175 39.9213 47.0202 39.8629 47.1076C39.8045 47.1949 39.7216 47.263 39.6245 47.3032C39.5274 47.3434 39.4206 47.3539 39.3176 47.3334C39.2146 47.3129 39.1199 47.2623 39.0456 47.1881L37.5932 45.7362L37.0014 46.2371C36.8997 46.3231 36.7695 46.3677 36.6365 46.3622C36.5034 46.3567 36.3773 46.3014 36.2831 46.2074L35.1988 45.1231C35.1046 45.0289 35.0491 44.9028 35.0435 44.7696C35.0379 44.6365 35.0825 44.5061 35.1686 44.4043L35.6695 43.8125L34.2182 42.3611C34.1439 42.2868 34.0933 42.1922 34.0728 42.0891C34.0523 41.9861 34.0628 41.8793 34.103 41.7822C34.1432 41.6852 34.2113 41.6022 34.2987 41.5439C34.386 41.4855 34.4887 41.4543 34.5938 41.4543H37.6649L38.1282 40.9071L36.3633 39.1423C36.2638 39.0427 36.2078 38.9076 36.2078 38.7667C36.2078 38.6258 36.2638 38.4907 36.3633 38.3911L37.4365 37.3185C37.5062 37.2488 37.594 37.1999 37.69 37.1773C37.786 37.1547 37.8864 37.1593 37.9799 37.1905L40.5485 38.0468L41.1329 37.3562C41.3216 37.1587 41.5476 37.0006 41.7979 36.8911C42.0481 36.7816 42.3176 36.7229 42.5907 36.7183C42.8638 36.7137 43.1351 36.7634 43.3889 36.8645C43.6427 36.9655 43.8738 37.116 44.069 37.3071C44.2642 37.4981 44.4196 37.7261 44.526 37.9776C44.6324 38.2292 44.6879 38.4994 44.6891 38.7725C44.6904 39.0457 44.6374 39.3163 44.5332 39.5689C44.4291 39.8214 44.2759 40.0507 44.0824 40.2436L43.3594 40.8561L44.2157 43.4263Z" fill="#F15744"/>
<path d="M17.5938 42.0312C17.5938 42.313 17.7057 42.5833 17.9049 42.7826C18.1042 42.9818 18.3745 43.0938 18.6562 43.0938H29.2812V40.9688H17.5938V42.0312Z" fill="#F15744"/>
<path d="M39.8091 38.9203L37.9556 38.3019L37.4902 38.7667L38.8168 40.0933L39.8091 38.9203Z" fill="#F15744"/>
<path d="M36.7188 34.5938V32.4688C36.7188 32.3637 36.7499 32.261 36.8083 32.1737C36.8667 32.0863 36.9497 32.0182 37.0467 31.978C37.1438 31.9378 37.2506 31.9273 37.3536 31.9478C37.4566 31.9683 37.5513 32.0189 37.6256 32.0932L40.1262 34.5938H45.75V25.0312C45.75 24.7495 45.6381 24.4792 45.4388 24.2799C45.2395 24.0807 44.9693 23.9688 44.6875 23.9688H40.4375V25.3426L41.8756 26.7807C41.9752 26.8803 42.0312 27.0154 42.0312 27.1562V30.875C42.0312 31.0159 41.9753 31.151 41.8757 31.2507C41.776 31.3503 41.6409 31.4062 41.5 31.4062H38.3125C38.1716 31.4062 38.0365 31.3503 37.9368 31.2507C37.8372 31.151 37.7812 31.0159 37.7812 30.875V27.1562C37.7813 27.0154 37.8373 26.8803 37.9369 26.7807L39.375 25.3426V23.9688H18.6562C18.3745 23.9688 18.1042 24.0807 17.9049 24.2799C17.7057 24.4792 17.5938 24.7495 17.5938 25.0312V37.7812H29.2812V36.7188C29.2812 36.1552 29.5051 35.6147 29.9036 35.2161C30.3022 34.8176 30.8427 34.5938 31.4062 34.5938H36.7188Z" fill="#F15744"/>
<path d="M17.5938 38.8438H29.2812V39.9062H17.5938V38.8438Z" fill="#F15744"/>
</svg>
