<svg width="66" height="66" viewBox="0 0 66 66" fill="none" xmlns="http://www.w3.org/2000/svg">
<rect x="0.5" y="0.5" width="65" height="65" rx="7.5" fill="#FEEEEC"/>
<rect x="0.5" y="0.5" width="65" height="65" rx="7.5" stroke="#FEEEEC"/>
<g clip-path="url(#clip0_1699_3130)">
<path d="M33.9243 32.5716C34.5408 32.5716 35.0439 32.0713 35.0439 31.4521C35.0439 30.8329 34.5435 30.3353 33.9243 30.3353C33.3051 30.3353 32.8047 30.8357 32.8047 31.4521C32.8047 32.0685 33.3051 32.5716 33.9243 32.5716Z" fill="#FF681E"/>
<path d="M19.5879 45.0549C19.5879 45.1876 19.8229 45.1903 19.8256 45.0549C19.8256 44.9886 19.7731 44.936 19.7068 44.936C19.6404 44.936 19.5879 44.9886 19.5879 45.0549Z" fill="#FF681E"/>
<path d="M39.926 33.8431L34.4552 31.51C34.1539 31.3829 33.847 31.687 33.9769 31.9883L36.3101 37.4587C36.3682 37.5969 36.5064 37.6881 36.6612 37.6798C36.8133 37.6715 36.9459 37.5748 36.9929 37.431L37.7145 35.2473L39.8984 34.5258C40.0421 34.4788 40.1444 34.3461 40.1472 34.1941C40.1555 34.0421 40.0643 33.9039 39.926 33.8431ZM37.3109 34.6087C37.2003 34.6447 37.1146 34.7304 37.0786 34.8409L36.6032 36.2811L35.0053 32.5328L38.7539 34.1305L37.3136 34.606L37.3109 34.6087Z" fill="#FF681E"/>
<path d="M33.9251 27.4272C31.7052 27.4272 29.8945 29.2351 29.8945 31.4575C29.8945 33.6799 31.7025 35.4877 33.9251 35.4877C34.2154 35.4877 34.4531 35.25 34.4531 34.9598C34.4531 34.6695 34.2154 34.4318 33.9251 34.4318C32.2858 34.4318 30.9533 33.0994 30.9533 31.4603C30.9533 29.8211 32.2858 28.4887 33.9251 28.4887C35.5644 28.4887 36.8969 29.8211 36.8969 31.4603C36.8969 31.7505 37.1346 31.9882 37.4249 31.9882C37.7152 31.9882 37.9529 31.7505 37.9529 31.4603C37.9529 29.2406 36.145 27.43 33.9223 27.43L33.9251 27.4272Z" fill="#FF681E"/>
<path d="M38.439 26.9436C37.2282 25.7328 35.6248 25.0667 33.9274 25.0667C32.2273 25.0667 30.6239 25.7328 29.4158 26.9436C26.9278 29.4314 26.9278 33.4782 29.4158 35.9688C30.6266 37.1795 32.23 37.8457 33.9274 37.8457C34.2177 37.8457 34.4554 37.608 34.4554 37.3177C34.4554 37.0275 34.2177 36.7897 33.9274 36.7897C30.9888 36.7897 28.5975 34.3987 28.5975 31.4603C28.5975 28.5219 30.9888 26.1309 33.9274 26.1309C36.866 26.1309 39.2573 28.5219 39.2573 31.4603C39.2573 31.7506 39.495 31.9883 39.7853 31.9883C40.0755 31.9883 40.3133 31.7506 40.3133 31.4603C40.3133 29.7603 39.647 28.1571 38.4362 26.9491L38.439 26.9436Z" fill="#FF681E"/>
<path d="M43.8188 38.8712C43.3627 38.8712 42.937 39.0039 42.5693 39.2195L40.4683 37.1187C40.1974 37.431 39.9071 37.7213 39.5947 37.9921L41.6957 40.093C41.4773 40.4606 41.3446 40.8863 41.3446 41.3424C41.3446 42.7052 42.4532 43.8164 43.8188 43.8164C45.1844 43.8164 46.293 42.7079 46.293 41.3424C46.293 39.9769 45.1844 38.8684 43.8188 38.8684V38.8712ZM43.8188 42.5808C43.136 42.5808 42.5831 42.0252 42.5831 41.3452C42.5831 40.6652 43.1388 40.1095 43.8188 40.1095C44.4989 40.1095 45.0545 40.6652 45.0545 41.3452C45.0545 42.0252 44.4989 42.5808 43.8188 42.5808Z" fill="#FF681E"/>
<path d="M46.2902 16C44.2445 16 42.5831 17.6641 42.5831 19.7068C42.5831 20.3481 42.7462 20.948 43.0337 21.4759L39.5947 24.9146C39.9071 25.1855 40.1974 25.4758 40.4683 25.7881L43.805 22.4517C44.4629 23.0488 45.3337 23.4164 46.293 23.4164C48.3387 23.4164 50.0001 21.7524 50.0001 19.7096C50.0001 17.6668 48.3359 16 46.293 16H46.2902ZM46.2902 22.1808C44.9274 22.1808 43.816 21.0724 43.816 19.7068C43.816 18.3413 44.9246 17.2328 46.2902 17.2328C47.6559 17.2328 48.7644 18.3413 48.7644 19.7068C48.7644 21.0724 47.6559 22.1808 46.2902 22.1808Z" fill="#FF681E"/>
<path d="M24.0336 24.0383C24.4897 24.0383 24.9155 23.9057 25.2831 23.6901L27.3841 25.7909C27.655 25.4785 27.9453 25.1883 28.2577 24.9174L26.1567 22.8166C26.3723 22.4489 26.505 22.026 26.505 21.5671C26.505 20.2044 25.3965 19.0931 24.0308 19.0931C22.6652 19.0931 21.5566 20.2016 21.5566 21.5671C21.5566 22.9327 22.6652 24.0411 24.0308 24.0411L24.0336 24.0383Z" fill="#FF681E"/>
<path d="M28.2603 37.9921C27.948 37.7213 27.6577 37.431 27.3868 37.1187L22.1951 42.3099C21.5344 41.7128 20.6664 41.3452 19.7071 41.3452C17.6614 41.3452 16 43.0092 16 45.052C16 47.0947 17.6642 48.7588 19.7071 48.7588C21.7501 48.7588 23.4143 47.0947 23.4143 45.052C23.4143 44.4107 23.2512 43.8108 22.9637 43.2829L28.2576 37.9894L28.2603 37.9921ZM19.7071 47.526C18.3443 47.526 17.2329 46.4175 17.2329 45.052C17.2329 43.6865 18.3415 42.578 19.7071 42.578C21.0728 42.578 22.1813 43.6865 22.1813 45.052C22.1813 46.4175 21.0728 47.526 19.7071 47.526Z" fill="#FF681E"/>
<path d="M34.5441 42.6389V40.0875C34.3396 40.1013 34.135 40.1096 33.9249 40.1096C33.7148 40.1096 33.513 40.1013 33.3084 40.0875V42.6389C31.5585 42.9347 30.2178 44.4578 30.2178 46.2932C30.2178 48.3387 31.882 50 33.9249 50C35.9678 50 37.632 48.336 37.632 46.2932C37.632 44.4578 36.2913 42.9347 34.5414 42.6389H34.5441Z" fill="#FF681E"/>
</g>
<defs>
<clipPath id="clip0_1699_3130">
<rect width="34" height="34" fill="white" transform="translate(16 16)"/>
</clipPath>
</defs>
</svg>
