<svg width="66" height="66" viewBox="0 0 66 66" fill="none" xmlns="http://www.w3.org/2000/svg">
<rect x="0.5" y="0.5" width="65" height="65" rx="7.5" fill="#FEEEEC"/>
<rect x="0.5" y="0.5" width="65" height="65" rx="7.5" stroke="#FEEEEC"/>
<path d="M40.8308 26.0937H25.1696C25.0004 26.6242 24.7067 27.1065 24.3129 27.5002C23.9192 27.8939 23.4369 28.1877 22.9064 28.3568V37.6431C23.4369 37.8123 23.9192 38.106 24.3129 38.4997C24.7067 38.8934 25.0004 39.3757 25.1696 39.9062H40.8308C41 39.3757 41.2937 38.8934 41.6875 38.4997C42.0812 38.106 42.5635 37.8123 43.0939 37.6431V28.3568C42.5635 28.1877 42.0812 27.8939 41.6875 27.5002C41.2937 27.1065 41 26.6242 40.8308 26.0937ZM26.0833 34.0625C25.8083 34.0523 25.5479 33.9359 25.357 33.7378C25.166 33.5396 25.0593 33.2752 25.0593 33C25.0593 32.7248 25.166 32.4603 25.357 32.2621C25.5479 32.064 25.8083 31.9476 26.0833 31.9375C26.3583 31.9476 26.6187 32.064 26.8097 32.2621C27.0007 32.4603 27.1074 32.7248 27.1074 33C27.1074 33.2752 27.0007 33.5396 26.8097 33.7378C26.6187 33.9359 26.3583 34.0523 26.0833 34.0625ZM34.8489 30.5243H35.5821C35.8639 30.5243 36.1341 30.6363 36.3334 30.8355C36.5326 31.0348 36.6446 31.305 36.6446 31.5868C36.6446 31.8686 36.5326 32.1389 36.3334 32.3381C36.1341 32.5374 35.8639 32.6493 35.5821 32.6493H34.8702C34.7228 33.1704 34.4705 33.656 34.1288 34.0762C33.7872 34.4964 33.3634 34.8424 32.8833 35.0931L34.6152 36.4743C34.8296 36.6527 34.9656 36.9079 34.994 37.1853C35.0225 37.4627 34.9412 37.7402 34.7675 37.9583C34.5938 38.1765 34.3416 38.3179 34.0648 38.3523C33.7881 38.3867 33.5089 38.3114 33.2871 38.1424L29.7489 35.3056C29.5803 35.1661 29.4586 34.9781 29.4003 34.7671C29.342 34.5562 29.3499 34.3324 29.4229 34.1261C29.4959 33.9197 29.6306 33.7408 29.8086 33.6135C29.9867 33.4862 30.1995 33.4167 30.4184 33.4143C30.8086 33.4899 31.2121 33.4588 31.5861 33.3241C31.9601 33.1894 32.2909 32.9563 32.5434 32.6493H30.4184C30.1366 32.6493 29.8663 32.5373 29.6671 32.3381C29.4678 32.1388 29.3559 31.8686 29.3559 31.5868C29.3559 31.305 29.4678 31.0347 29.6671 30.8355C29.8663 30.6362 30.1366 30.5243 30.4184 30.5243H32.5434C32.2925 30.2148 31.9624 29.9792 31.5881 29.8426C31.2139 29.706 30.8096 29.6736 30.4184 29.7487C30.1392 29.7447 29.8729 29.631 29.677 29.4321C29.481 29.2333 29.3711 28.9654 29.3711 28.6862C29.3711 28.4071 29.481 28.1391 29.677 27.9403C29.8729 27.7415 30.1392 27.6277 30.4184 27.6237H35.5821C35.8615 27.6272 36.1284 27.7407 36.3247 27.9396C36.5211 28.1385 36.6312 28.4067 36.6312 28.6862C36.6312 28.9657 36.5211 29.2339 36.3247 29.4328C36.1284 29.6317 35.8615 29.7452 35.5821 29.7487H34.5408C34.6716 29.9952 34.775 30.2553 34.8489 30.5243ZM39.9171 34.0625C39.6413 34.0534 39.3799 33.9375 39.188 33.7392C38.9962 33.5409 38.8889 33.2759 38.8889 33C38.8889 32.7241 38.9962 32.459 39.188 32.2607C39.3799 32.0624 39.6413 31.9465 39.9171 31.9375C40.1928 31.9465 40.4542 32.0624 40.6461 32.2607C40.838 32.459 40.9452 32.7241 40.9452 33C40.9452 33.2759 40.838 33.5409 40.6461 33.7392C40.4542 33.9375 40.1928 34.0534 39.9171 34.0625ZM44.6771 21.4187H21.3233C20.9172 21.4182 20.5149 21.4978 20.1395 21.653C19.7642 21.8082 19.4231 22.036 19.1359 22.3232C18.8487 22.6104 18.621 22.9514 18.4658 23.3268C18.3106 23.7021 18.2309 24.1044 18.2314 24.5106V41.4893C18.2309 41.8955 18.3106 42.2978 18.4658 42.6731C18.621 43.0485 18.8487 43.3895 19.1359 43.6767C19.4231 43.964 19.7642 44.1917 20.1395 44.3469C20.5149 44.5021 20.9171 44.5817 21.3233 44.5812H44.6771C45.0832 44.5817 45.4855 44.5021 45.8609 44.3469C46.2362 44.1917 46.5773 43.964 46.8645 43.6767C47.1517 43.3895 47.3794 43.0485 47.5346 42.6731C47.6898 42.2978 47.7695 41.8955 47.7689 41.4893V24.5106C47.7695 24.1044 47.6898 23.7021 47.5346 23.3268C47.3794 22.9514 47.1517 22.6104 46.8645 22.3232C46.5773 22.036 46.2362 21.8082 45.8609 21.653C45.4855 21.4978 45.0832 21.4182 44.6771 21.4187ZM45.2189 38.5356C45.2194 38.6752 45.1923 38.8136 45.1391 38.9428C45.0858 39.0719 45.0076 39.1892 44.9088 39.288C44.8101 39.3867 44.6928 39.465 44.5636 39.5182C44.4345 39.5714 44.2961 39.5986 44.1564 39.5981C43.7932 39.599 43.4451 39.7436 43.1882 40.0005C42.9314 40.2573 42.7867 40.6055 42.7858 40.9687C42.7863 41.1084 42.7592 41.2468 42.7059 41.3759C42.6527 41.505 42.5745 41.6223 42.4757 41.7211C42.3769 41.8198 42.2596 41.8981 42.1305 41.9513C42.0014 42.0045 41.863 42.0317 41.7233 42.0312H24.2771C24.1374 42.0317 23.999 42.0045 23.8699 41.9513C23.7408 41.8981 23.6234 41.8198 23.5247 41.7211C23.4259 41.6223 23.3477 41.505 23.2945 41.3759C23.2412 41.2468 23.2141 41.1084 23.2146 40.9687C23.2137 40.6055 23.069 40.2573 22.8122 40.0005C22.5553 39.7436 22.2072 39.599 21.8439 39.5981C21.7043 39.5986 21.5659 39.5714 21.4368 39.5182C21.3076 39.465 21.1903 39.3867 21.0916 39.288C20.9928 39.1892 20.9146 39.0719 20.8613 38.9428C20.8081 38.8136 20.781 38.6752 20.7814 38.5356V27.4643C20.781 27.3247 20.8081 27.1863 20.8613 27.0572C20.9146 26.928 20.9928 26.8107 21.0916 26.7119C21.1903 26.6132 21.3076 26.5349 21.4368 26.4817C21.5659 26.4285 21.7043 26.4013 21.8439 26.4018C22.2072 26.401 22.5553 26.2563 22.8122 25.9994C23.069 25.7426 23.2137 25.3944 23.2146 25.0312C23.2141 24.8915 23.2412 24.7532 23.2945 24.624C23.3477 24.4949 23.4259 24.3776 23.5247 24.2788C23.6234 24.1801 23.7408 24.1018 23.8699 24.0486C23.999 23.9954 24.1374 23.9682 24.2771 23.9687H41.7233C41.863 23.9682 42.0014 23.9954 42.1305 24.0486C42.2596 24.1018 42.3769 24.1801 42.4757 24.2788C42.5745 24.3776 42.6527 24.4949 42.7059 24.624C42.7592 24.7532 42.7863 24.8915 42.7858 25.0312C42.7867 25.3944 42.9314 25.7426 43.1882 25.9994C43.4451 26.2563 43.7932 26.401 44.1564 26.4018C44.2961 26.4013 44.4345 26.4285 44.5636 26.4817C44.6928 26.5349 44.8101 26.6132 44.9088 26.7119C45.0076 26.8107 45.0858 26.928 45.1391 27.0572C45.1923 27.1863 45.2194 27.3247 45.2189 27.4643V38.5356Z" fill="#F15744"/>
</svg>
