<svg width="66" height="66" viewBox="0 0 66 66" fill="none" xmlns="http://www.w3.org/2000/svg">
<rect x="0.5" y="0.5" width="65" height="65" rx="7.5" fill="#FEEEEC"/>
<rect x="0.5" y="0.5" width="65" height="65" rx="7.5" stroke="#FEEEEC"/>
<g clip-path="url(#clip0_1699_3118)">
<path d="M33 28.4843C33.4482 28.4843 33.8921 28.5722 34.3066 28.7428C34.5689 28.4837 34.7483 28.1525 34.8219 27.7911C34.8956 27.4298 34.8601 27.0548 34.72 26.7137C34.58 26.3726 34.3417 26.0808 34.0354 25.8755C33.7291 25.6702 33.3687 25.5605 33 25.5605C32.6313 25.5605 32.2709 25.6702 31.9646 25.8755C31.6583 26.0808 31.42 26.3726 31.28 26.7137C31.1399 27.0548 31.1044 27.4298 31.1781 27.7911C31.2517 28.1525 31.4311 28.4837 31.6934 28.7428C32.1079 28.5722 32.5518 28.4843 33 28.4843Z" fill="#F15744"/>
<path d="M38.5781 39.9062H38.0469V38.7952C38.0469 36.8775 36.7807 35.5532 34.8594 35.4054V34.4993C35.2033 34.0753 35.3909 33.5459 35.3906 33V31.9375C35.3906 31.3035 35.1388 30.6954 34.6904 30.2471C34.2421 29.7987 33.634 29.5469 33 29.5469C32.366 29.5469 31.7579 29.7987 31.3096 30.2471C30.8612 30.6954 30.6094 31.3035 30.6094 31.9375V33C30.6091 33.5459 30.7967 34.0753 31.1406 34.4993V35.4054C29.2193 35.5532 27.9531 36.8775 27.9531 38.7952V39.9062H27.4219C27.281 39.9063 27.1459 39.9622 27.0462 40.0619C26.9466 40.1615 26.8906 40.2966 26.8906 40.4375V42.5625C26.8906 42.7034 26.9466 42.8385 27.0462 42.9381C27.1459 43.0378 27.281 43.0937 27.4219 43.0938H27.6875V46.8125H27.4219C27.281 46.8125 27.1459 46.8685 27.0462 46.9681C26.9466 47.0677 26.8906 47.2029 26.8906 47.3438V49.4688C26.8906 49.6096 26.9466 49.7448 27.0462 49.8444C27.1459 49.944 27.281 50 27.4219 50H38.5781C38.719 50 38.8541 49.944 38.9538 49.8444C39.0534 49.7448 39.1094 49.6096 39.1094 49.4688V47.3438C39.1094 47.2029 39.0534 47.0677 38.9538 46.9681C38.8541 46.8685 38.719 46.8125 38.5781 46.8125H38.3125V43.0938H38.5781C38.719 43.0937 38.8541 43.0378 38.9538 42.9381C39.0534 42.8385 39.1094 42.7034 39.1094 42.5625V40.4375C39.1094 40.2966 39.0534 40.1615 38.9538 40.0619C38.8541 39.9622 38.719 39.9063 38.5781 39.9062ZM29.0156 38.7952C29.0156 37.7041 29.5296 37.0583 30.2109 36.7296L30.8041 36.1294C30.984 35.9477 31.2052 35.8124 31.4489 35.735C31.6926 35.6576 31.9514 35.6404 32.2031 35.685V35.2511C32.7181 35.4371 33.2819 35.4371 33.7969 35.2511V35.6807C33.8845 35.6652 33.9733 35.657 34.0624 35.6562H34.0717C34.2811 35.6568 34.4884 35.699 34.6814 35.7803C34.8744 35.8616 35.0493 35.9805 35.1961 36.1299L35.7887 36.7294C36.4702 37.0581 36.9844 37.7039 36.9844 38.7952V39.9062H35.6562V38.325C35.6562 38.1851 35.6011 38.0509 35.5028 37.9514L34.4403 36.8765C34.3412 36.7763 34.2064 36.7195 34.0655 36.7187C33.9246 36.7179 33.7892 36.7731 33.689 36.8722C33.5888 36.9713 33.532 37.1061 33.5312 37.247C33.5304 37.3879 33.5856 37.5233 33.6847 37.6235L34.5938 38.5431V39.9062H31.4062V38.5431L32.3153 37.6235C32.3644 37.5739 32.4032 37.5151 32.4295 37.4505C32.4558 37.3859 32.4692 37.3167 32.4688 37.247C32.4684 37.1772 32.4543 37.1082 32.4272 37.0439C32.4001 36.9796 32.3606 36.9212 32.311 36.8722C32.2614 36.8231 32.2026 36.7843 32.138 36.758C32.0734 36.7317 32.0042 36.7183 31.9345 36.7187C31.8647 36.7191 31.7957 36.7332 31.7314 36.7603C31.6671 36.7874 31.6087 36.8268 31.5597 36.8765L30.4972 37.9514C30.3989 38.0509 30.3438 38.1851 30.3438 38.325V39.9062H29.0156V38.7952ZM38.0469 48.9375H27.9531V47.875H38.0469V48.9375ZM38.0469 42.0312H27.9531V40.9688H38.0469V42.0312Z" fill="#F15744"/>
<path d="M49.4688 42.0312H48.6719V40.4375C48.6719 40.2966 48.6159 40.1615 48.5163 40.0619C48.4166 39.9622 48.2815 39.9063 48.1406 39.9062H46.8125V38.3125C46.8125 38.1716 46.7565 38.0365 46.6569 37.9369C46.5573 37.8372 46.4221 37.7813 46.2812 37.7812H45.2188V23.9688C45.2187 23.8279 45.1628 23.6927 45.0631 23.5931C44.9635 23.4935 44.8284 23.4375 44.6875 23.4375H43.8906V21.8438C43.8906 21.562 43.7787 21.2917 43.5794 21.0924C43.3802 20.8932 43.1099 20.7812 42.8281 20.7812H42.5625V19.3106C42.5625 19.0776 42.4859 18.8511 42.3445 18.6659C42.2031 18.4807 42.0048 18.3471 41.78 18.2857L33.551 16.0375C33.3678 15.9875 33.1745 15.9875 32.9913 16.0375L24.7516 18.2856C24.5267 18.347 24.3283 18.4805 24.1868 18.6658C24.0454 18.851 23.9687 19.0776 23.9688 19.3106V20.7812H23.1719C22.8901 20.7812 22.6198 20.8932 22.4206 21.0924C22.2213 21.2917 22.1094 21.562 22.1094 21.8438V23.4375H21.3125C21.1716 23.4375 21.0365 23.4935 20.9369 23.5931C20.8372 23.6927 20.7813 23.8279 20.7812 23.9688V37.7812H19.7188C19.5779 37.7813 19.4427 37.8372 19.3431 37.9369C19.2435 38.0365 19.1875 38.1716 19.1875 38.3125V39.9062H17.8594C17.7185 39.9063 17.5834 39.9622 17.4837 40.0619C17.3841 40.1615 17.3281 40.2966 17.3281 40.4375V42.0312H16.5312C16.3904 42.0313 16.2552 42.0872 16.1556 42.1869C16.056 42.2865 16 42.4216 16 42.5625V44.6875C16 44.8284 16.056 44.9635 16.1556 45.0631C16.2552 45.1628 16.3904 45.2187 16.5312 45.2188H26.625V44.1562H17.0625V43.0938H25.9228C25.861 42.9234 25.829 42.7437 25.8281 42.5625V40.4375C25.8285 40.3464 25.8367 40.2555 25.8526 40.1658C25.8533 40.1622 25.8545 40.1588 25.8552 40.1552C25.8705 40.0706 25.8928 39.9873 25.9218 39.9063L20.25 39.9062V38.8438H26.8906V38.7952C26.8906 38.628 26.9011 38.4652 26.9161 38.3045C26.9182 38.284 26.9206 38.2637 26.9228 38.2433C27.0072 37.322 27.3855 36.4522 28.0019 35.7623C27.9113 35.6939 27.801 35.6567 27.6875 35.6562H27.4219V26.625H27.6875C27.8284 26.625 27.9635 26.569 28.0631 26.4694C28.1628 26.3698 28.2187 26.2346 28.2188 26.0938V24.5H37.7812V26.0938C37.7813 26.2346 37.8372 26.3698 37.9369 26.4694C38.0365 26.569 38.1716 26.625 38.3125 26.625H38.5781V35.6562H38.3125C38.199 35.6567 38.0887 35.6939 37.9981 35.7623C38.6145 36.4522 38.9928 37.322 39.0772 38.2433C39.0794 38.2637 39.0818 38.284 39.0839 38.3045C39.0989 38.4652 39.1094 38.628 39.1094 38.7952V38.8438H45.75V39.9062H40.0782C40.1073 39.9875 40.1296 40.071 40.145 40.1558C40.1456 40.1592 40.1468 40.1623 40.1474 40.1657C40.1633 40.2554 40.1715 40.3464 40.1719 40.4375V42.5625C40.1711 42.651 40.163 42.7393 40.1475 42.8265C40.1461 42.8343 40.1442 42.8418 40.1428 42.8495C40.1275 42.9326 40.1056 43.0142 40.0772 43.0938H48.9375V44.1562H39.375V45.2188H49.4688C49.6096 45.2187 49.7448 45.1628 49.8444 45.0631C49.944 44.9635 50 44.8284 50 44.6875V42.5625C50 42.4216 49.944 42.2865 49.8444 42.1869C49.7448 42.0872 49.6096 42.0313 49.4688 42.0312ZM24.2344 35.6562H23.9688C23.8279 35.6563 23.6927 35.7122 23.5931 35.8119C23.4935 35.9115 23.4375 36.0466 23.4375 36.1875V37.7812H21.8438V24.5H23.4375V26.0938C23.4375 26.2346 23.4935 26.3698 23.5931 26.4694C23.6927 26.569 23.8279 26.625 23.9688 26.625H24.2344V35.6562ZM26.3594 35.6562H25.2969V26.625H26.3594V35.6562ZM23.1719 23.4375V21.8438H42.8281V23.4375H23.1719ZM40.7031 35.6562H39.6406V26.625H40.7031V35.6562ZM44.1562 37.7812H42.5625V36.1875C42.5625 36.0466 42.5065 35.9115 42.4069 35.8119C42.3073 35.7122 42.1721 35.6563 42.0312 35.6562H41.7656V26.625H42.0312C42.1721 26.625 42.3073 26.569 42.4069 26.4694C42.5065 26.3698 42.5625 26.2346 42.5625 26.0938V24.5H44.1562V37.7812Z" fill="#F15744"/>
</g>
<defs>
<clipPath id="clip0_1699_3118">
<rect width="34" height="34" fill="white" transform="translate(16 16)"/>
</clipPath>
</defs>
</svg>
