<svg width="66" height="66" viewBox="0 0 66 66" fill="none" xmlns="http://www.w3.org/2000/svg">
<rect x="0.5" y="0.5" width="65" height="65" rx="7.5" fill="#FEEEEC"/>
<rect x="0.5" y="0.5" width="65" height="65" rx="7.5" stroke="#FEEEEC"/>
<g clip-path="url(#clip0_1699_3019)">
<path fill-rule="evenodd" clip-rule="evenodd" d="M26.9564 30.0064V26.876H29.0608V30.0064H26.9564ZM34.0532 30.0064V26.876H31.9468V30.0064H34.0532ZM39.0436 30.0064V26.876H36.9392V30.0064H39.0436ZM40.6925 25.1946V24.7391H25.3075V25.1946C25.3075 25.5167 25.5711 25.7803 25.8932 25.7803H40.1088C40.4309 25.7803 40.6925 25.5167 40.6925 25.1946ZM25.3075 32.1407H40.6925V31.6852C40.6925 31.3651 40.4309 31.1014 40.1088 31.1014H25.8932C25.5711 31.1014 25.3075 31.3651 25.3075 31.6852V32.1407ZM41.8672 23.6454H24.1328V21.8325L32.9934 16.0332L41.8672 21.8331V23.6454ZM34.3261 19.9319C34.3261 19.1995 33.7278 18.6011 32.9934 18.6011C32.2609 18.6011 31.6626 19.1995 31.6626 19.9319C31.6626 20.6657 32.2609 21.2647 32.9934 21.2647C33.7278 21.2647 34.3261 20.6657 34.3261 19.9319ZM42.1773 34.3793C42.1773 33.7504 41.6634 33.2364 41.0345 33.2364H24.9648C24.336 33.2364 23.822 33.7504 23.822 34.3793V35.5221H42.1773V34.3793ZM49.9668 29.1743C49.9668 31.3936 48.1579 33.2045 45.9386 33.2045C43.7193 33.2045 41.9084 31.3936 41.9084 29.1743C41.9084 26.955 43.7193 25.1461 45.9386 25.1461C48.1579 25.1461 49.9668 26.955 49.9668 29.1743ZM47.3205 29.9951C47.3205 29.6186 47.1678 29.2759 46.9194 29.0296C46.7122 28.8204 46.4373 28.6796 46.1305 28.6398C46.0946 28.6325 46.0568 28.6285 46.0176 28.6285H45.9539H45.924C45.8489 28.6285 45.7812 28.5966 45.7321 28.5475C45.6809 28.4963 45.6511 28.4286 45.6511 28.3536C45.6511 28.2798 45.6809 28.2108 45.7321 28.1616C45.7812 28.1125 45.8489 28.0806 45.924 28.0806H46.1139C46.1591 28.0806 46.2002 28.0919 46.2361 28.1092C46.2759 28.1298 46.3098 28.1583 46.3357 28.1942C46.5143 28.4352 46.857 28.4857 47.098 28.3071C47.3411 28.1264 47.3916 27.7858 47.2109 27.5427C47.0848 27.3714 46.9194 27.232 46.7268 27.1343C46.6498 27.0945 46.5688 27.0626 46.4838 27.038V26.799C46.4838 26.4975 46.2387 26.2511 45.9379 26.2511C45.6351 26.2511 45.3901 26.4975 45.3901 26.799V27.0945C45.2261 27.1642 45.0793 27.2638 44.9551 27.388C44.7087 27.6344 44.554 27.977 44.554 28.3536C44.554 28.7321 44.7081 29.0727 44.9551 29.3211C45.1643 29.5283 45.4392 29.6711 45.744 29.7109C45.7799 29.7182 45.8177 29.7222 45.8569 29.7222H45.9227H45.9525C46.0262 29.7222 46.094 29.7541 46.1445 29.8032C46.1936 29.8523 46.2255 29.9221 46.2255 29.9951C46.2255 30.0702 46.1936 30.1379 46.1445 30.189C46.0933 30.2382 46.0256 30.27 45.9525 30.27H45.7626C45.7155 30.27 45.6743 30.2588 45.6384 30.2415C45.6006 30.2209 45.5667 30.1923 45.5408 30.1565C45.3602 29.9134 45.0195 29.865 44.7765 30.0436C44.5354 30.2222 44.485 30.5649 44.6636 30.8059C44.7898 30.9773 44.9551 31.1187 45.1477 31.2163C45.2247 31.2542 45.3057 31.2861 45.3907 31.3106V31.5497C45.3907 31.8525 45.6358 32.0975 45.9386 32.0975C46.2401 32.0975 46.4845 31.8525 46.4845 31.5497V31.2562C46.6485 31.1864 46.7952 31.0848 46.9194 30.9627C47.1678 30.7136 47.3205 30.3716 47.3205 29.9951ZM16.0332 30.1605L16.9443 29.6352C16.9197 29.4825 16.9084 29.3264 16.9084 29.1684C16.9084 29.0083 16.9197 28.8543 16.9443 28.7015L16.0332 28.1763L17.1887 26.1754L18.1376 26.7233C18.3707 26.55 18.629 26.4092 18.9073 26.3076V25.184H21.2169V26.3959C21.4506 26.5015 21.6664 26.637 21.8623 26.795L22.9355 26.1754L24.0909 28.1763L22.9786 28.8184C22.9919 28.9333 22.9992 29.0502 22.9992 29.1684C22.9992 29.2872 22.9919 29.4034 22.9786 29.5183L24.0909 30.1605L22.9355 32.1613L21.8623 31.5404C21.6664 31.7004 21.45 31.8339 21.2169 31.9395V33.1534H18.9073V32.0298C18.6284 31.9282 18.3707 31.7868 18.1376 31.6141L17.1887 32.162L16.0332 30.1605ZM18.7246 29.1684C18.7246 29.8464 19.2745 30.3955 19.9538 30.3955C20.6312 30.3955 21.183 29.8457 21.183 29.1684C21.183 28.489 20.6312 27.9392 19.9538 27.9392C19.2745 27.9392 18.7246 28.489 18.7246 29.1684ZM36.0467 38.2056C36.5003 38.4015 36.8901 38.7103 37.1816 39.0921L39.5457 37.8045C39.0071 37.2341 38.1299 37.072 37.4114 37.4638L36.0467 38.2056ZM41.9854 37.7241L37.671 40.0716C37.8178 40.5949 37.8178 41.1633 37.6391 41.7152C37.157 43.2173 35.5367 44.0473 34.0359 43.5639L30.1957 42.3274C29.9453 42.2464 29.8059 41.9775 29.8869 41.7251L29.928 41.595C30.0091 41.3446 30.28 41.2052 30.5304 41.2862L34.3706 42.5227C35.297 42.8202 36.2984 42.3062 36.5972 41.3798C36.6782 41.1255 36.6988 40.8678 36.667 40.6175C36.582 39.9587 36.1284 39.3697 35.4544 39.1532C33.425 38.4998 31.3963 37.847 29.3669 37.1936C27.7426 36.6703 26.1515 36.819 24.6514 37.6338L20.8676 39.6931L24.6209 46.2115C25.6203 45.752 26.6708 45.6936 27.742 46.0382L29.9672 46.7554C31.1439 47.1339 32.2954 47.0263 33.3798 46.4353L43.6748 40.8333C44.5314 40.3684 44.8495 39.288 44.3847 38.4334C43.9205 37.5787 42.8401 37.2593 41.9854 37.7241ZM19.1935 38.9779C19.0653 38.7574 18.7831 38.6804 18.5626 38.8086L16.265 40.1314C16.0445 40.2575 15.9675 40.5418 16.0956 40.7622L21.2647 49.7357C21.3909 49.9562 21.6751 50.0332 21.8955 49.905L24.1919 48.5816C24.4123 48.4554 24.4894 48.1712 24.3612 47.9507L19.1935 38.9779Z" fill="#F15744"/>
</g>
<defs>
<clipPath id="clip0_1699_3019">
<rect width="34" height="34" fill="white" transform="translate(16 16)"/>
</clipPath>
</defs>
</svg>
