<svg width="66" height="66" viewBox="0 0 66 66" fill="none" xmlns="http://www.w3.org/2000/svg">
<rect x="0.5" y="0.5" width="65" height="65" rx="7.5" fill="#FEEEEC"/>
<rect x="0.5" y="0.5" width="65" height="65" rx="7.5" stroke="#FEEEEC"/>
<path d="M42.917 17.4166H23.0837C22.7442 17.4205 22.4174 17.5462 22.1628 17.7708C23.1731 18.1262 24.062 18.7607 24.7264 19.6007C25.3909 20.4406 25.8037 21.4517 25.917 22.5166C25.9387 22.7049 25.9387 22.895 25.917 23.0833V47.1666C25.9163 47.4376 25.9934 47.7031 26.139 47.9316C26.2846 48.1601 26.4928 48.342 26.7387 48.4558C26.9851 48.5693 27.259 48.6096 27.5277 48.5719C27.7965 48.5342 28.0487 48.4202 28.2545 48.2433L32.292 44.7866L36.3295 48.2433C36.5861 48.4628 36.9127 48.5834 37.2503 48.5834C37.588 48.5834 37.9146 48.4628 38.1712 48.2433L42.2087 44.7866L46.2462 48.2433C46.5028 48.4627 46.8293 48.5833 47.167 48.5833C47.372 48.5818 47.5744 48.5385 47.762 48.4558C48.0079 48.342 48.216 48.1601 48.3616 47.9316C48.5073 47.7031 48.5843 47.4376 48.5837 47.1666V23.0833C48.5837 21.5804 47.9866 20.1391 46.9239 19.0764C45.8612 18.0136 44.4199 17.4166 42.917 17.4166ZM41.5003 37.25H33.0003C32.6246 37.25 32.2643 37.1007 31.9986 36.835C31.7329 36.5693 31.5837 36.209 31.5837 35.8333C31.5837 35.4576 31.7329 35.0972 31.9986 34.8316C32.2643 34.5659 32.6246 34.4166 33.0003 34.4166H41.5003C41.8761 34.4166 42.2364 34.5659 42.5021 34.8316C42.7677 35.0972 42.917 35.4576 42.917 35.8333C42.917 36.209 42.7677 36.5693 42.5021 36.835C42.2364 37.1007 41.8761 37.25 41.5003 37.25ZM41.5003 31.5833H33.0003C32.6246 31.5833 32.2643 31.434 31.9986 31.1684C31.7329 30.9027 31.5837 30.5423 31.5837 30.1666C31.5837 29.7909 31.7329 29.4306 31.9986 29.1649C32.2643 28.8992 32.6246 28.75 33.0003 28.75H41.5003C41.8761 28.75 42.2364 28.8992 42.5021 29.1649C42.7677 29.4306 42.917 29.7909 42.917 30.1666C42.917 30.5423 42.7677 30.9027 42.5021 31.1684C42.2364 31.434 41.8761 31.5833 41.5003 31.5833ZM41.5003 25.9166H33.0003C32.6246 25.9166 32.2643 25.7674 31.9986 25.5017C31.7329 25.236 31.5837 24.8757 31.5837 24.5C31.5837 24.1242 31.7329 23.7639 31.9986 23.4982C32.2643 23.2325 32.6246 23.0833 33.0003 23.0833H41.5003C41.8761 23.0833 42.2364 23.2325 42.5021 23.4982C42.7677 23.7639 42.917 24.1242 42.917 24.5C42.917 24.8757 42.7677 25.236 42.5021 25.5017C42.2364 25.7674 41.8761 25.9166 41.5003 25.9166ZM23.0837 23.0833V34.4166H18.8337C18.4579 34.4166 18.0976 34.2674 17.8319 34.0017C17.5662 33.736 17.417 33.3757 17.417 33V23.0833C17.417 22.885 17.417 22.7008 17.417 22.5166C17.4921 21.7652 17.8627 21.0744 18.4472 20.5961C19.0317 20.1179 19.7822 19.8915 20.5337 19.9666C21.2851 20.0418 21.9759 20.4123 22.4541 20.9968C22.9324 21.5813 23.1588 22.3318 23.0837 23.0833Z" fill="#F15744"/>
</svg>
