<svg width="80" height="80" viewBox="0 0 80 80" fill="none" xmlns="http://www.w3.org/2000/svg">
<path d="M68.2173 29.8125H18.7827C16.8687 29.8155 15.034 30.5772 13.6806 31.9306C12.3272 33.284 11.5655 35.1187 11.5625 37.0327V68.2173C11.5655 70.1313 12.3272 71.966 13.6806 73.3194C15.034 74.6728 16.8687 75.4345 18.7827 75.4375H68.2173C70.1313 75.4345 71.966 74.6728 73.3194 73.3194C74.6728 71.966 75.4345 70.1313 75.4375 68.2173V37.0327C75.4345 35.1187 74.6728 33.284 73.3194 31.9306C71.966 30.5772 70.1313 29.8155 68.2173 29.8125ZM70.875 68.2173C70.875 68.9222 70.595 69.5982 70.0966 70.0966C69.5982 70.595 68.9222 70.875 68.2173 70.875H18.7827C18.0778 70.875 17.4018 70.595 16.9034 70.0966C16.405 69.5982 16.125 68.9222 16.125 68.2173V48.0625H70.875V68.2173ZM70.875 38.9375H16.125V37.0327C16.125 36.3278 16.405 35.6518 16.9034 35.1534C17.4018 34.655 18.0778 34.375 18.7827 34.375H68.2173C68.9222 34.375 69.5982 34.655 70.0966 35.1534C70.595 35.6518 70.875 36.3278 70.875 37.0327V38.9375Z" fill="white"/>
<path d="M50.3438 57.1875H57.1875C57.7925 57.1875 58.3728 56.9472 58.8006 56.5193C59.2284 56.0915 59.4688 55.5113 59.4688 54.9062C59.4688 54.3012 59.2284 53.721 58.8006 53.2932C58.3728 52.8653 57.7925 52.625 57.1875 52.625H50.3438C49.7387 52.625 49.1585 52.8653 48.7307 53.2932C48.3028 53.721 48.0625 54.3012 48.0625 54.9062C48.0625 55.5113 48.3028 56.0915 48.7307 56.5193C49.1585 56.9472 49.7387 57.1875 50.3438 57.1875Z" fill="white"/>
<path d="M64.0304 57.1875C64.6344 57.1849 65.2128 56.9429 65.6387 56.5145C66.0671 56.0887 66.3091 55.5103 66.3116 54.9062C66.3182 54.5653 66.2482 54.2272 66.1069 53.9168C65.9655 53.6064 65.7564 53.3317 65.4948 53.1129C65.2333 52.894 64.926 52.7366 64.5956 52.6521C64.2651 52.5677 63.92 52.5584 63.5855 52.625C63.4365 52.6492 63.291 52.6913 63.1521 52.7505C63.017 52.8117 62.8872 52.8842 62.7643 52.9672C62.5189 53.1366 62.3064 53.3492 62.1369 53.5945C62.0473 53.7174 61.9744 53.8516 61.9202 53.9937C61.861 54.1286 61.8188 54.2704 61.7947 54.4158C61.759 54.5767 61.7437 54.7415 61.7491 54.9062C61.7491 55.5113 61.9895 56.0915 62.4173 56.5193C62.8451 56.9471 63.4253 57.1875 64.0304 57.1875Z" fill="white"/>
<path d="M64.0312 61.75H57.1875C56.5825 61.75 56.0022 61.9903 55.5744 62.4182C55.1466 62.846 54.9062 63.4262 54.9062 64.0312C54.9062 64.6363 55.1466 65.2165 55.5744 65.6443C56.0022 66.0722 56.5825 66.3125 57.1875 66.3125H64.0312C64.6363 66.3125 65.2165 66.0722 65.6443 65.6443C66.0722 65.2165 66.3125 64.6363 66.3125 64.0312C66.3125 63.4262 66.0722 62.846 65.6443 62.4182C65.2165 61.9903 64.6363 61.75 64.0312 61.75Z" fill="white"/>
<path d="M50.3439 66.3125C50.9489 66.3125 51.5291 66.0721 51.957 65.6443C52.3848 65.2165 52.6251 64.6363 52.6251 64.0312C52.642 63.8834 52.642 63.7342 52.6251 63.5864C52.6003 63.4375 52.5582 63.2921 52.4996 63.153C52.4384 63.0178 52.3659 62.8881 52.2829 62.7651C52.2036 62.6388 52.1077 62.5237 51.9978 62.423C51.5704 61.9981 50.9922 61.7596 50.3895 61.7596C49.7868 61.7596 49.2086 61.9981 48.7812 62.423C48.4666 62.7392 48.2516 63.1407 48.1628 63.5778C48.0741 64.0149 48.1154 64.4684 48.2816 64.8823C48.4479 65.2962 48.7319 65.6523 49.0984 65.9065C49.4649 66.1607 49.898 66.3018 50.3439 66.3125Z" fill="white"/>
<path d="M27.5312 66.3125C28.7347 66.3101 29.9158 65.9873 30.9531 65.3772C31.9931 65.9828 33.1744 66.3034 34.3779 66.3067C35.5814 66.3101 36.7645 65.996 37.8078 65.3962C38.8512 64.7964 39.7179 63.9321 40.3206 62.8904C40.9233 61.8487 41.2407 60.6665 41.2407 59.463C41.2407 58.2595 40.9233 57.0773 40.3206 56.0357C39.7179 54.994 38.8512 54.1296 37.8078 53.5298C36.7645 52.93 35.5814 52.6159 34.3779 52.6193C33.1744 52.6226 31.9931 52.9433 30.9531 53.5489C29.9147 52.9427 28.7337 52.6238 27.5312 52.625C25.7162 52.625 23.9754 53.346 22.692 54.6295C21.4085 55.9129 20.6875 57.6536 20.6875 59.4687C20.6875 61.2838 21.4085 63.0245 22.692 64.308C23.9754 65.5914 25.7162 66.3125 27.5312 66.3125Z" fill="white"/>
<path d="M63.9051 25.25H64.4982C64.75 25.2521 64.9979 25.1874 65.2167 25.0626C65.4354 24.9378 65.6172 24.7573 65.7435 24.5394C65.8698 24.3215 65.9362 24.0741 65.9358 23.8222C65.9355 23.5704 65.8684 23.3231 65.7415 23.1056L60.8938 14.722C60.0506 13.2753 58.6676 12.2225 57.0486 11.7947C55.4296 11.367 53.7071 11.5994 52.2593 12.4408L32.1843 23.9953C32.0569 24.0693 31.9574 24.1832 31.901 24.3192C31.8445 24.4553 31.8343 24.6062 31.8718 24.7486C31.9094 24.8911 31.9927 25.0173 32.1089 25.1078C32.2251 25.1984 32.3678 25.2483 32.5151 25.25H36.1537C37.3556 25.2478 38.5358 24.9292 39.5755 24.3261L54.2554 15.874C54.5188 15.7146 54.8117 15.6101 55.1165 15.5668C55.4214 15.5236 55.7318 15.5425 56.0292 15.6224C56.3265 15.7023 56.6046 15.8416 56.8467 16.0319C57.0888 16.2222 57.2898 16.4595 57.4377 16.7295L61.5896 23.9269C61.8256 24.3311 62.1638 24.6661 62.5702 24.8983C62.9766 25.1306 63.437 25.2518 63.9051 25.25Z" fill="white"/>
<path d="M56.2741 22.695C55.8853 22.0221 55.2451 21.5311 54.4943 21.33C53.7436 21.129 52.9437 21.2343 52.2705 21.6228L46.921 24.6911C46.6696 24.8421 46.4427 25.0306 46.248 25.25H57.5745C57.511 25.0027 57.4151 24.765 57.2893 24.5428L56.2741 22.695Z" fill="white"/>
</svg>
