<svg width="80" height="80" viewBox="0 0 80 80" fill="none" xmlns="http://www.w3.org/2000/svg">
<path d="M26.125 53.1922H40.875C41.9197 53.1922 42.7955 52.838 43.5022 52.1296C44.209 51.4212 44.5623 50.5433 44.5623 49.4962V38.4076C44.5623 37.3603 44.209 36.4824 43.5022 35.774C42.7955 35.0656 41.9197 34.7113 40.875 34.7113V31.015C40.875 28.9823 40.1528 27.2421 38.7087 25.7942C37.2642 24.3466 35.5281 23.6228 33.4998 23.6228C31.4719 23.6228 29.7358 24.3466 28.2913 25.7942C26.8472 27.2421 26.125 28.9823 26.125 31.015V34.7113C25.08 34.7113 24.2045 35.0656 23.4978 35.774C22.7907 36.4824 22.4374 37.3603 22.4374 38.4076V49.4962C22.4374 50.5433 22.7907 51.4212 23.4978 52.1296C24.2045 52.838 25.08 53.1922 26.125 53.1922ZM29.8126 34.7113V31.015C29.8126 29.968 30.1659 29.0901 30.8727 28.3817C31.5794 27.6733 32.4552 27.3191 33.4998 27.3191C34.5448 27.3191 35.4206 27.6733 36.1273 28.3817C36.8341 29.0901 37.1874 29.968 37.1874 31.015V34.7113H29.8126ZM33.4998 75C33.0697 75 32.6702 74.969 32.3016 74.9075C31.9328 74.846 31.5639 74.7535 31.1954 74.6303C22.8985 71.8581 16.2916 66.7298 11.375 59.245C6.45833 51.7602 4 43.7055 4 35.0811V17.6164C4 16.0764 4.4456 14.6903 5.33673 13.4582C6.22789 12.2262 7.38022 11.3329 8.79375 10.7785L30.9188 2.46201C31.7792 2.154 32.6395 2 33.4998 2C34.3605 2 35.2208 2.154 36.0812 2.46201L58.2062 10.7785C59.6196 11.3329 60.772 12.2262 61.6633 13.4582C62.5543 14.6903 63 16.0764 63 17.6164V35.0811C63 43.7055 60.5416 51.7602 55.6248 59.245C50.7083 66.7298 44.1015 71.8581 35.8046 74.6303C35.4358 74.7535 35.0672 74.846 34.6984 74.9075C34.3295 74.969 33.93 75 33.4998 75Z" fill="white"/>
</svg>
