<svg width="80" height="80" viewBox="0 0 80 80" fill="none" xmlns="http://www.w3.org/2000/svg">
<path d="M11.4448 57.9326C9.40219 58.8936 7.37672 60.0976 5.42453 61.5117C4.82656 61.945 4.07609 62.0026 3.41672 61.6661C2.74781 61.3245 2.34844 60.6712 2.34844 59.9186V30.0575C2.34844 28.5718 2.98828 27.1623 4.10406 26.19C5.62047 24.8687 8.07391 22.9537 11.1516 21.3339C11.7255 21.0318 11.9458 20.3217 11.6439 19.7476C11.3419 19.1737 10.6319 18.9531 10.058 19.2553C6.78 20.9806 4.17203 23.0158 2.56156 24.419C0.933594 25.8375 0 27.8926 0 30.0575V59.9187C0 61.5472 0.9 63.0184 2.34891 63.7583C3.78172 64.4908 5.49063 64.3643 6.80188 63.4142C8.63547 62.0859 10.5337 60.9568 12.4441 60.0584C13.0308 59.7823 13.2828 59.0828 13.0069 58.4959C12.7311 57.9086 12.0316 57.6568 11.4448 57.9326Z" fill="white"/>
<path d="M77.7483 22.1108C76.3545 21.3585 74.6642 21.433 73.3367 22.3049C70.0033 24.4946 64.3959 26.9471 56.6123 26.1944C53.4833 25.8919 50.9045 25.0706 48.5053 24.0133C51.4039 18.115 50.8198 12.7077 46.8108 8.68674L38.9269 0.779242C37.7684 -0.445133 35.5914 -0.185758 34.7445 1.27018C33.0897 3.94893 32.6887 6.77877 33.5814 9.33409C32.7698 10.1381 31.5277 11.6842 31.3316 13.7572C31.2378 14.7494 31.39 15.7319 31.7833 16.698C29.2887 16.1349 26.4595 15.7928 23.1314 15.7928C20.3048 15.7928 17.4098 16.3013 14.527 17.3042C13.9145 17.5174 13.5908 18.1867 13.8037 18.7994C14.0169 19.4121 14.6864 19.736 15.2986 19.5228C17.9328 18.6064 20.5681 18.1419 23.1314 18.1419C32.3012 18.1419 37.512 20.9386 42.5514 23.6431C46.52 25.7731 50.6237 27.9756 56.3864 28.5327C57.447 28.6352 58.4698 28.6827 59.4567 28.6827C66.3459 28.6824 71.4342 26.365 74.6259 24.2685C75.86 23.3928 77.7069 24.38 77.6531 25.8953V55.8594C77.6531 57.3361 77.0167 58.7428 75.9067 59.7188C72.9572 62.3128 66.528 66.5217 56.6123 65.5628C51.3187 65.0511 47.5995 63.055 43.6619 60.9416C38.3669 58.0997 32.8916 55.1611 23.1316 55.1611C20.7906 55.1611 18.3941 55.5108 16.0086 56.2005C15.3856 56.3806 15.0266 57.0317 15.2067 57.6549C15.3867 58.278 16.0373 58.6369 16.6608 58.4569C18.8342 57.8285 21.0111 57.5099 23.1314 57.5099C26.8525 57.5099 29.9216 57.9705 32.5919 58.6985C32.6233 59.7189 32.8708 60.5508 33.1058 61.1191C31.7653 62.7678 31.1681 64.4841 31.3298 66.2302C31.5223 68.3092 32.768 69.8597 33.5814 70.6653C32.6889 73.2205 33.0898 76.0507 34.7447 78.7292C35.5928 80.1838 37.7631 80.4464 38.9269 79.22L46.8108 71.3125C48.2614 69.8577 49.2691 68.2196 49.82 66.4292C51.7872 67.1288 53.9364 67.6636 56.3862 67.9005C57.4506 68.0033 58.4783 68.0513 59.4694 68.0513C68.5339 68.0513 74.5412 64.0469 77.4572 61.4824C79.0741 60.061 80.0014 58.0113 80.0014 55.8594V25.8952C80.0014 24.2871 79.159 22.8722 77.7483 22.1108ZM46.3831 23.0046C45.473 22.5449 44.5731 22.0624 43.6617 21.5731C41.0306 20.1611 38.3545 18.7255 35.1309 17.638C34.0537 16.4028 33.5616 15.1783 33.668 13.9949C33.8478 11.9969 35.6628 10.6181 35.6769 10.6075C36.1303 10.2749 36.2842 9.66752 36.0441 9.15893C34.822 6.57143 35.7492 4.11221 36.7422 2.50487C36.9102 2.29799 37.0642 2.2833 37.2641 2.43784L45.1481 10.3453C47.4717 12.676 49.488 16.7321 46.3831 23.0046ZM45.148 69.6544L37.2639 77.5619C37.0647 77.7166 36.91 77.7016 36.7422 77.4949C35.7491 75.8875 34.8219 73.4283 36.0439 70.8408C36.2841 70.3322 36.1301 69.7247 35.6767 69.3922C35.6584 69.3788 33.8522 68.0021 33.668 66.0139C33.5505 64.7444 34.1214 63.4282 35.365 62.1016C35.738 61.7039 35.7942 61.1111 35.4923 60.6571C35.4878 60.6502 35.2092 60.2028 35.0486 59.4769C37.8383 60.4828 40.2136 61.7567 42.5512 63.0114C44.185 63.8883 45.842 64.7772 47.628 65.5588C47.2019 67.0527 46.3714 68.4274 45.148 69.6544Z" fill="white"/>
<path d="M72.6972 53.4158C73.3456 53.4158 73.8714 52.89 73.8714 52.2414V36.1792C73.8714 35.5306 73.3456 35.0049 72.6972 35.0049C71.0964 35.0049 69.6786 33.9814 69.1689 32.4583C68.9634 31.8439 68.2995 31.5122 67.6847 31.7166C64.2425 32.862 60.5169 33.2513 56.6109 32.8738C51.3134 32.3617 47.5886 30.2525 43.6452 28.0194C38.5995 25.1622 32.8808 21.9238 23.1302 21.9238C19.2128 21.9238 15.2075 22.9406 11.2256 24.9463C10.6614 25.2305 10.4231 25.91 10.6861 26.4842C10.9111 26.9755 11.0253 27.4997 11.0253 28.0419C11.0253 30.1022 9.35547 31.7785 7.30312 31.7785C6.65469 31.7785 6.12891 32.3042 6.12891 32.9528V49.015C6.12891 49.6636 6.65453 50.1894 7.30312 50.1894C8.88937 50.1894 10.3031 51.2006 10.8211 52.7055C11.0277 53.3524 11.8241 53.6888 12.4316 53.3856C16.0306 51.6903 19.6302 50.8306 23.1302 50.8306C32.3 50.8306 37.5108 53.6272 42.55 56.3319C45.3889 57.8555 48.3244 59.431 51.8308 60.3891C52.4564 60.5602 53.102 60.1914 53.2728 59.5656C53.4438 58.9399 53.0752 58.2941 52.4497 58.1233C49.2 57.2355 46.5092 55.7913 43.6605 54.2622C38.3655 51.4203 32.8903 48.4819 23.1302 48.4819C19.6317 48.4819 16.0609 49.2544 12.4997 50.78C11.6175 49.316 10.1541 48.2866 8.47719 47.9553V34.0131C11.2645 33.4633 13.3736 30.9949 13.3736 28.042C13.3736 27.551 13.3161 27.0689 13.2017 26.6C16.5455 25.055 19.8806 24.2727 23.13 24.2727C32.262 24.2727 37.4606 27.2166 42.4881 30.0635C46.4717 32.3191 50.5908 34.6517 56.385 35.2117C60.2402 35.5844 63.9438 35.2645 67.4106 34.2611C68.2806 35.8085 69.785 36.8975 71.523 37.2395V51.1813C68.7358 51.7311 66.6266 54.1995 66.6266 57.1524C66.6266 57.4492 66.6478 57.7436 66.69 58.0342C63.6102 58.916 60.3163 59.2102 56.8828 58.9088C56.2373 58.8516 55.6672 59.3297 55.6105 59.976C55.5538 60.6221 56.0314 61.1917 56.6775 61.2486C57.6172 61.3311 58.5475 61.3724 59.4677 61.3724C62.6045 61.3724 65.6213 60.8936 68.4661 59.942C69.0786 59.7508 69.4284 59.0274 69.1977 58.4285C69.0498 58.0203 68.975 57.591 68.975 57.1525C68.975 55.092 70.6448 53.4158 72.6972 53.4158Z" fill="white"/>
<path d="M33.8438 41.6481C33.8438 46.0348 37.2678 49.6037 41.4767 49.6037C45.6856 49.6037 49.1097 46.0348 49.1097 41.6481C49.1097 37.2614 45.6856 33.6923 41.4767 33.6923C37.2678 33.6925 33.8438 37.2614 33.8438 41.6481ZM46.7613 41.6481C46.7613 44.7397 44.3906 47.2548 41.4766 47.2548C38.5627 47.2548 36.192 44.7397 36.192 41.6481C36.192 38.5565 38.5627 36.0412 41.4766 36.0412C44.3906 36.0412 46.7613 38.5565 46.7613 41.6481Z" fill="white"/>
</svg>
