<svg width="47" height="48" viewBox="0 0 47 48" fill="none" xmlns="http://www.w3.org/2000/svg">
<path d="M0 13C0 5.8203 5.8203 0 13 0H34C41.1797 0 47 5.8203 47 13V35C47 42.1797 41.1797 48 34 48H13C5.8203 48 0 42.1797 0 35V13Z" fill="#4B69B2"/>
<path fill-rule="evenodd" clip-rule="evenodd" d="M17.9774 16.5413V17.8213C17.9774 18.8919 19.093 18.217 21.0222 18.473C21.6497 18.5661 21.9054 18.5893 22.4632 18.8686C22.9978 19.1246 23.1372 19.3341 23.4162 19.7763H18.8606C17.8379 19.7763 17.9541 19.8461 17.9541 21.2658C17.9541 21.9407 18.2795 21.8476 18.9303 21.8476H23.5788C23.5788 22.0571 23.3697 22.4062 23.2767 22.5458C23.1605 22.732 22.9281 22.9647 22.7654 23.0811C21.5568 23.9887 19.953 23.8724 18.4422 23.8956C18.2563 23.8956 18.1633 23.9189 18.0703 24.0353C17.8611 24.268 17.9309 25.1989 17.9309 25.6644C17.9309 26.0368 18.0006 26.0833 18.1866 26.2695C18.2796 26.3626 18.3028 26.4092 18.3958 26.5022C18.4655 26.5721 18.5352 26.6419 18.6049 26.7117L20.7665 29.1321C20.7665 29.1321 20.8362 29.2019 20.8827 29.2485C20.9292 29.3183 20.9292 29.3183 20.9756 29.3881L23.5091 32.3671C23.6485 32.53 23.7648 32.6697 23.9042 32.8326C24.0902 33.042 24.1831 33.2515 24.3923 33.2515H26.8793C27.1349 33.2515 27.2279 33.0188 27.2279 32.786C27.2279 32.6929 26.9723 32.4137 26.9025 32.3438C26.7863 32.1809 26.6701 32.0646 26.5538 31.9249C25.8101 30.994 24.8107 29.807 24.0901 28.9692C23.5788 28.4107 22.9978 27.6659 22.4632 27.1074C22.3702 27.0143 22.3702 26.9677 22.2772 26.8979L21.5335 26.06C22.0681 26.06 22.9745 25.7808 23.3929 25.6179C24.8572 25.036 25.6939 24.1516 26.2517 22.7552C26.368 22.476 26.4144 22.1734 26.4841 21.8476H27.9949C29.0409 21.8476 28.9479 21.9174 28.9479 20.4046C28.9479 19.9392 28.8084 19.7996 28.3436 19.7996H26.4144C26.4144 19.2643 25.9496 18.4962 25.6707 18.0773H28.4366C28.7387 18.0773 28.9014 17.9144 28.9014 17.6119V16.5413C28.9014 16.262 28.7851 16.0293 28.5295 16.0293H18.2563C18.0006 16.0293 17.8844 16.3086 17.8844 16.5646M22.6724 39C25.7171 39 27.6927 38.7905 30.4121 37.4407C34.6423 35.3228 37.7103 31.2965 38.6865 26.6186C39.7556 21.4752 38.0357 16.0991 34.3634 12.4452C31.644 9.72221 27.4836 8 23.4859 8C19.8136 8 16.3504 9.34984 13.7007 11.5143C10.7024 13.9579 8.72688 17.4024 8.16905 21.289C7.2626 27.5495 10.0517 33.2282 15.3277 36.6959C17.2104 37.9294 20.1389 39 22.6724 39Z" fill="white"/>
</svg>
