<svg width="34" height="39" viewBox="0 0 34 39" fill="none" xmlns="http://www.w3.org/2000/svg">
<path d="M16.9986 10.819C13.921 10.819 11.418 13.4257 11.418 16.631C11.418 22.1523 16.5433 25.7914 16.7581 25.9437C16.8306 25.9927 16.9175 26.0191 16.9984 26.0191C17.0805 26.0191 17.1662 25.9927 17.2387 25.9437C17.4536 25.7915 22.5788 22.1526 22.5788 16.631C22.5788 13.4258 20.0759 10.819 16.9982 10.819H16.9986ZM16.9986 18.4201C15.8142 18.4201 14.8519 17.4192 14.8519 16.1844C14.8519 14.9508 15.813 13.9487 16.9986 13.9487C18.183 13.9487 19.1453 14.9496 19.1453 16.1844C19.1453 17.4179 18.1842 18.4201 16.9986 18.4201Z" fill="white"/>
<path d="M18.2875 16.1846C18.2875 17.9727 15.7109 17.9727 15.7109 16.1846C15.7109 14.3965 18.2875 14.3965 18.2875 16.1846Z" fill="white"/>
<path d="M5.83723 25.5737C4.18069 25.5737 2.83203 26.977 2.83203 28.7035C2.83203 31.5516 5.45087 33.8678 5.56192 33.966C5.6392 34.0327 5.7382 34.0691 5.8372 34.0691C5.93621 34.0691 6.03521 34.0339 6.11249 33.966C6.22357 33.8679 8.84238 31.5517 8.84238 28.7035C8.84238 26.9783 7.49498 25.5737 5.83723 25.5737ZM5.83723 33.0126C5.20214 32.3688 3.6905 30.6298 3.6905 28.702C3.6905 27.4685 4.65159 26.4663 5.83723 26.4663C7.02167 26.4663 7.98396 27.4672 7.98396 28.702C7.98396 30.6284 6.47232 32.3688 5.83723 33.0126Z" fill="white"/>
<path d="M28.1575 4.56079C26.501 4.56079 25.1523 5.9641 25.1523 7.69057C25.1523 10.5387 27.7712 12.8549 27.8822 12.9531C27.9595 13.0197 28.0585 13.0562 28.1575 13.0562C28.2565 13.0562 28.3555 13.021 28.4328 12.9531C28.5439 12.855 31.1627 10.5388 31.1627 7.69057C31.1627 5.96536 29.8153 4.56079 28.1575 4.56079ZM28.1575 11.9997C27.5225 11.3559 26.0108 9.61685 26.0108 7.68906C26.0108 6.45552 26.9719 5.45334 28.1575 5.45334C29.342 5.45334 30.3043 6.45427 30.3043 7.68906C30.3043 9.61547 28.7926 11.3559 28.1575 11.9997Z" fill="white"/>
<path d="M13.5087 25.2746C13.1863 25.3815 12.8905 25.5425 12.6201 25.7525C12.4317 25.8996 12.3931 26.1775 12.5343 26.3787C12.6201 26.4944 12.7493 26.5572 12.8821 26.5572C12.9678 26.5572 13.0583 26.5258 13.1356 26.468C13.3288 26.3158 13.5437 26.2001 13.7707 26.1284C13.9941 26.053 14.1184 25.8015 14.0496 25.5651C13.9772 25.3287 13.7321 25.1979 13.5087 25.2746Z" fill="white"/>
<path d="M12.0446 27.1293C11.8176 27.0664 11.581 27.2047 11.5206 27.4461C11.4518 27.7102 11.418 27.978 11.418 28.2559V28.4483C11.418 28.6948 11.6112 28.896 11.8478 28.896C12.0844 28.896 12.2776 28.6948 12.2776 28.4483V28.2559C12.2776 28.0598 12.303 27.8623 12.3501 27.6788C12.4104 27.4373 12.2776 27.1909 12.0458 27.1293L12.0446 27.1293Z" fill="white"/>
<path d="M10.8613 32.4407C10.6983 32.628 10.5088 32.7802 10.3035 32.9009C10.0934 33.0216 10.0161 33.2894 10.132 33.5095C10.2093 33.6566 10.3554 33.7421 10.51 33.7421C10.5788 33.7421 10.6476 33.7245 10.7164 33.6843C11.0086 33.5183 11.2706 33.3045 11.4976 33.0455C11.657 32.8619 11.6437 32.5802 11.4674 32.4155C11.296 32.2495 11.0207 32.2596 10.8625 32.4419L10.8613 32.4407Z" fill="white"/>
<path d="M8.84295 33.174H7.98451C7.74786 33.174 7.55469 33.3751 7.55469 33.6216C7.55469 33.8681 7.74787 34.0692 7.98451 34.0692H8.84295C9.07959 34.0692 9.27277 33.868 9.27277 33.6216C9.27277 33.3751 9.07959 33.174 8.84295 33.174Z" fill="white"/>
<path d="M11.8459 29.7901C11.6093 29.7901 11.4161 29.9913 11.4161 30.2377V30.9394C11.4161 30.9934 11.4161 31.0463 11.4113 31.1003C11.3944 31.3468 11.5743 31.5606 11.8109 31.5782H11.8411C12.0645 31.5782 12.2528 31.3946 12.2661 31.1619C12.2709 31.0865 12.2745 31.0148 12.2745 30.9381V30.2365C12.2745 29.99 12.0814 29.7888 11.8447 29.7888L11.8459 29.7901Z" fill="white"/>
<path d="M26.4399 12.1606H26.0101C25.8386 12.1606 25.6672 12.1782 25.4993 12.2147C25.2675 12.2638 25.1178 12.4964 25.1649 12.7378C25.2035 12.9528 25.3834 13.1 25.5815 13.1C25.6117 13.1 25.6418 13.0949 25.6672 13.0912C25.7783 13.0685 25.8942 13.0559 26.0101 13.0559H26.4399C26.6766 13.0559 26.8697 12.8548 26.8697 12.6083C26.8697 12.3618 26.6765 12.1606 26.4399 12.1606Z" fill="white"/>
<path d="M23.8673 15.7998C23.6307 15.7998 23.4375 16.001 23.4375 16.2474V17.1415C23.4375 17.3879 23.6307 17.5891 23.8673 17.5891C24.104 17.5891 24.2971 17.3879 24.2971 17.1415V16.2474C24.2971 16.001 24.104 15.7998 23.8673 15.7998Z" fill="white"/>
<path d="M21.5969 25.1263H20.7384C20.5018 25.1263 20.3086 25.3275 20.3086 25.574C20.3086 25.8204 20.5018 26.0216 20.7384 26.0216H21.5969C21.8371 26.0216 22.0267 25.8204 22.0267 25.574C22.0267 25.3275 21.8383 25.1263 21.5969 25.1263Z" fill="white"/>
<path d="M24.4382 13.2609C24.2402 13.1263 23.9746 13.1854 23.8454 13.3954C23.657 13.6997 23.5314 14.0304 23.4759 14.3875C23.4324 14.6289 23.5918 14.8616 23.8236 14.9018C23.849 14.9069 23.8755 14.9106 23.8961 14.9106C24.1025 14.9106 24.2824 14.7547 24.3211 14.5397C24.3597 14.3033 24.4418 14.0795 24.5662 13.8783C24.6954 13.6683 24.6386 13.3954 24.437 13.2609L24.4382 13.2609Z" fill="white"/>
<path d="M23.8673 18.4832C23.6307 18.4832 23.4375 18.6843 23.4375 18.9308V19.8248C23.4375 20.0713 23.6307 20.2725 23.8673 20.2725C24.104 20.2725 24.2971 20.0713 24.2971 19.8248V18.9308C24.2971 18.6843 24.104 18.4832 23.8673 18.4832Z" fill="white"/>
<path d="M23.8528 23.8612C23.6379 23.7581 23.3843 23.8562 23.2865 24.08C23.1923 24.2988 23.0547 24.4912 22.8833 24.6572C22.7118 24.8232 22.6985 25.1048 22.8579 25.2871C22.9436 25.3852 23.0595 25.4305 23.1754 25.4305C23.2781 25.4305 23.3855 25.3953 23.4676 25.3148C23.7212 25.0683 23.9228 24.7829 24.0689 24.4522C24.1679 24.2284 24.0737 23.9643 23.854 23.8625L23.8528 23.8612Z" fill="white"/>
<path d="M23.8673 21.1653C23.6307 21.1653 23.4375 21.3665 23.4375 21.6129V22.507C23.4375 22.7534 23.6307 22.9546 23.8673 22.9546C24.104 22.9546 24.2971 22.7534 24.2971 22.507V21.6129C24.2971 21.3665 24.104 21.1653 23.8673 21.1653Z" fill="white"/>
</svg>
