<svg width="47" height="48" viewBox="0 0 47 48" fill="none" xmlns="http://www.w3.org/2000/svg">
<rect width="47" height="48" rx="13" fill="#4B69B2"/>
<path d="M40.0614 33H21.3865C21.157 33 20.9368 32.913 20.7745 32.7582C20.6123 32.6034 20.521 32.3933 20.521 32.1744V15.8256C20.521 15.6067 20.6123 15.3966 20.7745 15.2418C20.9368 15.087 21.157 15 21.3865 15H40.0787C40.333 15 40.5849 15.0481 40.8196 15.1417C41.0544 15.2351 41.2671 15.3723 41.4459 15.5449C41.6227 15.7108 41.7629 15.9088 41.8579 16.1272C41.9532 16.3455 42.0014 16.5799 41.9998 16.8165V20.6808C42.0014 20.9172 41.9532 21.1518 41.8579 21.3701C41.7629 21.5885 41.6227 21.7865 41.4459 21.9523C41.2664 22.1226 41.0529 22.2573 40.8182 22.348C40.5832 22.4388 40.3319 22.4838 40.0787 22.4807H39.4902C39.0679 22.4807 38.6628 22.6408 38.3642 22.9258C38.0657 23.2106 37.8979 23.5971 37.8979 24C37.8979 24.4029 38.0657 24.7894 38.3642 25.0742C38.6628 25.3592 39.0679 25.5192 39.4902 25.5192H40.0614C40.3139 25.5092 40.5662 25.5495 40.8016 25.6375C41.0371 25.7257 41.2506 25.8599 41.4286 26.0312C41.6095 26.2017 41.7534 26.4048 41.8513 26.6288C41.9494 26.8527 41.9998 27.0931 41.9998 27.3357V31.1835C42.0036 31.4242 41.9546 31.6631 41.8563 31.8849C41.758 32.1067 41.6124 32.3065 41.4286 32.4716C41.0637 32.8127 40.5723 33.0027 40.0614 33ZM22.2519 31.3486H40.0614C40.1177 31.3651 40.178 31.3651 40.2344 31.3486V27.3852L40.0266 27.2202H39.4556C38.5743 27.2202 37.7289 26.8862 37.1059 26.2916C36.4827 25.6969 36.1325 24.8904 36.1325 24.0495C36.1325 23.2086 36.4827 22.4022 37.1059 21.8076C37.7289 21.213 38.5743 20.8788 39.4556 20.8788H40.0266L41.0997 20.7303H40.2344V16.8165L40.0266 16.6514H22.2519V31.3486ZM17.7 33H8.00766C7.49863 32.9994 7.00692 32.8235 6.62307 32.5045C6.42896 32.3376 6.27334 32.1339 6.16608 31.9065C6.05883 31.6791 6.00227 31.4328 6 31.1835V27.3357C6.00459 27.0988 6.06263 26.8655 6.17013 26.6518C6.27764 26.4381 6.43213 26.2489 6.62307 26.0973C6.99907 25.7641 7.49453 25.5808 8.00766 25.5853H8.63074C8.85954 25.6175 9.09293 25.6024 9.31501 25.5408C9.53712 25.4795 9.74271 25.3729 9.9178 25.2287C10.0929 25.0845 10.2333 24.9061 10.3296 24.7055C10.4259 24.5048 10.4758 24.2868 10.4758 24.0661C10.4758 23.8453 10.4259 23.6273 10.3296 23.4266C10.2333 23.226 10.0929 23.0476 9.9178 22.9034C9.74271 22.7592 9.53712 22.6527 9.31501 22.5913C9.09293 22.5297 8.85954 22.5146 8.63074 22.5468H8.00766C7.49183 22.5601 6.99135 22.3785 6.61529 22.0413C6.23922 21.7041 6.01807 21.2389 6 20.7469V16.8165C6.00617 16.3659 6.18608 15.9334 6.50532 15.6013C6.82458 15.2693 7.26083 15.061 7.73075 15.0166H17.7345C17.9641 15.0166 18.1842 15.1035 18.3464 15.2583C18.5088 15.4132 18.5999 15.6233 18.5999 15.8422V32.1909C18.5954 32.407 18.5021 32.6127 18.3405 32.764C18.1786 32.9154 17.961 33 17.7345 33H17.7ZM8.00766 27.1706C7.92443 27.1699 7.84401 27.1995 7.78268 27.2533V31.1835C7.88651 31.3322 7.97305 31.3486 8.0596 31.3486H16.8865V16.6514H7.90383C7.90383 16.6514 7.73075 16.7504 7.73075 16.8165V20.6808C7.73075 20.6808 7.8519 20.8293 8.00766 20.8293H8.63074C9.09563 20.784 9.56531 20.8322 10.0094 20.971C10.4535 21.1096 10.8622 21.3357 11.2091 21.6346C11.5559 21.9334 11.8331 22.2984 12.0229 22.7058C12.2127 23.1132 12.3107 23.5541 12.3107 24C12.3107 24.4459 12.2127 24.8868 12.0229 25.2942C11.8331 25.7016 11.5559 26.0667 11.2091 26.3654C10.8622 26.6642 10.4535 26.8903 10.0094 27.029C9.56531 27.1678 9.09563 27.216 8.63074 27.1706H8.00766Z" fill="white"/>
<path d="M31.0172 24.1584H34H31.0172ZM28.105 20.7547C29.0922 21.8159 29.1476 23.6016 28.2296 24.7441C28.0194 25.0138 27.7602 25.2328 27.4684 25.3876C27.1764 25.5422 26.8582 25.6293 26.534 25.6429C26.2097 25.6565 25.8864 25.5964 25.5844 25.4666C25.2825 25.337 25.0085 25.1402 24.7801 24.8891C23.7913 23.8264 23.7345 22.0407 24.6555 20.8982C24.8658 20.6291 25.125 20.4105 25.4168 20.2563C25.7086 20.1021 26.0266 20.0154 26.3507 20.0018C26.6747 19.9884 26.9977 20.0484 27.2996 20.1781C27.6012 20.3075 27.8765 20.5039 28.105 20.7547Z" fill="#4B69B2"/>
<path d="M31.0172 24.1584H34M28.2296 24.7441C29.1476 23.6016 29.0922 21.8159 28.105 20.7547C27.8765 20.5039 27.6012 20.3075 27.2996 20.1781C26.9977 20.0484 26.6747 19.9884 26.3507 20.0018C26.0266 20.0154 25.7086 20.1021 25.4168 20.2563C25.125 20.4105 24.8658 20.6291 24.6555 20.8982C23.7345 22.0407 23.7913 23.8264 24.7801 24.8891C25.0085 25.1402 25.2825 25.337 25.5844 25.4666C25.8864 25.5964 26.2097 25.6565 26.534 25.6429C26.8582 25.6293 27.1764 25.5422 27.4684 25.3876C27.7602 25.2328 28.0194 25.0138 28.2296 24.7441ZM28.2296 24.7441L31.2526 28M31.0172 20.8484H34" stroke="white" stroke-linecap="round" stroke-linejoin="round"/>
</svg>
