<svg width="28" height="35" viewBox="0 0 28 35" fill="none" xmlns="http://www.w3.org/2000/svg">
<path fill-rule="evenodd" clip-rule="evenodd" d="M1.29819 6.43027V23.8542C1.29819 25.0434 2.58272 26.3157 4.15422 26.3157H23.8731C25.4446 26.3157 26.7291 25.0434 26.7291 23.8542V6.43027C26.7291 3.22206 23.5861 0 20.3065 0H7.73451C4.45486 0 1.31186 3.22206 1.31186 6.43027M4.87848 7.16318H12.5993V14.6859H4.87848V7.16318ZM15.4417 7.16318H23.1625V14.6859H15.4417V7.16318ZM6.65495 22.4852C6.21767 22.4852 5.68472 22.2086 5.42509 21.9874C4.3182 21.0747 4.9468 18.8621 6.43631 18.8621H6.85993C8.19912 18.8621 9.14202 21.0055 7.70717 22.098C7.59785 22.181 7.52953 22.2224 7.39288 22.2916C7.22889 22.3746 6.84627 22.4852 6.65495 22.4852ZM0.0136642 34.9862H3.51196C3.56662 34.7787 4.12689 34.115 4.3182 33.8522C4.48219 33.6448 5.11079 32.8566 5.15178 32.6768H22.8619C22.9165 32.8981 23.0942 33.0502 23.2445 33.23C23.4085 33.4374 23.5178 33.5895 23.6681 33.8107C23.8321 34.032 23.9414 34.1564 24.1054 34.3777C24.2421 34.5575 24.4471 34.7787 24.5017 34.9862H28L26.4012 32.8427C26.1005 32.4694 25.8819 32.1652 25.5949 31.778C25.2943 31.3769 25.0483 31.0727 24.7613 30.6717C24.488 30.2983 24.2421 29.9941 23.9551 29.6069C23.0532 28.39 23.1762 28.3208 22.4246 28.3346C22.1103 28.3346 21.8097 28.3346 21.4954 28.3346H19.5686C19.9102 28.9846 20.5115 29.4962 20.8531 30.1462H7.13324C7.47487 29.4962 8.07614 28.9846 8.41777 28.3346H5.63006C4.74182 28.3346 5.04246 28.307 4.46852 29.0399L0.819913 33.8799C0.519278 34.2809 0.259639 34.5851 0 35L0.0136642 34.9862ZM19.5822 20.6737C19.5822 19.6918 20.3748 18.8621 21.1537 18.8621H21.5774C23.2308 18.8621 23.8594 21.5587 22.0693 22.3193C20.8668 22.8309 19.5822 21.8629 19.5822 20.6598V20.6737Z" fill="white"/>
</svg>
